<?xml version="1.0" encoding="utf-8"?>
<!-- Generator: Adobe Illustrator 16.0.0, SVG Export Plug-In . SVG Version: 6.00 Build 0)  -->
<!DOCTYPE svg PUBLIC "-//W3C//DTD SVG 1.1//EN" "http://www.w3.org/Graphics/SVG/1.1/DTD/svg11.dtd">
<svg version="1.1" xmlns="http://www.w3.org/2000/svg" xmlns:xlink="http://www.w3.org/1999/xlink" x="0px" y="0px" width="160px"
     height="160px" viewBox="0 0 160 160" enable-background="new 0 0 160 160" xml:space="preserve">

<g id="Layer_1">
	<g>
		<g>
			<line  stroke-width="3.7514" stroke-miterlimit="10" x1="87.5" y1="51.8" x2="72.5" y2="51.8"/>
			<g>
				<path  stroke-width="3.7514" stroke-miterlimit="10" d="M112.9,118.5c0,0.5-0.4,0.9-0.9,0.9H48
					c-0.5,0-0.9-0.4-0.9-0.9V41.5c0-0.5,0.4-0.9,0.9-0.9h64c0.5,0,0.9,0.4,0.9,0.9V118.5z"/>
			</g>
			<path  stroke-width="3.7514" stroke-miterlimit="10" d="M98.1,95.5c-3.9,5.9-10.5,9.8-18.1,9.8
				c-11.9,0-21.6-9.7-21.6-21.6c0-11.9,9.7-21.6,21.6-21.6c7.2,0,13.5,3.5,17.5,8.9"/>
			<g>
				<path  stroke-width="3.7514" stroke-miterlimit="10" d="M80,78.8c1.7-1.8,3.6-2.6,5.6-2.6
					c1.6,0,3.2,0.2,5.6,1.7c2.4,1.5,4,1.7,5.6,1.7c2,0,3.9-0.7,5.6-2.5"/>
			</g>
			<g>
				<path  stroke-width="3.7514" stroke-miterlimit="10" d="M80,87.6c1.7-1.8,3.6-2.6,5.6-2.6
					c1.6,0,3.2,0.2,5.6,1.7c2.4,1.5,4,1.7,5.6,1.7c2,0,3.9-0.7,5.6-2.6"/>
			</g>
		</g>
	</g>
</g>
</svg>
