<?xml version="1.0" encoding="utf-8"?>
<!-- Generator: Adobe Illustrator 16.0.0, SVG Export Plug-In . SVG Version: 6.00 Build 0)  -->
<!DOCTYPE svg PUBLIC "-//W3C//DTD SVG 1.1//EN" "http://www.w3.org/Graphics/SVG/1.1/DTD/svg11.dtd">
<svg version="1.1" id="Layer_1" xmlns="http://www.w3.org/2000/svg" xmlns:xlink="http://www.w3.org/1999/xlink" x="0px" y="0px"
	 width="160px" height="160px" viewBox="0 0 160 160" enable-background="new 0 0 160 160" xml:space="preserve">
<g>
	<path d="M81.792,118.501c-1.106,0-2.214-0.038-3.276-0.115c-2.827-0.215-5.98-0.77-8.66-1.521
		c-2.727-0.752-5.757-1.924-8.305-3.213c-2.596-1.312-5.368-3.068-7.604-4.821c-2.286-1.79-4.692-4.09-6.599-6.31
		c-1.899-2.207-3.832-4.963-5.301-7.562c-1.467-2.619-2.827-5.745-3.737-8.585c-0.933-2.848-1.666-6.223-2.008-9.244
		c-0.347-3.053-0.396-6.544-0.136-9.579c0.259-3.056,0.911-6.533,1.787-9.538l4.8,1.399c-0.787,2.7-1.372,5.821-1.605,8.563
		c-0.234,2.721-0.189,5.851,0.123,8.591c0.305,2.7,0.96,5.712,1.796,8.266c0.817,2.552,2.032,5.343,3.337,7.675
		c1.31,2.316,3.038,4.78,4.734,6.752c1.704,1.983,3.851,4.035,5.892,5.633c1.991,1.562,4.46,3.127,6.776,4.297
		c2.265,1.146,4.957,2.188,7.388,2.856c2.388,0.67,5.188,1.161,7.691,1.353c2.523,0.183,5.321,0.119,7.674-0.176
		c2.365-0.281,5.057-0.875,7.397-1.634c2.231-0.728,4.705-1.813,6.785-2.981c2.003-1.127,4.231-2.686,5.962-4.166
		c1.746-1.504,3.544-3.383,4.929-5.156c1.347-1.725,2.743-3.934,3.737-5.91c0.984-1.963,1.883-4.3,2.462-6.411
		c0.556-2.042,0.968-4.517,1.103-6.614c0.14-2.085,0.062-4.493-0.216-6.613c-0.276-2.002-0.842-4.361-1.507-6.291
		c-0.676-1.93-1.648-4.034-2.667-5.761c-1.045-1.761-2.392-3.595-3.69-5.027c-1.305-1.46-2.955-2.972-4.541-4.161
		c-1.516-1.125-3.446-2.287-5.158-3.101c-1.686-0.803-3.713-1.533-5.564-2.002c-1.773-0.448-3.914-0.77-5.723-0.86
		c-1.79-0.093-3.903,0.013-5.667,0.276c-1.729,0.254-3.737,0.754-5.377,1.338c-1.614,0.569-3.434,1.427-4.878,2.299
		c-1.458,0.873-2.996,2.019-4.229,3.15c-1.225,1.109-2.501,2.524-3.426,3.796c-0.941,1.272-1.889,2.877-2.548,4.312
		c-0.643,1.384-1.236,3.097-1.591,4.593c-0.352,1.496-0.58,3.204-0.625,4.68c-0.045,1.453,0.074,3.169,0.319,4.593
		c0.247,1.434,0.683,3.005,1.198,4.311c0.503,1.295,1.228,2.714,1.991,3.903c0.696,1.091,1.684,2.332,2.646,3.324
		c0.935,0.949,2.093,1.922,3.166,2.654c1.073,0.723,2.397,1.442,3.527,1.918c1.145,0.481,2.537,0.912,3.729,1.154
		c1.158,0.241,2.558,0.385,3.761,0.385c1.193,0,2.517-0.132,3.633-0.359c1.113-0.217,2.365-0.601,3.373-1.03
		c1.004-0.416,2.12-1.021,3.009-1.624c0.843-0.572,1.776-1.355,2.499-2.094c0.686-0.713,1.413-1.631,1.932-2.443
		c0.534-0.85,1.031-1.832,1.355-2.682c0.313-0.834,0.591-1.873,0.738-2.773c0.139-0.862,0.197-1.884,0.156-2.722
		c-0.043-0.84-0.186-1.787-0.392-2.589c-0.202-0.779-0.524-1.644-0.864-2.307c-0.345-0.707-0.813-1.452-1.275-2.042
		c-0.442-0.555-1.043-1.175-1.592-1.641c-0.506-0.419-1.172-0.867-1.754-1.175c-0.582-0.308-1.281-0.593-1.865-0.76
		c-0.602-0.172-1.316-0.304-1.873-0.345c-0.573-0.043-1.24-0.024-1.784,0.051l-0.685-4.953c0.889-0.123,1.922-0.153,2.84-0.083
		c0.896,0.065,1.947,0.257,2.877,0.524c0.924,0.263,1.932,0.672,2.834,1.149c0.877,0.466,1.834,1.108,2.623,1.762
		c0.815,0.693,1.645,1.548,2.3,2.367c0.692,0.883,1.354,1.939,1.829,2.915c0.486,0.952,0.934,2.137,1.231,3.29
		c0.291,1.135,0.483,2.408,0.544,3.591c0.057,1.185-0.021,2.556-0.215,3.769c-0.203,1.233-0.566,2.596-0.999,3.744
		c-0.446,1.172-1.087,2.441-1.808,3.586c-0.706,1.105-1.639,2.285-2.567,3.25c-0.97,0.99-2.157,1.986-3.276,2.746
		c-1.17,0.797-2.584,1.561-3.879,2.098c-1.311,0.561-2.898,1.047-4.334,1.326c-1.406,0.287-3.098,0.455-4.611,0.455
		c-1.549,0-3.287-0.177-4.769-0.486c-1.506-0.305-3.21-0.832-4.66-1.442c-1.431-0.601-3.033-1.472-4.396-2.388
		c-1.344-0.918-2.773-2.118-3.938-3.303c-1.212-1.25-2.403-2.748-3.279-4.121c-0.932-1.451-1.821-3.194-2.436-4.775
		c-0.631-1.598-1.168-3.529-1.47-5.286c-0.303-1.762-0.445-3.801-0.389-5.594c0.054-1.794,0.33-3.864,0.756-5.676
		c0.436-1.836,1.134-3.854,1.918-5.542c0.802-1.744,1.917-3.632,3.055-5.17c1.119-1.541,2.615-3.2,4.09-4.536
		c1.459-1.338,3.294-2.705,5.021-3.739c1.736-1.048,3.847-2.044,5.783-2.726c1.951-0.696,4.256-1.27,6.315-1.572
		c2.097-0.313,4.521-0.433,6.651-0.324c2.148,0.108,4.591,0.475,6.697,1.007c2.155,0.546,4.521,1.397,6.488,2.335
		c2.016,0.959,4.201,2.274,5.998,3.607c1.85,1.387,3.766,3.143,5.268,4.824c1.502,1.656,3.065,3.785,4.277,5.828
		c1.182,2.003,2.305,4.43,3.086,6.666c0.78,2.262,1.414,4.906,1.74,7.266c0.319,2.451,0.408,5.216,0.248,7.605
		c-0.156,2.442-0.618,5.217-1.268,7.606c-0.664,2.42-1.69,5.092-2.817,7.337c-1.149,2.288-2.704,4.745-4.265,6.742
		c-1.578,2.021-3.625,4.162-5.613,5.873c-1.996,1.711-4.461,3.434-6.768,4.73c-2.354,1.323-5.158,2.555-7.691,3.379
		c-2.643,0.856-5.68,1.526-8.338,1.842C85.506,118.395,83.646,118.501,81.792,118.501z"/>
</g>
</svg>
