<?xml version="1.0" encoding="utf-8"?>
<!-- Generator: Adobe Illustrator 16.0.0, SVG Export Plug-In . SVG Version: 6.00 Build 0)  -->
<!DOCTYPE svg PUBLIC "-//W3C//DTD SVG 1.1//EN" "http://www.w3.org/Graphics/SVG/1.1/DTD/svg11.dtd">
<svg version="1.1" id="Layer_1" xmlns="http://www.w3.org/2000/svg" xmlns:xlink="http://www.w3.org/1999/xlink" x="0px" y="0px"
	 width="160px" height="160px" viewBox="0 0 160 160" enable-background="new 0 0 160 160" xml:space="preserve">
<g>
	<g>
		<path d="M103.622,126.998c-8.825,0-16.004-6.975-16.004-15.547c0-2.254,0.489-4.432,1.454-6.475
			c0.064-0.138,0.141-0.267,0.228-0.386l12.177-20.377c0.451-0.754,1.267-1.217,2.146-1.217l0,0c0.88,0,1.693,0.463,2.146,1.217
			l12.198,20.418c0.074,0.107,0.142,0.224,0.199,0.345c0.963,2.039,1.452,4.217,1.452,6.475
			C119.618,120.023,112.441,126.998,103.622,126.998z M93.514,107.287c-0.594,1.318-0.896,2.719-0.896,4.164
			c0,5.814,4.937,10.547,11.004,10.547c6.063,0,10.996-4.732,10.996-10.547c0-1.459-0.306-2.867-0.905-4.191l-10.091-16.889
			L93.514,107.287z"/>
	</g>
	<g>
		<g>
			<defs>
				<polygon id="SVGID_1_" points="125.832,83.4 114.582,83.4 83.398,83.4 82.398,83.4 82.398,88.666 82.398,128 32.001,128 
					32.001,32 127.998,32 127.998,83.334 				"/>
			</defs>
			<clipPath id="SVGID_2_">
				<use xlink:href="#SVGID_1_"  overflow="visible"/>
			</clipPath>
			<g clip-path="url(#SVGID_2_)">
				<path d="M79.597,74.591c-8.75,0-15.868-5.99-15.868-13.354h5c0,4.606,4.875,8.354,10.868,8.354
					c5.999,0,10.877-3.747,10.877-8.354h5C95.477,68.601,88.354,74.591,79.597,74.591z"/>
				<path d="M95.783,127.498H56.728c-1.381,0-2.5-1.119-2.5-2.5V86.553h5v35.945h36.556L95.783,127.498L95.783,127.498z"/>
				<path d="M119.579,86.553h-5v-8.695c0-1.332-0.696-2.53-1.862-3.205c-0.123-0.071-0.238-0.152-0.346-0.24L91.264,61.701
					c-0.027-0.017-0.057-0.035-0.084-0.054L74.316,50.54c-2.223-1.562-3.663-3.835-4.116-6.442c-0.453-2.604,0.132-5.228,1.649-7.39
					c1.52-2.165,3.791-3.607,6.396-4.061c2.593-0.457,5.215,0.128,7.375,1.645c2.166,1.521,3.606,3.795,4.062,6.405l-4.926,0.856
					c-0.227-1.292-0.938-2.418-2.009-3.17c-1.065-0.748-2.357-1.036-3.641-0.811c-1.292,0.225-2.415,0.937-3.166,2.007
					c-0.751,1.07-1.041,2.37-0.816,3.66c0.225,1.292,0.937,2.417,2.003,3.167l16.758,11.037l21.426,12.902
					c0.119,0.072,0.232,0.153,0.336,0.242c2.438,1.604,3.932,4.345,3.932,7.269L119.579,86.553L119.579,86.553z"/>
				<path d="M56.728,101.063h-14.57c-1.381,0-2.5-1.119-2.5-2.5c0-0.059,0.002-0.117,0.006-0.174l0.012-20.532
					c0-3.092,1.671-5.979,4.36-7.533l21.431-12.905l12.273-8.052l2.742,4.181L68.127,61.65l-21.55,12.98
					c-1.205,0.697-1.901,1.895-1.901,3.228l-0.01,18.205h12.062V101.063z"/>
			</g>
		</g>
	</g>
</g>
</svg>
