<?xml version="1.0" encoding="utf-8"?>
<!-- Generator: Adobe Illustrator 16.0.0, SVG Export Plug-In . SVG Version: 6.00 Build 0)  -->
<!DOCTYPE svg PUBLIC "-//W3C//DTD SVG 1.1//EN" "http://www.w3.org/Graphics/SVG/1.1/DTD/svg11.dtd">
<svg version="1.1" id="Layer_1" xmlns="http://www.w3.org/2000/svg" xmlns:xlink="http://www.w3.org/1999/xlink" x="0px" y="0px"
	 width="156px" height="156px" viewBox="0 0 156 156" enable-background="new 0 0 156 156" xml:space="preserve">
<path d="M126.775,64.39c0-0.157-0.021-0.31-0.047-0.459c-0.139-3.247-1.74-6.255-4.373-8.166c-0.006-0.005-0.01-0.011-0.017-0.016
	l-15.524-12.8c-0.088-0.072-0.184-0.126-0.275-0.185c-1.857-1.627-4.206-2.571-6.686-2.654c-0.059-0.002-0.11,0.01-0.168,0.012
	h-2.85v-8.323c0-0.02,0.006-0.038,0.006-0.058c0-1.381-1.117-2.5-2.5-2.5H78.006H78H61.656c-1.381,0-2.5,1.119-2.5,2.5
	c0,0.02,0.005,0.039,0.006,0.058v8.323h-2.807c-0.07-0.003-0.138-0.015-0.209-0.012c-2.478,0.083-4.826,1.026-6.684,2.653
	c-0.094,0.059-0.189,0.113-0.277,0.186l-15.525,12.8c-0.005,0.004-0.009,0.01-0.014,0.014c-2.638,1.914-4.241,4.927-4.375,8.18
	c-0.026,0.146-0.045,0.294-0.045,0.447l-0.006,54.426c0,1.382,1.119,2.5,2.5,2.5c0.005,0,0.01-0.002,0.016-0.002
	c0.006,0,0.01,0.002,0.016,0.002h16.544v2.942c0,1.382,1.119,2.5,2.5,2.5H78h0.006h27.207c1.381,0,2.5-1.118,2.5-2.5v-2.942h16.537
	c0.006,0,0.01-0.002,0.016-0.002s0.01,0.002,0.018,0.002c1.381,0,2.5-1.118,2.5-2.5L126.775,64.39z M75.5,121.76H53.294v-16.719
	h8.378c1.381,0,2.5-1.119,2.5-2.5s-1.119-2.5-2.5-2.5h-8.378V88.709h8.378c1.381,0,2.5-1.119,2.5-2.5s-1.119-2.5-2.5-2.5h-8.378
	V72.583c0-1.381-1.119-2.5-2.5-2.5s-2.5,1.119-2.5,2.5v43.733H34.219l0.006-51.75c0.005-0.063,0.019-0.124,0.019-0.189
	c0-1.858,0.91-3.596,2.434-4.65c0.021-0.015,0.037-0.034,0.057-0.049c0.035-0.025,0.072-0.044,0.105-0.072l15.17-12.508
	c0.181-0.104,0.356-0.222,0.513-0.375c0.997-0.971,2.304-1.533,3.688-1.604c0.006,0,0.012,0.002,0.018,0.002h5.427
	c1.038,0,1.927-0.632,2.305-1.532c0.129-0.301,0.201-0.633,0.201-0.981V34.24H75.5V121.76z M107.713,116.316V72.583
	c0-1.381-1.119-2.5-2.5-2.5s-2.5,1.119-2.5,2.5v11.126h-8.385c-1.381,0-2.5,1.119-2.5,2.5s1.119,2.5,2.5,2.5h8.385v11.332h-8.385
	c-1.381,0-2.5,1.119-2.5,2.5s1.119,2.5,2.5,2.5h8.385v16.719H80.5V34.24h11.338v8.368c0,0.348,0.072,0.68,0.2,0.981
	c0.379,0.9,1.269,1.532,2.306,1.532h5.428c0.006,0,0.014-0.002,0.021-0.002c1.383,0.071,2.688,0.633,3.687,1.604
	c0.155,0.152,0.332,0.271,0.514,0.374l15.171,12.508c0.034,0.028,0.071,0.048,0.106,0.074c0.021,0.014,0.035,0.033,0.057,0.047
	c1.523,1.054,2.434,2.792,2.434,4.65c0,0.066,0.016,0.129,0.02,0.194l0.008,51.747H107.713L107.713,116.316z"/>
</svg>
