<?xml version="1.0" encoding="utf-8"?>
<!-- Generator: Adobe Illustrator 16.0.3, SVG Export Plug-In . SVG Version: 6.00 Build 0)  -->
<!DOCTYPE svg PUBLIC "-//W3C//DTD SVG 1.1//EN" "http://www.w3.org/Graphics/SVG/1.1/DTD/svg11.dtd">
<svg version="1.1" id="Layer_1" xmlns="http://www.w3.org/2000/svg" xmlns:xlink="http://www.w3.org/1999/xlink" x="0px" y="0px"
	 width="156px" height="156px" viewBox="0 0 156 156" enable-background="new 0 0 156 156" xml:space="preserve">
<g>
	<g>
		<path d="M99.995,92.5c-1.409,0-2.495,1.593-2.495,3v7h-8c-1.408,0-2.985,1.077-2.985,2.484s1.577,2.516,2.985,2.516h10
			c1.408,0,3-1.593,3-3v-9C102.5,94.093,101.403,92.5,99.995,92.5z M99.5,79.5c-14.078,0-25,11.936-25,26s10.922,25,25,25
			c14.07,0,26-10.936,26-25S113.57,79.5,99.5,79.5z M99.5,125.5c-11.264,0-20-8.748-20-20s8.736-21,20-21c11.258,0,21,9.748,21,21
			S110.758,125.5,99.5,125.5z M37.88,72.068c0.008-0.005,0.015-0.011,0.024-0.017c0.007-0.003,0.014-0.004,0.021-0.009l18.57-11.255
			C58.068,67.172,65.479,71.5,73.5,71.5c8.05,0,14.086-4.357,15.632-10.771l18.39,11.147c0.086,0.066,0.17,0.135,0.267,0.191
			c1.241,0.721,1.712,2.001,1.712,3.433c0,1.407,1.113,2.937,2.521,2.937s2.479-1.529,2.479-2.937c0-3.031-1.136-5.801-3.627-7.489
			c-0.129-0.122-0.271-0.231-0.428-0.327L87.85,53.988L69.729,42.25c-1.14-0.814-1.902-2.025-2.143-3.415
			c-0.499-2.889,1.417-5.812,4.273-6.313c1.363-0.239,3.36,0.066,4.499,0.866c1.161,0.814,1.935,2.202,2.178,3.607
			c0.239,1.388,1.354,2.66,2.741,2.408c1.389-0.239,2.567-1.765,2.203-3.275c-0.652-2.716-2.117-5.19-4.396-6.789
			c-2.26-1.586-5.003-2.187-7.697-1.715c-5.617,0.984-9.724,6.424-8.746,12.079c0.474,2.734,2.307,5.12,4.564,6.717
			c0.007,0.006,0.016,0.006,0.023,0.012c0.015,0.011,0.026,0.023,0.041,0.034L68.5,47.5l-10.577,6.458L35.279,67.684
			c-0.019,0.012-0.032,0.026-0.051,0.038c-2.75,1.639-4.727,4.572-4.728,7.778v22c0,1.407,1.592,3,3,3h13v25c0,1.407,1.592,3,3,3h16
			c1.408,0,3.013-1.213,3.013-2.62s-1.605-2.38-3.013-2.38h-14v-38c0-1.407-1.128-3-2.536-3s-2.464,1.593-2.464,3v10h-11v-20
			C35.5,75.5,35.927,73.479,37.88,72.068z M61.494,57.449L73.5,50.5l11,7c-0.001,0.04,0.03,0.009,0.03,0.049
			c0,4.944-4.654,8.951-11.03,8.951c-6.371,0-12.046-4.049-12.046-8.993C61.454,57.507,61.741,56.96,61.494,57.449z"/>
	</g>
</g>
</svg>
