<?xml version="1.0" encoding="utf-8"?>
<!-- Generator: Adobe Illustrator 16.0.0, SVG Export Plug-In . SVG Version: 6.00 Build 0)  -->
<!DOCTYPE svg PUBLIC "-//W3C//DTD SVG 1.1//EN" "http://www.w3.org/Graphics/SVG/1.1/DTD/svg11.dtd">
<svg version="1.1" id="Layer_1" xmlns="http://www.w3.org/2000/svg" xmlns:xlink="http://www.w3.org/1999/xlink" x="0px" y="0px"
	 width="160px" height="160px" viewBox="0 0 160 160" enable-background="new 0 0 160 160" xml:space="preserve">
<g>
	<g>
		<g>
			<path d="M106.527,121.5H53.412c-1.381,0-2.5-1.119-2.5-2.5V66.266h5V116.5h48.115V66.266h5V119
				C109.027,120.381,107.908,121.5,106.527,121.5z"/>
		</g>
		<g>
			<path d="M123.5,83.497h-16.918v-5h14.417l-0.011-17.981c0-1.723-0.912-3.324-2.381-4.184l2.529-4.313
				c2.992,1.754,4.852,5.007,4.852,8.49L126,80.996c0,0.663-0.264,1.3-0.73,1.77C124.8,83.232,124.163,83.497,123.5,83.497z"/>
		</g>
		<g>
			<path d="M53.417,83.5H36.5c-0.663,0-1.299-0.264-1.769-0.732C34.263,82.298,34,81.662,34,80.999l0.008-20.485l5,0.002
				L39.001,78.5h14.416V83.5z"/>
		</g>
		<g>
			<path d="M39.008,60.508h-5c0-3.48,1.859-6.733,4.852-8.489l2.531,4.313C39.921,57.194,39.008,58.794,39.008,60.508z"/>
		</g>
		<g>
			<path d="M41.475,56.28l-2.699-4.209l20.547-13.175c0.403-0.258,0.871-0.396,1.35-0.396h7.215c1.381,0,2.5,1.119,2.5,2.5
				c0,0.073-0.003,0.146-0.01,0.218c0.115,5.268,4.383,9.517,9.612,9.517c5.221,0,9.482-4.231,9.615-9.483
				c-0.01-0.083-0.014-0.167-0.014-0.251c0-1.381,1.119-2.5,2.5-2.5h7.236c0.479,0,0.947,0.137,1.35,0.396l20.545,13.175
				l-2.699,4.209L98.596,43.5h-4.199c-1.181,6.938-7.191,12.234-14.406,12.234c-7.213,0-13.223-5.296-14.404-12.234h-4.181
				L41.475,56.28z"/>
		</g>
	</g>
	<g>
		<g>
			<path d="M88.857,71.818v4.063l-10.938,24.61l-4.375-1.798L84.014,75.88H71.007v-4.063L88.857,71.818L88.857,71.818z"/>
			<path d="M78.051,100.814l-4.841-1.988l10.415-22.695H70.757v-4.563h18.353l-0.021,4.414L78.051,100.814z M73.882,98.561
				l3.909,1.606l10.816-24.34v-3.759H71.257v3.563h13.147l-0.162,0.354L73.882,98.561z"/>
		</g>
	</g>
</g>
</svg>
