<?xml version="1.0" encoding="utf-8"?>
<!-- Generator: Adobe Illustrator 16.0.0, SVG Export Plug-In . SVG Version: 6.00 Build 0)  -->
<!DOCTYPE svg PUBLIC "-//W3C//DTD SVG 1.1//EN" "http://www.w3.org/Graphics/SVG/1.1/DTD/svg11.dtd">
<svg version="1.1" id="Layer_1" xmlns="http://www.w3.org/2000/svg" xmlns:xlink="http://www.w3.org/1999/xlink" x="0px" y="0px"
	 width="160px" height="160px" viewBox="0 0 160 160" enable-background="new 0 0 160 160" xml:space="preserve">
<g>
	<g>
		<path d="M122.75,123.25H97.668c-1.381,0-2.5-1.119-2.5-2.5s1.119-2.5,2.5-2.5h22.402l-3.879-55.916H70.756l-3.875,55.916h22.355
			c1.381,0,2.5,1.119,2.5,2.5s-1.119,2.5-2.5,2.5H64.202c-0.693,0-1.355-0.288-1.828-0.795c-0.473-0.506-0.714-1.188-0.667-1.878
			l4.221-60.916c0.091-1.311,1.181-2.327,2.494-2.327h50.102c1.313,0,2.403,1.017,2.494,2.327l4.227,60.916
			c0.049,0.69-0.193,1.371-0.666,1.878S123.443,123.25,122.75,123.25z"/>
		<path stroke="#231F20" stroke-width="5" stroke-linecap="round" stroke-linejoin="round" stroke-miterlimit="10" d="
			M93.467,85.162"/>
		<path d="M89.25,123.177c-0.088,0-0.176-0.004-0.266-0.014c-1.373-0.146-2.369-1.375-2.226-2.748l4.062-38.618
			c0.145-1.373,1.373-2.366,2.748-2.226c1.373,0.145,2.369,1.375,2.225,2.748l-4.061,38.619
			C91.598,122.223,90.514,123.177,89.25,123.177z"/>
		<path d="M97.666,123.177c-1.256,0-2.338-0.942-2.482-2.22l-4.397-38.982c-0.154-1.373,0.832-2.61,2.205-2.766
			c1.366-0.149,2.608,0.832,2.764,2.204l4.397,38.983c0.154,1.371-0.832,2.608-2.202,2.765
			C97.854,123.172,97.76,123.177,97.666,123.177z"/>
		<path d="M74.218,112.021l-3.987-0.328l0.491-5.98l3.987,0.328L74.218,112.021z M75.201,100.061l-3.987-0.328l0.491-5.979
			l3.987,0.327L75.201,100.061z M76.183,88.102l-3.987-0.328l0.491-5.979l3.987,0.328L76.183,88.102z M77.166,76.141l-3.987-0.327
			l0.492-5.98l3.986,0.327L77.166,76.141z"/>
		<path d="M112.627,112.021l-0.492-5.98l3.986-0.328l0.492,5.98L112.627,112.021z M111.645,100.061l-0.492-5.979l3.986-0.327
			l0.492,5.979L111.645,100.061z M110.662,88.102l-0.49-5.979l3.986-0.328l0.49,5.979L110.662,88.102z M109.68,76.141l-0.49-5.98
			l3.986-0.327l0.49,5.98L109.68,76.141z"/>
		<g>
			<g>
				<polyline points="48.83,60.019 48.83,97.105 62.893,97.105 65.84,97.105 68.131,65.429 				"/>
				<path d="M65.84,98.105H48.83c-0.552,0-1-0.446-1-1V60.019c0-0.552,0.448-1,1-1c0.552,0,1,0.448,1,1v36.088h15.08l2.224-30.75
					c0.04-0.551,0.526-0.954,1.069-0.925c0.551,0.04,0.965,0.519,0.925,1.07L66.837,97.18C66.8,97.702,66.364,98.105,65.84,98.105z"
					/>
			</g>
			<path stroke="#010101" stroke-width="2" stroke-linecap="round" stroke-linejoin="round" stroke-miterlimit="10" d="
				M89.924,60.019"/>
			<path stroke="#010101" stroke-width="2" stroke-linecap="round" stroke-linejoin="round" stroke-miterlimit="10" d="
				M103.055,58.381"/>
			<g>
				<path d="M48.835,73.028H35.75l0.002-20.431c0-2.062,1.131-3.856,2.805-4.82l15.89-10.027h5.582H60.02
					c0,5.139,4.202,9.31,9.374,9.31c5.181,0,9.376-4.171,9.376-9.31h-0.014h5.598l15.896,10.027c1.67,0.964,2.799,2.758,2.799,4.82
					l0.007,7.421l-34.633-0.185l-0.542,7.782"/>
				<path d="M48.835,74.028H35.75c-0.265,0-0.52-0.105-0.707-0.293s-0.293-0.442-0.293-0.707l0.002-20.431
					c0-2.333,1.267-4.512,3.305-5.687l15.856-10.006c0.16-0.101,0.345-0.154,0.534-0.154h5.582c0.552,0,1,0.448,1,1
					c0,0.042-0.002,0.084-0.008,0.126c0.068,4.524,3.798,8.184,8.373,8.184c4.566,0,8.291-3.643,8.375-8.153
					c-0.008-0.051-0.012-0.104-0.012-0.157c0-0.552,0.447-1,1-1h5.597c0.189,0,0.375,0.053,0.533,0.154l15.896,10.027
					c2.002,1.155,3.266,3.333,3.266,5.666l0.006,7.42c0,0.267-0.104,0.522-0.295,0.709c-0.188,0.187-0.439,0.292-0.705,0.292
					c-0.002,0-0.004,0-0.004,0l-33.695-0.18l-0.477,6.847c-0.039,0.551-0.523,0.959-1.067,0.928
					c-0.551-0.039-0.967-0.516-0.929-1.067l0.542-7.782c0.037-0.524,0.473-0.931,0.998-0.931c0.002,0,0.004,0,0.005,0l33.627,0.179
					l-0.006-6.415c0-1.621-0.881-3.136-2.299-3.955L84.064,38.75h-4.343c-0.507,5.218-4.945,9.31-10.328,9.31
					c-5.381,0-9.817-4.092-10.325-9.31h-4.332L39.09,48.623c-1.456,0.84-2.338,2.355-2.338,3.975l-0.002,19.43h12.086
					c0.552,0,1,0.448,1,1C49.836,73.58,49.388,74.028,48.835,74.028z"/>
			</g>
		</g>
	</g>
</g>
</svg>
