<?xml version="1.0" encoding="utf-8"?>
<!-- Generator: Adobe Illustrator 16.0.0, SVG Export Plug-In . SVG Version: 6.00 Build 0)  -->
<!DOCTYPE svg PUBLIC "-//W3C//DTD SVG 1.1//EN" "http://www.w3.org/Graphics/SVG/1.1/DTD/svg11.dtd">
<svg version="1.1" id="Layer_1" xmlns="http://www.w3.org/2000/svg" xmlns:xlink="http://www.w3.org/1999/xlink" x="0px" y="0px"
	 width="160px" height="160px" viewBox="0 0 160 160" enable-background="new 0 0 160 160" xml:space="preserve">
<g>
	<g>
		<rect x="40.583" y="57.834" width="77.174" height="5"/>
	</g>
	<g>
		<g>
			<path d="M105.313,119.354c-10.485,0-19.018-8.524-19.018-19.002c0-10.477,8.531-19,19.018-19c10.502,0,19.045,8.523,19.045,19
				C124.357,110.829,115.814,119.354,105.313,119.354z M105.313,86.352c-7.729,0-14.018,6.28-14.018,14c0,7.719,6.288,14,14.018,14
				c7.744,0,14.045-6.281,14.045-14C119.357,92.632,113.059,86.352,105.313,86.352z"/>
		</g>
		<g>
			<path d="M97.641,102.846c-1.381,0-2.5-1.119-2.5-2.5c0-5.656,4.566-10.26,10.18-10.26c1.381,0,2.5,1.119,2.5,2.5
				s-1.119,2.5-2.5,2.5c-2.855,0-5.18,2.359-5.18,5.26C100.141,101.727,99.021,102.846,97.641,102.846z"/>
		</g>
	</g>
	<g>
		<g>
			<g>
				<g>
					<g>
						
							<rect x="116.776" y="43.331" transform="matrix(-0.9786 -0.2058 0.2058 -0.9786 223.8513 141.3093)" width="5.001" height="31.36"/>
					</g>
				</g>
				<g>
					<g>
						<path d="M78.45,109.506H51.814c-1.727,0-3.297-1.273-3.652-2.963L35.053,44.176l4.893-1.028l12.897,61.358H78.45V109.506z"/>
					</g>
				</g>
			</g>
		</g>
	</g>
</g>
</svg>
