<?xml version="1.0" encoding="utf-8"?>
<!-- Generator: Adobe Illustrator 16.0.0, SVG Export Plug-In . SVG Version: 6.00 Build 0)  -->
<!DOCTYPE svg PUBLIC "-//W3C//DTD SVG 1.1//EN" "http://www.w3.org/Graphics/SVG/1.1/DTD/svg11.dtd">
<svg version="1.1" id="Layer_1" xmlns="http://www.w3.org/2000/svg" xmlns:xlink="http://www.w3.org/1999/xlink" x="0px" y="0px"
	 width="160px" height="160px" viewBox="0 0 160 160" enable-background="new 0 0 160 160" xml:space="preserve">
<g>
	<g>
		<g>
			<path d="M106.225,121H53.717c-1.381,0-2.5-1.119-2.5-2.5V65.394h5V116h47.508V65.394h5V118.5
				C108.725,119.881,107.604,121,106.225,121z"/>
			<path d="M123,82.854h-16.723v-5h14.222l-0.009-17.084c0-1.688-0.895-3.257-2.336-4.101L98.375,44h-4.118
				c-1.182,6.851-7.13,12.077-14.269,12.077c-7.134,0-13.08-5.226-14.26-12.077h-4.103L41.931,56.616
				c-1.525,0.896-2.42,2.464-2.42,4.146l-0.01,17.091h14.223v5H37c-0.663,0-1.299-0.265-1.768-0.732
				c-0.469-0.471-0.732-1.105-0.732-1.769l0.012-19.585c0-3.454,1.842-6.676,4.808-8.412l20.225-12.959
				C59.947,39.137,60.415,39,60.893,39h7.122c1.381,0,2.5,1.119,2.5,2.5c0,5.281,4.249,9.577,9.473,9.577
				c5.229,0,9.481-4.296,9.481-9.577c0-1.381,1.119-2.5,2.5-2.5h7.139c0.478,0,0.945,0.137,1.349,0.395l20.312,13.011
				c2.881,1.684,4.724,4.906,4.724,8.356l0.01,19.589c0,0.665-0.263,1.299-0.731,1.769C124.302,82.589,123.663,82.854,123,82.854z"
				/>
		</g>
		<path d="M93.479,118.496h-5c0-5.602-4.824-10.158-10.751-10.158c-8.147,0-14.869-5.982-15.667-13.623l-0.08-0.044l-0.011-1.489
			c0-4.858-3.656-9.053-8.693-9.973l0.898-4.918c6.889,1.258,12.023,6.754,12.715,13.363l0.08,0.044l0.011,1.489
			c0,5.598,4.82,10.15,10.747,10.15C86.412,103.338,93.479,110.139,93.479,118.496z"/>
	</g>
</g>
<path d="M80,88.723c-4.81,0-8.723-3.912-8.723-8.722c0-4.81,3.913-8.724,8.723-8.724c4.811,0,8.723,3.914,8.723,8.724
	C88.723,84.811,84.811,88.723,80,88.723z M80,76.277c-2.053,0-3.723,1.67-3.723,3.724c0,2.052,1.67,3.722,3.723,3.722
	c2.053,0,3.723-1.67,3.723-3.722C83.723,77.947,82.053,76.277,80,76.277z"/>
</svg>
