<?xml version="1.0" encoding="utf-8"?>
<!-- Generator: Adobe Illustrator 16.0.0, SVG Export Plug-In . SVG Version: 6.00 Build 0)  -->
<!DOCTYPE svg PUBLIC "-//W3C//DTD SVG 1.1//EN" "http://www.w3.org/Graphics/SVG/1.1/DTD/svg11.dtd">
<svg version="1.1" id="Layer_1" xmlns="http://www.w3.org/2000/svg" xmlns:xlink="http://www.w3.org/1999/xlink" x="0px" y="0px"
	 width="156px" height="156px" viewBox="0 0 156 156" enable-background="new 0 0 156 156" xml:space="preserve">
<path d="M147.279,78.51c-0.115,1.838-0.463,3.93-0.951,5.731c-0.498,1.826-1.268,3.841-2.113,5.532
	c-0.863,1.727-2.027,3.578-3.197,5.083c-1.178,1.52-2.713,3.133-4.209,4.426c-1.5,1.29-3.348,2.591-5.078,3.569
	c-1.768,0.997-3.869,1.927-5.771,2.55c-1.982,0.645-4.262,1.149-6.258,1.387c-1.244,0.157-2.641,0.236-4.035,0.236
	c-0.83,0-1.656-0.027-2.453-0.085c-2.125-0.164-4.492-0.582-6.498-1.146c-2.045-0.567-4.32-1.451-6.232-2.424
	c-1.943-0.987-4.023-2.312-5.703-3.636c-1.713-1.348-3.518-3.082-4.949-4.758c-1.426-1.662-2.875-3.74-3.977-5.7
	c-1.1-1.972-2.121-4.328-2.803-6.471c-0.699-2.146-1.248-4.688-1.506-6.968c-0.26-2.303-0.297-4.936-0.104-7.221
	c0.197-2.305,0.684-4.925,1.34-7.188l3.621,1.052c-0.59,2.033-1.029,4.387-1.205,6.456c-0.174,2.021-0.139,4.441,0.094,6.478
	c0.229,2.039,0.719,4.311,1.346,6.235c0.613,1.923,1.525,4.028,2.504,5.785c0.984,1.75,2.279,3.606,3.551,5.091
	c1.279,1.497,2.893,3.045,4.418,4.246c1.496,1.18,3.346,2.357,5.08,3.238c1.699,0.864,3.719,1.649,5.539,2.152
	c1.785,0.504,3.885,0.875,5.764,1.019c1.887,0.138,3.984,0.089,5.75-0.134c1.773-0.21,3.791-0.657,5.545-1.229
	c1.674-0.548,3.529-1.366,5.086-2.246c1.5-0.85,3.174-2.024,4.471-3.142c1.314-1.135,2.662-2.553,3.695-3.884
	c1.01-1.3,2.059-2.965,2.803-4.457c0.74-1.479,1.414-3.241,1.85-4.832c0.414-1.543,0.725-3.41,0.824-4.989
	c0.105-1.58,0.047-3.395-0.16-4.987c-0.207-1.51-0.631-3.29-1.131-4.746c-0.506-1.455-1.238-3.04-2-4.344
	c-0.783-1.329-1.795-2.712-2.768-3.789c-0.977-1.1-2.217-2.239-3.406-3.137c-1.137-0.849-2.586-1.725-3.865-2.338
	c-1.264-0.605-2.781-1.154-4.17-1.507c-1.332-0.338-2.934-0.582-4.291-0.647c-1.33-0.073-2.92,0.009-4.246,0.207
	c-1.295,0.191-2.801,0.568-4.027,1.009c-1.211,0.428-2.576,1.074-3.656,1.73c-1.098,0.66-2.248,1.524-3.172,2.374
	c-0.92,0.836-1.875,1.903-2.566,2.862c-0.707,0.958-1.418,2.168-1.914,3.25c-0.48,1.044-0.926,2.337-1.193,3.466
	c-0.266,1.129-0.436,2.417-0.467,3.529c-0.035,1.095,0.055,2.39,0.238,3.465c0.186,1.082,0.512,2.268,0.898,3.252
	c0.377,0.977,0.922,2.045,1.492,2.943c0.525,0.824,1.264,1.76,1.984,2.503c0.703,0.719,1.57,1.454,2.373,2.003
	c0.807,0.545,1.799,1.086,2.645,1.444c0.857,0.364,1.902,0.689,2.793,0.87c0.869,0.181,1.918,0.289,2.816,0.289
	c0.893,0,1.885-0.099,2.723-0.271c0.83-0.163,1.77-0.452,2.527-0.775c0.752-0.314,1.59-0.771,2.25-1.222
	c0.633-0.433,1.334-1.022,1.877-1.578c0.512-0.538,1.057-1.231,1.447-1.845c0.396-0.635,0.771-1.376,1.016-2.021
	c0.236-0.626,0.443-1.412,0.557-2.092c0.104-0.653,0.146-1.424,0.115-2.055c-0.033-0.636-0.141-1.349-0.293-1.954
	c-0.152-0.587-0.395-1.24-0.65-1.743c-0.256-0.527-0.605-1.09-0.957-1.538c-0.33-0.418-0.781-0.885-1.191-1.236
	c-0.383-0.315-0.879-0.652-1.313-0.883c-0.438-0.234-0.959-0.447-1.398-0.575c-0.449-0.129-0.984-0.229-1.4-0.259
	c-0.43-0.032-0.926-0.019-1.332,0.039l-0.521-3.733c0.668-0.094,1.443-0.114,2.135-0.063c0.672,0.049,1.461,0.193,2.16,0.396
	c0.688,0.197,1.465,0.514,2.131,0.87c0.652,0.347,1.369,0.83,1.967,1.326c0.613,0.522,1.234,1.168,1.727,1.786
	c0.521,0.67,1.02,1.465,1.371,2.197c0.365,0.722,0.701,1.614,0.924,2.479c0.217,0.854,0.361,1.812,0.408,2.704
	c0.043,0.892-0.016,1.925-0.162,2.839c-0.15,0.932-0.424,1.957-0.748,2.822c-0.336,0.889-0.818,1.846-1.355,2.703
	c-0.529,0.833-1.229,1.723-1.926,2.449c-0.729,0.748-1.619,1.5-2.459,2.074c-0.873,0.598-1.936,1.175-2.908,1.58
	c-0.99,0.425-2.182,0.791-3.256,1.001c-1.057,0.217-2.326,0.344-3.463,0.344c-1.16,0-2.465-0.134-3.578-0.366
	c-1.131-0.23-2.412-0.628-3.502-1.09c-1.072-0.454-2.275-1.11-3.299-1.801c-1.006-0.69-2.078-1.595-2.953-2.489
	c-0.908-0.941-1.801-2.071-2.459-3.108c-0.699-1.094-1.367-2.407-1.828-3.599c-0.471-1.203-0.873-2.659-1.1-3.985
	c-0.229-1.329-0.336-2.866-0.293-4.216c0.041-1.349,0.246-2.907,0.566-4.275c0.326-1.385,0.85-2.905,1.438-4.177
	c0.604-1.316,1.439-2.741,2.293-3.897c0.838-1.161,1.959-2.411,3.064-3.42c1.094-1.009,2.469-2.039,3.77-2.821
	c1.301-0.788,2.885-1.54,4.338-2.058c1.465-0.523,3.195-0.956,4.74-1.185c1.58-0.237,3.402-0.325,4.992-0.244
	c1.615,0.081,3.445,0.359,5.027,0.759c1.617,0.414,3.395,1.056,4.871,1.765c1.508,0.721,3.148,1.712,4.498,2.717
	c1.391,1.05,2.828,2.374,3.953,3.641c1.125,1.245,2.297,2.851,3.207,4.392c0.887,1.511,1.73,3.34,2.314,5.024
	c0.586,1.706,1.059,3.698,1.305,5.476C147.332,74.618,147.4,76.702,147.279,78.51z M72.411,53.864L76.1,54.64l-9.836,46.76
	c-0.176,0.834-0.471,2.233-2.018,2.233H21.246c-1.302,0-2.485-0.96-2.753-2.233L8.662,54.64l3.689-0.775l3.1,14.746
	c3.563,3.887,7.57,5.786,12.233,5.786c3.508,0,7.448-0.367,13.602-4.738l0.002,0.003c6.345-4.51,10.897-5.436,15.78-5.436
	c4.511,0,8.615,1.478,12.24,4.393L72.411,53.864z M65.51,86.671h-5.506v-3.77h6.299l2.111-10.043
	c-3.34-3.271-7.062-4.863-11.349-4.863c-3.507,0-7.446,0.365-13.597,4.739l-0.003-0.002c-6.348,4.508-10.9,5.433-15.783,5.433
	c-3.983,0-7.645-1.154-10.946-3.432l1.717,8.167h6.293v3.77h-5.5l2.775,13.193h40.713L65.51,86.671z M39.006,82.901h-6.613v3.77
	h6.613V82.901z M52.787,82.901h-6.938v3.77h6.938V82.901z M39.006,95.149h6.843v-3.77h-6.843V95.149z M52.787,95.149h6.75v-3.77
	h-6.75V95.149z M26.43,91.38h-0.75v3.77h0.75h5.039h0.923v-3.77h-0.923H26.43z"/>
</svg>
