<?xml version="1.0" encoding="utf-8"?>
<!-- Generator: Adobe Illustrator 16.0.0, SVG Export Plug-In . SVG Version: 6.00 Build 0)  -->
<!DOCTYPE svg PUBLIC "-//W3C//DTD SVG 1.1//EN" "http://www.w3.org/Graphics/SVG/1.1/DTD/svg11.dtd">
<svg version="1.1" id="Layer_1" xmlns="http://www.w3.org/2000/svg" xmlns:xlink="http://www.w3.org/1999/xlink" x="0px" y="0px"
	 width="140px" height="140px" viewBox="0 0 140 140" enable-background="new 0 0 140 140" xml:space="preserve">
<g>
	<polygon points="103.712,75.613 97.301,75.613 97.301,97.169 75.77,97.169 75.77,103.581 97.301,103.581 97.301,125.143 
		103.712,125.143 103.712,103.581 125.277,103.581 125.277,97.169 103.712,97.169 	"/>
	<path d="M125.191,25.907H88.702c-1.324,0-2.511,0.813-2.989,2.047c-2.548,6.568-8.714,10.812-15.71,10.812
		c-6.997,0-13.162-4.245-15.708-10.812c-0.478-1.234-1.665-2.047-2.989-2.047H14.808c-1.77,0-3.206,1.435-3.206,3.206v28.951
		c0,1.771,1.435,3.206,3.206,3.206h15.65l-0.014,51.807c0,0.85,0.337,1.667,0.938,2.269c0.601,0.6,1.417,0.938,2.267,0.938h31.935
		v-6.413H36.856l0.014-51.807c0-0.85-0.337-1.665-0.938-2.267c-0.601-0.601-1.417-0.939-2.267-0.939H18.014v-22.54h31.208
		c3.932,7.881,11.867,12.859,20.781,12.859c8.912,0,16.849-4.979,20.782-12.859h31.201v22.54h-15.651v6.412h18.856
		c1.771,0,3.207-1.435,3.207-3.206V29.113C128.398,27.342,126.963,25.907,125.191,25.907z"/>
</g>
</svg>
