<?xml version="1.0" encoding="utf-8"?>
<!-- Generator: Adobe Illustrator 16.0.0, SVG Export Plug-In . SVG Version: 6.00 Build 0)  -->
<!DOCTYPE svg PUBLIC "-//W3C//DTD SVG 1.1//EN" "http://www.w3.org/Graphics/SVG/1.1/DTD/svg11.dtd">
<svg version="1.1" id="Layer_1" xmlns="http://www.w3.org/2000/svg" xmlns:xlink="http://www.w3.org/1999/xlink" x="0px" y="0px"
	 width="160px" height="160px" viewBox="0 0 160 160" enable-background="new 0 0 160 160" xml:space="preserve">
<g>
	<g>
		<g>
			<path d="M106.225,121H53.717c-1.381,0-2.5-1.119-2.5-2.5V67.394h5V116h47.506V67.394h5V118.5
				C108.725,119.881,107.604,121,106.225,121z"/>
		</g>
		<g>
			<path d="M123,82.475h-16.723v-5h14.222l-0.008-16.705c0-1.688-0.896-3.257-2.334-4.101L98.375,44h-4.119
				c-1.181,6.851-7.13,12.077-14.269,12.077c-7.134,0-13.079-5.226-14.26-12.077h-4.103L41.932,56.616
				c-1.525,0.896-2.42,2.464-2.42,4.146l-0.01,16.712h14.223v5H37c-0.663,0-1.299-0.265-1.768-0.733
				c-0.469-0.47-0.732-1.105-0.732-1.769l0.012-19.207c0-3.454,1.842-6.676,4.808-8.412l20.225-12.959
				C59.948,39.137,60.416,39,60.894,39h7.122c1.381,0,2.5,1.119,2.5,2.5c0,5.281,4.25,9.577,9.473,9.577
				c5.229,0,9.482-4.296,9.482-9.577c0-1.381,1.119-2.5,2.5-2.5h7.139c0.478,0,0.945,0.137,1.349,0.395l20.312,13.011
				c2.881,1.684,4.724,4.906,4.724,8.356l0.01,19.21c0,0.664-0.263,1.299-0.731,1.769C124.299,82.21,123.663,82.475,123,82.475z"/>
		</g>
	</g>
	<g>
		<rect x="53.717" y="80" width="52.506" height="19.333"/>
	</g>
</g>
</svg>
