<?xml version="1.0" encoding="utf-8"?>
<!-- Generator: Adobe Illustrator 16.0.0, SVG Export Plug-In . SVG Version: 6.00 Build 0)  -->
<!DOCTYPE svg PUBLIC "-//W3C//DTD SVG 1.1//EN" "http://www.w3.org/Graphics/SVG/1.1/DTD/svg11.dtd">
<svg version="1.1" id="Layer_1" xmlns="http://www.w3.org/2000/svg" xmlns:xlink="http://www.w3.org/1999/xlink" x="0px" y="0px"
	 width="160px" height="160px" viewBox="0 0 160 160" enable-background="new 0 0 160 160" xml:space="preserve">
<g>
	<g>
		<g>
			<g>
				<g>
					<g>
						<g>
							<path d="M79.93,117.023H53.598c-1.381,0-2.5-1.119-2.5-2.5v-50.75h5v48.25H79.93V117.023z"/>
						</g>
						<g>
							<path d="M121.744,79.525h-16.447c-1.381,0-2.553-1.119-2.553-2.5V63.773h5v10.752h11.498l-0.008-16.232
								c0-1.615-0.869-3.119-2.269-3.932L97.52,42.027h-4.016c-1.186,6.676-7.041,11.762-14.064,11.762
								c-7.02,0-12.871-5.086-14.059-11.762h-3.998L42.02,54.311c-0.027,0.018-0.057,0.035-0.086,0.053
								c-1.398,0.809-2.266,2.313-2.266,3.926l-0.01,16.232h13.947v5H37.156c-0.662,0-1.299-0.264-1.768-0.732
								c-0.469-0.471-0.732-1.105-0.732-1.77l0.012-18.729c0-3.375,1.805-6.521,4.713-8.227l19.938-12.648
								c0.4-0.254,0.865-0.389,1.34-0.389h7.004c1.381,0,2.5,1.119,2.5,2.5c0,5.105,4.162,9.262,9.277,9.262
								c5.119,0,9.285-4.156,9.285-9.262c0-1.381,1.119-2.5,2.5-2.5h7.021c0.476,0,0.938,0.135,1.34,0.389l19.978,12.672
								c2.85,1.652,4.674,4.813,4.674,8.201l0.01,18.734c0,0.664-0.264,1.299-0.732,1.77
								C123.043,79.262,122.406,79.525,121.744,79.525z"/>
						</g>
					</g>
				</g>
			</g>
		</g>
	</g>
	<g>
		<g>
			<rect x="87.514" y="92.252" transform="matrix(-0.7085 -0.7057 0.7057 -0.7085 98.6269 229.2399)" width="18.285" height="4"/>
		</g>
		<g>
			
				<rect x="82.505" y="97.706" transform="matrix(-0.5365 -0.8439 0.8439 -0.5365 54.4876 229.3392)" width="15.442" height="4.001"/>
		</g>
		<g>
			
				<rect x="94.416" y="85.794" transform="matrix(-0.8439 -0.5365 0.5365 -0.8439 141.2312 216.6777)" width="15.44" height="3.999"/>
		</g>
		<g>
			<path stroke="#000000" stroke-width="4" stroke-linejoin="round" d="M108.158,99.652"/>
		</g>
		<g>
			<path d="M99.652,122.973c-4.783,0-8.914-3.57-9.605-8.305c-0.066-0.543-0.094-0.971-0.094-1.396
				c-0.002-0.26,0.002-0.526,0.029-0.793l3.979,0.398c-0.014,0.127-0.012,0.256-0.01,0.385c0,0.271,0.019,0.547,0.059,0.875
				c0.4,2.736,2.828,4.836,5.642,4.836c1.858,0,3.615-0.924,4.697-2.473c0.618-0.889,1.838-1.125,2.743-0.523
				c1.33,0.883,2.88,1.349,4.476,1.349h0.002c2.17,0,4.211-0.847,5.746-2.384c1.537-1.537,2.383-3.58,2.383-5.754
				c0.002-1.451-0.396-2.883-1.148-4.141c-0.525-0.879-0.303-2.01,0.514-2.625c1.447-1.09,2.277-2.748,2.279-4.549
				c-0.002-3.145-2.561-5.703-5.705-5.703c-0.146,0-0.281,0.01-0.42,0.021l-0.34-3.986c0.25-0.02,0.496-0.035,0.76-0.035
				c5.35,0,9.703,4.354,9.705,9.703c-0.002,2.496-0.934,4.828-2.604,6.607c0.631,1.487,0.961,3.09,0.959,4.709
				c0,3.237-1.262,6.287-3.553,8.58s-5.338,3.555-8.576,3.555h-0.002c-1.783,0-3.527-0.389-5.123-1.137
				C104.639,121.955,102.205,122.973,99.652,122.973z"/>
		</g>
	</g>
</g>
</svg>
