<?xml version="1.0" encoding="utf-8"?>
<!-- Generator: Adobe Illustrator 16.0.0, SVG Export Plug-In . SVG Version: 6.00 Build 0)  -->
<!DOCTYPE svg PUBLIC "-//W3C//DTD SVG 1.1//EN" "http://www.w3.org/Graphics/SVG/1.1/DTD/svg11.dtd">
<svg version="1.1" id="Layer_1" xmlns="http://www.w3.org/2000/svg" xmlns:xlink="http://www.w3.org/1999/xlink" x="0px" y="0px"
	 width="156px" height="156px" viewBox="0 0 156 156" enable-background="new 0 0 156 156" xml:space="preserve">
<g>
	<g>
		<path d="M124.023,60.503l-0.009-3.865c-0.003-1.471-1.197-2.662-2.669-2.662l-14.31,0.04l-0.005-5.206l-0.001-0.006
			c-0.003-3.049-1.621-5.894-4.228-7.477c-0.019-0.014-0.033-0.029-0.052-0.041l-17.752-11.88c-0.053-0.033-0.109-0.053-0.163-0.082
			c-0.091-0.05-0.18-0.101-0.276-0.14c-0.084-0.033-0.169-0.054-0.255-0.078c-0.081-0.023-0.16-0.051-0.244-0.066
			c-0.104-0.02-0.209-0.025-0.314-0.031c-0.06-0.005-0.117-0.019-0.178-0.019H77.67c-1.473,0-2.668,1.195-2.668,2.669
			c0,0.035,0.008,0.068,0.01,0.104c-0.057,4.098-3.59,8.25-7.701,8.25c-4.126,0-8.233-4.177-8.265-8.295
			c0-0.021,0.006-0.039,0.006-0.059c0-1.474-1.195-2.669-2.669-2.669h-5.315c-0.062,0-0.119,0.014-0.179,0.019
			c-0.104,0.006-0.208,0.012-0.312,0.031c-0.086,0.016-0.167,0.043-0.25,0.067c-0.084,0.024-0.168,0.045-0.25,0.077
			c-0.095,0.038-0.182,0.088-0.271,0.136c-0.057,0.03-0.116,0.051-0.171,0.086l-18.27,11.839c-0.021,0.014-0.038,0.033-0.059,0.047
			c-2.607,1.586-4.27,4.432-4.27,7.48l-0.003,22.551c0,1.473,1.194,2.668,2.669,2.668h12.289v23.361c0,1.474,1.496,2.669,2.97,2.669
			h15.282c0.153,0,0.301-0.021,0.446-0.045l-1.686,24.17c-0.054,0.74,0.202,1.468,0.707,2.012c0.505,0.543,1.214,0.852,1.955,0.852
			h27.205c1.227,0,2.25-0.833,2.562-1.961c0.003-0.008,0.006-0.018,0.009-0.026c0.026-0.1,0.046-0.2,0.061-0.304
			c0.011-0.062,0.029-0.118,0.036-0.181l1.854-18.756l2.609,18.775c0.002,0.018,0.008,0.033,0.01,0.05
			c0.136,1.347,1.26,2.402,2.643,2.402h27.64c0.741,0,1.45-0.309,1.955-0.852s0.761-1.271,0.707-2.012L124.023,60.503z
			 M63.996,60.505l-2.928,34.502c-0.261-0.085-0.534-0.022-0.823-0.022H47.019v-23.8c0-0.02,0.006-0.039,0.006-0.059
			s-0.006-0.037-0.006-0.059V56.669c0-1.474-0.954-2.669-2.427-2.669c-1.475,0-2.599,1.195-2.599,2.669v12.307h-9.976l0.002-20.203
			c0-1.215,0.658-2.35,1.719-2.965c0.018-0.012,0.033-0.027,0.051-0.037c0.014-0.008,0.027-0.012,0.041-0.02l18.014-11.767h2.894
			c1.232,5.812,6.399,10.397,12.573,10.397c6.175,0,11.343-4.586,12.576-10.397h2.906l17.419,11.767
			c0.012,0.008,0.025,0.01,0.038,0.018c0.02,0.012,0.033,0.027,0.053,0.037c1.058,0.615,1.713,1.752,1.713,2.967v0.004l0.005,5.199
			H66.664c-1.473,0-2.668,1.195-2.668,2.668V60.505z M101.052,122.017l-5.141-41.705c-0.163-1.465-1.479-2.529-2.949-2.355
			c-1.465,0.164-2.52,1.484-2.355,2.948l0.011,0.092l-4.145,41.021H64.016l5.004-61.586c0.006-0.064,0.008-0.129,0.008-0.193v-1.244
			h50.013l0.003,1.25c0,0.063,0.003,0.125,0.007,0.188l4.98,61.542L101.052,122.017z M73.064,77.995
			c-1.489-0.122-2.758,0.975-2.877,2.443l-0.255,2.691c-0.12,1.47,0.975,2.757,2.443,2.877c0.074,0.006,0.147,0.009,0.22,0.009
			c1.376,0,2.544-1.057,2.657-2.452l0.255-2.691C75.628,79.402,74.533,78.115,73.064,77.995z M74.341,62.003
			c-1.483-0.11-2.758,0.975-2.877,2.443l-0.255,2.692c-0.12,1.47,0.975,2.758,2.443,2.877c0.074,0.006,0.147,0.009,0.22,0.009
			c1.376,0,2.544-1.057,2.657-2.452l0.255-2.692C76.904,63.41,75.81,62.122,74.341,62.003z M71.788,93.986
			c-1.485-0.112-2.758,0.975-2.877,2.443l-0.255,2.692c-0.12,1.47,0.975,2.758,2.443,2.877c0.074,0.006,0.147,0.009,0.22,0.009
			c1.376,0,2.544-1.057,2.657-2.452l0.255-2.692C74.352,95.394,73.257,94.105,71.788,93.986z M70.512,110.014
			c-1.48-0.124-2.758,0.975-2.877,2.444l-0.255,2.66c-0.12,1.47,0.975,2.757,2.443,2.877c0.074,0.006,0.147,0.009,0.22,0.009
			c1.376,0,2.544-1.057,2.657-2.452l0.255-2.66C73.075,111.422,71.98,110.135,70.512,110.014z M116.061,93.986
			c-1.469,0.119-2.563,1.407-2.443,2.877l0.255,2.692c0.113,1.396,1.281,2.452,2.657,2.452c0.072,0,0.146-0.003,0.22-0.009
			c1.469-0.119,2.563-1.407,2.443-2.877l-0.255-2.692C118.818,94.961,117.548,93.873,116.061,93.986z M114.894,112.892l0.255,2.66
			c0.113,1.396,1.281,2.452,2.657,2.452c0.072,0,0.146-0.003,0.22-0.009c1.469-0.12,2.563-1.407,2.443-2.877l-0.255-2.66
			c-0.119-1.47-1.384-2.569-2.877-2.444C115.868,110.135,114.773,111.422,114.894,112.892z M113.164,70.016
			c1.469-0.119,2.563-1.407,2.443-2.877l-0.255-2.692c-0.119-1.469-1.39-2.555-2.877-2.443c-1.469,0.119-2.563,1.407-2.443,2.877
			l0.255,2.692c0.113,1.396,1.281,2.452,2.657,2.452C113.017,70.024,113.09,70.021,113.164,70.016z M115.474,86.007
			c1.469-0.12,2.563-1.408,2.442-2.878l-0.256-2.691c-0.12-1.47-1.41-2.563-2.878-2.442c-1.469,0.12-2.563,1.408-2.442,2.878
			l0.256,2.691c0.114,1.395,1.281,2.451,2.657,2.451C115.326,86.016,115.399,86.013,115.474,86.007z"/>
	</g>
</g>
</svg>
