<?xml version="1.0" encoding="utf-8"?>
<!-- Generator: Adobe Illustrator 16.0.0, SVG Export Plug-In . SVG Version: 6.00 Build 0)  -->
<!DOCTYPE svg PUBLIC "-//W3C//DTD SVG 1.1//EN" "http://www.w3.org/Graphics/SVG/1.1/DTD/svg11.dtd">
<svg version="1.1" id="Layer_1" xmlns="http://www.w3.org/2000/svg" xmlns:xlink="http://www.w3.org/1999/xlink" x="0px" y="0px"
	 width="156px" height="156px" viewBox="0 0 156 156" enable-background="new 0 0 156 156" xml:space="preserve">
<path d="M126.773,64.391c0-0.145-0.02-0.285-0.043-0.423c-0.127-3.262-1.731-6.284-4.375-8.202c-0.006-0.005-0.01-0.011-0.016-0.015
	l-15.525-12.805c-0.09-0.075-0.189-0.133-0.289-0.193c-1.857-1.626-4.201-2.566-6.676-2.643c-0.051,0-0.098,0.01-0.146,0.012h-2.867
	v-8.313c0.001-0.023,0.007-0.044,0.007-0.068c0-1.381-1.118-2.5-2.5-2.5H78.006H78H61.656c-1.381,0-2.5,1.119-2.5,2.5
	c0,0.02,0.005,0.039,0.006,0.058v8.323h-2.864c-0.05-0.002-0.098-0.013-0.148-0.012c-2.472,0.077-4.815,1.016-6.673,2.64
	c-0.1,0.061-0.201,0.12-0.293,0.196L33.659,55.75c-0.004,0.003-0.007,0.008-0.012,0.012c-2.642,1.916-4.248,4.934-4.378,8.192
	c-0.025,0.143-0.044,0.287-0.044,0.437l-0.006,54.425c0,1.382,1.119,2.5,2.5,2.5l0,0c0.005,0,0.01-0.002,0.016-0.002
	c0.006,0,0.01,0.002,0.016,0.002h16.544v2.943c0,1.381,1.119,2.5,2.5,2.5H78h0.006h27.206c1.381,0,2.5-1.119,2.5-2.5v-2.943h16.538
	c0.006,0,0.01-0.002,0.016-0.002s0.01,0.002,0.017,0.002c1.381,0,2.5-1.119,2.5-2.5L126.773,64.391z M102.712,121.76H80.5v-17.561
	l22.212-13.329V121.76z M53.294,90.866L75.5,104.189v17.569H53.294V90.866z M34.219,116.316l0.006-51.758
	c0.004-0.061,0.018-0.118,0.018-0.18c0-1.858,0.91-3.597,2.435-4.651c0.018-0.013,0.032-0.029,0.049-0.042
	c0.037-0.027,0.078-0.048,0.114-0.078l15.16-12.505c0.186-0.105,0.365-0.226,0.524-0.381c0.997-0.973,2.302-1.535,3.681-1.603
	c0.007,0,0.014,0.002,0.021,0.002h5.428c1.038,0,1.927-0.632,2.305-1.532c0.129-0.301,0.201-0.633,0.201-0.981V34.24H75.5v64.119
	L53.294,85.036V72.585c0-1.381-1.119-2.5-2.5-2.5s-2.5,1.119-2.5,2.5v43.731H34.219L34.219,116.316z M105.212,70.085
	c-1.381,0-2.5,1.119-2.5,2.5V85.04L80.5,98.369V34.24h11.337v8.368c0,0.35,0.073,0.683,0.203,0.985
	c0.379,0.898,1.269,1.528,2.304,1.528h5.428c0.008,0,0.015-0.002,0.021-0.002c1.38,0.068,2.686,0.629,3.682,1.602
	c0.158,0.155,0.338,0.276,0.521,0.38l15.163,12.506c0.034,0.029,0.073,0.048,0.108,0.075c0.02,0.014,0.033,0.032,0.053,0.045
	c1.525,1.054,2.436,2.793,2.436,4.651c0,0.06,0.014,0.116,0.018,0.175l0.009,51.764h-14.069V72.585
	C107.712,71.204,106.593,70.085,105.212,70.085z"/>
</svg>
