<?xml version="1.0" encoding="utf-8"?>
<!-- Generator: Adobe Illustrator 16.0.0, SVG Export Plug-In . SVG Version: 6.00 Build 0)  -->
<!DOCTYPE svg PUBLIC "-//W3C//DTD SVG 1.1//EN" "http://www.w3.org/Graphics/SVG/1.1/DTD/svg11.dtd">
<svg version="1.1" id="Layer_1" xmlns="http://www.w3.org/2000/svg" xmlns:xlink="http://www.w3.org/1999/xlink" x="0px" y="0px"
	 width="160px" height="160px" viewBox="0 0 160 160" enable-background="new 0 0 160 160" xml:space="preserve">
<g>
	<g>
		<path d="M114.357,124.711H45.655c-1.381,0-2.5-1.119-2.5-2.5V37.79c0-1.381,1.119-2.5,2.5-2.5h68.703c1.381,0,2.5,1.119,2.5,2.5
			v84.421C116.857,123.592,115.738,124.711,114.357,124.711z M48.155,119.711h63.703V40.29H48.155V119.711z"/>
		<path stroke="#010101" stroke-width="5" stroke-linejoin="round" stroke-miterlimit="10" d="M45.625,108.982"/>
		<path stroke="#010101" stroke-width="5" stroke-linejoin="round" stroke-miterlimit="10" d="M114.328,108.982"/>
		<rect x="114.328" y="43.157" width="10.527" height="5"/>
		<rect x="35.145" y="43.157" width="10.528" height="5"/>
	</g>
	<path d="M61.541,94.501c-6.325,0-12.048-1.847-17.013-5.485l2.957-4.031c4.088,2.996,8.817,4.518,14.056,4.518
		c4.464,0,9.473-0.361,17.25-4.688c0.048-0.026,0.097-0.051,0.146-0.074c7.868-4.345,13.504-5.238,19.536-5.238
		c6.326,0,12.053,1.854,17.017,5.51l-2.966,4.024c-4.086-3.009-8.813-4.534-14.051-4.534c-4.459,0-9.465,0.362-17.252,4.689
		c-0.049,0.025-0.097,0.051-0.146,0.074C73.216,93.607,67.577,94.501,61.541,94.501z"/>
	<path d="M61.269,108.501c-6.404,0-12.2-1.843-17.227-5.476l2.929-4.053c4.157,3.004,8.968,4.527,14.298,4.527
		c4.538,0,9.63-0.361,17.535-4.693c0.056-0.031,0.113-0.06,0.17-0.086c7.963-4.33,13.668-5.221,19.772-5.221
		c6.398,0,12.195,1.85,17.229,5.497l-2.937,4.049c-4.16-3.017-8.97-4.546-14.292-4.546c-4.534,0-9.623,0.363-17.54,4.698
		c-0.056,0.03-0.11,0.059-0.169,0.085C73.084,107.609,67.377,108.501,61.269,108.501z"/>
</g>
</svg>
