<?xml version="1.0" encoding="utf-8"?>
<!-- Generator: Adobe Illustrator 16.0.0, SVG Export Plug-In . SVG Version: 6.00 Build 0)  -->
<!DOCTYPE svg PUBLIC "-//W3C//DTD SVG 1.1//EN" "http://www.w3.org/Graphics/SVG/1.1/DTD/svg11.dtd">
<svg version="1.1" id="Layer_1" xmlns="http://www.w3.org/2000/svg" xmlns:xlink="http://www.w3.org/1999/xlink" x="0px" y="0px"
	 width="428px" height="428px" viewBox="0 0 428 428" enable-background="new 0 0 428 428" xml:space="preserve">
<g>
	<g>
		<path d="M46.114,188.197c0.032-0.021,0.057-0.045,0.091-0.067c0.028-0.011,0.056-0.017,0.084-0.034l72.222-44.04
			c6.822,24.444,34.464,42.113,65.49,42.113c31.14,0,54.017-17.305,59.997-42.113l71.51,43.395c0.334,0.255,0.657,0.521,1.031,0.742
			c4.802,2.787,7.059,8.376,7.059,13.917c0,5.443,4.556,11.235,10.002,11.235c5.448,0,9.664-4.855,9.664-10.299
			c0-11.724-5.152-24.011-14.791-30.542c-0.499-0.47-1.049-0.895-1.654-1.263l-87.406-52.975L170.36,72.868
			c-4.41-3.149-6.662-7.833-7.591-13.208c-1.928-11.175,3.737-22.059,14.786-23.997c5.272-0.923,13-0.164,17.405,2.929
			c4.49,3.149,7.168,8.517,8.11,13.954c0.924,5.369,6.505,9.92,11.874,8.945c5.375-0.924,8.604-6.457,7.195-12.299
			c-2.523-10.507-7.817-20.493-16.633-26.678c-8.742-6.134-19.354-7.938-29.774-6.114c-21.73,3.806-36.05,24.75-32.268,46.619
			c1.831,10.574,7.358,19.801,16.089,25.98c0.028,0.022,0.062,0.022,0.09,0.045c0.057,0.04,0.102,0.091,0.159,0.131l4.759,3.997
			l-40.916,24.979L36.051,171.24c-0.073,0.045-0.125,0.102-0.198,0.147c-10.641,6.338-20.348,19.259-20.354,31.657v83.333
			c0,14.326,12.895,13.85,12.895,13.85l-0.721,0.195H79.18v94.57c0,5.443,6.726,11.234,12.174,11.234h61.807
			c5.447,0,11.238-3.865,11.238-9.31c0-5.442-5.791-10.353-11.238-10.353H98.846V239.563c0-5.442-4.41-11.019-9.857-11.019
			c-5.448,0-9.809,5.575-9.809,11.019v40.263H35.166v-76.78C35.166,203.044,38.557,193.653,46.114,188.197z M183.902,104.75
			l42.911,28.375c-0.006,0.153,0.082,0.099,0.063,0.25c-2.44,18-20.362,33.141-45.042,33.125
			c-24.643-0.016-40.703-14.583-46.465-33.705L183.902,104.75z M360.121,243.307h-88.965c-5.598,0-11.277,4.484-11.277,10.08
			s5.68,9.584,11.277,9.584h90.838c16.785,0,31.83,13.773,31.83,30.553l0.01,13.455h-93.646c-55.92,0-100.203,43.326-100.203,99.25
			c0,5.597,5.641,7.492,11.237,7.492h189.167c5.599,0,13.111-3.77,13.111-9.365V292.934
			C413.477,264.993,388.072,243.307,360.121,243.307z M393.824,394.084H219.491c5.003-39.984,39.383-67.443,80.694-67.443h93.647
			L393.824,394.084z"/>
	</g>
</g>
</svg>
