<?xml version="1.0" encoding="utf-8"?>
<!-- Generator: Adobe Illustrator 16.0.0, SVG Export Plug-In . SVG Version: 6.00 Build 0)  -->
<!DOCTYPE svg PUBLIC "-//W3C//DTD SVG 1.1//EN" "http://www.w3.org/Graphics/SVG/1.1/DTD/svg11.dtd">
<svg version="1.1" id="Layer_1" xmlns="http://www.w3.org/2000/svg" xmlns:xlink="http://www.w3.org/1999/xlink" x="0px" y="0px"
	 width="160px" height="160px" viewBox="0 0 160 160" enable-background="new 0 0 160 160" xml:space="preserve">
<g>
	<rect x="101.898" y="75.199" width="5" height="45.801"/>
	<path d="M104.398,123.5H80c-1.381,0-2.5-1.119-2.5-2.5s1.119-2.5,2.5-2.5h24.4c1.381,0,2.5,1.119,2.5,2.5
		S105.779,123.5,104.398,123.5z"/>
	<path d="M94.648,51.132c-1.381,0-2.5-1.119-2.5-2.5V39c0-1.381,1.119-2.5,2.5-2.5s2.5,1.119,2.5,2.5v9.632
		C97.148,50.013,96.029,51.132,94.648,51.132z"/>
	<path d="M94.654,41.5H80c-1.381,0-2.5-1.119-2.5-2.5s1.119-2.5,2.5-2.5h14.654c1.382,0,2.5,1.119,2.5,2.5S96.035,41.5,94.654,41.5z
		"/>
	<path d="M80,123.5c-1.381,0-2.5-1.119-2.5-2.5V39c0-1.381,1.119-2.5,2.5-2.5c1.38,0,2.5,1.119,2.5,2.5v82
		C82.499,122.381,81.38,123.5,80,123.5z"/>
	<rect x="53.104" y="75.199" width="5" height="45.801"/>
	<path d="M80,123.5H55.604c-1.381,0-2.5-1.119-2.5-2.5s1.119-2.5,2.5-2.5H80c1.38,0,2.5,1.119,2.5,2.5S81.38,123.5,80,123.5z"/>
	<path d="M65.35,51.132c-1.381,0-2.5-1.119-2.5-2.5V39c0-1.381,1.119-2.5,2.5-2.5c1.38,0,2.5,1.119,2.5,2.5v9.632
		C67.849,50.013,66.73,51.132,65.35,51.132z"/>
	<path d="M80.005,41.5H65.344c-1.381,0-2.5-1.119-2.5-2.5s1.119-2.5,2.5-2.5h14.661c1.38,0,2.5,1.119,2.5,2.5
		S81.387,41.5,80.005,41.5z"/>
	<g>
		<path d="M121.473,118.675H104.4c-1.381,0-2.5-1.118-2.5-2.5c0-1.381,1.119-2.5,2.5-2.5h17.072c1.381,0,2.5,1.119,2.5,2.5
			C123.973,117.557,122.854,118.675,121.473,118.675z"/>
		<path d="M121.499,118.675c-1.381,0-2.5-1.118-2.5-2.5l-0.006-48.238c0-1.381,1.118-2.5,2.5-2.5c1.381,0,2.5,1.119,2.5,2.5
			l0.006,48.239C123.999,117.557,122.88,118.675,121.499,118.675z"/>
		<path d="M99.523,51.143h-4.869c-1.381,0-2.5-1.119-2.5-2.5s1.119-2.5,2.5-2.5h4.869c1.381,0,2.5,1.119,2.5,2.5
			S100.904,51.143,99.523,51.143z"/>
		<path d="M118.331,64.488c-0.556,0-1.113-0.184-1.577-0.562l-13.922-11.345c-1.07-0.872-1.23-2.447-0.359-3.517
			c0.873-1.07,2.446-1.232,3.519-0.359l13.922,11.345c1.069,0.872,1.231,2.447,0.358,3.517
			C119.777,64.173,119.059,64.488,118.331,64.488z"/>
		<path d="M104.411,53.193c-0.624,0-1.248-0.232-1.733-0.698c-0.873-0.84-2.021-1.325-3.234-1.364
			c-1.379-0.045-2.463-1.2-2.418-2.58c0.045-1.353,1.154-2.419,2.498-2.419c0.027,0,0.056,0,0.082,0.001
			c2.451,0.08,4.773,1.059,6.539,2.758c0.996,0.958,1.025,2.54,0.068,3.535C105.723,52.936,105.066,53.193,104.411,53.193z"/>
		<path d="M121.477,70.426c-1.381,0-2.5-1.119-2.5-2.5c0-1.548-0.771-2.998-2.061-3.88c-1.141-0.779-1.432-2.335-0.652-3.475
			c0.778-1.141,2.336-1.432,3.475-0.653c2.654,1.814,4.238,4.808,4.238,8.008C123.977,69.307,122.857,70.426,121.477,70.426z"/>
	</g>
	<g>
		<path d="M55.598,118.675H38.527c-1.381,0-2.5-1.118-2.5-2.5c0-1.381,1.119-2.5,2.5-2.5h17.071c1.381,0,2.5,1.119,2.5,2.5
			C58.098,117.557,56.979,118.675,55.598,118.675z"/>
		<path d="M38.5,118.675L38.5,118.675c-1.381,0-2.5-1.118-2.5-2.5l0.005-48.239c0-1.38,1.12-2.5,2.5-2.5l0,0
			c1.38,0,2.5,1.12,2.5,2.5L41,116.175C41,117.557,39.88,118.675,38.5,118.675z"/>
		<path d="M65.344,51.143h-4.865c-1.381,0-2.5-1.119-2.5-2.5s1.119-2.5,2.5-2.5h4.865c1.381,0,2.5,1.119,2.5,2.5
			S66.725,51.143,65.344,51.143z"/>
		<path d="M41.667,64.488c-0.726,0-1.445-0.314-1.939-0.921c-0.872-1.07-0.711-2.645,0.359-3.517l13.921-11.345
			c1.07-0.872,2.644-0.712,3.517,0.359c0.872,1.07,0.711,2.645-0.359,3.517L43.245,63.926
			C42.781,64.304,42.223,64.488,41.667,64.488z"/>
		<path d="M55.593,53.193c-0.656,0-1.311-0.256-1.802-0.767c-0.957-0.995-0.927-2.578,0.068-3.535
			c1.766-1.699,4.088-2.678,6.539-2.758c1.383-0.042,2.535,1.038,2.58,2.417c0.045,1.38-1.038,2.535-2.417,2.58
			c-1.212,0.04-2.361,0.524-3.234,1.364C56.841,52.961,56.217,53.193,55.593,53.193z"/>
		<path d="M38.522,70.426c-1.381,0-2.5-1.119-2.5-2.5c0-3.2,1.584-6.194,4.239-8.008c1.14-0.778,2.696-0.486,3.475,0.653
			c0.779,1.14,0.487,2.695-0.653,3.475c-1.29,0.882-2.06,2.332-2.06,3.88C41.022,69.307,39.903,70.426,38.522,70.426z"/>
	</g>
</g>
</svg>
