<?xml version="1.0" encoding="utf-8"?>
<!-- Generator: Adobe Illustrator 16.0.0, SVG Export Plug-In . SVG Version: 6.00 Build 0)  -->
<!DOCTYPE svg PUBLIC "-//W3C//DTD SVG 1.1//EN" "http://www.w3.org/Graphics/SVG/1.1/DTD/svg11.dtd">
<svg version="1.1" id="Layer_1" xmlns="http://www.w3.org/2000/svg" xmlns:xlink="http://www.w3.org/1999/xlink" x="0px" y="0px"
	 width="180px" height="180px" viewBox="0 0 180 180" enable-background="new 0 0 180 180" xml:space="preserve">
<g>
	<path d="M97.372,99.654c-0.769-1.215-2.211-1.836-3.624-1.555c-0.682,0.112-1.334,0.424-1.865,0.942
		c-1.219,1.188-1.381,3.05-0.479,4.422c7.699,20.486-0.661,42.783-18.866,49.946c-1.798,0.708-2.683,2.738-1.975,4.538
		c0.542,1.378,1.861,2.22,3.258,2.22c0.426,0,0.86-0.078,1.281-0.244c18.076-7.111,28.125-26.466,25.833-46.601l7.332,7.51
		c0.687,0.702,1.596,1.056,2.504,1.056c0.883,0,1.766-0.332,2.445-0.996c1.383-1.351,1.409-3.566,0.059-4.949L97.372,99.654z"/>
	<path d="M158.229,104.594c-4.224-10.732-12.801-18.979-24.151-23.216c-7.106-2.653-14.777-3.527-22.417-2.646l7.479-7.302
		c1.383-1.351,1.409-3.566,0.06-4.95c-1.351-1.384-3.566-1.409-4.949-0.059L97.957,82.327c-1.215,0.771-1.832,2.218-1.55,3.631
		c0.114,0.676,0.427,1.326,0.942,1.854c0.686,0.702,1.594,1.055,2.504,1.055c0.67,0,1.338-0.193,1.92-0.577
		c9.896-3.723,20.469-3.861,29.854-0.355c9.468,3.533,16.601,10.359,20.087,19.221c0.542,1.378,1.861,2.22,3.258,2.22
		c0.426,0,0.859-0.078,1.28-0.244C158.053,108.424,158.938,106.393,158.229,104.594z"/>
	<path d="M80.648,81.756c0.649,1.008,1.762,1.607,2.936,1.607c0.233,0,0.469-0.029,0.703-0.078c0.667-0.118,1.309-0.428,1.831-0.938
		c1.218-1.189,1.381-3.048,0.482-4.419c-3.726-9.896-3.864-20.474-0.359-29.862c3.534-9.466,10.36-16.6,19.221-20.087
		c1.8-0.708,2.685-2.74,1.976-4.539c-0.707-1.799-2.744-2.683-4.537-1.975c-10.734,4.224-18.979,12.801-23.216,24.153
		c-2.653,7.108-3.527,14.778-2.645,22.419l-7.303-7.48c-1.351-1.383-3.566-1.411-4.949-0.06c-1.383,1.35-1.41,3.566-0.06,4.949
		L80.648,81.756z"/>
	<path d="M81.595,95.432c-0.116-0.676-0.427-1.326-0.942-1.854c-1.189-1.219-3.049-1.383-4.421-0.48
		c-20.484,7.701-42.784-0.658-49.948-18.864c-0.707-1.798-2.739-2.683-4.539-1.975c-1.798,0.708-2.683,2.74-1.975,4.539
		c6.442,16.372,22.923,26.167,40.937,26.167c1.875,0,3.769-0.119,5.668-0.336l-7.511,7.334c-1.383,1.352-1.409,3.566-0.059,4.949
		c0.686,0.702,1.595,1.055,2.505,1.055c0.881,0,1.764-0.331,2.445-0.996l16.288-15.904C81.26,98.295,81.878,96.848,81.595,95.432z"
		/>
</g>
</svg>
