<?xml version="1.0" encoding="utf-8"?>
<!-- Generator: Adobe Illustrator 16.0.0, SVG Export Plug-In . SVG Version: 6.00 Build 0)  -->
<!DOCTYPE svg PUBLIC "-//W3C//DTD SVG 1.1//EN" "http://www.w3.org/Graphics/SVG/1.1/DTD/svg11.dtd">
<svg version="1.1" id="Layer_1" xmlns="http://www.w3.org/2000/svg" xmlns:xlink="http://www.w3.org/1999/xlink" x="0px" y="0px"
	 width="180px" height="180px" viewBox="0 0 180 180" enable-background="new 0 0 180 180" xml:space="preserve">
<g>
	<path d="M76.826,47.379c0.094,0.311,0.182,0.629,0.304,0.931c0.149,0.261,0.284,0.502,0.425,0.743
		c0.083,0.135,0.161,0.29,0.247,0.441c0.073,0.13,0.139,0.257,0.196,0.379c0.133,0.241,0.273,0.49,0.415,0.723
		c0.236,0.351,0.524,0.661,0.812,0.963l0.251,0.318c0.086,0.086,0.159,0.171,0.214,0.261c0.141,0.155,0.273,0.31,0.408,0.461
		c0.363,0.359,0.773,0.677,1.167,0.959l0.257,0.221c0.085,0.053,0.155,0.11,0.247,0.175c0.106,0.106,0.224,0.2,0.359,0.286
		c0.549,0.355,1.127,0.637,1.75,0.931l0.155,0.098c0.123,0.069,0.266,0.147,0.425,0.204c0.486,0.208,1.016,0.355,1.519,0.49
		l0.236,0.069c0.102,0.017,0.204,0.057,0.314,0.086c0.137,0.057,0.302,0.102,0.482,0.135c0.367,0.082,0.763,0.106,1.157,0.13
		l0.357,0.024c0.164,0.012,0.292,0.028,0.433,0.045c0.253,0.037,0.494,0.061,0.762,0.061h0.102
		c6.469-0.053,12.051-4.703,13.305-11.046c0.163-0.878,0.249-1.813,0.249-2.751c-0.045-0.955-0.142-1.87-0.327-2.735
		c-0.021-0.086-0.045-0.171-0.076-0.257c-0.021-0.045-0.021-0.085-0.052-0.167c-0.196-0.857-0.421-1.551-0.685-2.163
		c-0.028-0.049-0.055-0.102-0.086-0.139c-0.01-0.045-0.037-0.089-0.056-0.13c-0.368-0.78-0.733-1.453-1.125-1.996
		c-0.036-0.069-0.088-0.135-0.157-0.204c-0.517-0.739-1.009-1.335-1.558-1.854c-0.047-0.032-0.073-0.061-0.126-0.085
		c-0.021-0.029-0.072-0.053-0.084-0.098c-0.509-0.453-1.104-0.988-1.809-1.445c-0.104-0.069-0.215-0.119-0.301-0.176
		c-0.072-0.028-0.156-0.061-0.197-0.085c-0.625-0.38-1.198-0.702-1.818-0.972c-0.163-0.065-0.343-0.114-0.52-0.159
		c-0.107-0.033-0.246-0.065-0.358-0.103l-0.188-0.064c-0.457-0.163-0.938-0.339-1.483-0.441c-0.274-0.057-0.583-0.073-0.851-0.098
		c-0.146-0.004-0.252-0.008-0.416-0.024c-0.141-0.012-0.27-0.041-0.408-0.053c-0.09-0.012-0.203-0.021-0.318-0.037l0.055-0.049
		h-0.902c-3.643,0.037-7.029,1.502-9.607,4.115c-2.545,2.621-3.929,6.058-3.898,9.719c0.021,0.951,0.125,1.874,0.312,2.743
		c0.037,0.237,0.123,0.461,0.21,0.686c0.046,0.125,0.072,0.248,0.107,0.378C76.719,47.016,76.787,47.199,76.826,47.379z"/>
	<path d="M150.498,86.424c-0.139-0.612-0.346-1.176-0.545-1.727l-0.03-0.09c-0.036-0.106-0.062-0.216-0.104-0.338
		c-0.051-0.131-0.08-0.245-0.137-0.408c-0.229-0.515-0.527-0.984-0.8-1.449l-0.088-0.135c-0.051-0.102-0.108-0.188-0.159-0.29
		c-0.066-0.147-0.146-0.277-0.234-0.412c-0.161-0.27-0.396-0.502-0.59-0.723c-0.115-0.13-0.228-0.249-0.313-0.372l-0.219-0.269
		c-0.174-0.216-0.354-0.449-0.551-0.649c-0.141-0.139-0.289-0.253-0.463-0.383c-0.106-0.09-0.229-0.171-0.328-0.27l-0.33-0.27
		c-0.273-0.245-0.594-0.51-0.924-0.739c-0.104-0.061-0.215-0.118-0.348-0.176c-0.063-0.049-0.163-0.089-0.257-0.143
		c-0.569-0.323-1.118-0.669-1.724-0.927c-0.113-0.028-0.235-0.065-0.33-0.09c-0.082-0.021-0.168-0.049-0.269-0.078
		c-0.625-0.229-1.274-0.461-1.97-0.6c-0.194-0.028-0.374-0.044-0.58-0.057c-0.122-0.016-0.229-0.016-0.354-0.041l-0.363-0.045
		c-0.344-0.049-0.701-0.09-1.051-0.106h-0.44c-7.54,0.057-13.628,6.262-13.562,13.809c0,0.866,0.103,1.764,0.297,2.751
		c0.072,0.252,0.158,0.488,0.227,0.718c0.055,0.136,0.102,0.263,0.139,0.372c0.035,0.135,0.076,0.27,0.106,0.393
		c0.106,0.354,0.19,0.719,0.343,1.078c0.135,0.276,0.297,0.547,0.459,0.795c0.071,0.139,0.174,0.262,0.234,0.412
		c0.066,0.105,0.119,0.225,0.176,0.34c0.152,0.248,0.271,0.506,0.439,0.746c0.279,0.408,0.592,0.734,0.942,1.139
		c0.091,0.101,0.161,0.182,0.243,0.277c0.159,0.213,0.32,0.396,0.471,0.588c0.305,0.278,0.639,0.522,0.945,0.76l0.48,0.375
		c0.203,0.172,0.379,0.346,0.625,0.504c0.328,0.225,0.685,0.398,1.014,0.552l0.384,0.198c0.122,0.07,0.251,0.137,0.388,0.201
		c0.184,0.104,0.353,0.211,0.543,0.285c0.364,0.15,0.764,0.262,1.104,0.354l0.369,0.099c0.123,0.027,0.258,0.072,0.375,0.122
		c0.23,0.073,0.46,0.149,0.713,0.208c0.348,0.064,0.719,0.09,1.063,0.109l0.396,0.029c0.117,0.008,0.251,0.03,0.384,0.045
		c0.294,0.045,0.545,0.08,0.861,0.08h0.122c7.531-0.084,13.6-6.293,13.521-13.827C150.794,88.241,150.682,87.318,150.498,86.424z"/>
	<path d="M118.014,68.981c0.066,0.025,0.123,0.041,0.156,0.049c0,0,0.064,0.012,0.131,0.033c0.82,0.29,1.52,0.51,2.2,0.632
		c0.247,0.045,0.478,0.062,0.715,0.074c0.122,0.012,0.269,0.016,0.399,0.033c0.135,0.012,0.275,0.028,0.427,0.045
		c0.304,0.041,0.625,0.082,0.978,0.082l0.074-0.008c0.508,0,1.024-0.073,1.518-0.135l0.27-0.028c0.107-0.018,0.2-0.018,0.329-0.033
		c0.151-0.012,0.354-0.029,0.502-0.057c0.672-0.131,1.335-0.368,1.968-0.588c0.061-0.029,0.143-0.049,0.223-0.073
		c0.125-0.033,0.254-0.065,0.383-0.115c0.543-0.229,1.037-0.514,1.554-0.82l0.2-0.11c0.057-0.049,0.169-0.085,0.253-0.139
		c0.142-0.061,0.271-0.13,0.388-0.22c0.797-0.522,1.521-1.127,2.157-1.78c5.241-5.433,5.146-14.112-0.196-19.349
		c-0.983-0.938-2.135-1.727-3.49-2.404l-0.275-0.135c-0.255-0.139-0.48-0.286-0.783-0.392c-0.188-0.082-0.392-0.131-0.601-0.184
		c-0.089-0.037-0.222-0.062-0.328-0.102l-0.406-0.135c-0.399-0.126-0.794-0.241-1.202-0.331c-0.144-0.012-0.271-0.017-0.4-0.033
		c-0.094-0.008-0.196-0.012-0.295-0.021l-0.168-0.021c-0.498-0.069-1.017-0.147-1.59-0.147c-0.268-0.008-0.484,0.017-0.729,0.049
		c-0.106,0.017-0.181,0.037-0.276,0.037l-0.207,0.016c-0.531,0.037-1.063,0.069-1.594,0.171c-0.172,0.037-0.339,0.094-0.498,0.151
		c-0.104,0.045-0.217,0.073-0.324,0.106l-0.234,0.057c-0.504,0.135-0.993,0.271-1.482,0.457c-0.204,0.098-0.41,0.221-0.607,0.331
		c-0.113,0.078-0.265,0.151-0.396,0.225c-0.134,0.065-0.264,0.126-0.386,0.2c-0.332,0.151-0.65,0.322-0.989,0.526
		c-0.813,0.563-1.523,1.16-2.095,1.788c-2.575,2.596-3.955,6.037-3.927,9.687c0.021,3.649,1.517,7.083,4.121,9.654
		C114.734,67.316,116.279,68.304,118.014,68.981z"/>
	<path d="M56.611,71.015h0.167c3.771-0.049,7.268-1.535,9.848-4.188c2.627-2.641,4.058-6.196,4.031-10.009
		c-0.069-7.683-6.37-13.928-14.046-13.928h-0.149c-3.748,0.045-7.26,1.547-9.891,4.233c-2.631,2.686-4.054,6.229-4.009,9.968
		C42.63,64.769,48.933,71.015,56.611,71.015z M56.611,51c3.294,0,5.974,2.673,5.974,5.956c0,3.286-2.68,5.964-5.974,5.964
		c-3.28,0-5.95-2.678-5.95-5.964C50.662,53.674,53.332,51,56.611,51z"/>
	<path d="M43.408,104.367L43.408,104.367c3.759-0.043,7.26-1.529,9.854-4.184c2.625-2.646,4.055-6.199,4.031-10.018
		c-0.073-7.674-6.378-13.92-14.054-13.92h-0.143c-3.755,0.041-7.272,1.547-9.903,4.237c-2.621,2.686-4.04,6.221-3.992,9.956
		c0.067,7.682,6.364,13.928,14.038,13.928H43.408z M37.293,90.314c0-3.286,2.668-5.96,5.946-5.96c3.296,0,5.976,2.674,5.976,5.96
		c0,3.282-2.68,5.952-5.976,5.952C39.961,96.266,37.293,93.596,37.293,90.314z"/>
	<path d="M57.191,109.301h-0.143c-3.747,0.045-7.262,1.547-9.893,4.232c-2.635,2.686-4.058,6.221-4.011,9.96
		c0.069,7.678,6.37,13.928,14.046,13.928h0.167c3.774-0.053,7.274-1.539,9.856-4.185c2.619-2.641,4.047-6.2,4.025-10.014
		C71.166,115.545,64.863,109.301,57.191,109.301z M57.191,129.322c-3.28,0-5.947-2.678-5.947-5.965c0-3.272,2.667-5.938,5.947-5.938
		c3.294,0,5.972,2.666,5.972,5.938C63.163,126.645,60.485,129.322,57.191,129.322z"/>
	<path d="M90.666,122.697h-0.143c-3.748,0.045-7.256,1.547-9.885,4.232c-2.629,2.685-4.051,6.225-4.004,9.969
		c0.064,7.674,6.36,13.92,14.032,13.92h0.166c3.766-0.049,7.264-1.535,9.852-4.188c2.621-2.642,4.051-6.196,4.025-10.005
		C104.637,128.941,98.338,122.697,90.666,122.697z M90.666,142.721c-3.28,0-5.949-2.675-5.949-5.957
		c0-3.281,2.669-5.955,5.949-5.955c3.29,0,5.969,2.674,5.969,5.955C96.635,140.046,93.955,142.721,90.666,142.721z"/>
	<path d="M123.734,108.609h-0.144c-3.753,0.041-7.268,1.543-9.896,4.236c-2.623,2.684-4.041,6.223-3.994,9.961
		c0.066,7.674,6.361,13.92,14.031,13.92h0.168c3.762-0.05,7.258-1.535,9.844-4.186c2.627-2.643,4.059-6.2,4.031-10.016
		C137.705,114.855,131.406,108.609,123.734,108.609z M123.734,128.624c-3.278,0-5.943-2.67-5.943-5.951
		c0-3.282,2.665-5.956,5.943-5.956c3.287,0,5.963,2.674,5.963,5.956C129.697,125.954,127.021,128.624,123.734,128.624z"/>
</g>
</svg>
