<?xml version="1.0" encoding="utf-8"?>
<!-- Generator: Adobe Illustrator 16.0.0, SVG Export Plug-In . SVG Version: 6.00 Build 0)  -->
<!DOCTYPE svg PUBLIC "-//W3C//DTD SVG 1.1//EN" "http://www.w3.org/Graphics/SVG/1.1/DTD/svg11.dtd">
<svg version="1.1" id="Layer_1" xmlns="http://www.w3.org/2000/svg" xmlns:xlink="http://www.w3.org/1999/xlink" x="0px" y="0px"
	 width="160px" height="160px" viewBox="0 0 160 160" enable-background="new 0 0 160 160" xml:space="preserve">
<g>
	<g>
		<g>
			<path d="M118.109,105.336c-1.381,0-2.5-1.119-2.5-2.5v-2.578c0-1.381,1.119-2.5,2.5-2.5s2.5,1.119,2.5,2.5v2.578
				C120.609,104.217,119.49,105.336,118.109,105.336z"/>
			<path d="M121.633,119.047H104.23c-1.381,0-2.5-1.119-2.5-2.5s1.119-2.5,2.5-2.5h17.401c1.382,0,2.5,1.119,2.5,2.5
				S123.014,119.047,121.633,119.047z"/>
			<path d="M121.633,119.073c-1.008,0-1.957-0.614-2.337-1.611c-0.377-0.991-3.687-9.821-3.687-14.626c0-1.381,1.119-2.5,2.5-2.5
				s2.5,1.119,2.5,2.5c0,3.294,2.425,10.391,3.358,12.848c0.491,1.291-0.155,2.734-1.446,3.226
				C122.229,119.02,121.93,119.073,121.633,119.073z"/>
			<path d="M118.109,102.758c-1.381,0-2.5-1.119-2.5-2.5c0-6.277-5.104-11.385-11.379-11.385c-1.381,0-2.5-1.119-2.5-2.5
				s1.119-2.5,2.5-2.5c9.031,0,16.379,7.352,16.379,16.385C120.609,101.639,119.49,102.758,118.109,102.758z"/>
			<path d="M90.316,105.336c-1.381,0-2.5-1.119-2.5-2.5v-2.578c0-1.381,1.119-2.5,2.5-2.5s2.5,1.119,2.5,2.5v2.578
				C92.816,104.217,91.697,105.336,90.316,105.336z"/>
			<path d="M104.197,119.047H86.785c-1.381,0-2.5-1.119-2.5-2.5s1.119-2.5,2.5-2.5h17.412c1.381,0,2.5,1.119,2.5,2.5
				S105.578,119.047,104.197,119.047z"/>
			<path d="M86.785,119.073c-0.296,0-0.598-0.054-0.891-0.165c-1.289-0.492-1.938-1.938-1.445-3.227
				c0.938-2.457,3.367-9.554,3.367-12.847c0-1.381,1.119-2.5,2.5-2.5s2.5,1.119,2.5,2.5c0,4.806-3.316,13.638-3.695,14.628
				C88.741,118.46,87.792,119.073,86.785,119.073z"/>
			<path d="M90.316,102.758c-1.381,0-2.5-1.119-2.5-2.5c0-9.033,7.349-16.385,16.381-16.385c1.381,0,2.5,1.119,2.5,2.5
				s-1.119,2.5-2.5,2.5c-6.275,0-11.381,5.107-11.381,11.385C92.816,101.639,91.697,102.758,90.316,102.758z"/>
		</g>
		<path d="M104.209,127.711c-4.938,0-8.953-4.018-8.953-8.953c0-1.381,1.119-2.5,2.5-2.5s2.5,1.119,2.5,2.5
			c0,2.18,1.773,3.953,3.953,3.953s3.953-1.773,3.953-3.953c0-1.381,1.12-2.5,2.501-2.5s2.5,1.119,2.5,2.5
			C113.163,123.693,109.146,127.711,104.209,127.711z"/>
	</g>
	<g>
		<path d="M75.807,74.384c-8.75,0-15.87-5.99-15.87-13.354h5c0,4.606,4.876,8.354,10.87,8.354c6,0,10.878-3.748,10.878-8.354h5
			C91.686,68.394,84.563,74.384,75.807,74.384z"/>
		<path d="M78.323,127.291H52.937c-1.381,0-2.5-1.119-2.5-2.5V86.346h5v35.945h22.886V127.291z"/>
		<path d="M115.79,77.65h-5c0-1.332-0.696-2.53-1.863-3.205c-0.122-0.071-0.237-0.152-0.346-0.24l-21.106-12.71
			c-0.029-0.017-0.058-0.035-0.086-0.054L70.525,50.333c-2.224-1.563-3.663-3.836-4.116-6.443c-0.453-2.603,0.132-5.228,1.649-7.389
			c1.519-2.165,3.791-3.607,6.396-4.061c2.597-0.457,5.217,0.127,7.377,1.645c2.165,1.521,3.606,3.795,4.062,6.404l-4.926,0.856
			c-0.225-1.292-0.938-2.417-2.009-3.169c-1.066-0.749-2.36-1.037-3.642-0.812c-1.292,0.225-2.415,0.937-3.166,2.007
			c-0.751,1.071-1.041,2.37-0.816,3.66c0.225,1.292,0.937,2.417,2.004,3.168l16.76,11.036l21.424,12.902
			c0.121,0.072,0.232,0.154,0.338,0.243C114.296,71.986,115.79,74.727,115.79,77.65z"/>
		<path d="M52.937,100.855h-14.57c-1.381,0-2.5-1.119-2.5-2.5c0-0.06,0.002-0.116,0.006-0.174l0.012-20.534
			c0-3.091,1.671-5.977,4.361-7.532l21.431-12.905L73.95,49.16l2.742,4.181l-12.354,8.103L42.787,74.423
			c-1.206,0.697-1.902,1.895-1.902,3.227l-0.01,18.206h12.062V100.855z"/>
	</g>
</g>
</svg>
