<?xml version="1.0" encoding="utf-8"?>
<!-- Generator: Adobe Illustrator 16.0.0, SVG Export Plug-In . SVG Version: 6.00 Build 0)  -->
<!DOCTYPE svg PUBLIC "-//W3C//DTD SVG 1.1//EN" "http://www.w3.org/Graphics/SVG/1.1/DTD/svg11.dtd">
<svg version="1.1" id="Layer_1" xmlns="http://www.w3.org/2000/svg" xmlns:xlink="http://www.w3.org/1999/xlink" x="0px" y="0px"
	 width="160px" height="160px" viewBox="0 0 160 160" enable-background="new 0 0 160 160" xml:space="preserve">
<g>
	<g>
		<g>
			<path d="M66.371,126.393c-1.394-0.649-2.468-1.567-3.223-2.754c-0.755-1.184-1.133-2.559-1.133-4.121
				c0-1.562,0.495-3.014,1.484-4.354c0.989-1.34,2.305-2.336,3.945-2.988c-1.354-0.521-2.429-1.393-3.223-2.616
				c-0.794-1.224-1.191-2.591-1.191-4.103c0-2.213,0.742-3.983,2.227-5.313c1.485-1.328,3.463-1.992,5.938-1.992
				c2.474,0,4.459,0.664,5.957,1.992c1.497,1.328,2.246,3.101,2.246,5.313c0,1.483-0.404,2.832-1.211,4.043
				c-0.808,1.211-1.888,2.063-3.242,2.56c1.641,0.521,2.962,1.459,3.965,2.813c1.002,1.355,1.504,2.879,1.504,4.57
				c0,1.59-0.378,2.981-1.133,4.18c-0.755,1.199-1.83,2.123-3.223,2.773c-1.394,0.649-3.015,0.977-4.863,0.977
				C69.372,127.369,67.764,127.043,66.371,126.393z M74.652,122.447c0.846-0.781,1.27-1.861,1.27-3.242
				c0-1.145-0.43-2.199-1.289-3.164c-0.859-0.963-2.058-1.744-3.594-2.344c-1.433,0.521-2.546,1.264-3.34,2.227
				c-0.794,0.965-1.191,2.045-1.191,3.242c0,1.381,0.417,2.469,1.25,3.262c0.833,0.795,1.979,1.191,3.438,1.191
				C72.653,123.619,73.805,123.229,74.652,122.447z M74.007,108.678c0.625-0.82,0.938-1.75,0.938-2.793
				c0-1.25-0.332-2.232-0.996-2.949c-0.664-0.715-1.582-1.074-2.754-1.074c-1.146,0-2.051,0.359-2.715,1.074
				c-0.664,0.717-0.996,1.688-0.996,2.91c0,1.068,0.345,2.012,1.035,2.832s1.647,1.439,2.871,1.855
				C72.51,110.117,73.382,109.498,74.007,108.678z"/>
			<path d="M84.789,123.834c-1.484-2.355-2.227-6.047-2.227-11.074c0-5.025,0.742-8.717,2.227-11.074
				c1.484-2.354,3.762-3.535,6.836-3.535c3.098,0,5.396,1.181,6.895,3.535c1.496,2.357,2.246,6.049,2.246,11.074
				c0,5.027-0.75,8.719-2.246,11.074c-1.498,2.357-3.783,3.535-6.854,3.535C88.564,127.369,86.273,126.191,84.789,123.834z
				 M95.082,120.865c0.715-1.705,1.074-4.406,1.074-8.105c0-3.723-0.359-6.432-1.074-8.125c-0.717-1.691-1.869-2.539-3.457-2.539
				c-1.563,0-2.695,0.848-3.398,2.539c-0.703,1.693-1.055,4.402-1.055,8.125c0,3.725,0.352,6.434,1.055,8.125
				c0.703,1.693,1.849,2.539,3.438,2.539C93.227,123.424,94.365,122.572,95.082,120.865z"/>
			<path d="M102.883,114.877c0-3.484,1.242-5.227,3.727-5.227c2.486,0,3.728,1.742,3.728,5.227s-1.241,5.227-3.728,5.227
				C104.125,120.104,102.883,118.361,102.883,114.877z M107.523,117.291c0.188-0.5,0.281-1.305,0.281-2.414
				s-0.095-1.914-0.281-2.414c-0.188-0.5-0.492-0.75-0.914-0.75s-0.728,0.25-0.914,0.75c-0.188,0.5-0.281,1.305-0.281,2.414
				s0.094,1.914,0.281,2.414c0.187,0.5,0.492,0.75,0.914,0.75S107.336,117.791,107.523,117.291z M114.906,109.932h2.508
				l-7.523,16.969h-2.508L114.906,109.932z M114.461,121.955c0-3.484,1.242-5.227,3.727-5.227c2.485,0,3.728,1.742,3.728,5.227
				s-1.242,5.227-3.728,5.227C115.703,127.182,114.461,125.439,114.461,121.955z M119.102,124.369
				c0.188-0.5,0.281-1.305,0.281-2.414s-0.094-1.914-0.281-2.414c-0.187-0.5-0.492-0.75-0.914-0.75s-0.727,0.25-0.914,0.75
				c-0.187,0.5-0.28,1.305-0.28,2.414s0.094,1.914,0.28,2.414c0.188,0.5,0.492,0.75,0.914,0.75S118.914,124.869,119.102,124.369z"/>
		</g>
	</g>
	<g>
		<path d="M75.905,74.485c-8.748,0-15.865-5.989-15.865-13.351h5c0,4.605,4.874,8.351,10.865,8.351
			c6.001,0,10.883-3.746,10.883-8.351h5C91.788,68.496,84.663,74.485,75.905,74.485z"/>
		<path d="M59.829,127.395h-6.791c-1.381,0-2.5-1.119-2.5-2.5V86.449h5v35.945h4.291V127.395z"/>
		<path d="M115.895,94.959h-5l-0.004-17.203c0-1.336-0.697-2.534-1.861-3.208c-0.123-0.071-0.238-0.151-0.346-0.24L87.576,61.596
			c-0.028-0.018-0.057-0.035-0.085-0.054L70.626,50.435c-2.224-1.562-3.663-3.835-4.116-6.444c-0.455-2.6,0.13-5.225,1.648-7.387
			c1.519-2.166,3.791-3.608,6.396-4.062c2.598-0.456,5.22,0.129,7.381,1.648c2.164,1.521,3.604,3.795,4.058,6.403l-4.927,0.855
			c-0.224-1.291-0.937-2.416-2.006-3.168c-1.067-0.75-2.363-1.038-3.645-0.813c-1.291,0.225-2.414,0.938-3.165,2.007
			c-0.75,1.07-1.04,2.37-0.815,3.658c0.225,1.294,0.936,2.418,2.002,3.168l16.761,11.038l21.426,12.903
			c0.12,0.073,0.233,0.154,0.337,0.244c2.436,1.604,3.928,4.344,3.928,7.266L115.895,94.959z"/>
		<path d="M53.038,100.959h-14.57c-1.381,0-2.5-1.119-2.5-2.5c0-0.059,0.002-0.117,0.006-0.174l0.012-20.535
			c0-3.09,1.672-5.977,4.363-7.531l21.43-12.906l12.272-8.052l2.742,4.181l-12.354,8.104l-21.55,12.98
			c-1.206,0.697-1.903,1.895-1.903,3.226l-0.01,18.208h12.063L53.038,100.959L53.038,100.959z"/>
	</g>
</g>
</svg>
