<?xml version="1.0" encoding="utf-8"?>
<!-- Generator: Adobe Illustrator 16.0.0, SVG Export Plug-In . SVG Version: 6.00 Build 0)  -->
<!DOCTYPE svg PUBLIC "-//W3C//DTD SVG 1.1//EN" "http://www.w3.org/Graphics/SVG/1.1/DTD/svg11.dtd">
<svg version="1.1" id="Layer_1" xmlns="http://www.w3.org/2000/svg" xmlns:xlink="http://www.w3.org/1999/xlink" x="0px" y="0px"
	 width="160px" height="160px" viewBox="0 0 160 160" enable-background="new 0 0 160 160" xml:space="preserve">
<g>
	<path fill="none" stroke="#EF3E38" stroke-width="0.1" stroke-linejoin="round" stroke-miterlimit="10" d="M80,68.617"/>
	<g>
		<path d="M74.084,71.935c-8.75,0-15.869-5.99-15.869-13.354h5c0,4.606,4.876,8.354,10.869,8.354c5.998,0,10.879-3.748,10.879-8.354
			h5C89.963,65.945,82.84,71.935,74.084,71.935z"/>
		<path d="M76.6,124.843H51.214c-1.381,0-2.5-1.118-2.5-2.5V83.896h5v35.945H76.6V124.843z"/>
		<path d="M114.066,75.201h-5c0-1.332-0.696-2.53-1.863-3.206c-0.123-0.071-0.238-0.151-0.346-0.24L85.751,59.046
			c-0.028-0.017-0.058-0.035-0.085-0.054L68.803,47.884c-2.223-1.563-3.662-3.834-4.117-6.441
			c-0.936-5.378,2.673-10.515,8.045-11.451c2.596-0.458,5.217,0.127,7.378,1.645c2.165,1.521,3.607,3.795,4.061,6.405l-4.926,0.856
			c-0.225-1.292-0.938-2.417-2.009-3.169c-1.066-0.749-2.357-1.038-3.642-0.811c-2.661,0.463-4.445,3.005-3.982,5.667
			c0.225,1.291,0.938,2.416,2.005,3.167l16.758,11.037L109.8,67.69c0.12,0.072,0.232,0.154,0.337,0.243
			C112.572,69.538,114.066,72.278,114.066,75.201z"/>
		<path d="M51.214,98.406H36.645c-1.381,0-2.5-1.119-2.5-2.5c0-0.059,0.002-0.116,0.006-0.174l0.012-20.533
			c0-3.089,1.671-5.976,4.361-7.532l21.432-12.905l12.272-8.053l2.742,4.181l-12.354,8.104L41.064,71.973
			c-1.205,0.698-1.902,1.896-1.902,3.228l-0.01,18.206h12.062V98.406z"/>
	</g>
	<g>
		<g>
			<g>
				<path d="M102.938,124.582l-3.439-3.53c2.215-2.044,3.292-4.267,3.292-6.793c0-2.301-0.271-4.694-3.524-8.655
					c-0.033-0.039-0.064-0.08-0.095-0.123c-3.75-4.607-4.522-7.963-4.522-11.57c0-3.881,1.641-7.354,4.873-10.326l3.434,3.537
					c-2.225,2.044-3.307,4.266-3.307,6.789c0,2.298,0.271,4.688,3.528,8.656c0.033,0.039,0.064,0.08,0.095,0.123
					c3.748,4.602,4.52,7.957,4.52,11.569C107.789,118.139,106.156,121.611,102.938,124.582z"/>
				<path fill="#FFFFFF" d="M99.52,83.583l3.435,3.537c-2.226,2.044-3.306,4.266-3.306,6.789c0,2.298,0.27,4.688,3.527,8.657
					c0.033,0.039,0.064,0.08,0.094,0.121c3.748,4.603,4.521,7.959,4.521,11.57c0,3.879-1.633,7.354-4.853,10.323l-3.439-3.53
					c2.215-2.044,3.292-4.267,3.292-6.793c0-2.301-0.271-4.693-3.524-8.654c-0.033-0.039-0.064-0.082-0.095-0.123
					c-3.75-4.608-4.522-7.963-4.522-11.571C94.646,90.029,96.287,86.555,99.52,83.583 M99.678,78.003l-2.865,2.634
					c-4.033,3.709-6.164,8.299-6.164,13.271c0,5.251,1.552,9.316,5.353,14.014c0.062,0.08,0.124,0.16,0.188,0.236
					c2.602,3.171,2.602,4.66,2.602,6.1c0,0.934-0.229,2.215-2.005,3.854l-3.021,2.787l2.868,2.944l3.44,3.53l2.717,2.788
					l2.859-2.642c4.017-3.705,6.14-8.293,6.14-13.263c0-5.256-1.551-9.323-5.351-14.012c-0.06-0.08-0.121-0.159-0.186-0.235
					c-2.605-3.179-2.605-4.664-2.605-6.103c0-0.929,0.229-2.205,2.012-3.845l3.027-2.78l-2.863-2.95l-3.434-3.537L99.678,78.003
					L99.678,78.003z"/>
			</g>
		</g>
		<path d="M88.668,124.582l-3.439-3.53c2.215-2.044,3.293-4.267,3.293-6.793c0-2.301-0.271-4.694-3.524-8.655
			c-0.033-0.039-0.065-0.08-0.097-0.123c-3.75-4.607-4.521-7.963-4.521-11.57c0-3.881,1.64-7.354,4.872-10.326l3.434,3.537
			c-2.225,2.044-3.306,4.266-3.306,6.789c0,2.298,0.271,4.688,3.528,8.656c0.031,0.039,0.063,0.08,0.094,0.123
			c3.747,4.603,4.52,7.957,4.52,11.569C93.521,118.139,91.889,121.611,88.668,124.582z"/>
		<g>
			<g>
				<path d="M116.443,124.582l-3.44-3.531c2.216-2.043,3.292-4.265,3.292-6.792c0-2.301-0.27-4.694-3.523-8.655
					c-0.037-0.043-0.069-0.088-0.104-0.133c-3.742-4.604-4.514-7.955-4.514-11.562c0-3.882,1.64-7.354,4.873-10.327l3.433,3.538
					c-2.226,2.044-3.306,4.265-3.306,6.789c0,2.298,0.27,4.688,3.529,8.657c0.034,0.043,0.067,0.086,0.101,0.131
					c3.739,4.599,4.511,7.951,4.511,11.562C121.295,118.139,119.663,121.611,116.443,124.582z"/>
				<path fill="#FFFFFF" d="M113.027,83.582l3.433,3.538c-2.226,2.044-3.306,4.265-3.306,6.789c0,2.298,0.27,4.688,3.529,8.657
					c0.034,0.043,0.067,0.086,0.101,0.131c3.739,4.599,4.511,7.951,4.511,11.562c0,3.88-1.632,7.353-4.852,10.323l-3.44-3.531
					c2.216-2.043,3.292-4.265,3.292-6.792c0-2.301-0.27-4.694-3.523-8.655c-0.037-0.043-0.069-0.088-0.104-0.133
					c-3.742-4.604-4.514-7.955-4.514-11.562C108.154,90.027,109.794,86.555,113.027,83.582 M113.188,78.002l-2.867,2.635
					c-4.033,3.709-6.166,8.297-6.166,13.272c0,5.253,1.554,9.319,5.357,14.021c0.064,0.084,0.129,0.168,0.197,0.248
					c2.586,3.147,2.586,4.639,2.586,6.081c0,0.933-0.229,2.214-2.003,3.853l-3.022,2.787l2.869,2.943l3.439,3.531l2.717,2.788
					l2.861-2.64c4.016-3.705,6.139-8.293,6.139-13.264c0-5.257-1.552-9.324-5.354-14.019c-0.053-0.069-0.106-0.14-0.162-0.207
					c-2.625-3.196-2.625-4.685-2.625-6.124c0-0.93,0.229-2.205,2.012-3.844l3.027-2.78l-2.862-2.95l-3.433-3.538L113.188,78.002
					L113.188,78.002z"/>
			</g>
		</g>
	</g>
</g>
</svg>
