<?xml version="1.0" encoding="utf-8"?>
<!-- Generator: Adobe Illustrator 16.0.3, SVG Export Plug-In . SVG Version: 6.00 Build 0)  -->
<!DOCTYPE svg PUBLIC "-//W3C//DTD SVG 1.1//EN" "http://www.w3.org/Graphics/SVG/1.1/DTD/svg11.dtd">
<svg version="1.1" id="Layer_1" xmlns="http://www.w3.org/2000/svg" xmlns:xlink="http://www.w3.org/1999/xlink" x="0px" y="0px"
	 width="156px" height="156px" viewBox="0 0 156 156" enable-background="new 0 0 156 156" xml:space="preserve">
<g>
	<g>
		<path d="M111.44,67.498c0.006,0.006,0.016,0.01,0.02,0.016C111.462,67.514,111.21,67.249,111.44,67.498z M97.077,123.003H52.066
			v-38c0-1.406-1.129-3-2.536-3c-1.408,0-2.464,1.594-2.464,3v10h-11V75.004c0,0,0.427-2.021,2.38-3.433
			c0.008-0.004,0.015-0.01,0.024-0.017c0.006-0.003,0.014-0.004,0.021-0.009l18.569-11.255c1.574,6.385,8.984,10.713,17.006,10.713
			c8.072,0,14.108-4.356,15.653-10.771L108.11,71.38c0.086,0.066,0.268,0.191,0.268,0.191s-0.602-0.252,0.277,0.151
			c0.324,0.149,0.688,0.232,1.066,0.232c1.41,0,2.555-1.144,2.555-2.556c0-0.674-0.262-1.287-0.689-1.744
			c-0.063-0.068-0.107-0.118-0.145-0.157c-0.123-0.114-0.258-0.22-0.408-0.312L88.437,53.491L70.295,41.753
			c-1.14-0.814-1.902-2.025-2.143-3.415c-0.499-2.889,1.417-5.812,4.273-6.313c1.362-0.239,3.368,0.066,4.513,0.866
			c1.167,0.814,1.943,2.202,2.186,3.607c0.24,1.388,1.354,2.66,2.742,2.408c1.387-0.239,2.564-1.765,2.201-3.275
			c-0.652-2.716-2.115-5.19-4.396-6.789c-2.266-1.586-5.073-2.136-7.77-1.664c-5.617,0.984-9.674,6.373-8.696,12.028
			c0.474,2.734,2.308,5.119,4.563,6.717c0.008,0.006,0.017,0.006,0.023,0.012c0.016,0.012,0.026,0.023,0.041,0.034l1.23,1.034
			l-10.576,6.458L35.846,67.187c-0.02,0.012-0.033,0.026-0.052,0.039c-2.75,1.639-4.727,4.571-4.728,7.777v22c0,1.406,1.592,3,3,3
			h13v25c0,1.406,1.592,3,3,3h47.011c1.408,0,3.016-1.213,3.016-2.621C100.093,123.976,98.485,123.003,97.077,123.003z
			 M62.061,56.952l12.006-6.949l11.02,7c0,0.04,0.029,0.009,0.029,0.049c0,4.944-4.651,8.951-11.049,8.951
			c-6.372,0-12.047-4.049-12.047-8.993C62.02,57.01,62.307,56.463,62.061,56.952z M132.874,112.505l-16.053-9.346l16.043-9.346
			c1.23-0.715,1.646-2.291,0.93-3.518s-2.291-1.643-3.518-0.928l-16.16,9.316l0.004-18.68c0-1.42-0.992-2.573-2.41-2.573
			c-1.422,0-2.572,1.151-2.574,2.573l-0.002,18.676l-15.998-9.313c-1.229-0.715-2.805-0.299-3.518,0.928
			c-0.717,1.227-0.299,2.803,0.93,3.518l16.049,9.346l-16.049,9.346c-1.229,0.715-1.646,2.291-0.93,3.52
			c0.479,0.818,1.342,1.275,2.227,1.275c0.439,0,0.885-0.109,1.291-0.35l15.996-9.314l-0.004,18.66c0,1.422,1.152,2.572,2.574,2.574
			c1.422,0,2.408-1.152,2.41-2.574l0.002-18.664l16.17,9.32c0.406,0.236,0.852,0.35,1.291,0.35c0.885,0,1.746-0.459,2.227-1.277
			C134.517,114.796,134.101,113.22,132.874,112.505z"/>
	</g>
</g>
</svg>
