<?xml version="1.0" encoding="utf-8"?>
<!-- Generator: Adobe Illustrator 16.0.0, SVG Export Plug-In . SVG Version: 6.00 Build 0)  -->
<!DOCTYPE svg PUBLIC "-//W3C//DTD SVG 1.1//EN" "http://www.w3.org/Graphics/SVG/1.1/DTD/svg11.dtd">
<svg version="1.1" id="Layer_1" xmlns="http://www.w3.org/2000/svg" xmlns:xlink="http://www.w3.org/1999/xlink" x="0px" y="0px"
	 width="160px" height="160px" viewBox="0 0 160 160" enable-background="new 0 0 160 160" xml:space="preserve">
<g>
	<g>
		<g>
			<g>
				<rect x="101.9" y="75.2" width="5" height="45.8"/>
			</g>
			<g>
				<path d="M104.4,123.5H80c-1.381,0-2.5-1.119-2.5-2.5s1.119-2.5,2.5-2.5h24.4c1.382,0,2.5,1.119,2.5,2.5
					S105.782,123.5,104.4,123.5z"/>
			</g>
			<g>
				<path d="M94.65,51.133c-1.381,0-2.5-1.119-2.5-2.5V39c0-1.381,1.119-2.5,2.5-2.5s2.5,1.119,2.5,2.5v9.633
					C97.15,50.014,96.031,51.133,94.65,51.133z"/>
			</g>
			<g>
				<path d="M94.654,41.5H80c-1.381,0-2.5-1.119-2.5-2.5s1.119-2.5,2.5-2.5h14.654c1.382,0,2.5,1.119,2.5,2.5
					S96.036,41.5,94.654,41.5z"/>
			</g>
			<g>
				<path d="M80,123.5c-1.381,0-2.5-1.119-2.5-2.5V39c0-1.381,1.119-2.5,2.5-2.5s2.5,1.119,2.5,2.5v82
					C82.5,122.381,81.381,123.5,80,123.5z"/>
			</g>
			<g>
				<rect x="53.104" y="75.2" width="5" height="45.8"/>
			</g>
			<g>
				<path d="M80,123.5H55.604c-1.381,0-2.5-1.119-2.5-2.5s1.119-2.5,2.5-2.5H80c1.381,0,2.5,1.119,2.5,2.5S81.381,123.5,80,123.5z"
					/>
			</g>
			<g>
				<path d="M65.35,51.133c-1.381,0-2.5-1.119-2.5-2.5V39c0-1.381,1.119-2.5,2.5-2.5c1.381,0,2.5,1.119,2.5,2.5v9.633
					C67.85,50.014,66.731,51.133,65.35,51.133z"/>
			</g>
			<g>
				<path d="M80.006,41.5H65.345c-1.381,0-2.5-1.119-2.5-2.5s1.119-2.5,2.5-2.5h14.661c1.381,0,2.5,1.119,2.5,2.5
					S81.387,41.5,80.006,41.5z"/>
			</g>
			<g>
				<g>
					<path d="M121.473,118.675H104.4c-1.381,0-2.5-1.118-2.5-2.5c0-1.381,1.119-2.5,2.5-2.5h17.072c1.381,0,2.5,1.119,2.5,2.5
						C123.973,117.557,122.854,118.675,121.473,118.675z"/>
				</g>
				<g>
					<path d="M121.5,118.675c-1.381,0-2.5-1.118-2.5-2.5l-0.006-48.238c0-1.381,1.119-2.5,2.5-2.5s2.5,1.119,2.5,2.5L124,116.174
						C124,117.555,122.881,118.675,121.5,118.675z"/>
				</g>
				<g>
					<path d="M99.525,51.144h-4.871c-1.381,0-2.5-1.119-2.5-2.5s1.119-2.5,2.5-2.5h4.871c1.382,0,2.5,1.119,2.5,2.5
						S100.907,51.144,99.525,51.144z"/>
				</g>
				<g>
					<path d="M118.332,64.488c-0.555,0-1.114-0.184-1.578-0.562l-13.921-11.344c-1.069-0.872-1.231-2.447-0.358-3.517
						s2.446-1.23,3.517-0.359l13.921,11.344c1.07,0.872,1.23,2.447,0.359,3.517C119.777,64.173,119.059,64.488,118.332,64.488z"/>
				</g>
				<g>
					<path d="M104.412,53.193c-0.624,0-1.248-0.232-1.732-0.698c-0.873-0.84-2.021-1.325-3.234-1.364
						c-1.381-0.044-2.463-1.199-2.418-2.579c0.043-1.38,1.217-2.452,2.578-2.418c2.451,0.079,4.773,1.058,6.541,2.757
						c0.994,0.958,1.024,2.54,0.067,3.535C105.725,52.937,105.068,53.193,104.412,53.193z"/>
				</g>
				<g>
					<path d="M121.479,70.427c-1.381,0-2.5-1.119-2.5-2.5c0-1.548-0.771-2.998-2.061-3.88c-1.141-0.779-1.434-2.335-0.652-3.475
						c0.779-1.14,2.334-1.432,3.475-0.653c2.654,1.814,4.238,4.808,4.238,8.008C123.979,69.308,122.857,70.427,121.479,70.427z"/>
				</g>
			</g>
			<g>
				<g>
					<path d="M55.599,118.675H38.528c-1.381,0-2.5-1.118-2.5-2.5c0-1.381,1.119-2.5,2.5-2.5h17.071c1.381,0,2.5,1.119,2.5,2.5
						C58.099,117.557,56.979,118.675,55.599,118.675z"/>
				</g>
				<g>
					<path d="M38.5,118.675L38.5,118.675c-1.381,0-2.5-1.12-2.5-2.5l0.005-48.238c0-1.38,1.12-2.5,2.5-2.5l0,0
						c1.38,0,2.5,1.12,2.5,2.5L41,116.175C41,117.557,39.88,118.675,38.5,118.675z"/>
				</g>
				<g>
					<path d="M65.345,51.144H60.48c-1.381,0-2.5-1.119-2.5-2.5s1.119-2.5,2.5-2.5h4.865c1.381,0,2.5,1.119,2.5,2.5
						S66.726,51.144,65.345,51.144z"/>
				</g>
				<g>
					<path d="M41.668,64.488c-0.726,0-1.445-0.314-1.939-0.921c-0.872-1.07-0.711-2.645,0.359-3.517l13.921-11.344
						c1.07-0.872,2.646-0.711,3.517,0.359c0.872,1.07,0.711,2.645-0.359,3.517L43.246,63.926
						C42.782,64.304,42.223,64.488,41.668,64.488z"/>
				</g>
				<g>
					<path d="M55.594,53.193c-0.656,0-1.311-0.256-1.802-0.767c-0.957-0.995-0.927-2.578,0.068-3.535
						c1.767-1.699,4.089-2.679,6.54-2.757c1.367-0.069,2.534,1.038,2.579,2.418c0.044,1.38-1.038,2.535-2.418,2.579
						c-1.212,0.039-2.361,0.523-3.234,1.364C56.842,52.961,56.217,53.193,55.594,53.193z"/>
				</g>
				<g>
					<path d="M38.522,70.427c-1.381,0-2.5-1.119-2.5-2.5c0-3.2,1.584-6.194,4.239-8.008c1.141-0.779,2.696-0.486,3.475,0.653
						c0.779,1.14,0.487,2.695-0.653,3.475c-1.29,0.882-2.06,2.332-2.06,3.88C41.022,69.308,39.903,70.427,38.522,70.427z"/>
				</g>
			</g>
		</g>
	</g>
	<g>
		<rect x="56.568" y="87.805" width="11.302" height="5"/>
	</g>
	<g>
		<rect x="93.094" y="87.805" width="11.301" height="5"/>
	</g>
	<g>
		<rect x="56.568" y="101.71" width="11.302" height="5"/>
	</g>
	<g>
		<rect x="93.094" y="101.71" width="11.301" height="5"/>
	</g>
</g>
</svg>
