<?xml version="1.0" encoding="utf-8"?>
<!-- Generator: Adobe Illustrator 16.0.0, SVG Export Plug-In . SVG Version: 6.00 Build 0)  -->
<!DOCTYPE svg PUBLIC "-//W3C//DTD SVG 1.1//EN" "http://www.w3.org/Graphics/SVG/1.1/DTD/svg11.dtd">
<svg version="1.1" id="Layer_1" xmlns="http://www.w3.org/2000/svg" xmlns:xlink="http://www.w3.org/1999/xlink" x="0px" y="0px"
	 width="160px" height="160px" viewBox="0 0 160 160" enable-background="new 0 0 160 160" xml:space="preserve">
<g>
	<g>
		<g>
			<g>
				<path d="M85.42,127.432c-1.482,0-3.061-1.162-3.061-3.318V97.893c0-2.156,1.576-3.319,3.061-3.319
					c0.734,0,1.467,0.264,2.118,0.762l16.7,12.796c0.926,0.708,1.457,1.755,1.457,2.871s-0.531,2.163-1.457,2.873l-16.699,12.794
					C86.887,127.168,86.154,127.432,85.42,127.432z M87.359,101.498v19.009l12.406-9.504L87.359,101.498z"/>
			</g>
		</g>
		<g>
			<g>
				<path d="M104.424,127.425c-1.479,0-3.048-1.161-3.048-3.313V97.893c0-2.151,1.571-3.313,3.048-3.313
					c0.745,0,1.486,0.272,2.143,0.787l16.287,12.769c0.91,0.713,1.432,1.76,1.431,2.869c0,1.109-0.522,2.154-1.433,2.867
					l-16.285,12.768C105.91,127.152,105.169,127.425,104.424,127.425z M106.375,101.57v18.865l12.029-9.434L106.375,101.57z"/>
			</g>
		</g>
	</g>
	<g>
		<g>
			<path d="M75.656,74.594c-8.75,0-15.868-5.99-15.868-13.354h5c0,4.606,4.875,8.354,10.868,8.354
				c5.999,0,10.879-3.748,10.879-8.354h5C91.536,68.604,84.412,74.594,75.656,74.594z"/>
		</g>
		<g>
			<path d="M74.308,127.501H52.787c-1.381,0-2.5-1.119-2.5-2.5V86.557h5v35.944h19.021V127.501z"/>
		</g>
		<g>
			<path d="M115.643,88.386h-5l-0.002-10.524c0-1.334-0.697-2.532-1.863-3.207c-0.123-0.071-0.239-0.152-0.346-0.24l-21.106-12.71
				c-0.029-0.017-0.058-0.035-0.085-0.054L70.375,50.543c-2.223-1.562-3.663-3.835-4.116-6.443
				c-0.453-2.603,0.132-5.227,1.649-7.389c1.519-2.165,3.791-3.607,6.396-4.061c2.596-0.457,5.217,0.127,7.379,1.646
				c2.164,1.521,3.605,3.795,4.06,6.404l-4.927,0.855c-0.225-1.291-0.938-2.416-2.007-3.168c-1.066-0.75-2.358-1.037-3.643-0.812
				c-1.292,0.225-2.414,0.937-3.165,2.007c-0.751,1.071-1.041,2.371-0.816,3.66c0.225,1.292,0.937,2.417,2.003,3.167l16.759,11.037
				l21.425,12.902c0.12,0.072,0.231,0.154,0.336,0.243c2.437,1.604,3.931,4.344,3.931,7.268L115.643,88.386z"/>
		</g>
		<g>
			<path d="M52.787,101.064h-14.57c-1.381,0-2.5-1.119-2.5-2.5c0-0.059,0.002-0.115,0.006-0.174l0.012-20.533
				c0-3.091,1.671-5.977,4.361-7.532l21.431-12.905l12.272-8.052l2.742,4.181l-12.354,8.103L42.636,74.632
				c-1.206,0.697-1.902,1.895-1.902,3.227l-0.01,18.206h12.063V101.064z"/>
		</g>
	</g>
</g>
</svg>
