<?xml version="1.0" encoding="utf-8"?>
<!-- Generator: Adobe Illustrator 16.0.0, SVG Export Plug-In . SVG Version: 6.00 Build 0)  -->
<!DOCTYPE svg PUBLIC "-//W3C//DTD SVG 1.1//EN" "http://www.w3.org/Graphics/SVG/1.1/DTD/svg11.dtd">
<svg version="1.1" id="Layer_1" xmlns="http://www.w3.org/2000/svg" xmlns:xlink="http://www.w3.org/1999/xlink" x="0px" y="0px"
	 width="160px" height="160px" viewBox="0 0 160 160" enable-background="new 0 0 160 160" xml:space="preserve">
<g>
	<g>
		<g>
			
				<rect x="30.502" y="77.971" transform="matrix(-0.7071 -0.7071 0.7071 -0.7071 79.6658 193.9393)" width="98.995" height="4.999"/>
		</g>
	</g>
	<g>
		<path d="M81.791,118.5c-1.105,0-2.213-0.038-3.276-0.115c-2.828-0.215-5.98-0.77-8.659-1.521
			c-2.727-0.751-5.758-1.923-8.306-3.212c-2.596-1.313-5.368-3.069-7.604-4.822c-2.287-1.791-4.693-4.091-6.6-6.311
			c-1.898-2.205-3.832-4.961-5.301-7.56c-1.466-2.62-2.827-5.745-3.737-8.586c-0.933-2.851-1.667-6.226-2.007-9.244
			c-0.347-3.053-0.397-6.544-0.136-9.579c0.259-3.056,0.911-6.533,1.787-9.538l4.8,1.399c-0.787,2.7-1.372,5.821-1.605,8.563
			c-0.233,2.721-0.189,5.851,0.123,8.591c0.304,2.697,0.959,5.709,1.796,8.266c0.818,2.551,2.033,5.344,3.338,7.676
			c1.31,2.316,3.037,4.779,4.733,6.749c1.704,1.984,3.851,4.037,5.893,5.636c1.991,1.561,4.46,3.125,6.776,4.297
			c2.265,1.146,4.958,2.187,7.389,2.855c2.353,0.66,5.223,1.164,7.69,1.352c2.521,0.184,5.321,0.119,7.674-0.176
			c2.365-0.279,5.057-0.873,7.396-1.633c2.23-0.727,4.706-1.813,6.786-2.982c2-1.125,4.229-2.684,5.962-4.166
			c1.751-1.506,3.549-3.388,4.929-5.154c1.345-1.723,2.741-3.932,3.737-5.912c0.986-1.966,1.885-4.303,2.462-6.409
			c0.556-2.049,0.968-4.522,1.101-6.615c0.143-2.09,0.063-4.496-0.214-6.611c-0.276-2-0.841-4.358-1.508-6.292
			c-0.674-1.928-1.646-4.031-2.666-5.762c-1.046-1.761-2.394-3.596-3.69-5.025c-1.304-1.459-2.953-2.971-4.541-4.161
			c-1.519-1.127-3.449-2.289-5.156-3.102c-1.686-0.803-3.715-1.533-5.566-2.002c-1.773-0.448-3.913-0.77-5.723-0.86
			c-1.815-0.092-3.877,0.009-5.668,0.276c-1.729,0.253-3.735,0.754-5.375,1.338c-1.617,0.57-3.437,1.427-4.876,2.298
			c-1.461,0.875-3,2.021-4.234,3.151c-1.225,1.111-2.501,2.527-3.424,3.796c-0.94,1.272-1.889,2.877-2.548,4.312
			c-0.643,1.384-1.236,3.097-1.591,4.593c-0.352,1.496-0.58,3.204-0.625,4.68c-0.046,1.455,0.074,3.171,0.319,4.592
			c0.247,1.436,0.683,3.007,1.198,4.313c0.503,1.295,1.228,2.715,1.991,3.903c0.696,1.091,1.684,2.331,2.646,3.323
			c0.938,0.953,2.098,1.927,3.166,2.656c1.075,0.724,2.399,1.443,3.527,1.918c1.142,0.48,2.534,0.912,3.729,1.153
			c1.159,0.242,2.56,0.386,3.761,0.386c1.195,0,2.518-0.132,3.631-0.361c1.113-0.215,2.365-0.598,3.375-1.029
			c1.006-0.417,2.119-1.02,3.005-1.622c0.851-0.577,1.783-1.358,2.5-2.094c0.685-0.712,1.412-1.63,1.937-2.447
			c0.531-0.847,1.029-1.83,1.354-2.683c0.313-0.826,0.59-1.867,0.737-2.771c0.138-0.866,0.197-1.888,0.156-2.719
			c-0.043-0.843-0.187-1.79-0.393-2.593c-0.201-0.779-0.523-1.643-0.864-2.306c-0.341-0.702-0.809-1.447-1.274-2.043
			c-0.442-0.553-1.043-1.173-1.592-1.64c-0.506-0.417-1.172-0.866-1.754-1.174c-0.582-0.308-1.279-0.593-1.865-0.76
			c-0.601-0.172-1.315-0.304-1.875-0.345c-0.573-0.042-1.239-0.024-1.782,0.051l-0.685-4.953c0.885-0.123,1.92-0.153,2.84-0.083
			c0.897,0.066,1.949,0.257,2.877,0.524c0.912,0.26,1.945,0.679,2.834,1.149c0.877,0.466,1.832,1.107,2.623,1.761
			c0.817,0.696,1.646,1.55,2.3,2.368c0.698,0.892,1.36,1.948,1.829,2.917c0.488,0.952,0.935,2.138,1.231,3.29
			c0.29,1.133,0.482,2.406,0.543,3.59c0.058,1.176-0.021,2.547-0.214,3.766c-0.204,1.242-0.566,2.604-1,3.75
			c-0.447,1.168-1.087,2.438-1.806,3.582c-0.714,1.114-1.646,2.293-2.571,3.254c-0.961,0.983-2.15,1.98-3.275,2.744
			c-1.164,0.795-2.58,1.561-3.879,2.098c-1.312,0.561-2.899,1.048-4.334,1.324c-1.402,0.289-3.093,0.457-4.609,0.457
			c-1.548,0-3.286-0.178-4.77-0.486c-1.509-0.307-3.214-0.834-4.661-1.443c-1.427-0.6-3.029-1.47-4.394-2.387
			c-1.339-0.915-2.768-2.114-3.937-3.301c-1.214-1.254-2.404-2.752-3.28-4.123c-0.932-1.452-1.821-3.195-2.436-4.776
			c-0.631-1.598-1.168-3.529-1.47-5.286c-0.303-1.759-0.445-3.798-0.389-5.594c0.054-1.794,0.33-3.864,0.756-5.676
			c0.436-1.836,1.134-3.854,1.918-5.542c0.802-1.744,1.917-3.632,3.055-5.17c1.116-1.537,2.611-3.195,4.087-4.535
			c1.462-1.339,3.297-2.706,5.024-3.74c1.731-1.047,3.844-2.043,5.784-2.726c1.95-0.696,4.255-1.27,6.313-1.572
			c2.099-0.313,4.522-0.431,6.652-0.324c2.149,0.108,4.591,0.475,6.696,1.007c2.158,0.546,4.523,1.397,6.49,2.335
			c2.012,0.958,4.197,2.273,5.996,3.608c1.852,1.388,3.768,3.143,5.268,4.823c1.5,1.652,3.064,3.781,4.279,5.826
			c1.182,2.008,2.305,4.435,3.086,6.667c0.78,2.266,1.414,4.911,1.738,7.266c0.32,2.443,0.41,5.209,0.248,7.604
			c-0.154,2.434-0.616,5.207-1.266,7.604c-0.662,2.416-1.688,5.089-2.818,7.34c-1.152,2.292-2.707,4.749-4.264,6.742
			c-1.573,2.017-3.619,4.156-5.613,5.873c-2,1.712-4.465,3.435-6.768,4.729c-2.356,1.324-5.16,2.556-7.693,3.38
			c-2.641,0.855-5.678,1.525-8.337,1.84C85.505,118.395,83.646,118.5,81.791,118.5z"/>
	</g>
</g>
</svg>
