<?xml version="1.0" encoding="utf-8"?>
<!-- Generator: Adobe Illustrator 16.0.0, SVG Export Plug-In . SVG Version: 6.00 Build 0)  -->
<!DOCTYPE svg PUBLIC "-//W3C//DTD SVG 1.1//EN" "http://www.w3.org/Graphics/SVG/1.1/DTD/svg11.dtd">
<svg version="1.1" id="Layer_1" xmlns="http://www.w3.org/2000/svg" xmlns:xlink="http://www.w3.org/1999/xlink" x="0px" y="0px"
	 width="156px" height="156px" viewBox="0 0 156 156" enable-background="new 0 0 156 156" xml:space="preserve">
<g>
	<path d="M83.005,54.678c-5.655,0-10.835,2.052-14.873,5.418c-0.607,0.612-2.445,2.592-3.277,4.888v-1.587v-3.955V36.563v-0.006
		v-0.005c0-1.427-1.161-2.588-2.588-2.588c-12.852,0-23.307,10.456-23.307,23.308c0,5.75,2.124,11.002,5.597,15.07
		c0.797,0.755,2.61,2.319,4.668,3.063h-1.564c0.006,0.006,0.006,0.006,0.006,0.006H20.824c-1.427,0-2.586,1.16-2.586,2.593
		c0,12.852,10.455,23.314,23.314,23.314c5.537,0,10.622-1.959,14.63-5.198c0.102-0.101,2.487-2.379,3.473-5.091v1.621
		c0.006-0.012,0.012-0.017,0.025-0.027v26.811c0,0.719,0.291,1.367,0.767,1.838c0.47,0.471,1.118,0.768,1.832,0.768
		c12.858,0,23.321-10.461,23.321-23.319c0-5.547-1.963-10.64-5.217-14.646l-0.006,0.027c0,0-2.332-2.484-5.104-3.49h1.642
		c-0.006-0.006-0.012-0.012-0.019-0.02h26.822c0.714,0,1.363-0.291,1.832-0.767c0.478-0.464,0.769-1.118,0.769-1.832
		C106.318,65.139,95.863,54.678,83.005,54.678z M41.553,96.137c-9.125,0-16.672-6.77-17.933-15.547h35.852
		C58.211,89.367,50.664,96.137,41.553,96.137z M59.681,75.196c-8.773-1.268-15.541-8.814-15.541-17.925
		c0-9.118,6.768-16.665,15.541-17.925V75.196z M80.418,98.717c0,9.131-6.78,16.684-15.563,17.938V80.793
		C73.638,82.048,80.418,89.602,80.418,98.717z M65.074,75.41c1.261-8.778,8.808-15.552,17.931-15.552s16.677,6.773,17.931,15.552
		H65.074z"/>
	<path d="M110.497,89.408c-1.381,0-2.5,1.119-2.5,2.5v25.443c0,1.381,1.119,2.5,2.5,2.5s2.5-1.119,2.5-2.5V91.908
		C112.997,90.527,111.878,89.408,110.497,89.408z"/>
	<path d="M96.925,95.456c-1.381,0-2.5,1.119-2.5,2.5v19.396c0,1.381,1.119,2.5,2.5,2.5c1.382,0,2.5-1.119,2.5-2.5V97.956
		C99.425,96.575,98.307,95.456,96.925,95.456z"/>
	<path d="M124.064,81.73c-1.381,0-2.5,1.119-2.5,2.5v33.115c0,1.381,1.119,2.5,2.5,2.5s2.5-1.119,2.5-2.5V84.23
		C126.564,82.85,125.445,81.73,124.064,81.73z"/>
	<path d="M137.637,74.045c-1.381,0-2.5,1.119-2.5,2.5v40.801c0,1.381,1.119,2.5,2.5,2.5s2.5-1.119,2.5-2.5V76.545
		C140.137,75.164,139.018,74.045,137.637,74.045z"/>
</g>
</svg>
