<?xml version="1.0" encoding="utf-8"?>
<!-- Generator: Adobe Illustrator 16.0.0, SVG Export Plug-In . SVG Version: 6.00 Build 0)  -->
<!DOCTYPE svg PUBLIC "-//W3C//DTD SVG 1.1//EN" "http://www.w3.org/Graphics/SVG/1.1/DTD/svg11.dtd">
<svg version="1.1" id="Layer_1" xmlns="http://www.w3.org/2000/svg" xmlns:xlink="http://www.w3.org/1999/xlink" x="0px" y="0px"
	 width="160px" height="160px" viewBox="0 0 160 160" enable-background="new 0 0 160 160" xml:space="preserve">
<g>
	<g>
		<g>
			<g>
				<path d="M106.193,121H53.688c-1.381,0-2.5-1.119-2.5-2.5V70.393h5V116h47.505V70.393h5V118.5
					C108.693,119.881,107.574,121,106.193,121z"/>
			</g>
			<g>
				<path d="M122.971,89.766h-16.723v-5h14.223l-0.01-23.998c0-1.688-0.895-3.256-2.336-4.1L98.348,44h-4.121
					c-1.182,6.851-7.129,12.076-14.269,12.076c-7.134,0-13.079-5.226-14.26-12.076h-4.102L41.902,56.615
					c-1.525,0.896-2.42,2.464-2.42,4.146l-0.011,24.005h14.223v5H36.97c-0.663,0-1.299-0.265-1.768-0.732
					c-0.469-0.471-0.732-1.105-0.732-1.77l0.012-26.499c0-3.454,1.842-6.675,4.808-8.413l20.226-12.958
					C59.918,39.137,60.386,39,60.864,39h7.121c1.381,0,2.5,1.119,2.5,2.5c0,5.28,4.25,9.576,9.473,9.576
					c5.228,0,9.481-4.296,9.481-9.576c0-1.381,1.119-2.5,2.5-2.5h7.14c0.478,0,0.946,0.137,1.349,0.395l20.311,13.01
					c2.882,1.685,4.725,4.906,4.725,8.356l0.01,26.503c0,0.663-0.263,1.301-0.73,1.77C124.27,89.502,123.634,89.766,122.971,89.766z
					"/>
			</g>
		</g>
		<g>
			<path d="M76.516,108.956c-8.327,0-15.102-6.521-15.102-14.538h5c0,5.26,4.532,9.538,10.102,9.538V108.956z"/>
		</g>
		<g>
			<path d="M66.403,94.412h-5c0-4.563-3.436-8.503-8.17-9.368l0.898-4.918C61.242,81.425,66.403,87.434,66.403,94.412z"/>
		</g>
		<g>
			<path d="M91.625,118.5h-5c0-5.264-4.535-9.544-10.109-9.544v-5C84.848,103.956,91.625,110.48,91.625,118.5z"/>
		</g>
	</g>
</g>
<g>
	<path d="M89.139,118.496c0-6.648-5.645-12.044-12.606-12.044c-6.957,0-12.604-5.386-12.604-12.036l-0.01-0.006
		c0-5.875-4.401-10.766-10.223-11.826l0.007,35.912H89.139z"/>
</g>
</svg>
