<?xml version="1.0" encoding="utf-8"?>
<!-- Generator: Adobe Illustrator 16.0.0, SVG Export Plug-In . SVG Version: 6.00 Build 0)  -->
<!DOCTYPE svg PUBLIC "-//W3C//DTD SVG 1.1//EN" "http://www.w3.org/Graphics/SVG/1.1/DTD/svg11.dtd">
<svg version="1.1" id="Layer_1" xmlns="http://www.w3.org/2000/svg" xmlns:xlink="http://www.w3.org/1999/xlink" x="0px" y="0px"
	 width="160px" height="160px" viewBox="0 0 160 160" enable-background="new 0 0 160 160" xml:space="preserve">
<g>
	<g>
		<g>
			<path d="M105.911,121H53.405c-1.381,0-2.5-1.119-2.5-2.5V67.394h5V116h47.506V67.394h5V118.5
				C108.411,119.881,107.292,121,105.911,121z"/>
			<path d="M122.688,82.497h-16.723v-5h14.221l-0.008-16.728c0-1.688-0.895-3.257-2.334-4.101L98.063,44h-4.119
				c-1.18,6.851-7.129,12.077-14.269,12.077c-7.134,0-13.079-5.226-14.26-12.077h-4.103L41.619,56.616
				c-1.525,0.896-2.42,2.464-2.42,4.146l-0.01,16.734h14.223v5H36.688c-0.663,0-1.299-0.264-1.768-0.732
				c-0.469-0.47-0.732-1.105-0.732-1.77L34.2,60.765c0-3.454,1.842-6.676,4.808-8.412l20.225-12.959
				C59.635,39.137,60.103,39,60.581,39h7.122c1.381,0,2.5,1.119,2.5,2.5c0,5.281,4.25,9.577,9.473,9.577
				c5.229,0,9.482-4.296,9.482-9.577c0-1.381,1.119-2.5,2.5-2.5h7.138c0.478,0,0.946,0.137,1.349,0.395l20.313,13.011
				c2.88,1.684,4.723,4.906,4.723,8.356l0.01,19.233c0,0.664-0.263,1.3-0.731,1.769C123.986,82.232,123.352,82.497,122.688,82.497z"
				/>
		</g>
		<path d="M76.234,108.957c-8.327,0-15.102-6.521-15.102-14.539h5c0,5.26,4.532,9.539,10.102,9.539V108.957z"/>
		<path d="M66.121,94.412h-5c0-4.563-3.436-8.503-8.169-9.367l0.897-4.919C60.959,81.424,66.121,87.434,66.121,94.412z"/>
		<path d="M91.343,118.5h-5c0-5.262-4.534-9.543-10.109-9.543v-5C84.564,103.957,91.343,110.48,91.343,118.5z"/>
	</g>
</g>
</svg>
