<?xml version="1.0" encoding="utf-8"?>
<!-- Generator: Adobe Illustrator 16.0.0, SVG Export Plug-In . SVG Version: 6.00 Build 0)  -->
<!DOCTYPE svg PUBLIC "-//W3C//DTD SVG 1.1//EN" "http://www.w3.org/Graphics/SVG/1.1/DTD/svg11.dtd">
<svg version="1.1" id="Layer_1" xmlns="http://www.w3.org/2000/svg" xmlns:xlink="http://www.w3.org/1999/xlink" x="0px" y="0px"
	 width="90px" height="90px" viewBox="0 0 90 90" enable-background="new 0 0 90 90" xml:space="preserve">
<path d="M77.3,23.848c-0.239-1.055-1.077-1.895-2.132-2.138c-2.02-0.466-4.055-0.703-6.044-0.703
	c-10.334,0-19.573,5.798-24.123,14.951c-4.551-9.152-13.789-14.951-24.122-14.951c-1.988,0-4.021,0.236-6.042,0.703
	c-1.051,0.242-1.888,1.078-2.131,2.131C12.237,25.869,12,27.904,12,29.891c0,14.894,12.098,27.011,26.968,27.011
	c1.037,0,2.106-0.067,3.189-0.202v9.446c0,1.568,1.276,2.847,2.844,2.847c1.567,0,2.843-1.277,2.843-2.847v-9.448
	c1.086,0.135,2.154,0.202,3.191,0.202C65.902,56.9,78,44.784,78,29.891C78,27.909,77.766,25.876,77.3,23.848z M51.035,51.207
	c-0.971,0-1.967-0.074-2.973-0.221c-0.146-1.002-0.221-1.998-0.221-2.971c0-11.753,9.547-21.314,21.28-21.314
	c0.978,0,1.974,0.073,2.969,0.217c0.146,1.006,0.222,2.002,0.222,2.972C72.313,41.645,62.768,51.207,51.035,51.207z M38.968,51.207
	c-11.734,0-21.28-9.562-21.28-21.316c0-0.976,0.074-1.972,0.22-2.97c1.004-0.146,2.001-0.219,2.972-0.219
	c11.733,0,21.278,9.561,21.278,21.313c-0.001,0.976-0.075,1.971-0.22,2.974C40.934,51.135,39.956,51.207,38.968,51.207z"/>
</svg>
