<?xml version="1.0" encoding="utf-8"?>
<!-- Generator: Adobe Illustrator 16.0.0, SVG Export Plug-In . SVG Version: 6.00 Build 0)  -->
<!DOCTYPE svg PUBLIC "-//W3C//DTD SVG 1.1//EN" "http://www.w3.org/Graphics/SVG/1.1/DTD/svg11.dtd">
<svg version="1.1" id="Layer_1" xmlns="http://www.w3.org/2000/svg" xmlns:xlink="http://www.w3.org/1999/xlink" x="0px" y="0px"
	 width="160px" height="160px" viewBox="0 0 160 160" enable-background="new 0 0 160 160" xml:space="preserve">
<g>
	<path d="M123.836,106.499H58.121c-1.793,0-3.977-0.956-5.194-2.272L33.356,83.025c-1.644-1.779-1.636-4.562,0.018-6.333
		l19.555-20.939c1.221-1.307,3.404-2.255,5.192-2.255h65.715c2.48,0,4.5,2.019,4.5,4.5v44
		C128.336,104.48,126.316,106.499,123.836,106.499z M37.248,79.871l19.354,20.962c0.275,0.299,1.114,0.666,1.52,0.666h65.215v-43
		H58.121c-0.41,0-1.258,0.369-1.538,0.668L37.248,79.871z"/>
</g>
</svg>
