<?xml version="1.0" encoding="utf-8"?>
<!-- Generator: Adobe Illustrator 16.0.0, SVG Export Plug-In . SVG Version: 6.00 Build 0)  -->
<!DOCTYPE svg PUBLIC "-//W3C//DTD SVG 1.1//EN" "http://www.w3.org/Graphics/SVG/1.1/DTD/svg11.dtd">
<svg version="1.1" id="Layer_1" xmlns="http://www.w3.org/2000/svg" xmlns:xlink="http://www.w3.org/1999/xlink" x="0px" y="0px"
	 width="180px" height="180px" viewBox="0 0 180 180" enable-background="new 0 0 180 180" xml:space="preserve">
<g>
	<g>
		<path d="M97.648,120.162c-0.938,0-1.871-0.391-2.539-1.152c-1.227-1.402-1.086-3.535,0.316-4.766l27.723-24.238l-27.723-24.25
			c-1.402-1.227-1.543-3.359-0.316-4.758c1.234-1.414,3.363-1.543,4.766-0.32l30.621,26.789c0.727,0.641,1.148,1.566,1.148,2.539
			c0,0.977-0.422,1.902-1.148,2.539l-30.621,26.781C99.23,119.889,98.441,120.162,97.648,120.162z"/>
	</g>
	<g>
		<path d="M36.418,131.639c-1.863,0-3.375-1.512-3.375-3.375V51.736c0-1.863,1.512-3.375,3.375-3.375s3.375,1.512,3.375,3.375
			v76.527C39.793,130.127,38.281,131.639,36.418,131.639z"/>
	</g>
	<g>
		<path d="M143.582,131.639c-1.863,0-3.375-1.512-3.375-3.375V51.736c0-1.863,1.512-3.375,3.375-3.375s3.375,1.512,3.375,3.375
			v76.527C146.957,130.127,145.445,131.639,143.582,131.639z"/>
	</g>
	<g>
		<path d="M53.035,93.396c-1.863,0-3.375-1.512-3.375-3.375s1.512-3.375,3.375-3.375l9-0.004c1.863,0,3.375,1.508,3.375,3.375
			c0,1.863-1.512,3.375-3.375,3.375L53.035,93.396z M76.438,93.389c-1.863,0-3.375-1.512-3.375-3.375s1.512-3.375,3.375-3.375h9
			c1.863,0,3.375,1.508,3.375,3.375c0,1.863-1.512,3.375-3.375,3.375H76.438z M99.84,93.381c-1.863,0-3.375-1.508-3.375-3.375
			c0-1.863,1.512-3.375,3.375-3.375h9c1.863,0,3.375,1.512,3.375,3.375s-1.512,3.375-3.375,3.375H99.84z"/>
	</g>
</g>
</svg>
