<?xml version="1.0" encoding="utf-8"?>
<!-- Generator: Adobe Illustrator 16.0.0, SVG Export Plug-In . SVG Version: 6.00 Build 0)  -->
<!DOCTYPE svg PUBLIC "-//W3C//DTD SVG 1.1//EN" "http://www.w3.org/Graphics/SVG/1.1/DTD/svg11.dtd">
<svg version="1.1" id="Layer_1" xmlns="http://www.w3.org/2000/svg" xmlns:xlink="http://www.w3.org/1999/xlink" x="0px" y="0px"
	 width="180px" height="180px" viewBox="0 0 180 180" enable-background="new 0 0 180 180" xml:space="preserve">
<g>
	<path d="M89.98,57.27c15.42,0,28.956,10.922,32.184,25.97c0.404,1.89,2.261,3.089,4.156,2.688c1.89-0.406,3.093-2.267,2.688-4.156
		C125.093,63.519,108.68,50.27,89.98,50.27c-22.011,0-39.918,17.904-39.918,39.91c0,17.585,11.272,32.909,28.05,38.128
		c1.234,0.383,2.537,0.719,3.873,0.996c0.241,0.051,0.481,0.074,0.717,0.074c1.623,0,3.079-1.136,3.423-2.787
		c0.395-1.893-0.82-3.746-2.712-4.141c-1.133-0.235-2.188-0.508-3.222-0.828c-13.834-4.305-23.128-16.939-23.128-31.444
		C57.062,72.034,71.829,57.27,89.98,57.27z"/>
	<path d="M89.979,35.387c1.933,0,3.5-1.567,3.5-3.5V20.958c0-1.933-1.565-3.5-3.5-3.5s-3.5,1.567-3.5,3.5v10.929
		C86.479,33.82,88.046,35.387,89.979,35.387z"/>
	<path d="M46.291,51.433c0.684,0.683,1.58,1.025,2.475,1.025s1.792-0.342,2.475-1.025c1.367-1.367,1.367-3.583,0-4.95l-7.732-7.732
		c-1.367-1.366-3.583-1.366-4.95,0c-1.367,1.367-1.367,3.583,0,4.95L46.291,51.433z"/>
	<path d="M31.695,86.68H20.758c-1.933,0-3.5,1.567-3.5,3.5s1.567,3.5,3.5,3.5h10.937c1.933,0,3.5-1.565,3.5-3.5
		S33.628,86.68,31.695,86.68z"/>
	<path d="M46.3,128.919l-7.733,7.731c-1.367,1.367-1.367,3.582,0,4.949c0.684,0.685,1.579,1.025,2.475,1.025
		s1.792-0.342,2.475-1.023l7.733-7.731c1.367-1.367,1.367-3.583,0-4.95C49.884,127.555,47.667,127.555,46.3,128.919z"/>
	<path d="M131.209,52.467c0.896,0,1.793-0.342,2.477-1.027l7.73-7.741c1.366-1.368,1.363-3.584-0.003-4.95
		c-1.369-1.367-3.585-1.364-4.95,0.003l-7.73,7.741c-1.365,1.368-1.363,3.584,0.004,4.95
		C129.419,52.126,130.314,52.467,131.209,52.467z"/>
	<path d="M159.242,126.42h-25.639v-25.646c0-1.933-1.567-3.5-3.5-3.5c-1.934,0-3.5,1.567-3.5,3.5v25.646h-25.638
		c-1.933,0-3.5,1.566-3.5,3.5s1.567,3.5,3.5,3.5h25.638v25.622c0,1.933,1.566,3.5,3.5,3.5c1.933,0,3.5-1.567,3.5-3.5V133.42h25.639
		c1.933,0,3.5-1.566,3.5-3.5S161.175,126.42,159.242,126.42z"/>
</g>
</svg>
