<?xml version="1.0" encoding="utf-8"?>
<!-- Generator: Adobe Illustrator 16.0.0, SVG Export Plug-In . SVG Version: 6.00 Build 0)  -->
<!DOCTYPE svg PUBLIC "-//W3C//DTD SVG 1.1//EN" "http://www.w3.org/Graphics/SVG/1.1/DTD/svg11.dtd">
<svg version="1.1" id="Layer_1" xmlns="http://www.w3.org/2000/svg" xmlns:xlink="http://www.w3.org/1999/xlink" x="0px" y="0px"
	 width="156px" height="156px" viewBox="0 0 156 156" enable-background="new 0 0 156 156" xml:space="preserve">
<path d="M75.557,112.682H49.543v-32.74c0-0.019,0.005-0.029,0.005-0.049c0-0.019-0.004-0.033-0.005-0.049V60.83
	c0-1.381-1.119-2.5-2.5-2.5s-2.5,1.119-2.5,2.5v16.563H30.5l0.011-27.434c0-0.003,0.001-0.006,0.001-0.01
	c0-2.013,1.082-3.891,2.824-4.901c0.018-0.01,0.031-0.024,0.048-0.035c0.012-0.007,0.025-0.009,0.037-0.017l22.523-14.311h5.099
	C62.25,38.401,68.92,44.33,76.967,44.33c8.053,0,14.729-5.929,15.938-13.645h5.117l22.524,14.312
	c0.013,0.008,0.026,0.01,0.038,0.017c0.018,0.011,0.029,0.024,0.048,0.035c1.741,1.011,2.823,2.889,2.823,4.901
	c0,0.001,0,0.002,0,0.003s0,0.002,0,0.003l0.01,24.476c0.001,1.381,1.12,2.5,2.5,2.5h0.001c1.382,0,2.5-1.121,2.499-2.5
	l-0.01-24.478c0-0.001,0-0.001,0-0.002s0-0.001,0-0.002c0-3.731-1.982-7.209-5.174-9.132c-0.021-0.013-0.034-0.029-0.055-0.042
	l-23.143-14.699c-0.05-0.032-0.104-0.051-0.15-0.078c-0.086-0.046-0.172-0.095-0.263-0.13c-0.073-0.03-0.147-0.05-0.229-0.071
	c-0.078-0.023-0.154-0.049-0.236-0.064c-0.096-0.018-0.188-0.021-0.283-0.028c-0.063-0.004-0.113-0.019-0.176-0.019H90.6
	c-1.382,0-2.5,1.119-2.5,2.5c0,0.04,0.01,0.077,0.012,0.116c-0.063,6.091-5.034,11.028-11.146,11.028
	c-6.113,0-11.088-4.954-11.133-11.061c0.001-0.028,0.008-0.055,0.008-0.084c0-1.381-1.119-2.5-2.5-2.5h-8.125
	c-0.054,0-0.104,0.013-0.156,0.017c-0.103,0.006-0.204,0.012-0.306,0.03c-0.078,0.016-0.15,0.04-0.225,0.062
	c-0.081,0.022-0.163,0.043-0.242,0.075c-0.089,0.035-0.171,0.083-0.254,0.128c-0.052,0.027-0.106,0.047-0.157,0.079L30.739,40.776
	c-0.019,0.013-0.033,0.028-0.051,0.04c-3.19,1.919-5.171,5.394-5.176,9.119c0,0.006-0.002,0.014-0.002,0.02l-0.012,29.938
	c0,0,0,0,0,0.002c0,0.092,0.018,0.184,0.027,0.271c0.008,0.078,0.008,0.158,0.023,0.23c0.02,0.1,0.056,0.188,0.086,0.277
	c0.021,0.063,0.033,0.133,0.059,0.189c0.045,0.105,0.105,0.203,0.164,0.304c0.024,0.039,0.041,0.084,0.066,0.122
	c0.42,0.623,1.118,1.035,1.913,1.086c0.054,0.004,0.104,0.02,0.159,0.02c0,0,0,0,0.001,0h16.547v32.787c0,1.381,1.119,2.5,2.5,2.5
	h28.514c1.381,0,2.5-1.119,2.5-2.5C78.057,113.799,76.938,112.682,75.557,112.682z"/>
<path d="M104.355,60.82v10.864c0,1.381,1.119,2.5,2.5,2.5s2.5-1.119,2.5-2.5V60.82c0-1.381-1.119-2.5-2.5-2.5
	S104.355,59.439,104.355,60.82z"/>
<path d="M132.412,110.59c-0.716-0.563-1.759-0.705-2.6-0.357c-1.647,0.684-3.389,1.03-5.176,1.03c-7.472,0-13.55-6.078-13.55-13.549
	c0-2.702,0.796-5.313,2.303-7.55c0.519-0.777,0.581-1.778,0.163-2.612c-0.42-0.837-1.26-1.383-2.181-1.424l-0.261-0.017
	c-0.226-0.015-0.456-0.028-0.687-0.028c-12.825,0-23.26,10.435-23.26,23.26s10.435,23.26,23.26,23.26
	c11.479,0,21.129-8.23,22.947-19.573C133.514,112.104,133.146,111.169,132.412,110.59z M105.901,97.714
	c0,10.33,8.404,18.733,18.735,18.733c0.828,0,1.655-0.055,2.469-0.162c-2.771,6.791-9.228,11.132-16.681,11.132
	c-9.967,0-18.075-8.108-18.075-18.074c0-8.765,6.078-16.092,14.572-17.736C106.247,93.559,105.904,95.608,105.901,97.714z"/>
</svg>
