<?xml version="1.0" encoding="utf-8"?>
<!-- Generator: Adobe Illustrator 16.0.3, SVG Export Plug-In . SVG Version: 6.00 Build 0)  -->
<!DOCTYPE svg PUBLIC "-//W3C//DTD SVG 1.1//EN" "http://www.w3.org/Graphics/SVG/1.1/DTD/svg11.dtd">
<svg version="1.1" id="Layer_1" xmlns="http://www.w3.org/2000/svg" xmlns:xlink="http://www.w3.org/1999/xlink" x="0px" y="0px"
	 width="156px" height="156px" viewBox="0 0 156 156" enable-background="new 0 0 156 156" xml:space="preserve">
<g>
	<path d="M131.411,116.037l-0.016-60.041c0-0.001,0-0.002,0-0.003s0-0.002,0-0.003c0-3.767-2-7.279-5.223-9.22
		c-0.019-0.013-0.033-0.029-0.053-0.042l-23.427-14.884c-0.05-0.032-0.104-0.05-0.154-0.078c-0.085-0.046-0.168-0.094-0.259-0.13
		c-0.075-0.03-0.151-0.048-0.228-0.071c-0.08-0.023-0.158-0.05-0.241-0.065c-0.093-0.017-0.186-0.021-0.278-0.028
		c-0.061-0.004-0.119-0.018-0.181-0.018h-8.252c-1.381,0-2.5,1.119-2.5,2.5c0,0.042,0.011,0.081,0.013,0.123
		c-0.067,6.182-5.11,11.192-11.309,11.192c-6.212,0-11.268-5.031-11.313-11.23C67.993,34.011,68,33.985,68,33.956
		c0-1.381-1.119-2.5-2.5-2.5h-8.223c-0.058,0-0.112,0.013-0.169,0.017c-0.098,0.006-0.194,0.011-0.291,0.029
		c-0.081,0.015-0.157,0.041-0.235,0.064c-0.078,0.022-0.156,0.041-0.232,0.072c-0.092,0.037-0.177,0.085-0.263,0.132
		c-0.05,0.027-0.102,0.045-0.15,0.076l-23.43,14.884c-0.017,0.011-0.03,0.025-0.047,0.037c-3.226,1.941-5.229,5.457-5.229,9.225
		c0,0.001,0,0.002,0,0.003s0,0.002,0,0.003l-0.013,60.528c0,0,0,0,0,0.001l0,0c0,0.093,0.018,0.18,0.027,0.27
		c0.008,0.078,0.008,0.158,0.023,0.233c0.022,0.109,0.062,0.212,0.098,0.315c0.018,0.051,0.027,0.105,0.048,0.154
		c0.063,0.147,0.139,0.287,0.227,0.418c0.001,0.002,0.002,0.005,0.003,0.007c0.079,0.117,0.172,0.225,0.27,0.327
		c0.013,0.014,0.022,0.029,0.035,0.043c0.066,0.065,0.142,0.119,0.215,0.178c0.053,0.042,0.1,0.09,0.155,0.128
		c0.029,0.02,0.063,0.032,0.093,0.05c0.244,0.15,0.511,0.267,0.801,0.326c0.031,0.007,0.065,0.005,0.097,0.01
		c0.133,0.021,0.267,0.041,0.406,0.041c0,0,0,0,0,0H46.5v3.019c0,1.381,1.119,2.5,2.5,2.5h60.56c1.381,0,2.5-1.119,2.5-2.5v-3.019
		h16.852c1.381,0,2.5-1.119,2.5-2.5c0-0.084-0.017-0.162-0.024-0.244C131.395,116.2,131.411,116.121,131.411,116.037z
		 M79.305,50.271c8.144,0,14.893-6.004,16.103-13.814h5.218l0.978,0.621c-1.776,10.858-11.15,18.919-22.285,18.919
		c-11.138,0-20.513-8.062-22.288-18.921l0.975-0.619h5.195C64.409,44.266,71.159,50.271,79.305,50.271z M109.56,64.508
		c-1.381,0-2.5,1.119-2.5,2.5v52.536H95.548v-10.278c0-1.381-1.119-2.5-2.5-2.5s-2.5,1.119-2.5,2.5v10.278h-9.427v-10.278
		c0-1.381-1.119-2.5-2.5-2.5s-2.5,1.119-2.5,2.5v10.278h-9.433v-10.278c0-1.381-1.119-2.5-2.5-2.5s-2.5,1.119-2.5,2.5v10.278H51.5
		v-2.956c0-0.021,0.006-0.041,0.006-0.063s-0.006-0.042-0.006-0.063V67.008c0-1.381-1.119-2.5-2.5-2.5s-2.5,1.119-2.5,2.5v47.018
		H32.218l0.012-58.028c0-0.001,0-0.002,0-0.003s0-0.002,0-0.003c0-2.047,1.101-3.959,2.874-4.99c0.018-0.01,0.031-0.024,0.049-0.035
		c0.011-0.007,0.023-0.009,0.034-0.016l17.309-10.995c2.964,12.209,13.937,21.042,26.822,21.042
		c12.883,0,23.854-8.832,26.818-21.039l17.303,10.993c0.012,0.008,0.025,0.01,0.037,0.017c0.018,0.011,0.03,0.024,0.048,0.035
		c1.771,1.029,2.872,2.941,2.872,4.989c0,0.001,0,0.002,0,0.003s0,0.002,0,0.003l0.015,58.028H112.06V67.008
		C112.06,65.627,110.94,64.508,109.56,64.508z"/>
</g>
</svg>
