<?xml version="1.0" encoding="utf-8"?>
<!-- Generator: Adobe Illustrator 16.0.0, SVG Export Plug-In . SVG Version: 6.00 Build 0)  -->
<!DOCTYPE svg PUBLIC "-//W3C//DTD SVG 1.1//EN" "http://www.w3.org/Graphics/SVG/1.1/DTD/svg11.dtd">
<svg version="1.1" id="Layer_1" xmlns="http://www.w3.org/2000/svg" xmlns:xlink="http://www.w3.org/1999/xlink" x="0px" y="0px"
	 width="160px" height="160px" viewBox="0 0 160 160" enable-background="new 0 0 160 160" xml:space="preserve">
<path d="M60.721,122.141h-0.005c-10.303,0-18.686-8.382-18.686-18.685c0-2.847,0.603-5.554,1.791-8.046
	c0.806-1.688,1.574-3.182,2.569-4.997c2.198-4.011,2.989-6.021,1.873-7.333l-0.9-1.055c-2.19-2.562-4.261-4.981-5.79-7.671
	c-2.386-3.862-3.647-8.313-3.647-12.874c0-13.524,11.003-24.527,24.527-24.527c6.551,0,12.71,2.551,17.343,7.183l0.771,0.739
	c4.939,4.738,10.537,10.109,17.004,10.109c1.312,0,2.652-0.224,3.986-0.664c0.039-0.013,0.08-0.025,0.118-0.036
	c0.36-0.1,3.573-0.971,5.562-0.972c8.121,0,14.481,6.371,14.481,14.505c0,4.639-2.235,9.047-5.983,11.793
	c-3.104,2.363-4.822,4.736-5.068,7.021c-0.332,3.075,1.986,5.803,3.682,7.792c0.195,0.229,0.381,0.446,0.549,0.649
	c0.025,0.027,0.051,0.058,0.076,0.087c1.998,2.429,3.1,5.502,3.1,8.653c0,7.51-6.109,13.619-13.618,13.619
	c-3.486,0-6.797-1.313-9.333-3.701c-1.947-1.61-3.903-2.362-6.15-2.362c-2.226,0-4.607,0.715-7.055,1.512
	c-3.314,1.079-7.701,3.67-10.028,5.552c-0.028,0.022-0.058,0.047-0.087,0.067C68.573,120.882,64.741,122.141,60.721,122.141z
	 M62.454,41.953c-10.768,0-19.527,8.76-19.527,19.527c0,3.646,1.01,7.201,2.922,10.28c0.018,0.029,0.035,0.058,0.052,0.087
	c1.294,2.287,3.133,4.438,5.263,6.928l0.91,1.065c3.534,4.158,0.855,9.046-1.298,12.975c-0.949,1.73-1.679,3.15-2.442,4.748
	c-0.865,1.813-1.303,3.795-1.303,5.893c0,7.546,6.14,13.686,13.687,13.686h0.004c2.927,0,5.716-0.91,8.069-2.635
	c2.718-2.186,7.548-5.068,11.578-6.38c2.732-0.89,5.646-1.758,8.604-1.758c3.459,0,6.539,1.17,9.414,3.575
	c0.041,0.035,0.081,0.07,0.12,0.107c1.61,1.534,3.724,2.381,5.948,2.381c4.752,0,8.618-3.867,8.618-8.619
	c0-1.963-0.673-3.875-1.897-5.397c-0.021-0.024-0.043-0.052-0.064-0.076c-0.172-0.208-0.362-0.435-0.568-0.676
	c-2.021-2.376-5.408-6.354-4.846-11.569c0.4-3.705,2.771-7.235,7.05-10.49c2.502-1.834,3.976-4.735,3.976-7.787
	c0-5.33-4.164-9.505-9.48-9.505c-0.93,0-2.979,0.449-4.176,0.776c-1.819,0.594-3.668,0.896-5.492,0.896
	c-8.477,0-15.123-6.377-20.464-11.501l-0.805-0.771C72.573,43.984,67.669,41.953,62.454,41.953z"/>
</svg>
