<?xml version="1.0" encoding="utf-8"?>
<!-- Generator: Adobe Illustrator 16.0.0, SVG Export Plug-In . SVG Version: 6.00 Build 0)  -->
<!DOCTYPE svg PUBLIC "-//W3C//DTD SVG 1.1//EN" "http://www.w3.org/Graphics/SVG/1.1/DTD/svg11.dtd">
<svg version="1.1" id="Layer_1" xmlns="http://www.w3.org/2000/svg" xmlns:xlink="http://www.w3.org/1999/xlink" x="0px" y="0px"
	 width="160px" height="160px" viewBox="0 0 160 160" enable-background="new 0 0 160 160" xml:space="preserve">
<g>
	<path d="M110.143,125.531H49.98c-0.976,0-1.902-0.413-2.541-1.133c-0.639-0.721-0.938-1.688-0.822-2.658l6.922-57.688
		c0.054-0.45,0.102-1.242,0.102-1.695V37.968c0-1.93,1.57-3.5,3.5-3.5h7.564c1.927,0,3.497,1.568,3.501,3.496l0.009,18.023h23.692
		L91.9,37.969c0-1.931,1.57-3.501,3.5-3.501h7.564c1.93,0,3.5,1.57,3.5,3.5L106.46,63c0,0.45,0.048,1.24,0.103,1.69l6.94,57.046
		c0.118,0.97-0.18,1.938-0.817,2.66C112.047,125.118,111.12,125.531,110.143,125.531z M51.798,120.531h56.521L101.6,65.294
		c-0.078-0.643-0.141-1.65-0.141-2.294l0.006-23.532H96.9l0.006,18.018c0,1.931-1.57,3.501-3.5,3.501h-26.69
		c-1.927,0-3.498-1.568-3.501-3.496l-0.009-18.023H58.64v22.889c0,0.644-0.06,1.65-0.137,2.29L51.798,120.531z"/>
	<g>
		<path d="M80.032,84.883c-9.263,0-16.799-6.807-16.799-15.173h5c0,5.609,5.293,10.173,11.799,10.173
			c6.502,0,11.792-4.563,11.792-10.173h5C96.824,78.076,89.291,84.883,80.032,84.883z"/>
		<path d="M94.327,70.623H66.733c0.561,0,1.062-0.37,1.318-0.902h-4.818v-0.799c0-1.819,1.57-3.299,3.5-3.299h27.594
			c1.661,0,2.503,1.11,2.503,3.299v0.799h-2.503V70.623z"/>
	</g>
	<g>
		<path d="M84.452,122.875c0-6.6-5.65-11.953-12.618-11.953c-6.963,0-12.613-5.348-12.613-11.949l-0.011-0.004
			c0-5.832-0.104-10.791-5.93-11.845l-4.294,35.751H84.452z"/>
		<path d="M84.452,125.375H48.987c-0.715,0-1.396-0.307-1.87-0.841c-0.474-0.535-0.697-1.247-0.612-1.957l4.294-35.752
			c0.082-0.685,0.442-1.304,0.997-1.714c0.554-0.407,1.253-0.569,1.931-0.447c7.879,1.426,7.983,8.389,7.984,14.078
			c0.007,0.076,0.011,0.152,0.011,0.23c0,5.209,4.537,9.448,10.113,9.448c8.336,0,15.118,6.483,15.118,14.453
			C86.952,124.256,85.833,125.375,84.452,125.375z M51.805,120.375h29.788c-1.176-4.003-5.105-6.953-9.758-6.953
			c-8.246,0-14.972-6.348-15.111-14.199c-0.009-0.084-0.013-0.168-0.013-0.254c0-4.46-0.224-6.863-1.355-8.154L51.805,120.375z"/>
	</g>
</g>
</svg>
