<?xml version="1.0" encoding="utf-8"?>
<!-- Generator: Adobe Illustrator 16.0.3, SVG Export Plug-In . SVG Version: 6.00 Build 0)  -->
<!DOCTYPE svg PUBLIC "-//W3C//DTD SVG 1.1//EN" "http://www.w3.org/Graphics/SVG/1.1/DTD/svg11.dtd">
<svg version="1.1" id="Layer_1" xmlns="http://www.w3.org/2000/svg" xmlns:xlink="http://www.w3.org/1999/xlink" x="0px" y="0px"
	 width="156px" height="156px" viewBox="0 0 156 156" enable-background="new 0 0 156 156" xml:space="preserve">
<g>
	<path d="M128.249,109.649c-0.014-0.07-0.03-0.141-0.051-0.209c-0.443-1.543-0.931-3.022-1.451-4.404
		c-0.545-1.434-1.146-2.829-1.785-4.146c-0.022-0.047-0.046-0.092-0.071-0.137c-6.045-10.727-16.708-16.85-27.539-21.617
		c1.926-2.791,2.997-6.161,2.997-9.663c0-8.215-5.774-15.031-13.308-16.307c-3.519-7.101-9.694-12.418-16.979-14.976
		c0.182-0.771,0.282-1.562,0.282-2.357c0-5.648-4.596-10.244-10.244-10.244c-5.648,0-10.243,4.596-10.243,10.244
		c0,0.81,0.104,1.615,0.292,2.398C38.57,42.371,30.26,53.445,30.26,66.428v3.831h-0.67c-1.381,0-2.5,1.119-2.5,2.5v15.275
		c0,1.381,1.119,2.5,2.5,2.5h28.796l-14.568,16.342c-0.237,0.267-0.405,0.57-0.508,0.89c-0.393,0.445-0.636,1.025-0.63,1.666
		c0.011,1.374,1.128,2.479,2.5,2.479c0.045-0.001,0.095-0.001,0.142-0.001c3.148,0,6.346,1,9.504,2.971
		c2.385,1.493,4.526,3.198,7.826,7.079c0.006,0.007,0.014,0.012,0.02,0.019c3.862,4.48,6.136,6.289,8.977,8.056
		c0.025,0.016,0.054,0.021,0.08,0.035c0.065,0.037,0.125,0.081,0.194,0.112c0.076,0.034,0.155,0.05,0.233,0.076
		c0.073,0.025,0.144,0.054,0.218,0.072c0.135,0.032,0.27,0.046,0.406,0.056c0.063,0.005,0.124,0.025,0.187,0.025
		c0.703,0,1.38-0.312,1.863-0.859c0.001-0.002,0.003-0.003,0.004-0.005c0.089-0.102,0.185-0.196,0.258-0.315
		c0.107-0.173,0.184-0.355,0.245-0.54l11.383-25.255l-0.606-1.324c3.952,5.388,6.849,11.716,8.19,17.874
		c0.541,2.484,0.842,4.941,0.842,7.293c0,0.002,0,0.003,0,0.005c0.001,0.163,0.017,0.328,0.05,0.491
		c0.001,0.003,0.001,0.006,0.001,0.008c0.008,0.039,0.025,0.076,0.035,0.114c0.032,0.125,0.066,0.248,0.116,0.365
		c0.001,0.002,0.001,0.005,0.002,0.007c0.003,0.008,0.01,0.013,0.013,0.021c0.087,0.196,0.203,0.373,0.335,0.539
		c0.034,0.042,0.066,0.083,0.103,0.123c0.141,0.156,0.297,0.298,0.474,0.414c0.023,0.016,0.051,0.026,0.075,0.041
		c0.158,0.097,0.327,0.172,0.506,0.232c0.052,0.018,0.103,0.034,0.156,0.048c0.198,0.053,0.402,0.088,0.616,0.09
		c0.007,0,0.013,0.003,0.02,0.003c0.167,0,0.334-0.018,0.501-0.052s0.328-0.086,0.481-0.151c0.002-0.001,0.005-0.001,0.007-0.002
		l28.767-12.408c0.022-0.01,0.041-0.024,0.063-0.035c0.083-0.038,0.16-0.085,0.237-0.132c0.065-0.039,0.132-0.077,0.193-0.122
		c0.064-0.048,0.122-0.103,0.182-0.156c0.062-0.056,0.125-0.109,0.181-0.171c0.051-0.056,0.094-0.117,0.14-0.178
		c0.051-0.067,0.103-0.133,0.146-0.204c0.04-0.066,0.072-0.138,0.106-0.208c0.035-0.073,0.073-0.146,0.102-0.222
		c0.026-0.073,0.044-0.148,0.064-0.224c0.022-0.083,0.045-0.164,0.059-0.248c0.012-0.07,0.015-0.143,0.02-0.215
		c0.008-0.095,0.014-0.188,0.01-0.284c-0.001-0.023,0.004-0.045,0.002-0.068C128.785,112.959,128.564,111.26,128.249,109.649z
		 M95.349,69.473c0,2.841-0.99,5.548-2.739,7.647c-1.494-0.615-2.981-1.216-4.445-1.805c-0.979-0.395-1.947-0.784-2.903-1.173
		c-1.427-0.72-2.72-1.515-3.847-2.365c-3.606-2.712-5.403-5.9-5.393-9.474c2.053-2.74,5.163-4.37,8.477-4.37
		C90.481,57.933,95.349,63.109,95.349,69.473z M60.101,30.589c2.892,0,5.244,2.353,5.244,5.244c0,0.377-0.046,0.744-0.123,1.103
		c-1.645-0.282-3.321-0.445-5.021-0.445c-1.78,0-3.521,0.165-5.217,0.464c-0.079-0.365-0.127-0.738-0.127-1.122
		C54.857,32.941,57.209,30.589,60.101,30.589z M35.26,66.428c0-13.75,11.188-24.938,24.941-24.938
		c8.644,0,16.653,4.542,21.17,11.772c-4.016,0.842-7.607,3.282-9.966,6.883c-1.807,2.753-2.761,5.979-2.761,9.327
		c0,0.131,0.019,0.258,0.039,0.384c0.001,0.135,0.013,0.268,0.017,0.402H35.26V66.428z M42.394,85.534H32.09V75.259h10.304V85.534z
		 M57.715,85.534H47.394V75.259h10.321V85.534z M62.715,85.534V75.259h6.482c0.151,0.852,0.324,1.7,0.542,2.54l-6.896,7.735H62.715z
		 M71.901,124.142c-1.351-1.052-2.752-2.385-4.621-4.487l4.834-5.951l-3.881-3.152l-4.332,5.333c-1.681-1.74-3.125-2.962-4.56-3.991
		l4.34-4.576l-3.628-3.441l-5.101,5.378c-1.64-0.8-3.294-1.403-4.958-1.792l21.644-24.278c2.109,4.69,5.332,9.161,9.671,13.372
		c0.707,0.687,1.386,1.414,2.052,2.16L71.901,124.142z M119.771,115.012l-3.559-7.172l-4.479,2.223l3.439,6.933l-5.617,2.423
		l-2.742-6.79l-4.637,1.873l2.786,6.898l-5.025,2.167c-1.092-10.822-6.785-22.484-15.146-30.6c-2.655-2.576-4.831-5.249-6.54-8.005
		c-1.478-2.385-2.6-4.833-3.362-7.337c-0.663-2.177-1.06-4.396-1.177-6.655c1.188,1.735,2.756,3.345,4.692,4.801
		c1.389,1.047,2.97,2.018,4.701,2.885c0.059,0.029,0.117,0.056,0.178,0.08c0.99,0.403,1.996,0.809,3.013,1.218
		c3.063,1.232,6.223,2.508,9.354,3.898c9.941,4.413,19.584,10.008,24.847,19.29c0.563,1.165,1.093,2.399,1.573,3.664
		c0.459,1.22,0.895,2.534,1.293,3.911c0.08,0.418,0.14,0.856,0.205,1.289c0.065,0.426,0.127,0.854,0.178,1.291L119.771,115.012z"/>
</g>
</svg>
