<?xml version="1.0" encoding="utf-8"?>
<!-- Generator: Adobe Illustrator 16.0.0, SVG Export Plug-In . SVG Version: 6.00 Build 0)  -->
<!DOCTYPE svg PUBLIC "-//W3C//DTD SVG 1.1//EN" "http://www.w3.org/Graphics/SVG/1.1/DTD/svg11.dtd">
<svg version="1.1" id="Layer_1" xmlns="http://www.w3.org/2000/svg" xmlns:xlink="http://www.w3.org/1999/xlink" x="0px" y="0px"
	 width="100px" height="100px" viewBox="0 0 100 100" enable-background="new 0 0 100 100" xml:space="preserve">
<g>
	<path d="M86.998,62.864c0-11.235-5.566-16.326-14.236-16.326c-10.195,0-15.116,6.379-15.116,17.555
		c0,12.64,5.155,18.901,17.049,18.901c4.395,0,8.261-0.937,11.249-2.4l-0.879-6.144c-2.988,1.287-6.035,1.931-9.492,1.931
		c-6.736,0-9.842-2.574-10.193-9.947h21.442C86.939,65.381,86.998,63.976,86.998,62.864z M65.203,61.401
		c0.352-5.969,2.519-8.543,7.616-8.543c4.395,0,7.206,2.34,7.323,8.543H65.203z"/>
	<path d="M46.841,69.336c-0.762,0.403-1.548,0.776-2.344,1.135c-0.172,0.078-0.346,0.153-0.522,0.23
		c-6.154,2.668-13.299,4.026-21.401,4.026c-0.798,0-1.613-0.018-2.436-0.044c8.979-20.688,22.055-24.572,22.271-24.633
		c1.444-0.386,2.308-1.864,1.93-3.312c-0.38-1.452-1.86-2.322-3.32-1.944c-0.594,0.156-12.569,3.475-22.324,20.574
		c0.647-7.568,2.989-17.617,10.037-26.001c8.779-10.443,22.862-16.107,41.89-16.854c-0.036,2.76-0.285,7.46-1.331,12.931
		c-0.151,0.704-0.293,1.294-0.357,1.562c-0.389,1.617,0.385,2.958,1.806,3.445c0.293,0.1,0.59,0.146,0.883,0.146
		c1.13,0,2.188-0.709,2.573-1.837c0.305-0.888,0.566-2.443,0.74-3.665c1.468-8.531,1.119-14.996,1.086-15.541
		c-0.089-1.436-1.28-2.55-2.715-2.55c-0.014,0-0.027,0-0.04,0.001c-22.089,0.321-38.487,6.684-48.739,18.911
		C9.756,53.536,13.336,76.655,13.495,77.632c0.005,0.034,0.019,0.065,0.025,0.1c0.014,0.068,0.032,0.135,0.051,0.202
		c0.027,0.096,0.059,0.189,0.096,0.281c0.024,0.059,0.049,0.117,0.078,0.174c0.046,0.095,0.1,0.185,0.156,0.272
		c0.032,0.05,0.063,0.101,0.098,0.148c0.07,0.094,0.148,0.181,0.229,0.265c0.033,0.034,0.062,0.071,0.097,0.104
		c0.119,0.111,0.248,0.211,0.386,0.3c0.034,0.021,0.071,0.037,0.105,0.057c0.112,0.065,0.228,0.125,0.349,0.174
		c0.02,0.008,0.037,0.02,0.056,0.027c0.043,0.016,0.085,0.022,0.128,0.036c0.086,0.026,0.172,0.053,0.261,0.071
		c0.076,0.017,0.15,0.027,0.226,0.037c0.045,0.006,0.088,0.019,0.134,0.021c2.248,0.173,4.469,0.26,6.602,0.26
		c7.69,0,14.621-1.135,20.778-3.357c0.048-0.015,0.098-0.021,0.146-0.038c0.077-0.028,0.263-0.097,0.52-0.193
		c0.085-0.031,0.17-0.063,0.255-0.095c1.34-0.504,3.995-1.536,5.312-2.275c1.31-0.735,1.775-2.393,1.038-3.7
		C49.885,69.194,48.15,68.601,46.841,69.336z"/>
</g>
</svg>
