<?xml version="1.0" encoding="utf-8"?>
<!-- Generator: Adobe Illustrator 16.0.0, SVG Export Plug-In . SVG Version: 6.00 Build 0)  -->
<!DOCTYPE svg PUBLIC "-//W3C//DTD SVG 1.1//EN" "http://www.w3.org/Graphics/SVG/1.1/DTD/svg11.dtd">
<svg version="1.1" id="Layer_1" xmlns="http://www.w3.org/2000/svg" xmlns:xlink="http://www.w3.org/1999/xlink" x="0px" y="0px"
	 width="160px" height="160px" viewBox="0 0 160 160" enable-background="new 0 0 160 160" xml:space="preserve">
<g>
	<g>
		<g>
			<path d="M118.129,105.336c-1.381,0-2.5-1.119-2.5-2.5v-2.578c0-1.381,1.119-2.5,2.5-2.5s2.5,1.119,2.5,2.5v2.578
				C120.629,104.217,119.51,105.336,118.129,105.336z"/>
			<path d="M121.652,119.047H104.25c-1.381,0-2.5-1.119-2.5-2.5s1.119-2.5,2.5-2.5h17.402c1.381,0,2.5,1.119,2.5,2.5
				S123.033,119.047,121.652,119.047z"/>
			<path d="M121.652,119.072c-1.008,0-1.957-0.613-2.336-1.611c-0.379-0.99-3.688-9.822-3.688-14.625c0-1.381,1.119-2.5,2.5-2.5
				s2.5,1.119,2.5,2.5c0,3.293,2.427,10.391,3.36,12.846c0.49,1.291-0.157,2.736-1.447,3.228
				C122.249,119.02,121.948,119.072,121.652,119.072z"/>
			<path d="M118.129,102.758c-1.381,0-2.5-1.119-2.5-2.5c0-6.277-5.104-11.385-11.379-11.385c-1.381,0-2.5-1.119-2.5-2.5
				s1.119-2.5,2.5-2.5c9.031,0,16.379,7.35,16.379,16.385C120.629,101.639,119.51,102.758,118.129,102.758z"/>
			<path d="M90.336,105.336c-1.381,0-2.5-1.119-2.5-2.5v-2.578c0-1.381,1.119-2.5,2.5-2.5s2.5,1.119,2.5,2.5v2.578
				C92.836,104.217,91.717,105.336,90.336,105.336z"/>
			<path d="M104.217,119.047H86.805c-1.381,0-2.5-1.119-2.5-2.5s1.119-2.5,2.5-2.5h17.412c1.381,0,2.5,1.119,2.5,2.5
				S105.598,119.047,104.217,119.047z"/>
			<path d="M86.805,119.072c-0.297,0-0.598-0.053-0.891-0.164c-1.29-0.492-1.938-1.938-1.445-3.227
				c0.938-2.457,3.367-9.554,3.367-12.847c0-1.381,1.119-2.5,2.5-2.5s2.5,1.119,2.5,2.5c0,4.806-3.316,13.638-3.695,14.627
				C88.76,118.459,87.813,119.072,86.805,119.072z"/>
			<path d="M90.336,102.758c-1.381,0-2.5-1.119-2.5-2.5c0-9.035,7.35-16.385,16.381-16.385c1.381,0,2.5,1.119,2.5,2.5
				s-1.119,2.5-2.5,2.5c-6.275,0-11.381,5.107-11.381,11.385C92.836,101.639,91.717,102.758,90.336,102.758z"/>
		</g>
		<path d="M104.229,127.711c-4.937,0-8.953-4.018-8.953-8.953c0-1.381,1.119-2.5,2.5-2.5c1.382,0,2.5,1.119,2.5,2.5
			c0,2.18,1.773,3.953,3.953,3.953c2.181,0,3.953-1.773,3.953-3.953c0-1.381,1.118-2.5,2.5-2.5c1.381,0,2.5,1.119,2.5,2.5
			C113.182,123.693,109.165,127.711,104.229,127.711z"/>
	</g>
	<g>
		<path d="M75.827,74.383c-8.75,0-15.869-5.99-15.869-13.354h5c0,4.606,4.876,8.354,10.869,8.354c5.999,0,10.878-3.748,10.878-8.354
			h5C91.705,68.393,84.582,74.383,75.827,74.383z"/>
		<path d="M78.342,127.291H52.957c-1.381,0-2.5-1.119-2.5-2.5V86.346h5v35.945h22.886L78.342,127.291L78.342,127.291z"/>
		<path d="M115.809,77.649h-5c0-1.332-0.695-2.53-1.861-3.203c-0.125-0.072-0.241-0.154-0.35-0.244L87.493,61.494
			c-0.028-0.017-0.058-0.035-0.085-0.054L70.545,50.333c-2.223-1.562-3.662-3.834-4.117-6.442
			c-0.935-5.379,2.674-10.516,8.046-11.451c2.595-0.456,5.217,0.128,7.377,1.646c2.164,1.521,3.606,3.794,4.061,6.403l-4.926,0.856
			c-0.225-1.292-0.938-2.417-2.007-3.168c-1.067-0.749-2.36-1.039-3.644-0.812c-2.66,0.463-4.444,3.005-3.981,5.667
			c0.226,1.291,0.938,2.417,2.005,3.167l16.757,11.036l21.426,12.903c0.121,0.073,0.233,0.155,0.339,0.245
			C114.314,71.987,115.809,74.726,115.809,77.649z"/>
		<path d="M52.957,100.855h-14.57c-1.381,0-2.5-1.119-2.5-2.5c0-0.06,0.002-0.117,0.006-0.174l0.012-20.535
			c0-3.091,1.671-5.978,4.362-7.532l21.43-12.905l12.272-8.052l2.742,4.181l-12.354,8.103l-21.551,12.98
			c-1.206,0.697-1.902,1.895-1.902,3.227l-0.01,18.207h12.062L52.957,100.855L52.957,100.855z"/>
	</g>
</g>
</svg>
