<?xml version="1.0" encoding="utf-8"?>
<!-- Generator: Adobe Illustrator 16.0.0, SVG Export Plug-In . SVG Version: 6.00 Build 0)  -->
<!DOCTYPE svg PUBLIC "-//W3C//DTD SVG 1.1//EN" "http://www.w3.org/Graphics/SVG/1.1/DTD/svg11.dtd">
<svg version="1.1" id="Layer_1" xmlns="http://www.w3.org/2000/svg" xmlns:xlink="http://www.w3.org/1999/xlink" x="0px" y="0px"
	 width="156px" height="156px" viewBox="0 0 156 156" enable-background="new 0 0 156 156" xml:space="preserve">
<g>
	<path d="M42.297,110.408l-2.563-0.719c-0.959-0.27-1.651-0.641-2.078-1.109c-0.428-0.469-0.641-1.098-0.641-1.891
		c0-1.75,1.031-2.625,3.094-2.625c1.438,0,3.25,0.406,5.438,1.219l1.281-3.219c-1.042-0.5-2.141-0.885-3.297-1.156
		c-1.156-0.27-2.276-0.406-3.359-0.406c-2.271,0-4.031,0.605-5.281,1.813c-1.25,1.209-1.875,2.918-1.875,5.125
		c0,1.688,0.4,3.021,1.203,4c0.802,0.98,2.088,1.719,3.859,2.219l2.563,0.719c0.958,0.271,1.65,0.641,2.078,1.109
		c0.427,0.469,0.641,1.1,0.641,1.891c0,1.918-1.188,2.875-3.563,2.875c-1.875,0-3.803-0.572-5.781-1.719l-1.281,3.219
		c0.938,0.668,2.021,1.178,3.25,1.531c1.229,0.354,2.5,0.531,3.813,0.531c2.416,0,4.281-0.625,5.594-1.875s1.969-3.01,1.969-5.281
		c0-1.688-0.401-3.025-1.203-4.016C45.354,111.654,44.068,110.908,42.297,110.408z"/>
	<polygon points="60.985,115.283 55.579,100.846 50.672,100.846 50.672,123.471 54.641,123.471 54.641,107.971 58.766,119.064 
		63.141,119.064 67.235,107.971 67.235,123.471 71.266,123.471 71.266,100.846 66.297,100.846 	"/>
	<path d="M81.172,100.846l-7.125,22.625h4.375l1.312-4.938h7.375l1.344,4.938h4.406l-7.125-22.625H81.172z M80.703,114.939
		l2.719-10.094l2.719,10.094H80.703z"/>
	<path d="M109.375,112.564c0.678-1.166,1.016-2.613,1.016-4.344c0-2.332-0.619-4.145-1.859-5.438
		c-1.24-1.291-2.984-1.938-5.234-1.938h-7.656v22.625h4.188v-7.875h2.313l4.563,7.875h5.031l-5.313-8.406
		C107.713,114.564,108.697,113.732,109.375,112.564z M103.297,112.064h-3.469v-7.594h3.344c1.959,0,2.938,1.271,2.938,3.813
		C106.109,110.805,105.172,112.064,103.297,112.064z"/>
	<polygon points="111.703,100.846 111.703,104.564 116.953,104.564 116.953,123.471 121.141,123.471 121.141,104.564 
		126.391,104.564 126.391,100.846 	"/>
	<path d="M37.079,75.794h13.635v17.964h5V60.314h-5v10.479H39.581l0.008-15.849c0-1.56,0.843-3.016,2.285-3.853l18.991-12.026h3.874
		c1.185,6.543,6.936,11.521,13.829,11.521c6.899,0,12.654-4.979,13.841-11.521h3.888l19.076,12.078
		c1.355,0.785,2.197,2.242,2.197,3.805l0.009,15.846h-11.474v-10.48h-5v33.443h5V75.795h13.975c0.663,0,1.3-0.264,1.769-0.733
		c0.469-0.469,0.731-1.105,0.731-1.769l-0.01-18.348c0-3.338-1.798-6.453-4.607-8.077L98.358,34.454
		c-0.4-0.253-0.864-0.388-1.338-0.388h-6.889c-1.381,0-2.5,1.119-2.5,2.5c0,4.975-4.066,9.021-9.064,9.021
		c-4.992,0-9.053-4.047-9.053-9.021c0-1.381-1.119-2.5-2.5-2.5H60.14c-0.474,0-0.938,0.134-1.337,0.388L39.284,46.817
		c-2.896,1.676-4.695,4.792-4.695,8.129l-0.01,18.347c0,0.664,0.263,1.3,0.732,1.769C35.78,75.53,36.416,75.794,37.079,75.794z"/>
</g>
</svg>
