<?xml version="1.0" encoding="utf-8"?>
<!-- Generator: Adobe Illustrator 16.0.0, SVG Export Plug-In . SVG Version: 6.00 Build 0)  -->
<!DOCTYPE svg PUBLIC "-//W3C//DTD SVG 1.1//EN" "http://www.w3.org/Graphics/SVG/1.1/DTD/svg11.dtd">
<svg version="1.1" id="Layer_1" xmlns="http://www.w3.org/2000/svg" xmlns:xlink="http://www.w3.org/1999/xlink" x="0px" y="0px"
	 width="160px" height="160px" viewBox="0 0 160 160" enable-background="new 0 0 160 160" xml:space="preserve">
<g>
	<g>
		<g>
			<g>
				<path d="M109.157,113.18H51.815c-1.729,0-3.298-1.275-3.652-2.967L35.054,47.85l4.894-1.028l12.897,61.358h54.307l12.902-61.358
					l4.893,1.029l-13.114,62.365C111.6,111.324,111.208,113.18,109.157,113.18z"/>
			</g>
		</g>
	</g>
	<g>
		<g>
			<g>
				<g>
					<path d="M78.218,82.253c-2.588,0-11.51-0.463-17.669-6.419c-7.196-6.963-6.685-17.47-6.659-17.914
						c0.104-1.81,1.603-3.301,3.41-3.396l0,0c-0.003-0.002,11.12-0.65,18.414,6.408c7.196,6.96,6.685,17.466,6.658,17.91
						c-0.104,1.809-1.603,3.301-3.409,3.396l0,0C78.963,82.238,78.696,82.253,78.218,82.253z M58.898,59.526
						c0.129,2.632,0.903,8.627,5.126,12.714c4.292,4.149,10.54,4.885,13.339,4.996c-0.128-2.631-0.902-8.625-5.126-12.71
						C67.947,60.373,61.699,59.637,58.898,59.526z"/>
				</g>
			</g>
			<g>
				<g>
					<path d="M81.527,82.254c-0.479,0-0.743-0.015-0.743-0.015c-1.809-0.099-3.305-1.589-3.409-3.396
						c-0.025-0.445-0.539-10.952,6.66-17.913c7.295-7.06,18.415-6.408,18.414-6.407c1.807,0.096,3.305,1.587,3.408,3.395
						c0.024,0.445,0.537,10.952-6.658,17.915C93.039,81.791,84.116,82.254,81.527,82.254z M100.854,59.526
						c-2.797,0.11-9.052,0.845-13.343,4.999c-4.258,4.117-5.016,10.087-5.134,12.712c2.798-0.11,9.051-0.844,13.346-4.997
						C99.979,68.122,100.734,62.151,100.854,59.526z"/>
				</g>
			</g>
		</g>
		<g>
			<rect x="77.373" y="79.246" width="5" height="17.763"/>
		</g>
	</g>
</g>
</svg>
