<?xml version="1.0" encoding="utf-8"?>
<!-- Generator: Adobe Illustrator 16.0.0, SVG Export Plug-In . SVG Version: 6.00 Build 0)  -->
<!DOCTYPE svg PUBLIC "-//W3C//DTD SVG 1.1//EN" "http://www.w3.org/Graphics/SVG/1.1/DTD/svg11.dtd">
<svg version="1.1" id="Layer_1" xmlns="http://www.w3.org/2000/svg" xmlns:xlink="http://www.w3.org/1999/xlink" x="0px" y="0px"
	 width="160px" height="160px" viewBox="0 0 160 160" enable-background="new 0 0 160 160" xml:space="preserve">
<g>
	<g>
		<path d="M75.054,122.752c-12.304,0-22.313-10.063-22.313-22.429h5c0,9.61,7.766,17.429,17.313,17.429V122.752z"/>
		<path d="M77.554,120.252h-5c0-9.609-7.767-17.429-17.313-17.429v-5C67.543,97.823,77.554,107.885,77.554,120.252z"/>
		<rect x="75.02" y="117.752" width="7.228" height="5"/>
		<path d="M55.263,102.823c-1.381,0-2.5-1.119-2.5-2.5V64.661c0-1.381,1.119-2.5,2.5-2.5c1.381,0,2.5,1.119,2.5,2.5v35.662
			C57.763,101.704,56.644,102.823,55.263,102.823z"/>
		<path d="M79.949,53.21c-8.207,0-14.883-6.71-14.883-14.958c0-1.381,1.119-2.5,2.5-2.5s2.5,1.119,2.5,2.5
			c0,5.491,4.434,9.958,9.883,9.958s9.882-4.467,9.882-9.958c0-1.381,1.119-2.5,2.5-2.5s2.5,1.119,2.5,2.5
			C94.831,46.5,88.154,53.21,79.949,53.21z"/>
		<path d="M121.939,81.752c-1.381,0-2.5-1.119-2.5-2.5l-0.006-21.124c0-1.38,1.118-2.5,2.5-2.5l0,0c1.381,0,2.5,1.119,2.5,2.5
			l0.006,21.125C124.439,80.632,123.322,81.752,121.939,81.752L121.939,81.752z"/>
		<path stroke="#010101" stroke-width="5" stroke-linecap="round" stroke-linejoin="round" stroke-miterlimit="10" d="
			M121.939,79.252"/>
		<path stroke="#010101" stroke-width="5" stroke-linecap="round" stroke-linejoin="round" stroke-miterlimit="10" d="
			M102.189,77.998"/>
		<path d="M121.924,60.617c-1.381,0-2.5-1.119-2.5-2.5c0-1.761-0.939-3.402-2.449-4.283c-1.193-0.695-1.599-2.225-0.902-3.418
			c0.693-1.194,2.227-1.595,3.418-0.902c3.044,1.772,4.935,5.069,4.935,8.603C124.424,59.498,123.305,60.617,121.924,60.617z"/>
		<path d="M99.711,40.752h-7.396c-1.381,0-2.5-1.119-2.5-2.5s1.119-2.5,2.5-2.5h7.396c1.381,0,2.5,1.119,2.5,2.5
			S101.092,40.752,99.711,40.752z"/>
		<path d="M118.229,54.174c-0.508,0-1.021-0.154-1.465-0.476l-18.52-13.422c-1.118-0.811-1.368-2.374-0.559-3.491
			c0.812-1.118,2.373-1.369,3.491-0.558l18.521,13.422c1.118,0.811,1.368,2.374,0.558,3.491
			C119.768,53.815,119.004,54.174,118.229,54.174z"/>
		<path d="M67.578,40.752h-7.374c-1.381,0-2.5-1.119-2.5-2.5s1.119-2.5,2.5-2.5h7.374c1.381,0,2.5,1.119,2.5,2.5
			S68.958,40.752,67.578,40.752z"/>
		<path d="M37.94,80.498L37.94,80.498c-1.382-0.001-2.501-1.121-2.5-2.501l0.011-19.87c0.001-1.38,1.12-2.499,2.5-2.499h0.001
			c1.381,0.001,2.5,1.121,2.499,2.501L40.44,78C40.439,79.38,39.32,80.498,37.94,80.498z"/>
		<path d="M55.229,81.752H37.94c-1.381,0-2.5-1.119-2.5-2.5s1.119-2.5,2.5-2.5h17.289c1.381,0,2.5,1.119,2.5,2.5
			S56.61,81.752,55.229,81.752z"/>
		<path d="M37.962,60.617c-1.381,0-2.5-1.119-2.5-2.5c0-3.535,1.891-6.832,4.936-8.604c1.193-0.695,2.724-0.29,3.418,0.903
			s0.29,2.724-0.903,3.418c-1.511,0.88-2.45,2.521-2.45,4.282C40.462,59.498,39.343,60.617,37.962,60.617z"/>
		<path d="M67.566,40.752H60.17c-1.381,0-2.5-1.119-2.5-2.5s1.119-2.5,2.5-2.5h7.396c1.381,0,2.5,1.119,2.5,2.5
			S68.947,40.752,67.566,40.752z"/>
		<path d="M41.657,54.174c-0.774,0-1.537-0.358-2.026-1.033c-0.811-1.118-0.562-2.681,0.557-3.491l18.514-13.422
			c1.118-0.809,2.682-0.562,3.491,0.557c0.811,1.118,0.562,2.681-0.557,3.491L43.123,53.698
			C42.679,54.019,42.166,54.174,41.657,54.174z"/>
		<path d="M104.65,81.749c-1.381,0-2.5-1.119-2.5-2.5V64.661c0-1.381,1.119-2.5,2.5-2.5c1.382,0,2.5,1.119,2.5,2.5v14.588
			C107.15,80.63,106.032,81.749,104.65,81.749z"/>
		<path d="M122.063,81.752h-17.289c-1.381,0-2.5-1.119-2.5-2.5s1.119-2.5,2.5-2.5h17.289c1.381,0,2.5,1.119,2.5,2.5
			S123.443,81.752,122.063,81.752z"/>
	</g>
	<g>
		<path d="M104.857,124.252c-10.485,0-19.018-8.523-19.018-19c0-10.479,8.531-19.001,19.018-19.001
			c10.502,0,19.045,8.522,19.045,19.001C123.902,115.729,115.359,124.252,104.857,124.252z M104.857,91.25
			c-7.729,0-14.018,6.281-14.018,14.002s6.288,14,14.018,14c7.744,0,14.045-6.279,14.045-14S112.604,91.25,104.857,91.25z"/>
		<path d="M97.186,107.246c-1.104,0-2-0.896-2-2c0-5.382,4.342-9.76,9.68-9.76c1.104,0,2,0.896,2,2c0,1.104-0.896,2-2,2
			c-3.131,0-5.68,2.584-5.68,5.76C99.186,106.352,98.29,107.246,97.186,107.246z"/>
	</g>
</g>
</svg>
