<?xml version="1.0" encoding="utf-8"?>
<!-- Generator: Adobe Illustrator 16.0.0, SVG Export Plug-In . SVG Version: 6.00 Build 0)  -->
<!DOCTYPE svg PUBLIC "-//W3C//DTD SVG 1.1//EN" "http://www.w3.org/Graphics/SVG/1.1/DTD/svg11.dtd">
<svg version="1.1" id="Layer_1" xmlns="http://www.w3.org/2000/svg" xmlns:xlink="http://www.w3.org/1999/xlink" x="0px" y="0px"
	 width="160px" height="160px" viewBox="0 0 160 160" enable-background="new 0 0 160 160" xml:space="preserve">
<g>
	<circle cx="80" cy="103.001" r="8.5"/>
	<path d="M80,98.001c-1.104,0-2-0.896-2-2V48c0-1.104,0.896-2,2-2c1.104,0,2,0.896,2,2v48.001C82,97.105,81.104,98.001,80,98.001z"
		/>
	<path d="M80.021,126.501c-12.693,0-23.021-10.344-23.021-23.06c0-7.657,3.746-14.631,10.089-18.91V46.44
		c0-7.135,5.792-12.94,12.911-12.94s12.911,5.805,12.911,12.94v38.065C99.169,88.782,103,95.971,103,103.6
		C103,116.227,92.691,126.501,80.021,126.501z M80,38.5c-4.362,0-7.911,3.562-7.911,7.94v40.894l-1.228,0.725
		C65.293,91.368,62,97.107,62,103.441c0,9.959,8.084,18.06,18.021,18.06c9.915,0,17.979-8.03,17.979-17.901
		c0-6.358-3.396-12.326-8.865-15.574l-1.224-0.727V46.44C87.911,42.062,84.361,38.5,80,38.5z"/>
</g>
</svg>
