<?xml version="1.0" encoding="utf-8"?>
<!-- Generator: Adobe Illustrator 16.0.0, SVG Export Plug-In . SVG Version: 6.00 Build 0)  -->
<!DOCTYPE svg PUBLIC "-//W3C//DTD SVG 1.1//EN" "http://www.w3.org/Graphics/SVG/1.1/DTD/svg11.dtd">
<svg version="1.1" id="Layer_1" xmlns="http://www.w3.org/2000/svg" xmlns:xlink="http://www.w3.org/1999/xlink" x="0px" y="0px"
	 width="160px" height="160px" viewBox="0 0 160 160" enable-background="new 0 0 160 160" xml:space="preserve">
<g>
	<path d="M84.689,121.277H45.454c-1.93,0-3.5-1.57-3.5-3.5V42.223c0-1.93,1.57-3.5,3.5-3.5h39.235c1.931,0,3.5,1.57,3.5,3.5v16.158
		h-5V43.723H46.954v72.554h36.235V103.71h5v14.067C88.189,119.707,86.619,121.277,84.689,121.277z"/>
	<g>
		<path d="M100.303,76.903c-3.095,0-5.736-0.484-10.828-3.038c-4.115-2.096-6.262-2.504-8.582-2.504
			c-3.054,0-5.643,1.117-7.915,3.416l-3.557-3.515c3.215-3.252,7.075-4.901,11.472-4.901c3.5,0,6.539,0.853,10.838,3.042
			c4.211,2.112,6.192,2.5,8.572,2.5c2.283,0,5.149-0.705,9.09-5.931l2.963-3.662l3.887,3.146l-2.909,3.594
			C109.255,74.46,105.221,76.903,100.303,76.903z"/>
		<polygon points="118.046,75.65 114.046,75.65 114.046,64.073 103.464,64.073 103.464,60.073 118.046,60.073 		"/>
	</g>
	<g>
		<path d="M100.303,99.342c-3.095,0-5.736-0.484-10.828-3.037c-4.115-2.097-6.262-2.505-8.582-2.505
			c-3.054,0-5.643,1.117-7.915,3.417l-3.557-3.516c3.216-3.253,7.075-4.901,11.472-4.901c3.5,0,6.539,0.853,10.838,3.042
			c4.211,2.112,6.192,2.5,8.572,2.5c2.283,0,5.149-0.705,9.09-5.933l2.963-3.661l3.886,3.146l-2.909,3.592
			C109.255,96.898,105.221,99.342,100.303,99.342z"/>
		<polygon points="118.046,98.089 114.046,98.089 114.046,86.512 103.464,86.512 103.464,82.512 118.046,82.512 		"/>
	</g>
</g>
</svg>
