<?xml version="1.0" encoding="utf-8"?>
<!-- Generator: Adobe Illustrator 16.0.0, SVG Export Plug-In . SVG Version: 6.00 Build 0)  -->
<!DOCTYPE svg PUBLIC "-//W3C//DTD SVG 1.1//EN" "http://www.w3.org/Graphics/SVG/1.1/DTD/svg11.dtd">
<svg version="1.1" id="Layer_1" xmlns="http://www.w3.org/2000/svg" xmlns:xlink="http://www.w3.org/1999/xlink" x="0px" y="0px"
	 width="160px" height="160px" viewBox="0 0 160 160" enable-background="new 0 0 160 160" xml:space="preserve">
<g>
	<g>
		<g>
			<g>
				<path d="M106.025,120.736H53.519c-1.381,0-2.5-1.119-2.5-2.5V70.13h5v45.606h47.506V70.13h5v48.106
					C108.525,119.617,107.406,120.736,106.025,120.736z"/>
				<path d="M122.802,89.502H106.08v-5h14.221l-0.009-23.997c0-1.688-0.896-3.257-2.335-4.1l-19.78-12.668h-4.118
					c-1.182,6.851-7.131,12.077-14.27,12.077c-7.134,0-13.079-5.226-14.26-12.077h-4.102L41.733,56.353
					c-1.525,0.896-2.42,2.464-2.42,4.146l-0.011,24.002h14.223v5H36.802c-0.663,0-1.299-0.265-1.768-0.731
					c-0.469-0.469-0.732-1.105-0.732-1.769l0.012-26.499c0-3.454,1.842-6.676,4.808-8.413L59.347,39.13
					c0.403-0.258,0.871-0.395,1.349-0.395h7.121c1.381,0,2.5,1.119,2.5,2.5c0,5.281,4.249,9.577,9.473,9.577
					c5.229,0,9.481-4.296,9.481-9.577c0-1.381,1.119-2.5,2.5-2.5h7.139c0.479,0,0.945,0.137,1.349,0.395l20.312,13.011
					c2.881,1.684,4.724,4.906,4.724,8.356l0.011,26.502c0,0.662-0.264,1.299-0.731,1.769
					C124.102,89.238,123.465,89.502,122.802,89.502z"/>
			</g>
			<path d="M76.348,108.693c-8.327,0-15.101-6.521-15.101-14.539h5c0,5.26,4.531,9.539,10.101,9.539V108.693z"/>
			<path d="M66.234,94.148h-5c0-4.563-3.436-8.502-8.17-9.367l0.898-4.918C61.074,81.162,66.234,87.17,66.234,94.148z"/>
			<path d="M91.457,118.236h-5c0-5.262-4.535-9.543-10.109-9.543v-5C84.68,103.693,91.457,110.219,91.457,118.236z"/>
		</g>
	</g>
	<path d="M88.971,118.232c0-6.648-5.646-12.043-12.607-12.043c-6.957,0-12.603-5.388-12.603-12.037l-0.011-0.004
		c0-5.877-4.401-10.767-10.222-11.828l0.006,35.912H88.971z"/>
</g>
</svg>
