<?xml version="1.0" encoding="utf-8"?>
<!-- Generator: Adobe Illustrator 16.0.0, SVG Export Plug-In . SVG Version: 6.00 Build 0)  -->
<!DOCTYPE svg PUBLIC "-//W3C//DTD SVG 1.1//EN" "http://www.w3.org/Graphics/SVG/1.1/DTD/svg11.dtd">
<svg version="1.1" id="Layer_1" xmlns="http://www.w3.org/2000/svg" xmlns:xlink="http://www.w3.org/1999/xlink" x="0px" y="0px"
	 width="160px" height="160px" viewBox="0 0 160 160" enable-background="new 0 0 160 160" xml:space="preserve">
<g>
	<g>
		<g>
			<path d="M103.197,115.832c-7.311,0-13.258-5.969-13.258-13.303c0-7.332,5.946-13.297,13.258-13.297
				c7.32,0,13.275,5.965,13.275,13.297C116.473,109.863,110.518,115.832,103.197,115.832z M103.197,94.232
				c-4.555,0-8.258,3.723-8.258,8.297c0,4.578,3.703,8.303,8.258,8.303c4.563,0,8.275-3.725,8.275-8.303
				C111.473,97.955,107.76,94.232,103.197,94.232z"/>
		</g>
		<g>
			<path stroke="#231F20" stroke-width="2.5" stroke-linecap="round" stroke-linejoin="round" stroke-miterlimit="10" d="
				M93.977,93.291"/>
		</g>
		<g>
			<path d="M122.027,105.029h-7.318c-1.381,0-2.5-1.119-2.5-2.5s1.119-2.5,2.5-2.5h7.318c1.381,0,2.5,1.119,2.5,2.5
				S123.408,105.029,122.027,105.029z"/>
		</g>
		<g>
			<path d="M92.439,105.029h-7.295c-1.381,0-2.5-1.119-2.5-2.5s1.119-2.5,2.5-2.5h7.295c1.381,0,2.5,1.119,2.5,2.5
				S93.82,105.029,92.439,105.029z"/>
		</g>
		<g>
			<path d="M110.996,97.586c-0.637,0-1.275-0.242-1.762-0.727c-0.98-0.976-0.984-2.558-0.01-3.535l5.631-5.664
				c0.973-0.979,2.557-0.984,3.535-0.01c0.978,0.974,0.981,2.557,0.01,3.535l-5.631,5.664
				C112.281,97.34,111.639,97.586,110.996,97.586z"/>
		</g>
		<g>
			<path d="M103.588,123.559c-1.381,0-2.5-1.119-2.5-2.5v-7.553c0-1.381,1.119-2.5,2.5-2.5s2.5,1.119,2.5,2.5v7.553
				C106.088,122.439,104.969,123.559,103.588,123.559z"/>
		</g>
		<g>
			<path d="M95.691,97.096c-0.644,0-1.285-0.246-1.773-0.738l-5.139-5.172c-0.975-0.979-0.969-2.563,0.012-3.535
				c0.979-0.975,2.563-0.969,3.535,0.013l5.139,5.172c0.973,0.979,0.967,2.563-0.012,3.535
				C96.965,96.854,96.328,97.096,95.691,97.096z"/>
		</g>
		<g>
			<path d="M116.627,118.133c-0.641,0-1.283-0.246-1.771-0.736l-5.68-5.707c-0.975-0.979-0.971-2.563,0.008-3.535
				c0.979-0.977,2.562-0.973,3.535,0.009l5.68,5.707c0.976,0.979,0.972,2.562-0.008,3.534
				C117.902,117.891,117.266,118.133,116.627,118.133z"/>
		</g>
		<g>
			<path d="M90.553,93.625c-2.314,0-4.195-1.885-4.195-4.201c0-2.314,1.881-4.199,4.195-4.199c2.309,0,4.186,1.885,4.186,4.199
				C94.738,91.74,92.861,93.625,90.553,93.625z M90.553,88.625c-0.449,0-0.814,0.357-0.814,0.799c0,0.442,0.365,0.801,0.814,0.801
				c0.443,0,0.805-0.358,0.805-0.801C91.357,88.982,90.996,88.625,90.553,88.625z"/>
		</g>
		<g>
			<path d="M85.145,106.729c-2.311,0-4.19-1.883-4.19-4.199c0-2.315,1.881-4.2,4.19-4.2c2.311,0,4.191,1.885,4.191,4.2
				C89.336,104.846,87.455,106.729,85.145,106.729z M85.145,101.729c-0.446,0-0.809,0.359-0.809,0.801c0,0.443,0.361,0.8,0.809,0.8
				c0.445,0,0.81-0.356,0.81-0.8C85.954,102.088,85.59,101.729,85.145,101.729z"/>
		</g>
		<g>
			<path d="M103.588,125.258c-2.314,0-4.195-1.883-4.195-4.199c0-2.313,1.881-4.199,4.195-4.199c2.311,0,4.191,1.886,4.191,4.199
				C107.779,123.375,105.898,125.258,103.588,125.258z M103.588,120.258c-0.447,0-0.809,0.359-0.809,0.801
				c0,0.442,0.361,0.801,0.809,0.801c0.443,0,0.805-0.358,0.805-0.801C104.393,120.617,104.031,120.258,103.588,120.258z"/>
		</g>
		<g>
			<path d="M116.627,119.834c-2.313,0-4.195-1.885-4.195-4.201s1.883-4.199,4.195-4.199s4.191,1.883,4.191,4.199
				S118.939,119.834,116.627,119.834z M116.627,114.834c-0.445,0-0.809,0.357-0.809,0.799c0,0.442,0.363,0.801,0.809,0.801
				c0.443,0,0.805-0.358,0.805-0.801C117.432,115.191,117.07,114.834,116.627,114.834z"/>
		</g>
		<g>
			<path d="M122.027,106.729c-2.312,0-4.191-1.883-4.191-4.199c0-2.315,1.881-4.2,4.191-4.2c2.31,0,4.19,1.885,4.19,4.2
				C126.218,104.846,124.338,106.729,122.027,106.729z M122.027,101.729c-0.447,0-0.81,0.359-0.81,0.801c0,0.443,0.361,0.8,0.81,0.8
				c0.445,0,0.809-0.356,0.809-0.8C122.836,102.088,122.473,101.729,122.027,101.729z"/>
		</g>
		<g>
			<path d="M116.627,93.629c-2.313,0-4.195-1.887-4.195-4.205c0-2.313,1.883-4.195,4.195-4.195s4.191,1.883,4.191,4.195
				C120.818,91.742,118.939,93.629,116.627,93.629z M116.627,88.629c-0.445,0-0.809,0.355-0.809,0.795
				c0,0.443,0.363,0.805,0.809,0.805c0.443,0,0.805-0.36,0.805-0.805C117.432,88.984,117.07,88.629,116.627,88.629z"/>
		</g>
	</g>
	<g>
		<g>
			<g>
				<g>
					<path d="M78.34,115.729H52.697c-1.381,0-2.5-1.119-2.5-2.5V61.809h5v48.919H78.34V115.729z"/>
				</g>
				<g>
					<path d="M120.73,77.734h-16.42c-1.381,0-2.554-1.119-2.554-2.5V61.809h5v10.926h11.474l-0.01-16.479
						c0-1.656-0.871-3.193-2.273-4.02L96.535,39.742h-3.988c-1.176,6.762-7.029,11.918-14.053,11.918
						c-7.018,0-12.867-5.156-14.041-11.918H60.48L41.154,52.184c-0.029,0.018-0.057,0.035-0.086,0.053
						c-1.402,0.826-2.275,2.363-2.275,4.016l-0.01,16.479h13.922v5H36.281c-0.662,0-1.299-0.264-1.768-0.732
						c-0.469-0.468-0.732-1.105-0.732-1.77l0.012-18.975c0-3.398,1.797-6.572,4.693-8.299L58.39,35.14
						c0.404-0.26,0.875-0.396,1.354-0.396h6.994c1.381,0,2.5,1.119,2.5,2.5c0,5.193,4.152,9.418,9.256,9.418
						c5.109,0,9.268-4.225,9.268-9.418c0-1.381,1.119-2.5,2.5-2.5h7.008c0.48,0,0.949,0.137,1.354,0.396l19.944,12.84
						c2.839,1.67,4.652,4.859,4.652,8.273l0.01,18.982c0,0.662-0.262,1.299-0.729,1.768
						C122.033,77.472,121.395,77.734,120.73,77.734z"/>
				</g>
			</g>
		</g>
	</g>
</g>
</svg>
