<?xml version="1.0" encoding="utf-8"?>
<!-- Generator: Adobe Illustrator 16.0.0, SVG Export Plug-In . SVG Version: 6.00 Build 0)  -->
<!DOCTYPE svg PUBLIC "-//W3C//DTD SVG 1.1//EN" "http://www.w3.org/Graphics/SVG/1.1/DTD/svg11.dtd">
<svg version="1.1" id="Layer_1" xmlns="http://www.w3.org/2000/svg" xmlns:xlink="http://www.w3.org/1999/xlink" x="0px" y="0px"
	 width="196px" height="156px" viewBox="0 0 196 156" enable-background="new 0 0 196 156" xml:space="preserve">
<g id="Layer_1_1_">
	<path d="M90.046,65.34c-4.836-3.896-10.311-5.869-16.329-5.869c-6.509,0-12.576,1.232-21.032,7.246l-0.002-0.003
		c-8.208,5.832-13.465,6.319-18.146,6.319c-6.224,0-11.568-2.532-16.321-7.72l-4.135-19.67l-4.894,1.028l13.109,62.362
		c0.354,1.69,1.924,2.967,3.652,2.967h57.343c2.051,0,2.441-1.855,2.675-2.965l13.116-62.364l-4.894-1.029L90.046,65.34z
		 M81.286,106.999H26.979l-7.054-33.556c4.405,3.045,9.294,4.588,14.612,4.588c6.51,0,12.579-1.23,21.041-7.242l0.002,0.003
		c8.202-5.834,13.457-6.322,18.137-6.322c5.721,0,10.687,2.128,15.146,6.497L81.286,106.999z M186.749,88.497l-0.013-20.13
		c0-2.922-1.494-5.662-3.93-7.266c-0.104-0.089-0.217-0.17-0.336-0.243l-21.427-12.902l-16.759-11.039
		c-1.066-0.75-1.778-1.875-2.004-3.166c-0.463-2.663,1.32-5.205,3.98-5.668c1.282-0.224,2.576,0.064,3.645,0.813
		c1.07,0.752,1.783,1.877,2.008,3.167l4.926-0.855c-0.451-2.608-1.895-4.882-4.059-6.403c-2.16-1.518-4.783-2.104-7.381-1.648
		c-5.371,0.935-8.98,6.071-8.045,11.451c0.455,2.608,1.895,4.881,4.117,6.441l0.815,0.538l-9.665,6.342l-21.432,12.905
		c-2.689,1.555-4.36,4.44-4.36,7.53l-0.013,20.535c-0.004,0.058-0.006,0.114-0.006,0.174c0,1.381,1.119,2.5,2.5,2.5h12.07v23.936
		c0,1.381,1.119,2.5,2.5,2.5h45.75c1.377,0,2.494-1.112,2.5-2.489l0.104-23.946h12.076c1.381,0,2.5-1.118,2.5-2.5
		C186.814,88.875,186.792,88.682,186.749,88.497z M157.711,51.748h-0.077c0,4.605-4.88,8.354-10.879,8.354
		c-5.983,0-10.854-3.736-10.868-8.333l10.951-7.184L157.711,51.748z M172.262,86.572l0.04-9.498l-5-0.021l-0.155,35.956h-40.76
		V77.064h-5v9.51h-9.564l0.012-18.208c0-1.331,0.695-2.528,1.9-3.226l17.521-10.552c1.555,6.001,7.908,10.512,15.499,10.512
		c7.618,0,13.995-4.536,15.524-10.563l17.25,10.387c0.105,0.088,0.222,0.169,0.346,0.24c1.166,0.675,1.861,1.872,1.861,3.205
		l0.012,18.206h-9.486V86.572z"/>
</g>
</svg>
