<?xml version="1.0" encoding="utf-8"?>
<!-- Generator: Adobe Illustrator 16.0.0, SVG Export Plug-In . SVG Version: 6.00 Build 0)  -->
<!DOCTYPE svg PUBLIC "-//W3C//DTD SVG 1.1//EN" "http://www.w3.org/Graphics/SVG/1.1/DTD/svg11.dtd">
<svg version="1.1" id="Layer_1" xmlns="http://www.w3.org/2000/svg" xmlns:xlink="http://www.w3.org/1999/xlink" x="0px" y="0px"
	 width="160px" height="160px" viewBox="0 0 160 160" enable-background="new 0 0 160 160" xml:space="preserve">
<g>
	<g>
		<g>
			<path d="M76.101,74.594c-8.727,0-15.827-5.99-15.827-13.354h5c0,4.606,4.857,8.354,10.827,8.354
				c5.976,0,10.836-3.748,10.836-8.354h5C91.938,68.604,84.833,74.594,76.101,74.594z"/>
		</g>
		<g>
			<path d="M76.03,127.501H53.303c-1.381,0-2.5-1.119-2.5-2.5V86.557h5v35.944H76.03V127.501z"/>
		</g>
		<g>
			<path d="M115.965,87.668h-5v-9.809c0-1.333-0.693-2.532-1.855-3.206c-0.123-0.071-0.236-0.151-0.344-0.239L87.725,61.702
				c-0.029-0.017-0.059-0.035-0.086-0.054l-16.81-11.107c-2.215-1.563-3.651-3.834-4.104-6.441
				c-0.933-5.379,2.667-10.515,8.025-11.45c2.582-0.455,5.196,0.125,7.352,1.638c2.166,1.521,3.608,3.798,4.063,6.412l-4.926,0.855
				c-0.227-1.296-0.938-2.423-2.009-3.175c-1.06-0.744-2.345-1.03-3.614-0.805c-2.649,0.462-4.426,3.005-3.964,5.669
				c0.226,1.292,0.935,2.418,1.998,3.168l16.705,11.036L111.71,70.35c0.119,0.072,0.229,0.152,0.333,0.241
				c2.432,1.604,3.922,4.344,3.922,7.268V87.668z"/>
		</g>
		<g>
			<path d="M53.303,101.064H38.78c-1.381,0-2.5-1.119-2.5-2.5c0-0.059,0.002-0.115,0.006-0.174l0.012-20.533
				c0-3.089,1.666-5.975,4.347-7.53l21.363-12.905l12.234-8.052l2.748,4.177l-12.315,8.103L43.192,74.63
				c-1.2,0.697-1.894,1.896-1.894,3.229l-0.01,18.206h12.015V101.064z"/>
		</g>
	</g>
	<g>
		<path d="M121.221,127.501H83.34c-1.381,0-2.5-1.119-2.5-2.5c0-11.644,9.167-21.11,20.436-21.11h17.445v-1.621
			c0-3.182-2.455-5.77-5.474-5.77H95.314v-5h17.933c5.771,0,10.468,4.826,10.474,10.759l0,0c0,0.001,0,0.002,0,0.005v22.735
			C123.721,126.382,122.602,127.501,121.221,127.501z M86.023,122.501h32.695v-13.61h-17.445
			C93.577,108.891,87.177,114.8,86.023,122.501z"/>
	</g>
</g>
</svg>
