<?xml version="1.0" encoding="utf-8"?>
<!-- Generator: Adobe Illustrator 16.0.0, SVG Export Plug-In . SVG Version: 6.00 Build 0)  -->
<!DOCTYPE svg PUBLIC "-//W3C//DTD SVG 1.1//EN" "http://www.w3.org/Graphics/SVG/1.1/DTD/svg11.dtd">
<svg version="1.1" id="Layer_1" xmlns="http://www.w3.org/2000/svg" xmlns:xlink="http://www.w3.org/1999/xlink" x="0px" y="0px"
	 width="160px" height="160px" viewBox="0 0 160 160" enable-background="new 0 0 160 160" xml:space="preserve">
<g>
	<g>
		<g>
			<path d="M100.441,80.267c-0.574,0-1.152-0.197-1.623-0.601l-20.44-17.489c-1.05-0.897-1.172-2.476-0.274-3.525
				c0.897-1.048,2.478-1.17,3.524-0.274l20.44,17.489c1.05,0.897,1.172,2.476,0.273,3.525
				C101.85,79.97,101.146,80.267,100.441,80.267z"/>
			<path d="M103.639,50.456c-0.759,0-1.508-0.344-1.998-0.996l-7.496-9.956c-0.832-1.103-0.609-2.67,0.492-3.501
				c1.104-0.832,2.672-0.61,3.502,0.493l7.495,9.956c0.831,1.103,0.609,2.67-0.493,3.501
				C104.689,50.292,104.162,50.456,103.639,50.456z"/>
			<path d="M80.355,62.046c-0.554,0-1.111-0.183-1.575-0.56c-1.071-0.871-1.233-2.445-0.363-3.517l15.151-18.645
				c0.871-1.07,2.445-1.235,3.519-0.363c1.071,0.871,1.233,2.445,0.363,3.517L82.298,61.123
				C81.805,61.73,81.083,62.046,80.355,62.046z"/>
			<path d="M100.591,80.184c-0.088,0-0.176-0.004-0.266-0.014c-1.373-0.145-2.368-1.375-2.224-2.748l3.09-29.292
				c0.146-1.374,1.367-2.365,2.748-2.224c1.373,0.145,2.369,1.375,2.225,2.749l-3.09,29.292
				C102.938,79.23,101.854,80.184,100.591,80.184z"/>
		</g>
		<g>
			<path d="M59.558,80.267c-0.705,0-1.406-0.297-1.901-0.875c-0.897-1.049-0.774-2.627,0.275-3.525l20.446-17.489
				c1.047-0.896,2.627-0.775,3.524,0.275c0.896,1.049,0.773,2.627-0.274,3.525L61.182,79.667
				C60.71,80.069,60.133,80.267,59.558,80.267z"/>
			<path d="M56.368,50.456c-0.523,0-1.051-0.164-1.501-0.502c-1.104-0.83-1.325-2.397-0.495-3.501l7.489-9.956
				c0.831-1.104,2.397-1.325,3.501-0.495s1.325,2.397,0.495,3.501l-7.489,9.956C57.876,50.111,57.127,50.456,56.368,50.456z"/>
			<path d="M79.645,62.046c-0.728,0-1.448-0.315-1.942-0.923L62.55,42.478c-0.871-1.071-0.708-2.646,0.363-3.517
				c1.072-0.873,2.647-0.708,3.517,0.363l15.152,18.645c0.87,1.071,0.708,2.646-0.363,3.517
				C80.756,61.863,80.198,62.046,79.645,62.046z"/>
			<path d="M59.409,80.184c-1.263,0-2.348-0.953-2.483-2.237l-3.09-29.292c-0.145-1.373,0.851-2.604,2.224-2.749
				c1.37-0.146,2.603,0.851,2.749,2.224l3.09,29.292c0.145,1.373-0.851,2.604-2.224,2.748C59.585,80.18,59.497,80.184,59.409,80.184
				z"/>
		</g>
	</g>
	<g>
		<path d="M114,124.5H46c-1.381,0-2.5-1.119-2.5-2.5V47.69c0-1.381,1.119-2.5,2.5-2.5s2.5,1.119,2.5,2.5v71.81h63V47.69
			c0-1.381,1.119-2.5,2.5-2.5s2.5,1.119,2.5,2.5V122C116.5,123.381,115.381,124.5,114,124.5z"/>
	</g>
	<path d="M55.872,50.19H46c-1.381,0-2.5-1.119-2.5-2.5s1.119-2.5,2.5-2.5h9.872c1.381,0,2.5,1.119,2.5,2.5
		S57.253,50.19,55.872,50.19z"/>
	<path d="M113.994,50.19h-10.357c-1.381,0-2.5-1.119-2.5-2.5s1.119-2.5,2.5-2.5h10.357c1.381,0,2.5,1.119,2.5,2.5
		S115.375,50.19,113.994,50.19z"/>
	<path d="M79.602,122.766c-1.381,0-2.5-1.119-2.5-2.5V60.378c0-1.381,1.119-2.5,2.5-2.5c1.38,0,2.5,1.119,2.5,2.5v59.888
		C82.102,121.646,80.982,122.766,79.602,122.766z"/>
	<path d="M95.996,40.5H63.859c-1.381,0-2.5-1.119-2.5-2.5s1.119-2.5,2.5-2.5h32.137c1.381,0,2.5,1.119,2.5,2.5
		S97.377,40.5,95.996,40.5z"/>
</g>
</svg>
