<?xml version="1.0" encoding="utf-8"?>
<!-- Generator: Adobe Illustrator 16.0.0, SVG Export Plug-In . SVG Version: 6.00 Build 0)  -->
<!DOCTYPE svg PUBLIC "-//W3C//DTD SVG 1.1//EN" "http://www.w3.org/Graphics/SVG/1.1/DTD/svg11.dtd">
<svg version="1.1" id="Layer_1" xmlns="http://www.w3.org/2000/svg" xmlns:xlink="http://www.w3.org/1999/xlink" x="0px" y="0px"
	 width="156px" height="156px" viewBox="0 0 156 156" enable-background="new 0 0 156 156" xml:space="preserve">
<path d="M124.961,63.225c-8.171,0-14.822,6.651-14.822,14.839c0,8.175,6.651,14.826,14.822,14.826
	c8.176,0,14.828-6.651,14.828-14.826C139.789,69.876,133.137,63.225,124.961,63.225z M124.961,88.938
	c-5.991,0-10.866-4.879-10.866-10.874c0-6.007,4.875-10.886,10.866-10.886c5.995,0,10.873,4.879,10.873,10.886
	C135.834,84.059,130.956,88.938,124.961,88.938z M126.937,58.482h-3.955V47.481h3.955V58.482z M122.981,97.532h3.955v10.993h-3.955
	V97.532z M109.753,65.599l-7.771-7.771l2.796-2.796l7.771,7.771L109.753,65.599z M140.157,90.415l7.787,7.771l-2.793,2.799
	l-7.787-7.77L140.157,90.415z M105.432,79.989H94.444v-3.953h10.987V79.989z M155.479,76.036v3.953h-10.992v-3.953H155.479z
	 M109.753,90.4l2.796,2.793l-7.769,7.788l-2.799-2.792L109.753,90.4z M140.176,65.599l-2.796-2.794l7.771-7.78l2.796,2.794
	L140.176,65.599z M80.025,78.517h9.939v3.955h-9.939v9.946h-3.954v-9.946h-9.939v-3.955h9.939v-9.951h3.955L80.025,78.517
	L80.025,78.517z M19.208,69.428c0.292,0.157,0.613,0.234,0.932,0.234c0.384,0,0.768-0.112,1.098-0.334l12.479-8.335l0.01,6.695
	c0.002,0.729,0.404,1.398,1.049,1.742c0.291,0.154,0.61,0.231,0.928,0.231c0.385,0,0.77-0.112,1.102-0.334l12.838-8.604
	c0.548-0.367,0.876-0.983,0.876-1.643c0-0.661-0.329-1.276-0.877-1.644l-12.863-8.604c-0.605-0.406-1.388-0.444-2.033-0.101
	c-0.643,0.346-1.044,1.017-1.044,1.747l0.011,6.685l-12.473-8.332c-0.606-0.405-1.389-0.445-2.03-0.1
	c-0.644,0.345-1.045,1.014-1.045,1.744v17.208C18.164,68.415,18.565,69.084,19.208,69.428z M44.988,59.082l-7.313,4.901
	l-0.015-9.802L44.988,59.082z M22.117,54.175l7.344,4.906l-7.344,4.904V54.175z M58.123,74.509
	c-4.779-2.067-14.142-4.82-24.03-0.663c-13.171,5.53-22.502,2.755-26.082,1.191L4.414,54.884L0.521,55.58l8.217,46.023
	c0.168,0.941,0.988,1.629,1.945,1.629H55.35c0.957,0,1.778-0.685,1.945-1.629l8.226-46.023l-3.892-0.696L58.123,74.509z
	 M53.695,99.28H12.339L8.815,79.554c2.444,0.787,5.858,1.523,10.094,1.523c4.656,0,10.301-0.89,16.713-3.583
	c9.191-3.865,17.944-0.779,21.783,1.025L53.695,99.28z"/>
</svg>
