<?xml version="1.0" encoding="utf-8"?>
<!-- Generator: Adobe Illustrator 16.0.0, SVG Export Plug-In . SVG Version: 6.00 Build 0)  -->
<!DOCTYPE svg PUBLIC "-//W3C//DTD SVG 1.1//EN" "http://www.w3.org/Graphics/SVG/1.1/DTD/svg11.dtd">
<svg version="1.1" id="Layer_1" xmlns="http://www.w3.org/2000/svg" xmlns:xlink="http://www.w3.org/1999/xlink" x="0px" y="0px"
	 width="160px" height="160px" viewBox="0 0 160 160" enable-background="new 0 0 160 160" xml:space="preserve">
<g>
	<g>
		<rect x="55.831" y="61.418" width="5" height="25.5"/>
		<rect x="99.008" y="61.397" width="5" height="25.557"/>
		<g>
			<path d="M116.5,75.58h-15.025c-1.381,0-2.5-1.119-2.5-2.5s1.119-2.5,2.5-2.5H114l-0.006-14.515
				c-0.006-0.072-0.01-0.145-0.01-0.218c0-1.428-0.756-2.758-1.976-3.471c-0.071-0.042-0.141-0.088-0.209-0.137l-15.433-11.24
				h-5.615c-1.381,0-2.5-1.119-2.5-2.5s1.119-2.5,2.5-2.5h6.43c0.529,0,1.043,0.168,1.471,0.479l16,11.652
				c2.607,1.581,4.248,4.417,4.33,7.478c0.009,0.083,0.013,0.166,0.013,0.249L119,73.079c0,0.663-0.262,1.299-0.732,1.769
				C117.799,75.316,117.164,75.58,116.5,75.58z"/>
		</g>
		<g>
			<path d="M80.008,51.876c-6.465,0-11.864-4.691-13.027-10.877H62.61c-1.381,0-2.5-1.119-2.5-2.5s1.119-2.5,2.5-2.5h6.639
				c1.381,0,2.5,1.119,2.5,2.5c0,4.619,3.705,8.377,8.26,8.377c4.554,0,8.259-3.758,8.259-8.377c0-1.381,1.119-2.5,2.5-2.5
				s2.5,1.119,2.5,2.5C93.268,45.875,87.32,51.876,80.008,51.876z"/>
			<g>
				<path d="M58.331,75.58H43.5c-0.663,0-1.299-0.264-1.768-0.733C41.263,74.378,41,73.742,41,73.079l0.01-17.222
					c0-0.089,0.005-0.179,0.015-0.267c0.087-3.052,1.72-5.878,4.315-7.456l15.785-11.647c1.111-0.819,2.676-0.584,3.496,0.527
					c0.819,1.111,0.584,2.676-0.527,3.496L48.212,52.23c-0.071,0.052-0.145,0.101-0.221,0.146c-1.215,0.711-1.969,2.042-1.969,3.472
					c0,0.078-0.003,0.156-0.011,0.233l-0.009,14.5h12.329c1.381,0,2.5,1.119,2.5,2.5S59.712,75.58,58.331,75.58z"/>
			</g>
		</g>
	</g>
	<g>
		<path d="M105.096,123.999c-0.002,0-0.004,0-0.008,0l-21.541-0.063c-1.379-0.004-2.496-1.127-2.492-2.508
			c0.004-1.378,1.123-2.492,2.5-2.492c0.002,0,0.006,0,0.008,0l18.761,0.057l-3.302-31.778c-0.143-1.374,0.855-2.603,2.229-2.746
			c1.365-0.134,2.604,0.855,2.744,2.229l3.588,34.546c0.074,0.705-0.156,1.407-0.631,1.935
			C106.477,123.7,105.803,123.999,105.096,123.999z"/>
		<path d="M76.405,123.994c-0.002,0-0.005,0-0.007,0l-21.494-0.059c-0.705-0.002-1.376-0.302-1.848-0.824
			c-0.473-0.522-0.702-1.221-0.633-1.922l3.42-34.519c0.136-1.373,1.363-2.372,2.734-2.241c1.374,0.137,2.377,1.36,2.241,2.734
			l-3.149,31.777l18.742,0.052c1.381,0.004,2.497,1.126,2.493,2.507C78.901,122.879,77.783,123.994,76.405,123.994z"/>
		<path d="M76.423,123.936c-0.131,0-0.264-0.01-0.397-0.031c-1.363-0.217-2.292-1.498-2.074-2.862l3.582-22.438
			c0.218-1.362,1.493-2.295,2.863-2.074c1.363,0.219,2.292,1.5,2.074,2.863l-3.582,22.438
			C78.693,123.061,77.63,123.936,76.423,123.936z"/>
		<path d="M83.553,123.936c-1.209,0-2.271-0.877-2.467-2.108l-3.553-22.438c-0.216-1.363,0.715-2.644,2.079-2.859
			c1.356-0.211,2.644,0.716,2.859,2.078l3.555,22.438c0.216,1.363-0.715,2.644-2.08,2.86
			C83.814,123.926,83.682,123.936,83.553,123.936z"/>
	</g>
	<rect x="58.535" y="82.109" width="42.939" height="5"/>
	<path d="M84.178,85.166c0-4.4-3.751-7.965-8.38-7.965c-4.619,0-8.37-3.569-8.37-7.97h-0.005c0-3.892-2.925-7.124-6.794-7.824
		l0.005,23.759H84.178z"/>
</g>
</svg>
