<?xml version="1.0" encoding="utf-8"?>
<!-- Generator: Adobe Illustrator 16.0.0, SVG Export Plug-In . SVG Version: 6.00 Build 0)  -->
<!DOCTYPE svg PUBLIC "-//W3C//DTD SVG 1.1//EN" "http://www.w3.org/Graphics/SVG/1.1/DTD/svg11.dtd">
<svg version="1.1" id="Layer_1" xmlns="http://www.w3.org/2000/svg" xmlns:xlink="http://www.w3.org/1999/xlink" x="0px" y="0px"
	 width="160px" height="160px" viewBox="0 0 160 160" enable-background="new 0 0 160 160" xml:space="preserve">
<g>
	<g>
		<path d="M86.396,120.771H53.992c-1.381,0-2.5-1.119-2.5-2.5V66.567h5v49.203h29.904V120.771z"/>
		<path d="M53.999,82.568h-16.53c-0.663,0-1.299-0.264-1.769-0.733c-0.469-0.469-0.732-1.104-0.731-1.769l0.012-19.083
			c0-3.432,1.825-6.634,4.762-8.361l19.991-12.858c0.403-0.26,0.873-0.397,1.352-0.397h7.039c1.381,0,2.5,1.119,2.5,2.5
			c0,5.229,4.187,9.483,9.334,9.483c5.152,0,9.343-4.254,9.343-9.483c0-1.381,1.119-2.5,2.5-2.5h7.056
			c0.479,0,0.949,0.138,1.352,0.397l20.077,12.91c2.853,1.675,4.677,4.878,4.677,8.305l0.008,19.086
			c0,0.664-0.264,1.299-0.732,1.769c-0.469,0.469-1.105,0.732-1.768,0.732l0,0h-16.58c-1.381,0-2.5-1.119-2.5-2.5V66.567h5v10.998
			h11.578l-0.006-16.581c0-1.67-0.88-3.221-2.297-4.054L98.122,44.366h-4.034c-1.177,6.798-7.064,11.983-14.129,11.983
			c-7.06,0-12.944-5.185-14.12-11.983H61.82L42.362,56.879c-1.501,0.886-2.382,2.437-2.382,4.1l-0.01,16.589h14.029V82.568z"/>
	</g>
	<g>
		<g>
			<path d="M88.686,107.729c-1.381,0-2.5-1.119-2.5-2.5s1.119-2.5,2.5-2.5c7.188,0,13.035-5.896,13.035-13.143
				c0-1.381,1.119-2.5,2.5-2.5s2.5,1.119,2.5,2.5C106.721,99.59,98.63,107.729,88.686,107.729z"/>
			<path d="M119.752,107.729c-9.943,0-18.034-8.139-18.034-18.143c0-1.381,1.119-2.5,2.5-2.5c1.382,0,2.5,1.119,2.5,2.5
				c0,7.247,5.847,13.143,13.034,13.143c1.381,0,2.5,1.119,2.5,2.5S121.133,107.729,119.752,107.729z"/>
			<path d="M104.125,123.273c-0.01,0-0.02,0-0.029,0c-1.381-0.017-2.486-1.148-2.471-2.529c0.059-4.842,1.984-9.374,5.427-12.76
				c3.447-3.391,8.001-5.192,12.82-5.166c1.381,0.017,2.485,1.149,2.47,2.529c-0.017,1.381-1.115,2.463-2.529,2.471
				c-3.446-0.037-6.764,1.283-9.254,3.731c-2.494,2.454-3.892,5.74-3.933,9.255C106.607,122.174,105.493,123.273,104.125,123.273z"
				/>
			<path d="M104.221,123.366c-1.381,0-2.5-1.119-2.5-2.5c0-7.248-5.848-13.144-13.035-13.144c-1.381,0-2.5-1.119-2.5-2.5
				c0-1.382,1.119-2.5,2.5-2.5c9.944,0,18.035,8.139,18.035,18.144C106.721,122.247,105.602,123.366,104.221,123.366z"/>
		</g>
	</g>
</g>
</svg>
