<?xml version="1.0" encoding="utf-8"?>
<!-- Generator: Adobe Illustrator 16.0.0, SVG Export Plug-In . SVG Version: 6.00 Build 0)  -->
<!DOCTYPE svg PUBLIC "-//W3C//DTD SVG 1.1//EN" "http://www.w3.org/Graphics/SVG/1.1/DTD/svg11.dtd">
<svg version="1.1" id="Layer_1" xmlns="http://www.w3.org/2000/svg" xmlns:xlink="http://www.w3.org/1999/xlink" x="0px" y="0px"
	 width="160px" height="160px" viewBox="0 0 160 160" enable-background="new 0 0 160 160" xml:space="preserve">
<g>
	<rect x="49.659" y="34.866" width="5" height="17.107"/>
	<rect x="74.591" y="34.866" width="5" height="17.107"/>
	<rect x="62.125" y="95.031" width="5" height="30.101"/>
	<g>
		<g>
			<g>
				<g>
					<path d="M99.286,107.577c-0.228,0.005-0.856-0.009-1.402-0.029c0,0-10.092-0.39-15.571-5.891
						c-6.412-6.437-5.933-16.451-5.933-16.451c0.026-0.545,0.072-1.437,0.102-1.979l0.014-0.248c0.03-0.545,0.5-1.017,1.043-1.049
						l0.258-0.016c0.544-0.031,1.123-0.064,1.285-0.075c0,0,0,0,0.527,0c2.5,0,11.083,0.429,16.563,5.931
						c6.411,6.435,5.932,16.449,5.932,16.449c-0.024,0.545-0.07,1.436-0.102,1.979l-0.013,0.249c-0.03,0.544-0.5,1.016-1.044,1.048
						l-0.258,0.015C100.145,107.542,99.514,107.572,99.286,107.577z M82.473,87.057c-0.541-0.076-0.92,0.303-0.844,0.842
						c0,0,0.984,6.979,4.227,10.229c3.24,3.254,10.158,4.24,10.158,4.24c0.539,0.077,0.918-0.302,0.842-0.843
						c0,0-0.984-6.977-4.227-10.229C89.389,88.044,82.473,87.057,82.473,87.057z"/>
				</g>
				<g>
					<path d="M101.333,107.548c-0.545,0.021-1.176,0.034-1.401,0.029c-0.227-0.005-0.857-0.035-1.402-0.067l-0.247-0.014
						c-0.544-0.032-1.017-0.504-1.048-1.048l-0.016-0.249c-0.031-0.545-0.08-1.436-0.105-1.979c0,0-0.48-10.017,5.931-16.451
						c5.479-5.502,14.063-5.931,16.563-5.931c0.525,0,0.525,0,0.525,0c0.163,0.011,0.741,0.044,1.285,0.075l0.249,0.016
						c0.544,0.031,1.017,0.504,1.047,1.047l0.017,0.25c0.031,0.545,0.078,1.436,0.104,1.979c0,0,0.479,10.015-5.93,16.45
						C111.423,107.158,101.333,107.548,101.333,107.548z M117.585,87.898c0.076-0.541-0.303-0.918-0.843-0.842
						c0,0-6.916,0.986-10.156,4.239c-3.262,3.272-4.232,10.229-4.232,10.229c-0.076,0.541,0.305,0.92,0.845,0.843
						c0,0,6.921-0.984,10.163-4.241C116.602,94.876,117.585,87.898,117.585,87.898z"/>
				</g>
			</g>
		</g>
		<rect x="97.107" y="104.665" width="5" height="19.735"/>
	</g>
	<path d="M64.625,97.531c-14.774,0-26.858-11.387-27.403-25.582l-0.019-0.021l-0.006-0.988V49.474h27.392v5H42.196l0.006,16.474
		c0,11.901,10.059,21.584,22.422,21.584c1.181,0,2.367-0.089,3.525-0.267l0.752,4.943C67.496,97.423,66.056,97.531,64.625,97.531z"
		/>
	<path d="M91.809,74.471l-4.953-0.678c0.127-0.935,0.191-1.892,0.191-2.846l0.008-16.474H64.662v-5h27.393l-0.029,22.53
		C91.992,72.832,91.919,73.658,91.809,74.471z"/>
</g>
</svg>
