<?xml version="1.0" encoding="utf-8"?>
<!-- Generator: Adobe Illustrator 16.0.0, SVG Export Plug-In . SVG Version: 6.00 Build 0)  -->
<!DOCTYPE svg PUBLIC "-//W3C//DTD SVG 1.1//EN" "http://www.w3.org/Graphics/SVG/1.1/DTD/svg11.dtd">
<svg version="1.1" id="Layer_1" xmlns="http://www.w3.org/2000/svg" xmlns:xlink="http://www.w3.org/1999/xlink" x="0px" y="0px"
	 width="156px" height="156px" viewBox="0 0 156 156" enable-background="new 0 0 156 156" xml:space="preserve">
<path d="M72.034,74.124c-3.627-2.922-7.733-4.402-12.247-4.402c-4.882,0-9.433,0.924-15.774,5.435l-0.001-0.003
	c-6.156,4.374-10.099,4.74-13.609,4.74c-4.668,0-8.677-1.899-12.241-5.79L15.06,59.351l-3.67,0.771l9.832,46.772
	c0.266,1.269,1.443,2.225,2.739,2.225h43.007c1.539,0,1.832-1.392,2.007-2.223l9.835-46.774l-3.669-0.772L72.034,74.124z
	 M65.463,105.368H24.733l-5.291-25.167c3.304,2.285,6.97,3.442,10.959,3.442c4.882,0,9.434-0.924,15.78-5.433l0.002,0.003
	c6.151-4.375,10.093-4.742,13.603-4.742c4.29,0,8.015,1.595,11.358,4.872L65.463,105.368z M144.561,91.492l-0.009-15.098
	c0-2.192-1.121-4.247-2.948-5.45c-0.077-0.067-0.162-0.128-0.252-0.183l-16.069-9.676l-12.569-8.279
	c-0.8-0.563-1.333-1.406-1.503-2.375c-0.347-1.998,0.991-3.904,2.986-4.251c0.962-0.168,1.932,0.047,2.733,0.61
	c0.802,0.564,1.337,1.408,1.505,2.376l3.694-0.642c-0.339-1.956-1.42-3.662-3.043-4.802c-1.621-1.139-3.588-1.579-5.536-1.236
	c-4.028,0.701-6.735,4.553-6.034,8.588c0.342,1.956,1.421,3.661,3.088,4.831l0.612,0.403l-7.248,4.756l-16.074,9.68
	c-2.018,1.166-3.271,3.33-3.271,5.647l-0.009,15.401c-0.003,0.043-0.004,0.086-0.004,0.13c0,1.036,0.839,1.875,1.875,1.875h9.053
	v17.952c0,1.035,0.839,1.875,1.875,1.875h34.313c1.032,0,1.87-0.835,1.875-1.867l0.077-17.96h9.058c1.035,0,1.875-0.839,1.875-1.875
	C144.61,91.775,144.593,91.63,144.561,91.492z M122.782,63.93h-0.059c0,3.454-3.66,6.265-8.159,6.265
	c-4.488,0-8.14-2.802-8.151-6.25l8.214-5.388L122.782,63.93z M133.694,90.049l0.03-7.124l-3.75-0.017l-0.116,26.968h-30.57V82.917
	h-3.75v7.132h-7.173l0.008-13.654c0-0.999,0.522-1.897,1.427-2.42l13.141-7.913c1.165,4.501,5.932,7.884,11.624,7.884
	c5.714,0,10.497-3.403,11.644-7.923l12.938,7.79c0.08,0.066,0.166,0.126,0.26,0.18c0.874,0.505,1.396,1.403,1.396,2.403
	l0.008,13.653H133.694z"/>
</svg>
