<?xml version="1.0" encoding="utf-8"?>
<!-- Generator: Adobe Illustrator 16.0.0, SVG Export Plug-In . SVG Version: 6.00 Build 0)  -->
<!DOCTYPE svg PUBLIC "-//W3C//DTD SVG 1.1//EN" "http://www.w3.org/Graphics/SVG/1.1/DTD/svg11.dtd">
<svg version="1.1" id="Icon" xmlns="http://www.w3.org/2000/svg" xmlns:xlink="http://www.w3.org/1999/xlink" x="0px" y="0px"
	 width="348px" height="348px" viewBox="0 0 348 348" enable-background="new 0 0 348 348" xml:space="preserve">
<g>
	<g>
		<g>
			<path d="M174,295.2c-66.83,0-121.2-54.37-121.2-121.2S107.17,52.8,174,52.8S295.2,107.17,295.2,174S240.83,295.2,174,295.2z
				 M174,65.8c-59.662,0-108.2,48.539-108.2,108.2c0,59.662,48.539,108.2,108.2,108.2c59.662,0,108.2-48.538,108.2-108.2
				C282.2,114.338,233.662,65.8,174,65.8z"/>
		</g>
	</g>
	<g>
		<path d="M162,227.4c0-6.601,5.4-12,12-12c6.6,0,12,5.399,12,12c0,6.6-5.4,12-12,12C167.4,239.4,162,234,162,227.4z"/>
		<g>
			<rect x="167.5" y="108.6" width="13" height="82.7"/>
		</g>
	</g>
</g>
</svg>
