<?xml version="1.0" encoding="utf-8"?>
<!-- Generator: Adobe Illustrator 16.0.3, SVG Export Plug-In . SVG Version: 6.00 Build 0)  -->
<!DOCTYPE svg PUBLIC "-//W3C//DTD SVG 1.1//EN" "http://www.w3.org/Graphics/SVG/1.1/DTD/svg11.dtd">
<svg version="1.1" id="Layer_1" xmlns="http://www.w3.org/2000/svg" xmlns:xlink="http://www.w3.org/1999/xlink" x="0px" y="0px"
	 width="458px" height="458px" viewBox="0 0 458 458" enable-background="new 0 0 458 458" xml:space="preserve">
<g>
	<g>
		<path d="M106.483,212.348c0.029-0.018,0.056-0.042,0.084-0.06c0.018-0.012,0.038-0.012,0.056-0.024l53.312-32.286
			c4.521,18.314,23.902,32.545,46.933,32.545c23.124,0,42.356-14.318,46.797-32.727l52.916,32.051
			c0.223,0.164,0.434,0.345,0.678,0.487c3.563,2.067,5.777,5.903,5.777,10.013c0,4.038,3.35,7.184,7.393,7.184
			c4.045,0,7.523-3.146,7.523-7.184c0-8.715-4.695-16.836-11.881-21.677c-0.361-0.341-0.758-0.646-1.199-0.911l-64.891-39.299
			l-50.821-33.664c-3.286-2.336-5.487-5.822-6.19-9.811c-1.431-8.29,4.07-15.896,12.272-17.331
			c3.923-0.693,7.879,0.193,11.148,2.483c3.329,2.332,5.552,5.535,6.25,9.569c0.69,3.983,4.491,6.447,8.463,5.716
			c3.99-0.685,6.662-4.224,5.973-8.202c-1.367-7.9-5.719-14.778-12.264-19.362c-6.481-4.546-14.314-6.282-22.114-4.92
			c-16.128,2.828-27.097,18.32-24.285,34.556c1.381,7.844,5.825,14.682,12.295,19.256l0.066,0.034
			c0.042,0.029,0.076,0.067,0.118,0.096l3.998,2.647l-30.846,18.849l-0.018,0.013l-65.008,39.37
			c-0.038,0.024-0.072,0.055-0.109,0.079c-7.92,4.69-12.902,13.438-12.906,22.66l0.028,62.572c-0.004,0.113-0.033,0.223-0.033,0.336
			c0,4.038,3.282,7.316,7.326,7.316h0.03l-0.352-0.225h37v73c0,4.038,3.955,8,8,8h50c4.045,0,7-3.962,7-8c0-4.037-2.955-7-7-7h-43
			v-110c0-4.038-3.491-6.979-7.536-6.979s-7.464,2.94-7.464,6.979v29h-29v-55C101.005,218.318,102.877,214.428,106.483,212.348z
			 M208.005,150.498l32.001,20.912c-0.002,0.027-0.002,0.038-0.002,0.043c0-0.002,0,0.001,0,0.045
			c0,14.186-14.721,26.023-33.032,26.023c-18.295,0-33.968-11.838-33.968-26.023L208.005,150.498z M371.996,285.677
			c-0.018-20.164-16.795-37.179-36.992-37.179h-66c-4.045,0-6.945,3.336-6.945,7.374s2.9,7.626,6.945,7.626h66
			c12.129,0,22,9.892,22,22v7h-66c-40.408,0-72.985,33.32-72.985,73.683v0.018c0,4.038,3.283,7.314,7.327,7.314h139.326
			c4.045,0,7.328-3.276,7.328-7.314v-80.505L371.996,285.677z M357.004,358.498h-124c3.615-28.856,28.449-50.886,58.301-50.886
			l65.699-0.114V358.498z"/>
	</g>
</g>
</svg>
