<?xml version="1.0" encoding="utf-8"?>
<!-- Generator: Adobe Illustrator 16.0.0, SVG Export Plug-In . SVG Version: 6.00 Build 0)  -->
<!DOCTYPE svg PUBLIC "-//W3C//DTD SVG 1.1//EN" "http://www.w3.org/Graphics/SVG/1.1/DTD/svg11.dtd">
<svg version="1.1" id="Layer_1" xmlns="http://www.w3.org/2000/svg" xmlns:xlink="http://www.w3.org/1999/xlink" x="0px" y="0px"
	 width="160px" height="160px" viewBox="0 0 160 160" enable-background="new 0 0 160 160" xml:space="preserve">
<g>
	<path d="M75.113,123.5c-12.303,0-22.313-10.063-22.313-22.428c0-1.381,1.119-2.5,2.5-2.5c1.381,0,2.5,1.119,2.5,2.5
		c0,9.609,7.767,17.428,17.313,17.428c1.381,0,2.5,1.119,2.5,2.5S76.494,123.5,75.113,123.5z"/>
	<path d="M75.113,123.5c-1.381,0-2.5-1.119-2.5-2.5c0-9.609-7.767-17.428-17.313-17.428c-1.381,0-2.5-1.119-2.5-2.5
		s1.119-2.5,2.5-2.5c12.303,0,22.313,10.062,22.313,22.428C77.613,122.381,76.494,123.5,75.113,123.5z"/>
	<path d="M84.938,123.438c-1.381,0-2.5-1.119-2.5-2.5c0-12.365,10.011-22.428,22.313-22.428c1.381,0,2.5,1.119,2.5,2.5
		s-1.119,2.5-2.5,2.5c-9.547,0-17.313,7.818-17.313,17.428C87.438,122.318,86.318,123.438,84.938,123.438z"/>
	<path d="M84.938,123.438c-1.381,0-2.5-1.119-2.5-2.5s1.119-2.5,2.5-2.5c9.547,0,17.313-7.817,17.313-17.428
		c0-1.381,1.119-2.5,2.5-2.5s2.5,1.119,2.5,2.5C107.251,113.376,97.241,123.438,84.938,123.438z"/>
	<path d="M84.955,123.5h-9.876c-1.381,0-2.5-1.119-2.5-2.5s1.119-2.5,2.5-2.5h9.876c1.381,0,2.5,1.119,2.5,2.5
		S86.336,123.5,84.955,123.5z"/>
	<rect x="52.823" y="65.409" width="5" height="35.663"/>
	<rect x="102.211" y="65.409" width="5" height="35.663"/>
	<path d="M80.009,53.958c-8.207,0-14.883-6.71-14.883-14.958c0-1.381,1.119-2.5,2.5-2.5s2.5,1.119,2.5,2.5
		c0,5.491,4.434,9.958,9.883,9.958c5.449,0,9.882-4.467,9.882-9.958c0-1.381,1.119-2.5,2.5-2.5s2.5,1.119,2.5,2.5
		C94.891,47.248,88.215,53.958,80.009,53.958z"/>
	<g>
		<path d="M122,81.246c-1.381,0-2.5-1.119-2.5-2.499l-0.006-19.87c0-1.381,1.117-2.5,2.499-2.501c0.001,0,0.001,0,0.001,0
			c1.381,0,2.5,1.119,2.5,2.499l0.006,19.87C124.5,80.126,123.382,81.246,122,81.246L122,81.246z"/>
		<path d="M122,82.5h-17.289c-1.381,0-2.5-1.119-2.5-2.5s1.119-2.5,2.5-2.5H122c1.381,0,2.5,1.119,2.5,2.5S123.381,82.5,122,82.5z"
			/>
		<path d="M121.982,61.365c-1.381,0-2.5-1.119-2.5-2.5c0-1.762-0.938-3.402-2.449-4.282c-1.194-0.694-1.6-2.225-0.904-3.418
			c0.696-1.194,2.229-1.598,3.418-0.903c3.045,1.771,4.938,5.068,4.938,8.604C124.482,60.246,123.363,61.365,121.982,61.365z"/>
		<path d="M99.771,41.5h-7.396c-1.381,0-2.5-1.119-2.5-2.5s1.119-2.5,2.5-2.5h7.396c1.381,0,2.5,1.119,2.5,2.5
			S101.15,41.5,99.771,41.5z"/>
		<path d="M118.288,54.922c-0.509,0-1.021-0.154-1.465-0.476L98.303,41.024c-1.117-0.811-1.367-2.374-0.558-3.492
			c0.812-1.117,2.372-1.368,3.491-0.557l18.52,13.422c1.118,0.811,1.368,2.374,0.559,3.492
			C119.825,54.563,119.063,54.922,118.288,54.922z"/>
	</g>
	<path d="M67.638,41.5h-7.374c-1.381,0-2.5-1.119-2.5-2.5s1.119-2.5,2.5-2.5h7.374c1.381,0,2.5,1.119,2.5,2.5
		S69.019,41.5,67.638,41.5z"/>
	<g>
		<path d="M38,82.5L38,82.5c-1.381-0.001-2.5-1.121-2.5-2.501l0.011-21.124c0.001-1.38,1.12-2.499,2.5-2.499h0.001
			c1.38,0,2.499,1.121,2.499,2.501L40.5,80.001C40.5,81.382,39.38,82.5,38,82.5z"/>
		<path d="M55.289,82.5H38c-1.381,0-2.5-1.119-2.5-2.5s1.119-2.5,2.5-2.5h17.289c1.381,0,2.5,1.119,2.5,2.5S56.67,82.5,55.289,82.5z
			"/>
		<path d="M38.022,61.365c-1.381,0-2.5-1.119-2.5-2.5c0-3.535,1.891-6.832,4.936-8.604c1.194-0.695,2.723-0.29,3.418,0.903
			c0.694,1.193,0.29,2.724-0.903,3.418c-1.511,0.88-2.45,2.521-2.45,4.282C40.522,60.246,39.403,61.365,38.022,61.365z"/>
		<path d="M67.626,41.5H60.23c-1.381,0-2.5-1.119-2.5-2.5s1.119-2.5,2.5-2.5h7.396c1.381,0,2.5,1.119,2.5,2.5
			S69.007,41.5,67.626,41.5z"/>
		<path d="M41.717,54.922c-0.774,0-1.537-0.358-2.026-1.033c-0.811-1.118-0.562-2.681,0.557-3.491l18.514-13.422
			c1.118-0.809,2.682-0.561,3.491,0.557c0.811,1.118,0.562,2.681-0.557,3.491L43.183,54.446
			C42.739,54.767,42.226,54.922,41.717,54.922z"/>
	</g>
</g>
</svg>
