<?xml version="1.0" encoding="utf-8"?>
<!-- Generator: Adobe Illustrator 16.0.0, SVG Export Plug-In . SVG Version: 6.00 Build 0)  -->
<!DOCTYPE svg PUBLIC "-//W3C//DTD SVG 1.1//EN" "http://www.w3.org/Graphics/SVG/1.1/DTD/svg11.dtd">
<svg version="1.1" id="Layer_1" xmlns="http://www.w3.org/2000/svg" xmlns:xlink="http://www.w3.org/1999/xlink" x="0px" y="0px"
	 width="160px" height="160px" viewBox="0 0 160 160" enable-background="new 0 0 160 160" xml:space="preserve">
<path d="M117.689,109.714c-0.002-0.401-0.105-0.805-0.313-1.18l-0.485-0.878c-0.093-0.174-0.187-0.346-0.289-0.516
	c-0.057-0.098-0.121-0.189-0.189-0.276L93.666,67.54l18.477,3.879l1.025-4.894L89.34,61.522c-0.413-0.111-0.855-0.115-1.293,0.001
	c-1.092,0.293-1.854,1.286-1.854,2.417c0,0.494,0.145,0.959,0.396,1.352l25.996,44.94c0.473,1.053,0.576,2.226,0.287,3.363
	c-0.339,1.332-1.175,2.454-2.361,3.158c-0.869,0.516-1.854,0.762-2.854,0.723c-0.137-0.008-0.271-0.002-0.403,0.016H51.75
	c-0.117-0.014-0.237-0.016-0.356-0.01c-0.995,0.035-1.983-0.205-2.844-0.715c-2.439-1.457-3.243-4.623-1.792-7.058
	c0.054-0.088,0.101-0.181,0.142-0.274l37.395-64.752c0.482-0.748,1.294-1.192,2.188-1.192c0.506,0,1.035,0.222,1.154,0.285
	l24.293,14.017l2.498-4.331L90.123,39.438c-0.277-0.158-1.759-0.947-3.643-0.947c-2.685,0-5.119,1.374-6.509,3.675
	c-0.028,0.047-0.056,0.094-0.08,0.142l-37.525,64.979c-0.054,0.092-0.1,0.186-0.141,0.283c-2.53,4.738-0.905,10.703,3.766,13.494
	c1.617,0.959,3.446,1.459,5.313,1.422c0.053,0.003,0.106,0.005,0.16,0.005h56.093c0.075,0,0.151-0.005,0.223-0.009
	c1.852,0.062,3.68-0.473,5.285-1.43c2.33-1.386,3.982-3.597,4.65-6.226C118.148,113.12,118.133,111.369,117.689,109.714z"/>
</svg>
