<?xml version="1.0" encoding="utf-8"?>
<!-- Generator: Adobe Illustrator 16.0.0, SVG Export Plug-In . SVG Version: 6.00 Build 0)  -->
<!DOCTYPE svg PUBLIC "-//W3C//DTD SVG 1.1//EN" "http://www.w3.org/Graphics/SVG/1.1/DTD/svg11.dtd">
<svg version="1.1" id="Layer_1" xmlns="http://www.w3.org/2000/svg" xmlns:xlink="http://www.w3.org/1999/xlink" x="0px" y="0px"
	 width="160px" height="160px" viewBox="0 0 160 160" enable-background="new 0 0 160 160" xml:space="preserve">
<g>
	<path d="M107.336,124.529c-0.576,0-1.143-0.168-1.686-0.502L80,108.227l-25.649,15.801c-1.354,0.832-2.984,0.568-3.856-0.547
		c-0.325-0.414-0.82-1.309-0.493-2.629L57.2,91.779l-23.04-19.33c-1.185-0.994-1.303-2.284-1.02-3.16
		c0.283-0.876,1.136-1.852,2.678-1.963l30.099-2.188L77.308,37.4c0.585-1.424,1.774-1.932,2.692-1.932s2.107,0.507,2.693,1.932
		l11.391,27.736l30.1,2.188c1.541,0.111,2.394,1.087,2.678,1.963c0.283,0.876,0.164,2.167-1.02,3.16l-23.041,19.33L110,120.852
		c0.326,1.32-0.17,2.215-0.494,2.629C108.984,124.146,108.193,124.529,107.336,124.529z M80,103.1c0.79,0,1.537,0.202,2.162,0.586
		l21.754,13.4l-6.102-24.648c-0.363-1.461,0.188-3.16,1.346-4.129l19.512-16.371l-25.496-1.854
		c-1.494-0.108-2.938-1.153-3.508-2.541L80,44.006l-9.666,23.537c-0.571,1.389-2.014,2.433-3.51,2.541L41.33,71.938l19.512,16.371
		c1.155,0.969,1.708,2.668,1.346,4.131l-6.102,24.646l21.753-13.4C78.463,103.302,79.21,103.1,80,103.1z"/>
</g>
</svg>
