<?xml version="1.0" encoding="utf-8"?>
<!-- Generator: Adobe Illustrator 16.0.0, SVG Export Plug-In . SVG Version: 6.00 Build 0)  -->
<!DOCTYPE svg PUBLIC "-//W3C//DTD SVG 1.1//EN" "http://www.w3.org/Graphics/SVG/1.1/DTD/svg11.dtd">
<svg version="1.1" id="Layer_1" xmlns="http://www.w3.org/2000/svg" xmlns:xlink="http://www.w3.org/1999/xlink" x="0px" y="0px"
	 width="160px" height="160px" viewBox="0 0 160 160" enable-background="new 0 0 160 160" xml:space="preserve">
<g>
	<g>
		<g>
			<g>
				<g>
					<g>
						<path d="M81.666,112.816H51.855c-1.724,0-3.294-1.271-3.652-2.959L35.139,48.22l4.892-1.036l12.851,60.632h28.784V112.816z"/>
					</g>
				</g>
			</g>
			<g>
				<g>
					<rect x="46.48" y="85.455" width="10.032" height="5"/>
				</g>
			</g>
			<g>
				<g>
					<rect x="66.671" y="85.455" width="8.789" height="5"/>
				</g>
			</g>
			<g>
				<g>
					<rect x="86.605" y="85.455" width="8.787" height="5"/>
				</g>
			</g>
			<g>
				<g>
					<rect x="58.747" y="96.633" width="6.697" height="5"/>
				</g>
			</g>
			<g>
				<g>
					<g>
						<path d="M60.413,79.242c-7.824,0-14.724-3.314-20.504-9.85l3.745-3.313c4.857,5.492,10.34,8.162,16.759,8.162
							c4.666,0,9.907-0.482,18.087-6.248l2.879,4.088C72.948,78.023,66.899,79.242,60.413,79.242z"/>
					</g>
				</g>
				<g>
					<g>
						<path d="M115.457,73.164c-4.674-4.932-9.906-7.33-15.996-7.33c-4.664,0-9.9,0.482-18.08,6.252L78.499,68
							c8.431-5.947,14.479-7.166,20.962-7.166c7.432,0,14.035,2.99,19.625,8.892L115.457,73.164z"/>
					</g>
				</g>
			</g>
			<g>
				<g>
					<rect x="57.75" y="96.633" width="8.921" height="5"/>
				</g>
			</g>
			<g>
				<g>
					<rect x="75.546" y="96.633" width="8.788" height="5"/>
				</g>
			</g>
		</g>
	</g>
	<g>
		<g>
			<rect x="106.539" y="85.455" width="8.789" height="5"/>
		</g>
	</g>
	<g>
		<g>
			<path d="M78.334,112.816h29.813c1.724,0,3.293-1.271,3.652-2.959l13.063-61.639l-4.891-1.036l-12.852,60.633H78.334V112.816z"/>
		</g>
	</g>
	<g>
		<g>
			<rect x="93.254" y="96.633" width="8.789" height="5"/>
		</g>
	</g>
</g>
</svg>
