<?xml version="1.0" encoding="utf-8"?>
<!-- Generator: Adobe Illustrator 16.0.0, SVG Export Plug-In . SVG Version: 6.00 Build 0)  -->
<!DOCTYPE svg PUBLIC "-//W3C//DTD SVG 1.1//EN" "http://www.w3.org/Graphics/SVG/1.1/DTD/svg11.dtd">
<svg version="1.1" id="Layer_1" xmlns="http://www.w3.org/2000/svg" xmlns:xlink="http://www.w3.org/1999/xlink" x="0px" y="0px"
	 width="156px" height="156px" viewBox="0 0 156 156" enable-background="new 0 0 156 156" xml:space="preserve">
<g>
	<path d="M138.949,88.691c-0.006-0.088-0.012-0.176-0.026-0.264c-0.014-0.08-0.034-0.156-0.056-0.234
		c-0.021-0.077-0.043-0.154-0.072-0.23s-0.064-0.148-0.102-0.221c-0.036-0.073-0.071-0.145-0.114-0.213
		c-0.044-0.069-0.093-0.133-0.144-0.197c-0.049-0.063-0.097-0.126-0.151-0.186c-0.062-0.065-0.13-0.125-0.199-0.185
		c-0.039-0.032-0.071-0.073-0.114-0.104c-0.017-0.014-0.035-0.021-0.052-0.031c-0.078-0.057-0.162-0.104-0.246-0.149
		c-0.062-0.032-0.118-0.069-0.182-0.099c-0.08-0.036-0.164-0.063-0.248-0.089c-0.073-0.024-0.146-0.052-0.22-0.068
		c-0.076-0.019-0.155-0.024-0.234-0.035c-0.086-0.011-0.171-0.022-0.256-0.024c-0.023-0.002-0.045-0.008-0.067-0.008h-11.493
		c-1.381,0-2.5,1.119-2.5,2.5s1.119,2.5,2.5,2.5h6.127c-5.328,5.612-9.541,6.492-13.033,6.492c-4.213,0-7.687-0.67-14.971-4.332
		c-0.015-0.009-0.031-0.012-0.046-0.019c-7.868-4.028-12.409-4.841-17.172-4.841c-6.856,0-12.869,2.568-17.873,7.636
		c-0.97,0.981-0.96,2.565,0.022,3.536c0.487,0.48,1.122,0.721,1.757,0.721c0.645,0,1.29-0.248,1.779-0.742
		c4.086-4.139,8.768-6.15,14.315-6.15c4.031,0,7.938,0.724,14.953,4.322c0.021,0.012,0.041,0.016,0.062,0.024
		c8.105,4.071,12.293,4.845,17.174,4.845c5.843,0,10.91-2.287,15.899-7.267v4.767c0,1.381,1.119,2.5,2.5,2.5
		c1.382,0,2.5-1.119,2.5-2.5V88.854C138.966,88.799,138.953,88.747,138.949,88.691z"/>
	<path d="M138.904,111.413c-0.014-0.079-0.034-0.154-0.057-0.231c-0.021-0.078-0.043-0.156-0.072-0.232
		c-0.028-0.076-0.063-0.147-0.101-0.221c-0.036-0.072-0.071-0.145-0.116-0.213c-0.043-0.07-0.092-0.134-0.143-0.197
		c-0.048-0.063-0.098-0.125-0.15-0.186c-0.063-0.064-0.131-0.124-0.199-0.183c-0.039-0.034-0.072-0.075-0.115-0.107
		c-0.018-0.013-0.036-0.02-0.053-0.032c-0.075-0.054-0.156-0.099-0.238-0.144c-0.063-0.036-0.125-0.075-0.191-0.104
		c-0.074-0.032-0.154-0.058-0.232-0.084c-0.078-0.024-0.154-0.055-0.234-0.071c-0.07-0.017-0.145-0.022-0.217-0.032
		c-0.092-0.014-0.184-0.025-0.276-0.027c-0.021,0-0.04-0.007-0.061-0.007h-11.494c-1.381,0-2.5,1.119-2.5,2.5
		c0,1.382,1.119,2.5,2.5,2.5h6.13c-5.325,5.614-9.54,6.494-13.036,6.494c-4.222,0-7.696-0.67-14.97-4.332
		c-0.012-0.006-0.025-0.009-0.037-0.015c-7.878-4.034-12.418-4.848-17.182-4.848c-6.855,0-12.868,2.569-17.872,7.637
		c-0.97,0.981-0.96,2.564,0.022,3.535c0.487,0.48,1.122,0.722,1.756,0.722c0.645,0,1.29-0.248,1.779-0.743
		c4.085-4.139,8.768-6.148,14.314-6.148c4.027,0,7.936,0.724,14.953,4.323c0.021,0.011,0.041,0.015,0.062,0.024
		c8.094,4.07,12.283,4.845,17.173,4.845c5.846,0,10.914-2.288,15.9-7.267v4.767c0,1.381,1.119,2.5,2.5,2.5s2.5-1.119,2.5-2.5V111.84
		c0-0.054-0.014-0.104-0.016-0.156C138.926,111.592,138.92,111.503,138.904,111.413z"/>
	<path d="M54.909,95.484H41.31c-0.013,0-0.025,0.004-0.039,0.004c-10.61-0.021-19.236-8.657-19.236-19.272
		c0-10.58,8.569-19.188,19.13-19.268h43.688h0.002c0.002,0,0.002,0,0.004,0c4.621,0,8.381,3.76,8.381,8.381s-3.76,8.381-8.381,8.381
		c-0.023,0-0.045,0.006-0.067,0.007H41.31c-1.381,0-2.5,1.119-2.5,2.5c0,1.381,1.119,2.5,2.5,2.5h43.543
		c0.045,0,0.086-0.011,0.131-0.013c7.318-0.068,13.256-6.039,13.256-13.375c0-7.378-6.004-13.381-13.381-13.381
		c-0.002,0-0.002,0-0.004,0h-0.002H41.383c-0.025-0.001-0.048-0.007-0.073-0.007c-0.097,0-0.192,0.006-0.289,0.007h-10.6
		c-4.621,0-8.381-3.76-8.381-8.381s3.76-8.381,8.381-8.381c0.065,0,0.125-0.014,0.189-0.019h54.244c0.002,0,0.004-0.001,0.008-0.001
		c16.627,0.004,30.154,13.534,30.154,30.163c0,5.304-1.396,10.522-4.039,15.089c-0.691,1.195-0.283,2.725,0.912,3.416
		c0.395,0.229,0.823,0.336,1.25,0.336c0.861,0,1.701-0.447,2.166-1.248c3.082-5.327,4.711-11.411,4.711-17.593
		c0-19.389-15.773-35.163-35.162-35.163c-0.004,0-0.008,0.001-0.011,0.001H30.422c-0.13,0-0.255,0.019-0.38,0.038
		c-7.202,0.204-13.001,6.112-13.001,13.362c0,6.245,4.305,11.488,10.099,12.958c-6.114,4.412-10.105,11.592-10.105,19.691
		c0,13.386,10.89,24.274,24.275,24.274c0.02,0,0.039-0.006,0.058-0.006h13.541c1.381,0,2.5-1.119,2.5-2.5
		S56.29,95.484,54.909,95.484z"/>
</g>
</svg>
