<?xml version="1.0" encoding="utf-8"?>
<!-- Generator: Adobe Illustrator 16.0.0, SVG Export Plug-In . SVG Version: 6.00 Build 0)  -->
<!DOCTYPE svg PUBLIC "-//W3C//DTD SVG 1.1//EN" "http://www.w3.org/Graphics/SVG/1.1/DTD/svg11.dtd">
<svg version="1.1" id="Layer_1" xmlns="http://www.w3.org/2000/svg" xmlns:xlink="http://www.w3.org/1999/xlink" x="0px" y="0px"
	 width="160px" height="160px" viewBox="0 0 160 160" enable-background="new 0 0 160 160" xml:space="preserve">
<g>
	<g>
		<path d="M71.224,82.455c0,2.047-1.663,3.707-3.71,3.707c-2.047,0-3.704-1.66-3.704-3.707c0-2.045,1.657-3.698,3.704-3.698
			C69.561,78.757,71.224,80.41,71.224,82.455z"/>
		<path d="M95.924,82.455c0,2.047-1.656,3.707-3.703,3.707s-3.709-1.66-3.709-3.707c0-2.045,1.662-3.698,3.709-3.698
			S95.924,80.41,95.924,82.455z"/>
		<path d="M100.502,72.595c-3.661,0-7.128-1.202-9.969-3.422c-3.119,2.198-6.833,3.388-10.667,3.388
			c-3.832,0-7.545-1.193-10.666-3.395c-2.849,2.225-6.317,3.429-9.972,3.429c-8.979,0-16.284-7.3-16.284-16.273
			c0-8.969,7.305-16.266,16.284-16.266c2.393,0,4.742,0.53,6.9,1.547c3.5-3.856,8.489-6.103,13.737-6.103
			c5.254,0,10.244,2.247,13.742,6.102c2.156-1.016,4.502-1.546,6.895-1.546c8.979,0,16.281,7.297,16.281,16.266
			C116.783,65.294,109.479,72.595,100.502,72.595z M90.627,63.402c0.652,0,1.307,0.255,1.795,0.76
			c2.146,2.213,5.016,3.433,8.08,3.433c6.221,0,11.281-5.057,11.281-11.273c0-6.212-5.061-11.266-11.281-11.266
			c-2.178,0-4.307,0.639-6.152,1.846c-1.129,0.738-2.634,0.449-3.41-0.65C88.395,42.65,84.256,40.5,79.866,40.5
			c-4.383,0-8.522,2.151-11.07,5.753c-0.776,1.098-2.282,1.385-3.408,0.649c-1.851-1.208-3.981-1.847-6.16-1.847
			c-6.222,0-11.284,5.054-11.284,11.266c0,6.216,5.062,11.273,11.284,11.273c3.057,0,5.929-1.222,8.088-3.441
			c0.937-0.964,2.469-1.014,3.468-0.112c2.513,2.27,5.738,3.52,9.082,3.52c3.35,0,6.577-1.248,9.085-3.514
			C89.43,63.616,90.027,63.402,90.627,63.402z"/>
		<path d="M79.866,124.5c-15.038,0-27.272-12.221-27.272-27.24V70.111c0-1.381,1.119-2.5,2.5-2.5c1.381,0,2.5,1.119,2.5,2.5V97.26
			c0,12.264,9.991,22.24,22.272,22.24c12.28,0,22.271-9.977,22.271-22.24V70.077c0-1.381,1.119-2.5,2.5-2.5s2.5,1.119,2.5,2.5V97.26
			C107.137,112.279,94.902,124.5,79.866,124.5z"/>
		<path d="M46.511,103.148c-6.141,0-11.138-4.996-11.138-11.135c0-1.382,1.119-2.5,2.5-2.5s2.5,1.118,2.5,2.5
			c0,3.383,2.753,6.135,6.138,6.135c3.388,0,6.144-2.752,6.144-6.135c0-1.382,1.119-2.5,2.5-2.5c1.381,0,2.5,1.118,2.5,2.5
			C57.655,98.152,52.656,103.148,46.511,103.148z"/>
		<path d="M37.868,95.596c-1.381,0-2.5-1.119-2.5-2.5v-3.217c0-10.923,8.895-19.81,19.827-19.81c1.381,0,2.5,1.119,2.5,2.5
			c0,1.381-1.119,2.5-2.5,2.5c-8.176,0-14.827,6.644-14.827,14.81v3.217C40.368,94.477,39.249,95.596,37.868,95.596z"/>
		<path d="M113.223,103.148c-6.145,0-11.143-4.994-11.143-11.131c0-1.381,1.119-2.5,2.5-2.5s2.5,1.119,2.5,2.5
			c0,3.381,2.756,6.131,6.143,6.131c3.385,0,6.139-2.75,6.139-6.131c0-1.381,1.119-2.5,2.5-2.5c1.382,0,2.5,1.119,2.5,2.5
			C124.361,98.154,119.363,103.148,113.223,103.148z"/>
		<path d="M121.867,95.596c-1.381,0-2.5-1.119-2.5-2.5v-3.217c0-8.166-6.652-14.81-14.828-14.81c-1.381,0-2.5-1.119-2.5-2.5
			c0-1.381,1.119-2.5,2.5-2.5c10.934,0,19.828,8.887,19.828,19.81v3.217C124.367,94.477,123.248,95.596,121.867,95.596z"/>
		<path d="M79.866,109.412c-0.64,0-1.279-0.244-1.767-0.73l-6.98-6.974l3.533-3.537l5.214,5.208l5.217-5.209l3.533,3.539
			l-6.984,6.973C81.145,109.169,80.505,109.412,79.866,109.412z"/>
		<path d="M79.866,124.5c-1.381,0-2.5-1.119-2.5-2.5v-15.088c0-1.381,1.119-2.5,2.5-2.5c1.38,0,2.5,1.119,2.5,2.5V122
			C82.365,123.381,81.246,124.5,79.866,124.5z"/>
	</g>
</g>
</svg>
