<?xml version="1.0" encoding="utf-8"?>
<!-- Generator: Adobe Illustrator 16.0.0, SVG Export Plug-In . SVG Version: 6.00 Build 0)  -->
<!DOCTYPE svg PUBLIC "-//W3C//DTD SVG 1.1//EN" "http://www.w3.org/Graphics/SVG/1.1/DTD/svg11.dtd">
<svg version="1.1" id="Layer_1" xmlns="http://www.w3.org/2000/svg" xmlns:xlink="http://www.w3.org/1999/xlink" x="0px" y="0px"
	 width="180px" height="180px" viewBox="0 0 180 180" enable-background="new 0 0 180 180" xml:space="preserve">
<g>
	<path d="M89.996,49.925c-22.097,0-40.075,17.978-40.075,40.076c0,22.099,17.978,40.075,40.075,40.075
		c22.1,0,40.076-17.979,40.076-40.075C130.072,67.904,112.096,49.925,89.996,49.925z M89.996,122.762
		c-18.063,0-32.759-14.695-32.759-32.761c0-18.064,14.696-32.76,32.759-32.76c18.064,0,32.762,14.696,32.762,32.76
		C122.758,108.064,108.061,122.762,89.996,122.762z"/>
	<path d="M89.996,35.366c2.02,0,3.656-1.638,3.656-3.658V20.779c0-2.02-1.637-3.658-3.656-3.658c-2.02,0-3.658,1.638-3.658,3.658
		v10.929C86.338,33.728,87.976,35.366,89.996,35.366z"/>
	<path d="M89.996,144.628c-2.02,0-3.658,1.638-3.658,3.657v10.938c0,2.021,1.638,3.657,3.658,3.657c2.02,0,3.656-1.638,3.656-3.657
		v-10.938C93.652,146.266,92.016,144.628,89.996,144.628z"/>
	<path d="M46.196,51.365c0.714,0.714,1.65,1.072,2.586,1.072c0.936,0,1.872-0.357,2.586-1.071c1.429-1.428,1.429-3.744,0-5.172
		l-7.73-7.732c-1.429-1.429-3.745-1.428-5.172,0c-1.429,1.428-1.429,3.744,0,5.172L46.196,51.365z"/>
	<path d="M133.805,128.628c-1.429-1.428-3.744-1.427-5.173,0.001c-1.428,1.43-1.428,3.744,0.001,5.173l7.732,7.73
		c0.714,0.714,1.65,1.069,2.586,1.069c0.938,0,1.871-0.356,2.587-1.07c1.428-1.43,1.428-3.744-0.001-5.174L133.805,128.628z"/>
	<path d="M31.712,86.343H20.775c-2.02,0-3.658,1.638-3.658,3.658c0,2.021,1.638,3.657,3.658,3.657h10.937
		c2.02,0,3.658-1.639,3.658-3.657C35.37,87.981,33.732,86.343,31.712,86.343z"/>
	<path d="M159.227,86.343h-10.938c-2.02,0-3.657,1.638-3.657,3.658c0,2.021,1.638,3.657,3.657,3.657h10.938
		c2.021,0,3.657-1.639,3.657-3.657C162.884,87.981,161.246,86.343,159.227,86.343z"/>
	<path d="M46.206,128.628l-7.732,7.729c-1.429,1.43-1.429,3.744,0,5.174c0.714,0.715,1.65,1.07,2.586,1.07s1.872-0.355,2.586-1.069
		l7.732-7.73c1.429-1.429,1.429-3.743,0-5.173C49.95,127.199,47.634,127.2,46.206,128.628z"/>
	<path d="M136.371,38.462l-7.732,7.741c-1.428,1.429-1.426,3.745,0.004,5.173c0.713,0.713,1.648,1.07,2.584,1.07
		c0.938,0,1.873-0.358,2.588-1.073l7.732-7.741c1.428-1.429,1.426-3.745-0.003-5.173C140.116,37.033,137.801,37.033,136.371,38.462z
		"/>
</g>
</svg>
