<?xml version="1.0" encoding="utf-8"?>
<!-- Generator: Adobe Illustrator 16.0.0, SVG Export Plug-In . SVG Version: 6.00 Build 0)  -->
<!DOCTYPE svg PUBLIC "-//W3C//DTD SVG 1.1//EN" "http://www.w3.org/Graphics/SVG/1.1/DTD/svg11.dtd">
<svg version="1.1" id="Layer_1" xmlns="http://www.w3.org/2000/svg" xmlns:xlink="http://www.w3.org/1999/xlink" x="0px" y="0px"
	 width="160px" height="160px" viewBox="0 0 160 160" enable-background="new 0 0 160 160" xml:space="preserve">
<g>
	<g>
		<rect x="50.73" y="52.216" transform="matrix(-5.859573e-004 -1 1 -5.859573e-004 1.0468 110.4779)" width="10" height="5"/>
	</g>
	<g>
		<rect x="50.73" y="72.964" transform="matrix(-5.859573e-004 -1 1 -5.859573e-004 -19.7012 131.2381)" width="10" height="5"/>
	</g>
	<g>
		<rect x="50.729" y="94.706" transform="matrix(-5.859573e-004 -1 1 -5.859573e-004 -41.4444 152.992)" width="10" height="5"/>
	</g>
	<g>
		<rect x="88.946" y="52.216" transform="matrix(-9.766060e-004 -1 1 -9.766060e-004 39.3222 148.7155)" width="10" height="5"/>
	</g>
	<g>
		<rect x="69.7" y="52.235" transform="matrix(-7.812221e-004 -1 1 -7.812221e-004 20.0227 129.4778)" width="10" height="5"/>
	</g>
	<g>
		<rect x="69.7" y="72.983" transform="matrix(-7.812221e-004 -1 1 -7.812221e-004 -0.7253 150.2421)" width="10" height="5"/>
	</g>
	<g>
		<rect x="69.699" y="94.726" transform="matrix(-7.812221e-004 -1 1 -7.812221e-004 -22.4685 172.0002)" width="10" height="5"/>
	</g>
	<g>
		<rect x="105.814" y="37.477" width="5" height="40.494"/>
	</g>
	<g>
		<path d="M77.135,115.714H41.467c-1.381,0-2.5-1.118-2.5-2.5V36.729h5v73.985h33.167L77.135,115.714L77.135,115.714z"/>
	</g>
	<g>
		<rect x="34.302" y="34.977" width="81.169" height="5"/>
	</g>
	<g>
		<path stroke="#000000" stroke-width="5" stroke-linejoin="round" stroke-miterlimit="10" d="M93.951,79.805"/>
	</g>
	<g>
		<path stroke="#000000" stroke-width="5" stroke-linejoin="round" stroke-miterlimit="10" d="M93.941,70.465"/>
	</g>
	<g>
		<g>
			<g>
				<path d="M85.842,106.352c-1.381,0-2.5-1.119-2.5-2.5s1.119-2.5,2.5-2.5c8.893,0,16.127-7.26,16.127-16.183
					c0-1.381,1.119-2.5,2.5-2.5s2.5,1.119,2.5,2.5C106.969,96.85,97.491,106.352,85.842,106.352z"/>
			</g>
			<g>
				<path d="M123.091,106.352c-11.647,0-21.126-9.502-21.126-21.183c0-1.381,1.119-2.5,2.5-2.5s2.5,1.119,2.5,2.5
					c0,8.923,7.234,16.183,16.126,16.183c1.382,0,2.5,1.119,2.5,2.5S124.473,106.352,123.091,106.352z"/>
			</g>
			<g>
				<path d="M104.355,124.913c-0.01,0-0.021,0-0.029,0c-1.381-0.017-2.487-1.147-2.471-2.529c0.066-5.655,2.326-10.946,6.359-14.899
					c4.036-3.957,9.352-6.104,15.012-6.028c1.381,0.017,2.486,1.149,2.471,2.53s-1.162,2.464-2.53,2.47
					c-4.297-0.073-8.372,1.581-11.452,4.601c-3.083,3.021-4.809,7.063-4.859,11.389
					C106.839,123.813,105.723,124.913,104.355,124.913z"/>
			</g>
			<g>
				<path d="M104.469,125.023c-1.381,0-2.5-1.119-2.5-2.5c0-8.924-7.234-16.183-16.127-16.183c-1.381,0-2.5-1.118-2.5-2.5
					c0-1.381,1.119-2.5,2.5-2.5c11.649,0,21.127,9.502,21.127,21.183C106.969,123.904,105.85,125.023,104.469,125.023z"/>
			</g>
		</g>
	</g>
	
		<line stroke="#000000" stroke-width="5" stroke-linejoin="round" stroke-miterlimit="10" x1="93.941" y1="70.446" x2="93.95" y2="79.786"/>
</g>
</svg>
