<?xml version="1.0" encoding="utf-8"?>
<!-- Generator: Adobe Illustrator 16.0.3, SVG Export Plug-In . SVG Version: 6.00 Build 0)  -->
<!DOCTYPE svg PUBLIC "-//W3C//DTD SVG 1.1//EN" "http://www.w3.org/Graphics/SVG/1.1/DTD/svg11.dtd">
<svg version="1.1" id="Layer_1" xmlns="http://www.w3.org/2000/svg" xmlns:xlink="http://www.w3.org/1999/xlink" x="0px" y="0px"
	 width="156px" height="156px" viewBox="0 0 156 156" enable-background="new 0 0 156 156" xml:space="preserve">
<g>
	<path d="M113.549,127.479c0.048-0.65-0.153-1.318-0.62-1.845c-4.942-5.571-8.896-19.38-9.839-34.356
		c-0.881-14.205,0.937-27.275,4.742-34.112c0.541-0.973,0.354-2.144-0.368-2.917L99.854,41.54V28.422c0-1.381-1.119-2.5-2.5-2.5
		s-2.5,1.119-2.5,2.5v13.141c-3.622,5.698-9.714,9.084-16.456,9.084h-0.709c-6.78,0-12.904-3.426-16.521-9.186V28.422
		c0-1.381-1.119-2.5-2.5-2.5s-2.5,1.119-2.5,2.5v13.117l-7.617,12.717c-0.716,0.772-0.9,1.939-0.36,2.909
		c3.808,6.842,5.622,19.913,4.735,34.111c-0.933,14.974-4.883,28.781-9.829,34.357c-0.399,0.449-0.595,1.003-0.617,1.56
		c-0.02,0.127-0.039,0.253-0.039,0.385c0,1.381,1.119,2.5,2.5,2.5h66.117c1.381,0,2.5-1.119,2.5-2.5
		C113.559,127.544,113.55,127.513,113.549,127.479z M57.916,91.588c0.889-14.236-0.886-27.595-4.65-35.474l5.598-9.345
		c4.63,5.549,11.531,8.878,18.826,8.878h0.709c7.277,0,14.159-3.311,18.787-8.832l5.569,9.302
		c-3.762,7.874-5.538,21.232-4.655,35.473c0.866,13.778,3.975,26.012,8.352,33.489H49.575
		C53.953,117.598,57.058,105.362,57.916,91.588z"/>
</g>
</svg>
