<?xml version="1.0" encoding="utf-8"?>
<!-- Generator: Adobe Illustrator 16.0.0, SVG Export Plug-In . SVG Version: 6.00 Build 0)  -->
<!DOCTYPE svg PUBLIC "-//W3C//DTD SVG 1.1//EN" "http://www.w3.org/Graphics/SVG/1.1/DTD/svg11.dtd">
<svg version="1.1" id="Layer_1" xmlns="http://www.w3.org/2000/svg" xmlns:xlink="http://www.w3.org/1999/xlink" x="0px" y="0px"
	 width="160px" height="160px" viewBox="0 0 160 160" enable-background="new 0 0 160 160" xml:space="preserve">
<g>
	<g>
		<g>
			<path d="M109.221,113.18H51.879c-1.729,0-3.298-1.275-3.652-2.966l-13.11-62.365l4.894-1.028l12.897,61.359h54.307l12.902-61.359
				l4.893,1.029l-13.113,62.366C111.662,111.324,111.271,113.18,109.221,113.18z"/>
		</g>
	</g>
	<g>
		<g>
			<g>
				<g>
					<path d="M79.56,82.193c-0.251,0.005-0.903-0.008-1.447-0.028c0,0-11.388-0.422-17.5-6.332
						c-7.196-6.963-6.652-17.914-6.652-17.914c0.027-0.544,0.075-1.435,0.106-1.979l0.015-0.25c0.031-0.544,0.502-1.014,1.046-1.045
						l0.257-0.015c0.544-0.031,1.137-0.064,1.317-0.074c0,0,0,0,0.583,0c2.793,0,12.383,0.46,18.494,6.374
						c7.196,6.96,6.649,17.909,6.649,17.909c-0.025,0.544-0.074,1.435-0.104,1.979l-0.015,0.248
						c-0.031,0.545-0.502,1.016-1.047,1.045l-0.256,0.016C80.462,82.158,79.811,82.188,79.56,82.193z M60.046,59.737
						c-0.541-0.066-0.924,0.322-0.851,0.862c0,0,1.072,7.944,4.893,11.641c3.895,3.765,12.255,4.784,12.255,4.784
						c0.541,0.066,0.924-0.322,0.851-0.862c0,0-1.072-7.941-4.894-11.637C68.408,60.757,60.046,59.737,60.046,59.737z"/>
				</g>
				<g>
					<path d="M81.76,82.166c-0.545,0.021-1.195,0.033-1.446,0.027c-0.25-0.006-0.901-0.034-1.445-0.064l-0.249-0.014
						c-0.544-0.03-1.017-0.501-1.049-1.045l-0.016-0.25c-0.033-0.544-0.083-1.436-0.109-1.979c0,0-0.546-10.95,6.652-17.911
						c6.109-5.913,15.699-6.373,18.492-6.373c0.583,0,0.583,0,0.583,0c0.181,0.01,0.772,0.044,1.317,0.075l0.25,0.014
						c0.544,0.031,1.017,0.501,1.049,1.045l0.016,0.25c0.032,0.544,0.082,1.435,0.108,1.979c0,0,0.545,10.951-6.649,17.913
						C93.15,81.744,81.76,82.166,81.76,82.166z M100.688,60.599c0.072-0.541-0.312-0.929-0.853-0.863c0,0-8.366,1.018-12.262,4.788
						c-3.847,3.719-4.903,11.638-4.903,11.638c-0.072,0.541,0.313,0.929,0.854,0.863c0,0,8.365-1.018,12.263-4.786
						C99.63,68.52,100.688,60.599,100.688,60.599z"/>
				</g>
			</g>
		</g>
		<rect x="77.437" y="79.245" width="5" height="17.763"/>
	</g>
</g>
</svg>
