<?xml version="1.0" encoding="utf-8"?>
<!-- Generator: Adobe Illustrator 16.0.0, SVG Export Plug-In . SVG Version: 6.00 Build 0)  -->
<!DOCTYPE svg PUBLIC "-//W3C//DTD SVG 1.1//EN" "http://www.w3.org/Graphics/SVG/1.1/DTD/svg11.dtd">
<svg version="1.1" id="Layer_1" xmlns="http://www.w3.org/2000/svg" xmlns:xlink="http://www.w3.org/1999/xlink" x="0px" y="0px"
	 width="160px" height="160px" viewBox="0 0 160 160" enable-background="new 0 0 160 160" xml:space="preserve">
<g>
	<rect x="66.68" y="77.676" width="8.817" height="5"/>
	<rect x="75.497" y="88.924" width="3.886" height="5"/>
	<path d="M99.578,57.903c5.84,0,10.895,2.21,15.424,6.739l-1.969,9.927l4.904,0.973l7.017-35.383l-4.904-0.972l-3.915,19.742
		c-4.893-3.999-10.445-6.025-16.558-6.025c-6.506,0-12.571,1.226-21.027,7.208l-0.002-0.003c-8.208,5.802-13.466,6.287-18.148,6.287
		c-6.225,0-11.569-2.518-16.323-7.675l-4.134-19.56l-4.892,1.034l13.735,64.983h28.445v-5H52.839l-3.699-17.5h7.347v-5h-8.403
		L45.791,66.83c4.404,3.03,9.292,4.564,14.609,4.564c6.508,0,12.575-1.225,21.034-7.203l0.002,0.002
		C89.643,58.389,94.898,57.903,99.578,57.903z"/>
	<polygon points="57.729,88.924 57.729,93.924 58.729,93.924 65.448,93.924 66.679,93.924 66.679,88.924 65.448,88.924 
		58.729,88.924 	"/>
	<path d="M117.492,93.893h-1.105v-1.705c0-6.94-5.863-12.586-13.072-12.586c-7.207,0-13.069,5.647-13.069,12.586v1.705h-1.106
		c-2.062,0-3.74,1.676-3.74,3.738v19.38c0,2.062,1.678,3.739,3.74,3.739h28.353c2.062,0,3.739-1.678,3.739-3.739v-19.38
		C121.23,95.57,119.555,93.893,117.492,93.893z M95.245,92.188c0-4.184,3.62-7.586,8.069-7.586c4.451,0,8.072,3.402,8.072,7.586
		v1.705H95.245V92.188z M116.23,115.75H90.398V98.893h25.832V115.75z"/>
</g>
</svg>
