<?xml version="1.0" encoding="utf-8"?>
<!-- Generator: Adobe Illustrator 16.0.0, SVG Export Plug-In . SVG Version: 6.00 Build 0)  -->
<!DOCTYPE svg PUBLIC "-//W3C//DTD SVG 1.1//EN" "http://www.w3.org/Graphics/SVG/1.1/DTD/svg11.dtd">
<svg version="1.1" id="Layer_1" xmlns="http://www.w3.org/2000/svg" xmlns:xlink="http://www.w3.org/1999/xlink" x="0px" y="0px"
	 width="160px" height="160px" viewBox="0 0 160 160" enable-background="new 0 0 160 160" xml:space="preserve">
<g>
	<g>
		<path d="M79.993,112.591c-11.903,0-21.587-9.682-21.587-21.582c0-1.381,1.119-2.5,2.5-2.5h38.169c1.381,0,2.5,1.119,2.5,2.5
			C101.575,102.909,91.895,112.591,79.993,112.591z M63.594,93.509c1.209,7.962,8.103,14.082,16.399,14.082
			c8.294,0,15.187-6.12,16.394-14.082H63.594z"/>
	</g>
	<g>
		<path d="M111.5,125.5h-63c-1.381,0-2.5-1.119-2.5-2.5V82.434c0-0.615,0.228-1.211,0.64-1.67c4.217-4.699,6.659-8.951,6.659-16.784
			l-0.045-26.975c-0.001-0.664,0.262-1.301,0.731-1.771c0.469-0.47,1.105-0.734,1.769-0.734h12.744c1.379,0,2.498,1.117,2.5,2.497
			l0.016,12.551c0,6.147,1.932,7.83,8.985,7.83c7.058,0,8.989-1.683,8.989-7.827V37c0-1.381,1.119-2.5,2.5-2.5h12.74
			c0.662,0,1.299,0.264,1.769,0.733c0.469,0.469,0.731,1.105,0.731,1.769L106.7,63.899c0,6.265,2.241,11.94,6.659,16.865
			c0.412,0.459,0.641,1.055,0.641,1.67V123C114,124.381,112.881,125.5,111.5,125.5z M51,120.5h58V83.371
			c-4.846-5.701-7.3-12.249-7.3-19.476l0.026-24.396h-7.738V49.55c0,11.303-7.071,12.827-13.989,12.827
			c-6.916,0-13.985-1.524-13.985-12.827L66.001,39.5h-7.743l0.041,24.475c0,8.941-2.892,14.316-7.299,19.404V120.5z"/>
	</g>
</g>
</svg>
