<?xml version="1.0" encoding="utf-8"?>
<!-- Generator: Adobe Illustrator 16.0.0, SVG Export Plug-In . SVG Version: 6.00 Build 0)  -->
<!DOCTYPE svg PUBLIC "-//W3C//DTD SVG 1.1//EN" "http://www.w3.org/Graphics/SVG/1.1/DTD/svg11.dtd">
<svg version="1.1" id="Layer_1" xmlns="http://www.w3.org/2000/svg" xmlns:xlink="http://www.w3.org/1999/xlink" x="0px" y="0px"
	 width="160px" height="160px" viewBox="0 0 160 160" enable-background="new 0 0 160 160" xml:space="preserve">
<g>
	<g>
		<g>
			<path stroke="#231F20" stroke-width="3.4" stroke-linejoin="round" stroke-miterlimit="10" d="M94.691,41.096"/>
			<path stroke="#231F20" stroke-width="3.4" stroke-linejoin="round" stroke-miterlimit="10" d="M99.52,74.603"/>
			<path stroke="#231F20" stroke-width="3.4" stroke-linejoin="round" stroke-miterlimit="10" d="M102.459,45.337"/>
		</g>
		<g>
			<path stroke="#231F20" stroke-width="3.4" stroke-linejoin="round" stroke-miterlimit="10" d="M57.467,44.944"/>
			<path stroke="#231F20" stroke-width="3.4" stroke-linejoin="round" stroke-miterlimit="10" d="M60.366,74.603"/>
			<path stroke="#231F20" stroke-width="3.4" stroke-linejoin="round" stroke-miterlimit="10" d="M57.427,45.337"/>
		</g>
	</g>
	<path stroke="#231F20" stroke-width="3.4" stroke-linejoin="round" stroke-miterlimit="10" d="M79.978,73.267"/>
	<path d="M85.801,122.498c-1.273,0-2.343-0.957-2.484-2.223l-3.333-29.834l-3.365,29.746c-0.144,1.264-1.213,2.219-2.484,2.219H39
		c-0.7,0-1.367-0.293-1.841-0.809c-0.473-0.515-0.709-1.205-0.65-1.902l6.269-74.105v-5.591c0-1.381,1.119-2.5,2.5-2.5h69.42
		c1.378,0,2.497,1.116,2.5,2.494l0.014,5.594l6.28,74.108c0.059,0.697-0.176,1.385-0.648,1.9c-0.472,0.516-1.138,0.809-1.836,0.811
		l-35.199,0.092C85.805,122.498,85.803,122.498,85.801,122.498z M79.997,65.568c0.001,0,0.001,0,0.002,0
		c1.272,0.001,2.341,0.958,2.481,2.222l5.556,49.702l30.243-0.078l-6.061-71.508c-0.006-0.068-0.009-0.137-0.009-0.205l-0.008-3.202
		H47.777v3.196c0,0.07-0.003,0.141-0.009,0.211l-6.048,71.5h30.179l5.613-49.619C77.656,66.523,78.726,65.568,79.997,65.568z"/>
	<path stroke="#231F20" stroke-width="3.4" stroke-linejoin="round" stroke-miterlimit="10" d="M74.133,119.906"/>
	<path d="M52.015,110.584l-3.985-0.346l0.452-5.213l3.985,0.346L52.015,110.584z M53.071,98.398l-3.985-0.347l0.604-6.975
		l3.985,0.346L53.071,98.398z M54.28,84.449l-3.985-0.346l0.604-6.974l3.985,0.346L54.28,84.449z M55.489,70.502l-3.985-0.346
		l0.604-6.974l3.985,0.346L55.489,70.502z M56.698,56.555l-3.985-0.346l0.604-6.974l3.985,0.346L56.698,56.555z"/>
	<path d="M107.854,110.584l-0.453-5.213l3.984-0.346l0.452,5.213L107.854,110.584z M106.797,98.398l-0.604-6.976l3.983-0.346
		l0.604,6.975L106.797,98.398z M105.588,84.449l-0.604-6.973l3.983-0.346l0.604,6.974L105.588,84.449z M104.379,70.502l-0.604-6.974
		l3.983-0.346l0.604,6.974L104.379,70.502z M103.17,56.555l-0.604-6.974l3.983-0.346l0.604,6.974L103.17,56.555z"/>
</g>
</svg>
