<?xml version="1.0" encoding="utf-8"?>
<!-- Generator: Adobe Illustrator 16.0.0, SVG Export Plug-In . SVG Version: 6.00 Build 0)  -->
<!DOCTYPE svg PUBLIC "-//W3C//DTD SVG 1.1//EN" "http://www.w3.org/Graphics/SVG/1.1/DTD/svg11.dtd">
<svg version="1.1" id="Layer_1" xmlns="http://www.w3.org/2000/svg" xmlns:xlink="http://www.w3.org/1999/xlink" x="0px" y="0px"
	 width="160px" height="160px" viewBox="0 0 160 160" enable-background="new 0 0 160 160" xml:space="preserve">
<g>
	<g>
		<g>
			<path d="M58.27,105.825c1.477,1.593,2.215,3.958,2.215,7.093c0,3.152-0.742,5.531-2.229,7.134
				c-1.487,1.603-3.645,2.404-6.477,2.404h-5.936v-19.022h5.961C54.638,103.434,56.792,104.234,58.27,105.825z M55.843,117.952
				c0.914-1.134,1.373-2.81,1.373-5.034c0-4.447-1.83-6.672-5.488-6.672h-2.719v13.4h2.746
				C53.565,119.646,54.929,119.08,55.843,117.952z"/>
		</g>
		<g>
			<path d="M73.888,118.041h-7.176l-1.371,4.415h-3.324l6.568-19.022h3.457l6.568,19.022h-3.35L73.888,118.041z M73.019,115.283
				l-2.744-8.777l-2.719,8.777H73.019z"/>
		</g>
		<g>
			<path d="M81.407,103.434h3.166v19.022h-3.166V103.434z"/>
		</g>
		<g>
			<path d="M100.111,119.618v2.838H89.032v-19.022h3.166v16.186L100.111,119.618L100.111,119.618z"/>
		</g>
		<g>
			<path d="M113.936,103.434l-5.804,12.586v6.438h-3.166v-6.438l-5.725-12.586h3.403l3.982,9.145l3.932-9.145H113.936z"/>
		</g>
	</g>
	<g>
		<g>
			<g>
				<g>
					<path d="M105.469,95.51H55.38c-1.509,0-2.881-1.113-3.191-2.59L40.738,38.442l4.274-0.898l11.266,53.599h47.438l11.271-53.599
						l4.275,0.898l-11.457,54.479C107.604,93.889,107.264,95.51,105.469,95.51z"/>
				</g>
			</g>
		</g>
		<g>
			<g>
				<path d="M62.881,65.839c-6.858,0-12.904-2.928-17.971-8.701l3.283-2.881c4.26,4.854,9.064,7.214,14.688,7.214
					c4.089,0,8.681-0.426,15.849-5.521l2.53,3.561C73.87,64.763,68.568,65.839,62.881,65.839z"/>
			</g>
			<g>
				<path d="M111.124,60.471c-4.099-4.36-8.685-6.479-14.019-6.479c-4.086,0-8.678,0.426-15.844,5.524l-2.532-3.559
					c7.389-5.257,12.69-6.333,18.375-6.333c6.515,0,12.302,2.643,17.201,7.856L111.124,60.471z"/>
			</g>
		</g>
	</g>
</g>
</svg>
