<?xml version="1.0" encoding="utf-8"?>
<!-- Generator: Adobe Illustrator 16.0.0, SVG Export Plug-In . SVG Version: 6.00 Build 0)  -->
<!DOCTYPE svg PUBLIC "-//W3C//DTD SVG 1.1//EN" "http://www.w3.org/Graphics/SVG/1.1/DTD/svg11.dtd">
<svg version="1.1" id="Layer_1" xmlns="http://www.w3.org/2000/svg" xmlns:xlink="http://www.w3.org/1999/xlink" x="0px" y="0px"
	 width="160px" height="160px" viewBox="0 0 160 160" enable-background="new 0 0 160 160" xml:space="preserve">
<g>
	<g>
		<path d="M79.939,74.593c-8.75,0-15.869-5.99-15.869-13.353h5c0,4.606,4.875,8.353,10.869,8.353c5.999,0,10.879-3.747,10.879-8.353
			h5C95.818,68.603,88.695,74.593,79.939,74.593z"/>
	</g>
	<g>
		<path d="M102.82,127.501H57.07c-1.381,0-2.5-1.119-2.5-2.5V86.557h5v35.944h40.761l0.155-35.956l5,0.021l-0.166,38.444
			C105.314,126.389,104.195,127.501,102.82,127.501z"/>
	</g>
	<g>
		<path d="M117.5,101.064h-14.514v-5h11.945l-0.011-18.204c0-1.334-0.696-2.532-1.862-3.206c-0.125-0.072-0.24-0.153-0.349-0.243
			L91.605,61.704c-0.028-0.017-0.058-0.035-0.084-0.054L74.658,50.543c-2.223-1.563-3.663-3.836-4.116-6.443
			c-0.453-2.603,0.132-5.228,1.649-7.389c1.52-2.165,3.791-3.607,6.396-4.061c2.595-0.457,5.218,0.128,7.378,1.646
			c2.165,1.521,3.605,3.795,4.061,6.404L85.1,41.555c-0.226-1.292-0.938-2.417-2.009-3.168c-1.065-0.749-2.36-1.038-3.642-0.812
			c-1.292,0.225-2.415,0.937-3.166,2.007s-1.041,2.37-0.816,3.66c0.225,1.292,0.937,2.417,2.004,3.168l16.757,11.036l21.426,12.902
			c0.123,0.073,0.236,0.155,0.34,0.245c2.436,1.604,3.927,4.343,3.927,7.265l0.013,20.128c0.043,0.186,0.066,0.379,0.066,0.576
			C120,99.945,118.881,101.064,117.5,101.064z"/>
	</g>
	<g>
		<path d="M57.069,101.064H42.5c-1.381,0-2.5-1.119-2.5-2.5c0-0.059,0.002-0.115,0.006-0.174l0.012-20.533
			c0-3.091,1.671-5.978,4.361-7.532l21.43-12.905l12.272-8.052l2.742,4.181L68.47,61.653L46.919,74.632
			c-1.205,0.697-1.901,1.895-1.901,3.227l-0.01,18.206H57.07L57.069,101.064L57.069,101.064z"/>
	</g>
</g>
</svg>
