<?xml version="1.0" encoding="utf-8"?>
<!-- Generator: Adobe Illustrator 16.0.0, SVG Export Plug-In . SVG Version: 6.00 Build 0)  -->
<!DOCTYPE svg PUBLIC "-//W3C//DTD SVG 1.1//EN" "http://www.w3.org/Graphics/SVG/1.1/DTD/svg11.dtd">
<svg version="1.1" id="Layer_1" xmlns="http://www.w3.org/2000/svg" xmlns:xlink="http://www.w3.org/1999/xlink" x="0px" y="0px"
	 width="180px" height="180px" viewBox="0 0 180 180" enable-background="new 0 0 180 180" xml:space="preserve">
<g>
	<path d="M140.992,96.971c-0.154-0.018-0.311-0.025-0.463-0.025h-17.397c-1.933,0-3.5,1.568-3.5,3.5c0,1.934,1.567,3.5,3.5,3.5
		h9.987c-8.383,9.062-14.991,10.435-20.461,10.435c-6.438,0-11.736-1.021-22.836-6.603c-0.061-0.029-0.123-0.06-0.184-0.086
		c-11.817-6.035-18.64-7.254-25.795-7.254c-10.313,0-19.363,3.867-26.898,11.492c-1.358,1.375-1.345,3.59,0.03,4.948
		c1.375,1.361,3.591,1.347,4.95-0.028c6.257-6.334,13.427-9.412,21.918-9.412c6.153,0,12.116,1.104,22.81,6.59
		c0.078,0.041,0.157,0.078,0.237,0.111c12.145,6.082,18.439,7.24,25.768,7.24c8.973,0,16.738-3.581,24.408-11.423v7.923
		c0,1.934,1.566,3.5,3.5,3.5c1.933,0,3.5-1.566,3.5-3.5v-17.434C144.066,98.656,142.725,97.182,140.992,96.971z"/>
	<path d="M140.973,58.644c-0.147-0.017-0.308-0.024-0.44-0.023h-17.399c-1.933,0-3.5,1.567-3.5,3.5s1.567,3.5,3.5,3.5h9.989
		c-8.379,9.06-14.989,10.433-20.463,10.433c-6.446,0-11.748-1.021-22.834-6.602c-0.058-0.029-0.116-0.056-0.174-0.082
		c-11.838-6.041-18.66-7.259-25.806-7.259c-10.317,0-19.367,3.869-26.899,11.499c-1.358,1.376-1.344,3.592,0.032,4.95
		c1.376,1.357,3.591,1.342,4.95-0.032c6.255-6.337,13.424-9.417,21.917-9.417c6.144,0,12.103,1.103,22.812,6.59
		c0.073,0.038,0.147,0.072,0.221,0.104c12.142,6.09,18.44,7.249,25.782,7.249c8.977,0,16.742-3.579,24.408-11.42v7.928
		c0,1.933,1.566,3.5,3.5,3.5c1.933,0,3.5-1.567,3.5-3.5V62.121C144.066,60.325,142.714,58.845,140.973,58.644z"/>
</g>
</svg>
