<?xml version="1.0" encoding="utf-8"?>
<!-- Generator: Adobe Illustrator 16.0.0, SVG Export Plug-In . SVG Version: 6.00 Build 0)  -->
<!DOCTYPE svg PUBLIC "-//W3C//DTD SVG 1.1//EN" "http://www.w3.org/Graphics/SVG/1.1/DTD/svg11.dtd">
<svg version="1.1" id="Layer_1" xmlns="http://www.w3.org/2000/svg" xmlns:xlink="http://www.w3.org/1999/xlink" x="0px" y="0px"
	 width="160px" height="160px" viewBox="0 0 160 160" enable-background="new 0 0 160 160" xml:space="preserve">
<g>
	<path d="M82,94.747V48c0-1.104-0.896-2-2-2c-1.104,0-2,0.896-2,2v46.747c-3.728,0.901-6.5,4.25-6.5,8.254
		c0,4.694,3.806,8.5,8.5,8.5s8.5-3.806,8.5-8.5C88.5,98.997,85.728,95.648,82,94.747z"/>
	<path d="M92.911,84.505V46.44c0-7.135-5.792-12.94-12.911-12.94s-12.911,5.805-12.911,12.94v38.091
		C60.746,88.811,57,95.784,57,103.441c0,12.716,10.328,23.06,23.021,23.06c12.67,0,22.979-10.274,22.979-22.901
		C103,95.971,99.169,88.782,92.911,84.505z M80.021,121.501c-9.937,0-18.021-8.101-18.021-18.06c0-6.334,3.293-12.073,8.861-15.383
		l1.228-0.725V46.44c0-4.378,3.549-7.94,7.911-7.94c4.361,0,7.911,3.562,7.911,7.94v40.859l1.224,0.727
		C94.604,91.273,98,97.242,98,103.6C98,113.471,89.936,121.501,80.021,121.501z"/>
</g>
</svg>
