<?xml version="1.0" encoding="utf-8"?>
<!-- Generator: Adobe Illustrator 16.0.0, SVG Export Plug-In . SVG Version: 6.00 Build 0)  -->
<!DOCTYPE svg PUBLIC "-//W3C//DTD SVG 1.1//EN" "http://www.w3.org/Graphics/SVG/1.1/DTD/svg11.dtd">
<svg version="1.1" id="Layer_1" xmlns="http://www.w3.org/2000/svg" xmlns:xlink="http://www.w3.org/1999/xlink" x="0px" y="0px"
	 width="160px" height="160px" viewBox="0 0 160 160" enable-background="new 0 0 160 160" xml:space="preserve">
<g>
	<g>
		<path d="M79.682,118.008h-26.27c-1.381,0-2.5-1.119-2.5-2.5V62.501h5v50.507h23.77V118.008z"/>
		<path stroke="#010101" stroke-width="5" stroke-linejoin="round" stroke-miterlimit="10" d="M106.582,78.663"/>
		<path d="M123.5,79.447h-16.973c-1.381,0-2.5-1.119-2.5-2.5V62.501h5v11.946h11.971l-0.01-17.188c0-1.716-0.912-3.316-2.381-4.177
			l2.529-4.313c2.992,1.754,4.852,5.008,4.852,8.49L126,76.946c0,0.662-0.264,1.299-0.73,1.768
			C124.8,79.184,124.163,79.447,123.5,79.447z"/>
		<path d="M53.417,79.251H36.5c-0.663,0-1.299-0.264-1.768-0.732C34.263,78.051,34,77.413,34,76.75l0.008-19.485l5,0.002
			l-0.007,16.984h14.416V79.251z"/>
		<path d="M39.008,57.26h-5c0-3.48,1.859-6.733,4.851-8.49l2.531,4.313C39.921,53.944,39.008,55.545,39.008,57.26z"/>
		<path d="M41.474,53.03l-2.699-4.209l20.547-13.175c0.403-0.259,0.871-0.396,1.35-0.396h7.215c1.381,0,2.5,1.119,2.5,2.5
			c0,0.073-0.003,0.146-0.01,0.218c0.115,5.268,4.383,9.517,9.612,9.517c5.221,0,9.484-4.231,9.615-9.483
			c-0.008-0.083-0.013-0.166-0.013-0.251c0-1.381,1.119-2.5,2.5-2.5h7.236c0.479,0,0.946,0.137,1.35,0.396l20.546,13.175
			l-2.699,4.209l-19.928-12.78h-4.199c-1.181,6.938-7.191,12.234-14.406,12.234c-7.213,0-13.223-5.297-14.404-12.234h-4.181
			L41.474,53.03z"/>
	</g>
	<g>
		<g>
			<g>
				<path d="M88.857,67.977v4.063L77.92,96.65l-4.375-1.797L84.014,72.04H71.007v-4.063H88.857z"/>
				<path d="M78.051,96.973l-4.841-1.986l0.108-0.237L83.625,72.29H70.757v-4.563h18.353l-0.021,4.414L78.051,96.973z
					 M73.882,94.721l3.909,1.605l10.816-24.341v-3.759H71.257v3.563h13.147l-0.162,0.354L73.882,94.721z"/>
			</g>
		</g>
	</g>
	<g>
		<path d="M104.918,124.751c-10.486,0-19.018-8.522-19.018-19s8.531-19.002,19.018-19.002c10.501,0,19.045,8.524,19.045,19.002
			S115.419,124.751,104.918,124.751z M104.918,91.749c-7.729,0-14.018,6.28-14.018,14.002c0,7.72,6.287,14,14.018,14
			c7.744,0,14.045-6.28,14.045-14C118.963,98.029,112.662,91.749,104.918,91.749z"/>
		<path d="M97.245,107.745c-1.104,0-2-0.896-2-2c0-5.382,4.342-9.761,9.679-9.761c1.104,0,2,0.896,2,2c0,1.104-0.896,2-2,2
			c-3.131,0-5.679,2.584-5.679,5.761C99.245,106.85,98.35,107.745,97.245,107.745z"/>
	</g>
</g>
</svg>
