<?xml version="1.0" encoding="utf-8"?>
<!-- Generator: Adobe Illustrator 16.0.3, SVG Export Plug-In . SVG Version: 6.00 Build 0)  -->
<!DOCTYPE svg PUBLIC "-//W3C//DTD SVG 1.1//EN" "http://www.w3.org/Graphics/SVG/1.1/DTD/svg11.dtd">
<svg version="1.1" id="Layer_1" xmlns="http://www.w3.org/2000/svg" xmlns:xlink="http://www.w3.org/1999/xlink" x="0px" y="0px"
	 width="156px" height="156px" viewBox="0 0 156 156" enable-background="new 0 0 156 156" xml:space="preserve">
<g>
	<g>
		<path d="M54.999,112.012h-13V61.014c0-1.473-1.183-3.021-2.655-3.021c-1.472,0-2.345,1.55-2.345,3.021v16h-14l-4.99,2.316v0.002
			c0,0.518,0.155,0.996,0.409,1.404c0.018,0.027,0.027,0.057,0.046,0.084c0.052,0.076,0.116,0.141,0.174,0.211
			c0.051,0.061,0.095,0.129,0.152,0.184c0.047,0.049,0.105,0.086,0.158,0.131c0.078,0.066,0.152,0.139,0.236,0.195
			c0.09,0.061,0.19,0.105,0.285,0.154c0.058,0.029,0.108,0.064,0.168,0.092c0.268,0.113,0.562,0.172,0.867,0.193
			c0.058,0.002,0.112,0.016,0.17,0.016h0.001l16.324,0.016v32c0,1.471,1.528,3,3,3h15c1.472,0,2.983-1.045,2.983-2.516
			S56.471,112.012,54.999,112.012z M137.973,92.508c-0.008-0.094-0.014-0.186-0.027-0.277c-0.016-0.088-0.037-0.17-0.063-0.254
			c-0.021-0.082-0.045-0.162-0.074-0.242c-0.033-0.082-0.068-0.158-0.109-0.236c-0.037-0.076-0.076-0.15-0.123-0.227
			c-0.045-0.072-0.098-0.143-0.146-0.211c-0.057-0.066-0.105-0.135-0.166-0.199c-0.064-0.064-0.137-0.127-0.205-0.188
			c-0.043-0.035-0.078-0.082-0.129-0.117c-0.02-0.016-0.039-0.021-0.061-0.037c-0.076-0.055-0.158-0.1-0.238-0.145
			c-0.07-0.043-0.145-0.086-0.221-0.121c-0.076-0.031-0.156-0.059-0.236-0.084c-0.086-0.027-0.172-0.061-0.258-0.08
			c-0.076-0.02-0.152-0.023-0.232-0.031c-0.098-0.016-0.189-0.029-0.287-0.031c-0.023,0-0.047-0.006-0.07-0.006h-11.262
			c-1.477,0-3.074,0.975-3.074,2.443s1.602,2.541,3.074,2.541h5.508c-5.008,5.137-8.975,5.998-12.277,5.998
			c-4.084,0-7.459-0.496-14.559-4.063l-0.004-0.002c-7.758-3.979-12.146-4.928-16.73-4.928c-6.779,0-13.3,2.455-18.248,7.461
			c-1.034,1.047-1.023,2.734,0.024,3.771c0.519,0.514,1.509,0.768,2.186,0.768c0.688,0,1.375-0.264,1.897-0.793
			c3.963-4.01,8.764-6.203,14.139-6.203c3.924,0,7.465,1.166,14.295,4.67c0,0,0.01,0.004,0.016,0.006l0.006,0.004
			c8.025,4.031,11.814,4.328,16.633,4.328c5.641,0,11.271-1.672,16.084-6.342v4.146c0,1.471,1.039,3.193,2.51,3.193
			c1.475,0,2.449-1.725,2.449-3.193V92.682C137.99,92.623,137.977,92.566,137.973,92.508z M22.967,77.014l0.011-27.419
			c0-0.01-0.001-0.019-0.001-0.025c0.011-1.905,2.076-3.68,3.711-4.637c0.02-0.014,0.036-0.028,0.056-0.041
			c0.012-0.009,0.024-0.011,0.036-0.019L48.778,30.99h4.707c1.13,7.688,7.793,13.017,15.842,13.017
			c8.05,0,14.71-5.329,15.841-13.017h4.729l21.998,13.883c0.012,0.007,0.021,0.009,0.037,0.019c0.02,0.012,0.031,0.027,0.055,0.041
			c1.639,0.959,3.008,2.74,3.008,4.65v0.012l0.012,27.419H101v-16c0-1.473-1.119-3.021-2.592-3.021c-1.471,0-2.408,1.55-2.408,3.021
			v17.998c0,1.891,0.664,3,3,3h18c0,0,3-0.395,3-3l0.002-29.421c0-0.001,0-0.002,0-0.004s0-0.003,0-0.004
			c0-3.767-2.016-7.276-5.211-9.214c-0.016-0.01-0.025-0.021-0.043-0.033l-0.076-0.048c-0.006-0.003-0.01-0.007-0.016-0.01
			c-0.002-0.001-0.004-0.001-0.006-0.002L92.084,26.4c-0.045-0.029-0.094-0.045-0.141-0.071c-0.098-0.056-0.197-0.111-0.303-0.154
			c-0.074-0.027-0.148-0.047-0.227-0.068c-0.092-0.027-0.18-0.06-0.271-0.075c-0.1-0.018-0.191-0.022-0.287-0.029
			c-0.066-0.005-0.131-0.021-0.199-0.021h-7.982c-1.471,0-2.664,1.205-2.664,2.688c0,0.042,0.01,0.08,0.012,0.121
			c-0.064,5.894-4.834,10.248-10.693,10.248c-5.876,0-10.333-4.38-10.37-10.298c0.001-0.024,0.009-0.046,0.009-0.071
			c0-1.482-1.194-2.688-2.665-2.688h-8.286c-0.081,0-0.157,0.017-0.236,0.022c-0.082,0.009-0.163,0.012-0.244,0.025
			c-0.103,0.019-0.2,0.051-0.298,0.082c-0.068,0.021-0.136,0.037-0.203,0.063c-0.108,0.043-0.209,0.102-0.31,0.157
			c-0.045,0.025-0.093,0.041-0.137,0.069L24.021,40.276c-0.002,0.001-0.004,0.001-0.006,0.002c-0.006,0.004-0.013,0.009-0.019,0.013
			l-0.073,0.045c-0.009,0.006-0.017,0.016-0.026,0.021c-3.223,1.934-5.875,5.452-5.875,9.227c0,0.015,0.003,0.025,0.003,0.038
			l-0.012,29.562L22.967,77.014z M137.943,115.23c-0.018-0.088-0.037-0.17-0.064-0.254c-0.02-0.082-0.043-0.162-0.072-0.242
			c-0.031-0.082-0.068-0.16-0.107-0.238c-0.037-0.076-0.078-0.152-0.123-0.225c-0.047-0.074-0.098-0.145-0.15-0.211
			c-0.053-0.068-0.105-0.137-0.164-0.199c-0.064-0.066-0.137-0.127-0.205-0.189c-0.045-0.037-0.08-0.082-0.131-0.119
			c-0.018-0.014-0.037-0.02-0.057-0.037c-0.078-0.053-0.158-0.098-0.24-0.143c-0.072-0.043-0.143-0.086-0.221-0.121
			c-0.074-0.033-0.156-0.057-0.234-0.084c-0.086-0.029-0.172-0.059-0.26-0.08c-0.074-0.018-0.154-0.025-0.232-0.033
			c-0.096-0.014-0.191-0.029-0.289-0.031c-0.023,0-0.045-0.006-0.068-0.006h-11.264c-1.473,0-3.072,0.977-3.072,2.445
			c0,1.471,1.6,2.541,3.072,2.541h5.51c-5.008,5.135-8.975,5.998-12.279,5.998c-4.084,0-7.459-0.496-14.559-4.061l-0.002-0.002
			c-7.758-3.979-12.145-4.928-16.73-4.928c-6.777,0-13.298,2.453-18.246,7.461c-1.034,1.047-1.023,2.732,0.024,3.77
			c0.519,0.514,1.509,0.768,2.186,0.768c0.688,0,1.375-0.264,1.897-0.793c3.963-4.01,8.762-6.205,14.139-6.205
			c3.922,0,7.465,1.166,14.295,4.67c0,0,0.012,0.004,0.016,0.006l0.006,0.004c8.027,4.031,11.813,4.328,16.633,4.328
			c5.643,0,11.271-1.672,16.086-6.342v4.146c0,1.471,1.037,3.195,2.51,3.195s2.447-1.727,2.447-3.195v-11.143
			c0-0.061-0.014-0.115-0.018-0.176C137.965,115.414,137.959,115.322,137.943,115.23z"/>
	</g>
</g>
</svg>
