<?xml version="1.0" encoding="utf-8"?>
<!-- Generator: Adobe Illustrator 16.0.0, SVG Export Plug-In . SVG Version: 6.00 Build 0)  -->
<!DOCTYPE svg PUBLIC "-//W3C//DTD SVG 1.1//EN" "http://www.w3.org/Graphics/SVG/1.1/DTD/svg11.dtd">
<svg version="1.1" id="Layer_1" xmlns="http://www.w3.org/2000/svg" xmlns:xlink="http://www.w3.org/1999/xlink" x="0px" y="0px"
	 width="160px" height="160px" viewBox="0 0 160 160" enable-background="new 0 0 160 160" xml:space="preserve">
<g>
	<g>
		<g>
			<polyline points="106.225,70.394 106.225,118.499 53.718,118.499 53.718,70.394 			"/>
			<path d="M106.225,119.499H53.718c-0.552,0-1-0.447-1-1V70.394h2v47.105h50.507V70.394h2v48.105
				C107.225,119.052,106.777,119.499,106.225,119.499z"/>
		</g>
		<g>
			<path d="M53.725,80.002H37.001l0.012-19.235v-0.004c0-2.673,1.438-5.002,3.571-6.252l20.311-13.012h7.121
				c0,6.673,5.367,12.077,11.974,12.077c6.619,0,11.98-5.404,11.98-12.077h7.139l20.312,13.012c2.134,1.25,3.571,3.579,3.571,6.252
				v0.004l0.01,19.235h-16.723"/>
			<path d="M123.001,81.002h-16.724v-2H122l-0.009-18.234c0-2.217-1.179-4.282-3.077-5.394l-20.1-12.875h-5.881
				c-0.51,6.746-6.121,12.077-12.945,12.077c-6.82,0-12.428-5.332-12.937-12.077h-5.865L41.123,55.353
				c-1.932,1.133-3.11,3.198-3.11,5.41l-0.012,18.239h15.724v2H37.001c-0.266,0-0.52-0.105-0.708-0.293s-0.292-0.442-0.292-0.707
				l0.012-19.235c0-2.923,1.558-5.649,4.065-7.119l20.276-12.991c0.161-0.104,0.349-0.158,0.54-0.158h7.121c0.553,0,1,0.448,1,1
				c0,6.108,4.923,11.077,10.974,11.077c6.056,0,10.982-4.969,10.982-11.077c0-0.552,0.446-1,1-1h7.137
				c0.191,0,0.379,0.055,0.539,0.158l20.313,13.012c2.475,1.448,4.032,4.174,4.032,7.094l0.01,19.239
				c0,0.265-0.104,0.52-0.293,0.707S123.268,81.002,123.001,81.002z"/>
		</g>
	</g>
</g>
</svg>
