<?xml version="1.0" encoding="utf-8"?>
<!-- Generator: Adobe Illustrator 16.0.0, SVG Export Plug-In . SVG Version: 6.00 Build 0)  -->
<!DOCTYPE svg PUBLIC "-//W3C//DTD SVG 1.1//EN" "http://www.w3.org/Graphics/SVG/1.1/DTD/svg11.dtd">
<svg version="1.1" id="Layer_1" xmlns="http://www.w3.org/2000/svg" xmlns:xlink="http://www.w3.org/1999/xlink" x="0px" y="0px"
	 width="160px" height="160px" viewBox="0 0 160 160" enable-background="new 0 0 160 160" xml:space="preserve">
<g>
	<g>
		<g>
			<g>
				<path d="M109.157,122.178H51.815c-1.728,0-3.298-1.273-3.653-2.963l-13.108-62.02l4.893-1.034l12.896,61.017h54.312l12.9-61.017
					l4.894,1.034l-13.113,62.021C111.598,120.325,111.204,122.178,109.157,122.178z"/>
			</g>
		</g>
		<g>
			<g>
				<g>
					<path d="M60.249,84.598c-7.813,0-14.731-2.666-20.563-7.924l3.348-3.714c4.954,4.466,10.585,6.637,17.215,6.637
						c4.806,0,10.198-0.394,18.57-5.099l2.449,4.358C72.792,83.621,66.735,84.598,60.249,84.598z"/>
				</g>
			</g>
			<g>
				<g>
					<path d="M116.282,79.729c-4.774-4.018-10.154-5.97-16.447-5.97c-4.806,0-10.194,0.394-18.565,5.102l-2.451-4.357
						c8.476-4.768,14.531-5.745,21.017-5.745c7.416,0,14.032,2.404,19.666,7.144L116.282,79.729z"/>
				</g>
			</g>
		</g>
	</g>
	<g>
		<g>
			<g>
				<path d="M66.053,66.533c-1.269,0-2.552-0.967-2.552-2.814V40.637c0-1.848,1.283-2.814,2.552-2.814
					c0.63,0,1.262,0.233,1.828,0.674L82.27,49.704c0.791,0.617,1.246,1.519,1.246,2.474c0,0.955-0.455,1.857-1.246,2.474
					L67.88,65.859C67.314,66.3,66.683,66.533,66.053,66.533z M67.501,43.271v17.813l11.436-8.907L67.501,43.271z"/>
			</g>
		</g>
		<g>
			<g>
				<path d="M82.73,66.527c-1.263,0-2.541-0.964-2.541-2.808V40.637c0-1.844,1.278-2.808,2.541-2.808
					c0.444,0,1.127,0.12,1.848,0.695l14.027,11.181c0.778,0.62,1.226,1.521,1.226,2.473c0,0.952-0.446,1.853-1.224,2.473
					l-14.03,11.182C83.857,66.407,83.176,66.527,82.73,66.527z M84.189,43.33v17.696l11.103-8.848L84.189,43.33z"/>
			</g>
		</g>
	</g>
	<g>
		<g>
			<path d="M71.351,89.887v20.959h-3.445V93.419l-4.863,1.621l-0.984-2.836l6.311-2.315h2.981V89.887z"/>
			<path d="M71.601,111.096h-3.945v-17.33l-4.769,1.59l-1.146-3.303l6.627-2.416H71.6L71.601,111.096L71.601,111.096z
				 M68.155,110.596H71.1V90.137h-2.688l-6.038,2.217l0.823,2.371l4.958-1.652V110.596z"/>
		</g>
		<g>
			<path d="M87.575,98.166c0.993,0.561,1.766,1.352,2.313,2.374c0.551,1.022,0.826,2.2,0.826,3.532c0,1.428-0.311,2.682-0.927,3.763
				c-0.618,1.081-1.485,1.916-2.604,2.504c-1.119,0.589-2.423,0.884-3.908,0.884c-1.118,0-2.225-0.16-3.313-0.479
				c-1.091-0.318-1.992-0.738-2.707-1.26l1.273-2.808c0.791,0.444,1.602,0.786,2.432,1.028c0.83,0.24,1.603,0.361,2.315,0.361
				c1.234,0,2.195-0.348,2.881-1.043c0.685-0.693,1.027-1.649,1.027-2.865c0-1.178-0.313-2.09-0.94-2.735s-1.511-0.97-2.647-0.97
				c-0.541,0-1.101,0.072-1.681,0.217c-0.578,0.145-1.119,0.352-1.621,0.622l-2.113-1.129l0.551-10.276H89.76v3.01H81.8
				l-0.377,4.863c0.869-0.289,1.757-0.434,2.664-0.434C85.418,97.327,86.581,97.605,87.575,98.166z"/>
			<path d="M83.275,111.471c-1.139,0-2.276-0.164-3.384-0.488c-1.111-0.323-2.048-0.76-2.784-1.297l-0.164-0.119l1.47-3.241
				l0.237,0.133c0.77,0.433,1.57,0.771,2.379,1.006c2.154,0.627,3.939,0.407,4.949-0.616c0.633-0.643,0.955-1.548,0.955-2.689
				c0-1.104-0.293-1.967-0.871-2.563c-0.574-0.593-1.404-0.894-2.469-0.894c-0.518,0-1.063,0.071-1.619,0.21
				c-0.556,0.139-1.082,0.341-1.563,0.6l-0.118,0.063l-2.371-1.267l0.008-0.16l0.563-10.512H90.01v3.51h-7.979L81.7,97.413
				c0.778-0.224,1.579-0.336,2.387-0.336c1.368,0,2.584,0.293,3.611,0.872c1.03,0.582,1.843,1.414,2.411,2.473
				c0.567,1.055,0.855,2.283,0.855,3.65c0,1.464-0.322,2.771-0.96,3.887c-0.64,1.119-1.55,1.994-2.706,2.602
				C86.15,111.164,84.797,111.471,83.275,111.471z M77.568,109.398c0.663,0.449,1.49,0.82,2.464,1.104
				c1.062,0.311,2.153,0.469,3.243,0.469c1.438,0,2.715-0.287,3.791-0.854c1.07-0.563,1.914-1.372,2.506-2.407
				c0.593-1.039,0.894-2.264,0.894-3.639c0-1.284-0.268-2.432-0.796-3.413c-0.523-0.976-1.27-1.74-2.218-2.274
				c-0.951-0.535-2.084-0.807-3.365-0.807c-0.876,0-1.746,0.142-2.585,0.421l-0.357,0.119l0.424-5.47h7.941v-2.511H78.969
				l-0.53,9.88l1.856,0.992c0.484-0.249,1.01-0.443,1.561-0.582c0.597-0.148,1.182-0.225,1.74-0.225
				c1.202,0,2.154,0.352,2.827,1.046c0.671,0.69,1.011,1.67,1.011,2.909c0,1.277-0.369,2.301-1.1,3.041
				c-0.729,0.74-1.759,1.117-3.059,1.117c-0.734,0-1.537-0.125-2.385-0.371c-0.764-0.223-1.518-0.531-2.247-0.92L77.568,109.398z"/>
		</g>
		<g>
			<path d="M92.8,95.792c0.656-0.694,1.119-1.385,1.39-2.069c0.271-0.686,0.406-1.521,0.406-2.505c0-0.675-0.06-1.37-0.175-2.084
				h3.213c0.115,0.714,0.175,1.399,0.175,2.056c0,1.139-0.291,2.186-0.869,3.141s-1.516,1.906-2.809,2.852L92.8,95.792z"/>
			<path d="M94.102,97.514l-1.646-1.72l0.163-0.173c0.631-0.668,1.081-1.337,1.338-1.989c0.258-0.653,0.389-1.465,0.389-2.413
				c0-0.654-0.058-1.343-0.171-2.044l-0.047-0.29h3.72l0.034,0.211c0.117,0.728,0.177,1.432,0.177,2.094
				c0,1.18-0.305,2.279-0.904,3.271c-0.594,0.979-1.561,1.962-2.875,2.923L94.102,97.514z M93.143,95.789l1.018,1.061
				c1.171-0.879,2.033-1.77,2.564-2.647c0.553-0.912,0.834-1.925,0.834-3.011c0-0.572-0.047-1.178-0.14-1.806h-2.707
				c0.088,0.628,0.134,1.243,0.134,1.835c0,1.01-0.144,1.883-0.425,2.596C94.164,94.468,93.734,95.131,93.143,95.789z"/>
		</g>
	</g>
</g>
</svg>
