<?xml version="1.0" encoding="utf-8"?>
<!-- Generator: Adobe Illustrator 16.0.0, SVG Export Plug-In . SVG Version: 6.00 Build 0)  -->
<!DOCTYPE svg PUBLIC "-//W3C//DTD SVG 1.1//EN" "http://www.w3.org/Graphics/SVG/1.1/DTD/svg11.dtd">
<svg version="1.1" xmlns="http://www.w3.org/2000/svg" xmlns:xlink="http://www.w3.org/1999/xlink" x="0px" y="0px" width="632px"
	 height="632px" viewBox="0 0 632 632" enable-background="new 0 0 632 632" xml:space="preserve">
<g id="Layer_2">
</g>
<g id="drayer">
	<g>
		<g>
			
				<line fill="none" stroke="#000000" stroke-width="15.4132" stroke-miterlimit="10" x1="360.18" y1="150.358" x2="271.817" y2="150.358"/>
			<g>
				<path fill="none" stroke="#000000" stroke-width="15.4132" stroke-miterlimit="10" d="M509.289,542.37
					c0,3.037-2.484,5.521-5.521,5.521H128.231c-3.037,0-5.521-2.484-5.521-5.521V89.629c0-3.037,2.485-5.521,5.521-5.521h375.536
					c3.037,0,5.521,2.485,5.521,5.521V542.37z"/>
			</g>
			<path fill="none" stroke="#000000" stroke-width="15.4132" stroke-miterlimit="10" d="M422.215,407.117
				c-22.641,34.728-61.836,57.687-106.362,57.687c-70.051,0-126.873-56.802-126.873-126.871
				c0-70.038,56.822-126.844,126.873-126.844c42.153,0,79.499,20.554,102.581,52.169"/>
			<g>
				<path fill="none" stroke="#000000" stroke-width="15.4132" stroke-miterlimit="10" d="M316,308.928
					c9.993-10.713,21.329-15.013,33.151-15.013c9.453,0,18.902,1.214,33.086,9.99c14.227,8.784,23.697,10.022,33.158,10.022
					c11.814,0,23.145-4.34,33.145-15.028"/>
			</g>
			<g>
				<path fill="none" stroke="#000000" stroke-width="15.4132" stroke-miterlimit="10" d="M316,360.659
					c9.993-10.676,21.329-15.021,33.151-15.021c9.453,0,18.902,1.196,33.086,10.007c14.227,8.795,23.697,10.011,33.158,10.011
					c11.814,0,23.145-4.295,33.145-15.006"/>
			</g>
		</g>
	</g>
</g>
</svg>
