<?xml version="1.0" encoding="utf-8"?>
<!-- Generator: Adobe Illustrator 16.0.0, SVG Export Plug-In . SVG Version: 6.00 Build 0)  -->
<!DOCTYPE svg PUBLIC "-//W3C//DTD SVG 1.1//EN" "http://www.w3.org/Graphics/SVG/1.1/DTD/svg11.dtd">
<svg version="1.1" id="Layer_1" xmlns="http://www.w3.org/2000/svg" xmlns:xlink="http://www.w3.org/1999/xlink" x="0px" y="0px"
	 width="196px" height="156px" viewBox="0 0 196 156" enable-background="new 0 0 196 156" xml:space="preserve">
<path d="M189.896,78.676c-0.154,2.438-0.615,5.213-1.262,7.604c-0.66,2.421-1.682,5.093-2.803,7.337
	c-1.145,2.289-2.689,4.746-4.24,6.742c-1.564,2.016-3.6,4.156-5.584,5.872c-1.99,1.711-4.441,3.435-6.736,4.733
	c-2.344,1.323-5.133,2.556-7.656,3.381c-2.629,0.856-5.652,1.526-8.299,1.841c-1.652,0.208-3.504,0.314-5.354,0.314
	c-1.1,0-2.197-0.037-3.254-0.114c-2.818-0.217-5.957-0.771-8.619-1.521c-2.711-0.751-5.729-1.924-8.266-3.214
	c-2.578-1.309-5.336-3.067-7.566-4.823c-2.271-1.787-4.666-4.088-6.566-6.31c-1.889-2.205-3.813-4.962-5.273-7.562
	c-1.459-2.617-2.813-5.742-3.719-8.583c-0.926-2.845-1.656-6.219-1.996-9.243c-0.346-3.055-0.395-6.547-0.137-9.578
	c0.26-3.057,0.906-6.533,1.777-9.535l4.803,1.395c-0.783,2.697-1.365,5.82-1.598,8.564c-0.229,2.68-0.184,5.891,0.123,8.592
	c0.305,2.705,0.955,5.719,1.787,8.271c0.814,2.552,2.021,5.344,3.32,7.675c1.305,2.319,3.023,4.783,4.711,6.752
	c1.697,1.986,3.834,4.038,5.859,5.633c1.984,1.563,4.439,3.127,6.738,4.294c2.256,1.146,4.934,2.188,7.348,2.856
	c2.369,0.668,5.152,1.159,7.646,1.352c2.502,0.181,5.285,0.117,7.627-0.178c2.352-0.279,5.027-0.873,7.355-1.631
	c2.219-0.727,4.68-1.813,6.746-2.98c1.99-1.127,4.209-2.685,5.93-4.167c1.742-1.506,3.531-3.386,4.902-5.153
	c1.338-1.723,2.729-3.932,3.717-5.911c0.982-1.962,1.875-4.299,2.451-6.411c0.553-2.046,0.963-4.521,1.096-6.618
	c0.141-2.094,0.063-4.502-0.213-6.615c-0.275-2.002-0.838-4.363-1.5-6.295c-0.672-1.93-1.641-4.033-2.652-5.762
	c-1.041-1.762-2.381-3.596-3.672-5.025c-1.295-1.459-2.938-2.971-4.518-4.162c-1.508-1.125-3.43-2.287-5.127-3.1
	c-1.676-0.803-3.691-1.531-5.533-2c-1.764-0.447-3.891-0.77-5.689-0.859c-1.764-0.096-3.873,0.012-5.633,0.275
	c-1.719,0.254-3.715,0.754-5.344,1.338c-1.605,0.568-3.416,1.426-4.848,2.297c-1.455,0.875-2.984,2.021-4.207,3.148
	c-1.219,1.109-2.488,2.525-3.406,3.797c-0.938,1.27-1.879,2.875-2.537,4.311c-0.639,1.385-1.23,3.1-1.584,4.596
	c-0.35,1.498-0.576,3.207-0.619,4.682c-0.047,1.453,0.072,3.17,0.316,4.596c0.246,1.436,0.68,3.008,1.193,4.313
	c0.5,1.297,1.221,2.715,1.98,3.905c0.695,1.094,1.676,2.334,2.631,3.322c0.932,0.953,2.084,1.926,3.148,2.656
	c1.068,0.722,2.385,1.441,3.508,1.916c1.137,0.482,2.521,0.913,3.705,1.153c1.152,0.241,2.543,0.384,3.736,0.384
	c1.184,0,2.5-0.131,3.609-0.359c1.104-0.216,2.348-0.599,3.354-1.028c0.998-0.418,2.107-1.021,2.984-1.622
	c0.84-0.573,1.77-1.355,2.488-2.094c0.68-0.712,1.404-1.632,1.92-2.444c0.529-0.844,1.025-1.827,1.35-2.683
	c0.313-0.83,0.588-1.872,0.736-2.774c0.137-0.865,0.195-1.887,0.154-2.725c-0.043-0.842-0.186-1.789-0.389-2.592
	c-0.201-0.779-0.523-1.645-0.861-2.313c-0.34-0.699-0.805-1.445-1.27-2.039c-0.439-0.555-1.037-1.174-1.582-1.641
	c-0.506-0.418-1.166-0.865-1.74-1.17c-0.58-0.311-1.273-0.594-1.855-0.762c-0.596-0.172-1.307-0.303-1.857-0.344
	c-0.572-0.043-1.23-0.025-1.768,0.051l-0.691-4.951c0.885-0.125,1.916-0.154,2.832-0.086c0.891,0.066,1.938,0.258,2.865,0.525
	c0.912,0.262,1.943,0.682,2.826,1.154c0.867,0.461,1.818,1.102,2.611,1.76c0.811,0.693,1.635,1.549,2.287,2.369
	c0.693,0.889,1.352,1.943,1.82,2.914c0.486,0.957,0.93,2.141,1.225,3.291c0.289,1.131,0.48,2.402,0.541,3.586
	c0.057,1.182-0.021,2.553-0.213,3.766c-0.201,1.235-0.563,2.596-0.994,3.744c-0.447,1.178-1.084,2.446-1.799,3.586
	c-0.699,1.103-1.627,2.282-2.551,3.248c-0.967,0.992-2.15,1.989-3.264,2.749c-1.158,0.793-2.566,1.559-3.859,2.099
	c-1.311,0.561-2.891,1.048-4.316,1.326c-1.404,0.289-3.086,0.457-4.594,0.457c-1.539,0-3.27-0.178-4.746-0.486
	c-1.5-0.306-3.199-0.833-4.645-1.446c-1.422-0.601-3.018-1.472-4.375-2.389c-1.334-0.916-2.756-2.116-3.918-3.303
	c-1.205-1.248-2.389-2.746-3.262-4.122c-0.928-1.451-1.813-3.193-2.424-4.774c-0.625-1.595-1.16-3.527-1.461-5.285
	c-0.303-1.764-0.443-3.803-0.387-5.592c0.053-1.789,0.326-3.857,0.75-5.672c0.434-1.836,1.129-3.854,1.908-5.541
	c0.801-1.746,1.908-3.635,3.041-5.17c1.111-1.539,2.598-3.197,4.066-4.535c1.449-1.338,3.275-2.705,5-3.742
	c1.725-1.047,3.824-2.043,5.754-2.729c1.943-0.695,4.238-1.27,6.287-1.572c2.096-0.314,4.514-0.432,6.623-0.324
	c2.141,0.107,4.57,0.477,6.668,1.008c2.146,0.547,4.502,1.398,6.461,2.338c2,0.957,4.176,2.271,5.967,3.605
	c1.844,1.393,3.752,3.148,5.242,4.828c1.492,1.652,3.049,3.781,4.256,5.826c1.174,2.004,2.293,4.43,3.07,6.664
	c0.775,2.264,1.404,4.906,1.729,7.264C189.967,73.513,190.057,76.277,189.896,78.676z M90.585,45.984l4.893,1.029l-13.045,62.023
	C82.2,110.145,81.809,112,79.758,112h-57.04c-1.727,0-3.297-1.274-3.652-2.964L6.026,47.013l4.893-1.029l4.112,19.561
	c4.727,5.156,10.041,7.674,16.227,7.674c4.653,0,9.88-0.486,18.042-6.285l0.003,0.004c8.416-5.982,14.454-7.209,20.931-7.209
	c5.983,0,11.428,1.959,16.236,5.826L90.585,45.984z M81.433,89.501h-7.304v-5h8.355l2.802-13.322
	c-4.433-4.338-9.369-6.451-15.054-6.451c-4.653,0-9.878,0.484-18.036,6.287l-0.003-0.004c-8.421,5.98-14.459,7.207-20.937,7.207
	c-5.283,0-10.141-1.531-14.519-4.551l2.277,10.833h8.349v5h-7.297L23.747,107h54.006L81.433,89.501z M46.276,84.501h-8.772v5h8.772
	V84.501z M64.555,84.501h-9.202v5h9.202V84.501z M46.276,100.748h9.077v-5h-9.077V100.748z M64.555,100.748h8.954v-5h-8.954V100.748
	z M29.595,95.748H28.6v5h0.995h6.684h1.225v-5h-1.225H29.595z"/>
</svg>
