<?xml version="1.0" encoding="utf-8"?>
<!-- Generator: Adobe Illustrator 16.0.0, SVG Export Plug-In . SVG Version: 6.00 Build 0)  -->
<!DOCTYPE svg PUBLIC "-//W3C//DTD SVG 1.1//EN" "http://www.w3.org/Graphics/SVG/1.1/DTD/svg11.dtd">
<svg version="1.1" id="Layer_1" xmlns="http://www.w3.org/2000/svg" xmlns:xlink="http://www.w3.org/1999/xlink" x="0px" y="0px"
	 width="160px" height="160px" viewBox="0 0 160 160" enable-background="new 0 0 160 160" xml:space="preserve">
<g>
	<g>
		<g>
			<path d="M109.156,117.283H51.815c-1.725,0-3.295-1.273-3.652-2.961L35.054,52.169l4.893-1.032l12.896,61.146h54.31l12.902-61.146
				l4.893,1.032l-13.114,62.151C111.6,115.428,111.208,117.283,109.156,117.283z"/>
		</g>
	</g>
	<path d="M91.234,71.611c-6.444,0-11.688-5.208-11.688-11.61c0-6.401,5.243-11.608,11.688-11.608
		c6.451,0,11.699,5.208,11.699,11.608C102.934,66.403,97.686,71.611,91.234,71.611z M91.234,53.393
		c-3.688,0-6.688,2.964-6.688,6.608c0,3.645,3,6.61,6.688,6.61c3.693,0,6.699-2.965,6.699-6.61
		C97.934,56.357,94.93,53.393,91.234,53.393z"/>
	<path d="M63.999,56.815c-3.898,0-7.07-3.165-7.07-7.054c0-3.884,3.171-7.044,7.07-7.044s7.071,3.16,7.071,7.044
		C71.069,53.651,67.897,56.815,63.999,56.815z M63.999,47.717c-1.141,0-2.07,0.917-2.07,2.044c0,1.133,0.929,2.054,2.07,2.054
		c1.142,0,2.071-0.921,2.071-2.054C66.069,48.634,65.14,47.717,63.999,47.717z"/>
	<path stroke="#010101" stroke-width="5" stroke-linecap="round" stroke-linejoin="round" stroke-miterlimit="10" d="M43.876,81.889
		"/>
	<path stroke="#010101" stroke-width="5" stroke-linecap="round" stroke-linejoin="round" stroke-miterlimit="10" d="M57.698,75.797
		"/>
	<path d="M95.938,95.357c-1.11,0-2.106-0.74-2.408-1.838c-1.025-3.729-4.44-6.336-8.307-6.336c-3.041,0-5.892,1.641-7.438,4.279
		c-0.699,1.189-2.233,1.589-3.421,0.893c-1.191-0.697-1.592-2.229-0.894-3.42c2.44-4.164,6.944-6.752,11.752-6.752
		c3.783,0,7.295,1.58,9.805,4.182c2.451-4.842,7.484-8.18,13.238-8.18c3.33,0,6.477,1.078,9.099,3.118
		c1.09,0.848,1.286,2.42,0.438,3.508c-0.849,1.09-2.42,1.287-3.509,0.438c-1.736-1.351-3.82-2.063-6.027-2.063
		c-5.35,0-9.758,4.354-9.826,9.705c-0.017,1.244-0.945,2.289-2.182,2.447C96.15,95.352,96.043,95.357,95.938,95.357z"/>
	<path d="M75.613,92.711c-1.381,0-2.5-1.119-2.5-2.5c0-9.925-8.075-18-18-18c-4.153,0-8.055,1.374-11.282,3.974
		c-1.075,0.867-2.649,0.698-3.515-0.378c-0.866-1.075-0.697-2.649,0.378-3.515c4.067-3.276,9.188-5.081,14.419-5.081
		c12.682,0,23,10.318,23,23C78.113,91.592,76.994,92.711,75.613,92.711z"/>
</g>
</svg>
