<?xml version="1.0" encoding="utf-8"?>
<!-- Generator: Adobe Illustrator 16.0.0, SVG Export Plug-In . SVG Version: 6.00 Build 0)  -->
<!DOCTYPE svg PUBLIC "-//W3C//DTD SVG 1.1//EN" "http://www.w3.org/Graphics/SVG/1.1/DTD/svg11.dtd">
<svg version="1.1" id="Layer_1" xmlns="http://www.w3.org/2000/svg" xmlns:xlink="http://www.w3.org/1999/xlink" x="0px" y="0px"
	 width="156px" height="156px" viewBox="0 0 156 156" enable-background="new 0 0 156 156" xml:space="preserve">
<path d="M122.27,122.1c-0.416,1.598-1.43,2.938-2.854,3.77c-0.947,0.559-2.021,0.85-3.117,0.85c-0.02,0-0.038,0-0.057,0
	c-0.043,0.002-0.085,0.004-0.128,0.004c-0.005,0-0.011,0-0.016,0l-26.967-0.168c-0.048,0-0.096-0.002-0.144-0.006
	c-1.104-0.006-2.185-0.309-3.142-0.881c-2.814-1.707-3.789-5.299-2.286-8.162c0.037-0.084,0.08-0.166,0.127-0.246l18.285-31.203
	c0.045-0.078,0.094-0.15,0.146-0.221c0.923-1.35,2.482-2.135,4.125-2.156c1.196,0.004,2.132,0.494,2.39,0.645l11.643,6.814
	l-2.525,4.314l-11.533-6.75L88.14,119.551c-0.035,0.072-0.074,0.145-0.117,0.217c-0.335,0.553-0.153,1.279,0.404,1.617
	c0.191,0.115,0.411,0.178,0.639,0.164c0.104-0.004,0.212-0.002,0.314,0.006l26.549,0.166c0.103-0.008,0.205-0.01,0.308-0.004
	c0.164,0.008,0.4-0.014,0.648-0.158c0.369-0.217,0.501-0.545,0.547-0.721c0.039-0.148,0.077-0.42-0.039-0.721l-12.299-21.574
	c-0.241-0.387-0.379-0.842-0.379-1.324c0-1.135,0.764-2.129,1.859-2.42c0.432-0.111,0.871-0.107,1.281,0l11.393,2.469l-1.059,4.887
	l-6.025-1.307l9.336,16.379c0.043,0.061,0.083,0.123,0.121,0.188c0.057,0.098,0.11,0.195,0.162,0.293l0.227,0.414
	c0.175,0.322,0.273,0.664,0.3,1.006C122.538,120.094,122.528,121.109,122.27,122.1z M43.199,75.859l-0.011,18.208h9.515v-9.51h5
	v35.945h17.145v5H55.203c-1.381,0-2.5-1.119-2.5-2.5V99.066H40.682c-1.381,0-2.5-1.119-2.5-2.5c0-0.059,0.002-0.117,0.006-0.174
	l0.012-20.535c0-3.088,1.666-5.974,4.348-7.528L63.91,55.423l9.638-6.343l-0.817-0.54c-2.216-1.561-3.651-3.834-4.104-6.441
	c-0.936-5.379,2.665-10.514,8.026-11.447c2.584-0.458,5.194,0.125,7.349,1.637c2.166,1.521,3.609,3.799,4.063,6.412l-4.926,0.855
	c-0.226-1.295-0.938-2.423-2.01-3.175c-1.059-0.743-2.339-1.028-3.612-0.805c-2.651,0.462-4.427,3.003-3.964,5.667
	c0.225,1.293,0.934,2.418,1.997,3.168l16.704,11.039l21.357,12.901c0.117,0.071,0.228,0.15,0.33,0.237
	c2.434,1.604,3.926,4.346,3.926,7.27h-5c0-1.333-0.693-2.53-1.855-3.205c-0.122-0.07-0.235-0.149-0.341-0.236L93.485,62.036
	c-1.528,6.025-7.887,10.56-15.483,10.56c-7.568,0-13.905-4.508-15.456-10.508L45.094,72.631
	C43.893,73.329,43.199,74.526,43.199,75.859z M78.085,52.08l-10.908,7.178c0.012,4.599,4.862,8.338,10.825,8.338
	c5.976,0,10.838-3.748,10.838-8.354h0.082L78.085,52.08z"/>
</svg>
