<?xml version="1.0" encoding="utf-8"?>
<!-- Generator: Adobe Illustrator 16.0.0, SVG Export Plug-In . SVG Version: 6.00 Build 0)  -->
<!DOCTYPE svg PUBLIC "-//W3C//DTD SVG 1.1//EN" "http://www.w3.org/Graphics/SVG/1.1/DTD/svg11.dtd">
<svg version="1.1" id="Layer_1" xmlns="http://www.w3.org/2000/svg" xmlns:xlink="http://www.w3.org/1999/xlink" x="0px" y="0px"
	 width="160px" height="160px" viewBox="0 0 160 160" enable-background="new 0 0 160 160" xml:space="preserve">
<g>
	<g>
		<g>
			<g>
				<g>
					<rect x="115.41" y="39.409" transform="matrix(-0.9808 -0.1949 0.1949 -0.9808 222.347 136.923)" width="5" height="36.225"/>
				</g>
			</g>
			<g>
				<g>
					<path d="M80.805,104.873H50.993c-1.724,0-3.294-1.271-3.652-2.959L34.277,40.277l4.892-1.037L52.02,99.873h28.785V104.873z"/>
				</g>
			</g>
		</g>
		<g>
			<g>
				<rect x="45.618" y="77.512" width="10.032" height="5"/>
			</g>
		</g>
		<g>
			<g>
				<rect x="65.809" y="77.512" width="8.789" height="5"/>
			</g>
		</g>
		<g>
			<g>
				<rect x="85.743" y="77.512" width="8.788" height="5"/>
			</g>
		</g>
		<g>
			<g>
				<rect x="57.885" y="88.689" width="6.697" height="5"/>
			</g>
		</g>
		<g>
			<g>
				<g>
					<path d="M59.551,71.299c-7.824,0-14.724-3.314-20.504-9.85l3.745-3.313c4.857,5.492,10.34,8.162,16.759,8.162
						c4.666,0,9.907-0.482,18.087-6.248l2.879,4.088C72.086,70.08,66.037,71.299,59.551,71.299z"/>
				</g>
			</g>
			<g>
				<g>
					<path d="M114.596,65.221c-4.675-4.932-9.906-7.33-15.996-7.33c-4.664,0-9.901,0.482-18.08,6.252l-2.882-4.086
						c8.431-5.947,14.479-7.166,20.962-7.166c7.432,0,14.034,2.99,19.625,8.891L114.596,65.221z"/>
				</g>
			</g>
		</g>
		<g>
			<g>
				<rect x="56.888" y="88.689" width="8.921" height="5"/>
			</g>
		</g>
		<g>
			<g>
				<rect x="74.684" y="88.689" width="8.789" height="5"/>
			</g>
		</g>
	</g>
	<g>
		<g>
			<rect x="104.783" y="83.986" width="5" height="36.772"/>
		</g>
		<g>
			<rect x="88.846" y="99.873" width="36.877" height="5"/>
		</g>
	</g>
</g>
</svg>
