<?xml version="1.0" encoding="utf-8"?>
<!-- Generator: Adobe Illustrator 16.0.3, SVG Export Plug-In . SVG Version: 6.00 Build 0)  -->
<!DOCTYPE svg PUBLIC "-//W3C//DTD SVG 1.1//EN" "http://www.w3.org/Graphics/SVG/1.1/DTD/svg11.dtd">
<svg version="1.1" id="Layer_1" xmlns="http://www.w3.org/2000/svg" xmlns:xlink="http://www.w3.org/1999/xlink" x="0px" y="0px"
	 width="280px" height="280px" viewBox="0 0 280 280" enable-background="new 0 0 280 280" xml:space="preserve">
<g>
	<rect x="119.975" y="61.728" width="40.049" height="6.352"/>
	<path d="M224.467,31.009H55.532c-3.859,0-7.001,3.14-7.001,7v203.978c0,3.861,3.14,7.003,7.001,7.003h168.935
		c3.859,0,7.002-3.142,7.002-7.003V38.009C231.467,34.15,228.326,31.009,224.467,31.009z M223.756,241.276H56.244V38.72h167.512
		V241.276L223.756,241.276z"/>
	<path d="M140,211.44c20.673,0,39.837-10.308,51.264-27.572c1.174-1.775,0.688-4.17-1.09-5.344
		c-1.773-1.174-4.168-0.688-5.344,1.088c-9.992,15.102-26.753,24.115-44.83,24.115c-29.62,0-53.718-24.097-53.718-53.717
		c0-29.621,24.098-53.719,53.718-53.719c17.009,0,32.648,7.801,42.909,21.402c1.282,1.699,3.7,2.037,5.401,0.756
		c1.697-1.283,2.037-3.701,0.754-5.4C177.334,97.499,159.45,88.58,140,88.58c-33.872,0-61.43,27.558-61.43,61.431
		C78.57,183.886,106.128,211.44,140,211.44z"/>
	<path d="M182.553,132.123c-7.654-4.735-13.136-5.706-19.015-5.706c-7.63,0-14.3,3.003-19.819,8.928
		c-1.453,1.557-1.365,3.997,0.191,5.449c0.742,0.693,1.688,1.035,2.629,1.035c1.031,0,2.063-0.412,2.822-1.229
		c4.059-4.354,8.697-6.473,14.179-6.473c4.004,0,8.161,0.348,14.954,4.553c0.001,0,0.002,0,0.003,0h0.001
		c7.686,4.748,13.166,5.719,19.031,5.719c7.604,0,14.271-3.006,19.814-8.938c1.455-1.554,1.373-3.996-0.183-5.449
		s-3.995-1.371-5.45,0.184c-4.084,4.369-8.725,6.492-14.184,6.492C193.532,136.69,189.382,136.341,182.553,132.123L182.553,132.123z
		"/>
	<path d="M211.709,153.916c-4.068,4.358-8.708,6.478-14.182,6.478c-4.006,0-8.166-0.35-14.965-4.556
		c-0.002-0.001-0.004-0.002-0.006-0.003c-7.643-4.744-13.131-5.718-19.02-5.718c-7.607,0-14.275,3.006-19.814,8.933
		c-1.455,1.557-1.373,3.995,0.182,5.449c0.744,0.695,1.689,1.04,2.634,1.04c1.028,0,2.058-0.41,2.815-1.224
		c4.08-4.363,8.721-6.485,14.185-6.485c4.011,0,8.172,0.349,14.948,4.558c0.006,0.002,0.011,0.004,0.014,0.006
		c7.661,4.739,13.148,5.711,19.027,5.711c7.621,0,14.287-3.004,19.816-8.928c1.455-1.556,1.369-3.996-0.188-5.447
		C215.602,152.274,213.161,152.358,211.709,153.916z"/>
</g>
</svg>
