<?xml version="1.0" encoding="utf-8"?>
<!-- Generator: Adobe Illustrator 16.0.0, SVG Export Plug-In . SVG Version: 6.00 Build 0)  -->
<!DOCTYPE svg PUBLIC "-//W3C//DTD SVG 1.1//EN" "http://www.w3.org/Graphics/SVG/1.1/DTD/svg11.dtd">
<svg version="1.1" id="Layer_1" xmlns="http://www.w3.org/2000/svg" xmlns:xlink="http://www.w3.org/1999/xlink" x="0px" y="0px"
	 width="440px" height="440px" viewBox="0 0 440 440" enable-background="new 0 0 440 440" xml:space="preserve">
<g>
	<rect x="192.833" y="113.816" width="54.334" height="8.615"/>
	<path d="M334.59,72.144H105.411c-5.236,0-9.497,4.26-9.497,9.497v276.72c0,5.236,4.261,9.496,9.497,9.496H334.59
		c5.236,0,9.496-4.26,9.496-9.496V81.64C344.086,76.403,339.826,72.144,334.59,72.144z M333.625,357.396H106.376V82.604h227.249
		V357.396z"/>
	<path d="M220.001,316.918c28.046,0,54.043-13.982,69.543-37.404c1.595-2.408,0.935-5.654-1.476-7.248
		c-2.408-1.596-5.653-0.935-7.25,1.476c-13.559,20.485-36.293,32.718-60.817,32.718c-40.184,0-72.874-32.689-72.874-72.874
		c0-40.183,32.69-72.874,72.874-72.874c23.074,0,44.292,10.583,58.212,29.034c1.74,2.306,5.02,2.765,7.326,1.025
		s2.766-5.021,1.025-7.326c-15.916-21.096-40.179-33.195-66.563-33.195c-45.952,0-83.336,37.384-83.336,83.336
		C136.665,279.534,174.049,316.918,220.001,316.918z"/>
	<path d="M277.727,209.315c-10.381-6.424-17.816-7.74-25.791-7.74c-10.353,0-19.396,4.075-26.889,12.112
		c-1.97,2.112-1.854,5.423,0.26,7.393c1.008,0.939,2.289,1.404,3.565,1.404c1.399,0,2.798-0.561,3.827-1.664
		c5.509-5.91,11.801-8.783,19.234-8.783c5.434,0,11.071,0.472,20.285,6.175c0.004,0.001,0.004,0.001,0.006,0.002l0,0
		c10.428,6.438,17.861,7.759,25.817,7.759c10.314,0,19.359-4.078,26.883-12.125c1.974-2.11,1.861-5.421-0.249-7.394
		c-2.107-1.973-5.42-1.861-7.394,0.249c-5.541,5.927-11.835,8.809-19.24,8.809c-5.418,0-11.05-0.475-20.313-6.193
		C277.729,209.316,277.729,209.315,277.727,209.315z"/>
	<path d="M317.281,238.879c-5.521,5.912-11.813,8.786-19.237,8.786c-5.437,0-11.079-0.474-20.306-6.179
		c-0.002-0.002-0.004-0.004-0.006-0.004c-10.365-6.438-17.812-7.756-25.799-7.756c-10.322,0-19.365,4.076-26.884,12.115
		c-1.973,2.11-1.86,5.422,0.249,7.395c1.01,0.943,2.291,1.41,3.571,1.41c1.396,0,2.792-0.559,3.821-1.658
		c5.535-5.922,11.828-8.801,19.24-8.801c5.439,0,11.086,0.475,20.278,6.184c0.002,0.002,0.005,0.002,0.008,0.004l0,0
		c10.398,6.436,17.843,7.751,25.822,7.751c10.34,0,19.385-4.073,26.886-12.106c1.972-2.111,1.857-5.422-0.255-7.396
		C322.561,236.654,319.252,236.768,317.281,238.879z"/>
</g>
</svg>
