<?xml version="1.0" encoding="utf-8"?>
<!-- Generator: Adobe Illustrator 16.0.0, SVG Export Plug-In . SVG Version: 6.00 Build 0)  -->
<!DOCTYPE svg PUBLIC "-//W3C//DTD SVG 1.1//EN" "http://www.w3.org/Graphics/SVG/1.1/DTD/svg11.dtd">
<svg version="1.1" id="Layer_1" xmlns="http://www.w3.org/2000/svg" xmlns:xlink="http://www.w3.org/1999/xlink" x="0px" y="0px"
	 width="160px" height="160px" viewBox="0 0 160 160" enable-background="new 0 0 160 160" xml:space="preserve">
<g>
	<g>
		<g>
			<g>
				<path d="M106.034,121.748c-10.72,0-19.438-8.816-19.438-19.65c0-7.92,4.664-15.029,11.883-18.111l0.472-0.198l1.864-0.021
					l1.511,2.142l-0.444,1.252c-0.586,1.629-0.88,3.319-0.88,5.049c0,8.078,6.478,14.649,14.438,14.649
					c1.887,0,3.722-0.364,5.453-1.084l0.476-0.2l1.817-0.002l1.506,2.133l-0.441,1.262
					C121.391,116.635,114.08,121.748,106.034,121.748z M96.012,91.543c-2.775,2.711-4.416,6.488-4.416,10.555
					c0,8.078,6.478,14.65,14.438,14.65c4.184,0,8.103-1.869,10.798-4.939c-0.462,0.033-0.928,0.051-1.395,0.051
					C104.719,111.859,96,103.044,96,92.21C96,91.986,96.004,91.766,96.012,91.543z"/>
			</g>
		</g>
	</g>
	<g>
		<g>
			<g>
				<g>
					<g>
						<path d="M80.518,117.422H53.943c-1.381,0-2.5-1.119-2.5-2.5V64.73h5v47.691h24.075V117.422z"/>
					</g>
					<g>
						<path d="M120.809,80.338h-16.14c-1.381,0-2.551-1.119-2.551-2.5V64.73h5v10.607h11.188l-0.009-16.025
							c0-1.592-0.846-3.074-2.207-3.869L97.02,43.252h-3.877c-1.179,6.604-6.938,11.633-13.845,11.633
							c-6.902,0-12.658-5.029-13.835-11.633H61.6L42.615,55.391c-0.028,0.018-0.057,0.035-0.086,0.053
							c-1.362,0.795-2.208,2.277-2.208,3.865l-0.01,16.025h13.64v5H37.809c-0.663,0-1.299-0.264-1.769-0.732
							c-0.469-0.471-0.732-1.105-0.731-1.77l0.012-18.521c0-3.344,1.777-6.463,4.641-8.158l19.562-12.508
							c0.402-0.256,0.869-0.393,1.347-0.393h6.873c1.381,0,2.5,1.119,2.5,2.5c0,5.035,4.062,9.133,9.055,9.133
							c4.999,0,9.064-4.098,9.064-9.133c0-1.381,1.119-2.5,2.5-2.5h6.888c0.478,0,0.944,0.137,1.347,0.393L118.7,51.178
							c2.804,1.639,4.599,4.773,4.599,8.131l0.01,18.527c0,0.664-0.263,1.299-0.73,1.77
							C122.107,80.074,121.473,80.338,120.809,80.338z"/>
					</g>
				</g>
			</g>
		</g>
	</g>
</g>
</svg>
