<?xml version="1.0" encoding="utf-8"?>
<!-- Generator: Adobe Illustrator 16.0.0, SVG Export Plug-In . SVG Version: 6.00 Build 0)  -->
<!DOCTYPE svg PUBLIC "-//W3C//DTD SVG 1.1//EN" "http://www.w3.org/Graphics/SVG/1.1/DTD/svg11.dtd">
<svg version="1.1" id="Layer_1" xmlns="http://www.w3.org/2000/svg" xmlns:xlink="http://www.w3.org/1999/xlink" x="0px" y="0px"
	 width="96px" height="96px" viewBox="0 0 96 96" enable-background="new 0 0 96 96" xml:space="preserve">
<g id="Layer_1_1_">
</g>
<g id="Icon">
	<g>
		<g>
			<g>
				<g>
					<g>
						<rect x="3.311" y="58.03" transform="matrix(0.7071 0.7071 -0.7071 0.7071 56.9098 -16.1916)" width="89.378" height="5.14"/>
					</g>
				</g>
			</g>
		</g>
		<g>
			<g>
				<g>
					<g>
						<g>
							<g>
								<g>
									<g>
										<path d="M60.4,96.07H36.3c-3.843,0-6.97-3.127-6.97-6.971V40.9c0-3.843,3.127-6.97,6.97-6.97H60.4
											c3.843,0,6.97,3.127,6.97,6.97v48.2C67.37,92.943,64.243,96.07,60.4,96.07z M36.3,39.07c-0.975,0-1.83,0.855-1.83,1.83
											v48.2c0,0.975,0.855,1.83,1.83,1.83H60.4c0.975,0,1.829-0.855,1.829-1.83V40.9c0-0.975-0.854-1.83-1.829-1.83H36.3z"/>
									</g>
								</g>
								<path d="M52.7,86.771h-9.5c-1.419,0-2.57-1.15-2.57-2.57s1.151-2.57,2.57-2.57h9.5c1.42,0,2.57,1.15,2.57,2.57
									S54.12,86.771,52.7,86.771z"/>
							</g>
						</g>
					</g>
				</g>
			</g>
			<g>
				<g>
					<g>
						<path d="M29.185,28.75l-3.569-3.699c12.37-11.936,32.412-11.933,44.678,0.008l-3.586,3.684
							C56.41,18.717,39.576,18.722,29.185,28.75z"/>
						<path d="M17.928,17.907l-3.655-3.614C23.271,5.192,35.232,0.18,47.95,0.18c0,0,0,0,0,0c12.718,0,24.678,5.012,33.677,14.113
							l-3.656,3.614C69.946,9.791,59.285,5.32,47.95,5.32C36.616,5.32,25.954,9.791,17.928,17.907z"/>
					</g>
				</g>
			</g>
		</g>
	</g>
</g>
</svg>
