<?xml version="1.0" encoding="utf-8"?>
<!-- Generator: Adobe Illustrator 16.0.0, SVG Export Plug-In . SVG Version: 6.00 Build 0)  -->
<!DOCTYPE svg PUBLIC "-//W3C//DTD SVG 1.1//EN" "http://www.w3.org/Graphics/SVG/1.1/DTD/svg11.dtd">
<svg version="1.1" id="Layer_1" xmlns="http://www.w3.org/2000/svg" xmlns:xlink="http://www.w3.org/1999/xlink" x="0px" y="0px"
	 width="160px" height="160px" viewBox="0 0 160 160" enable-background="new 0 0 160 160" xml:space="preserve">
<g>
	<path d="M87.548,108.137l-15.159-0.012v-7.424l-7.421-0.031V85.637l7.421-0.041v-7.467l15.159,0.055v7.442h7.487v15.054h-7.487
		V108.137L87.548,108.137z M76.389,104.129l7.159,0.004v-7.455h7.487v-7.053h-7.487v-7.457l-7.159-0.025v7.433l-7.421,0.041v7.071
		l7.421,0.031V104.129z"/>
	<g>
		<path d="M80.023,123.998c-0.009,0-0.017,0-0.024,0c-1.381,0-2.499-1.121-2.498-2.502c0.001-1.379,1.12-2.498,2.5-2.498
			c0.01,0.002,0.015,0,0.022,0c4.25,0,8.467-1.16,12.192-3.355c11.73-6.94,15.768-22.383,8.995-34.422
			c-0.677-1.203-0.25-2.728,0.953-3.404c1.203-0.679,2.728-0.251,3.403,0.953c8.097,14.391,3.246,32.863-10.811,41.178
			C90.26,122.598,85.166,123.998,80.023,123.998z"/>
		<path d="M103.393,82.496c-0.875,0-1.723-0.459-2.182-1.275l-23.34-41.496c-0.677-1.204-0.25-2.728,0.953-3.405
			c1.204-0.677,2.728-0.25,3.404,0.954l23.34,41.496c0.677,1.204,0.25,2.728-0.953,3.404
			C104.229,82.393,103.807,82.496,103.393,82.496z"/>
		<path d="M79.981,123.998c-5.148,0-10.241-1.4-14.73-4.051c-14.063-8.314-18.915-26.787-10.816-41.178
			c0.677-1.202,2.202-1.631,3.405-0.953c1.203,0.677,1.63,2.202,0.953,3.405c-6.775,12.038-2.737,27.481,9.002,34.422
			c3.718,2.194,7.932,3.354,12.187,3.354c0.008,0,0.014,0.002,0.022,0c1.38,0,2.499,1.119,2.5,2.498
			C82.505,122.885,81.376,124.045,79.981,123.998z"/>
		<path d="M56.611,82.496c-0.415,0-0.836-0.104-1.223-0.322c-1.204-0.677-1.63-2.201-0.953-3.404l23.343-41.496
			c0.678-1.204,2.202-1.63,3.404-0.953c1.203,0.677,1.631,2.201,0.953,3.404L58.792,81.221
			C58.334,82.037,57.485,82.496,56.611,82.496z"/>
	</g>
</g>
</svg>
