<?xml version="1.0" encoding="utf-8"?>
<!-- Generator: Adobe Illustrator 16.0.0, SVG Export Plug-In . SVG Version: 6.00 Build 0)  -->
<!DOCTYPE svg PUBLIC "-//W3C//DTD SVG 1.1//EN" "http://www.w3.org/Graphics/SVG/1.1/DTD/svg11.dtd">
<svg version="1.1" id="Layer_1" xmlns="http://www.w3.org/2000/svg" xmlns:xlink="http://www.w3.org/1999/xlink" x="0px" y="0px"
	 width="160px" height="160px" viewBox="0 0 160 160" enable-background="new 0 0 160 160" xml:space="preserve">
<g>
	<g>
		<g>
			<path d="M126.827,120.891H84.382v-5h42.445V120.891z M126.827,110.021H94.395c-6.129,0-11.117-4.987-11.117-11.117
				c0-6.131,4.988-11.118,11.117-11.118c6.131,0,11.119,4.987,11.119,11.118h-5c0-3.375-2.746-6.118-6.119-6.118
				s-6.117,2.745-6.117,6.118s2.744,6.117,6.117,6.117h32.434L126.827,110.021L126.827,110.021z"/>
		</g>
	</g>
	<g>
		<g>
			<g>
				<g>
					<path d="M76.373,121H52.39c-1.381,0-2.5-1.119-2.5-2.5V66.394h5V116h21.483V121z"/>
				</g>
				<g>
					<path d="M121.673,82.5h-16.722c-1.381,0-2.555-1.119-2.555-2.5V66.394h5V77.5h11.775l-0.008-16.73
						c0-1.688-0.895-3.257-2.334-4.101L97.048,44H92.93c-1.181,6.851-7.13,12.077-14.269,12.077c-7.134,0-13.079-5.226-14.26-12.077
						h-4.103L40.604,56.617c-0.028,0.018-0.057,0.036-0.085,0.052c-1.44,0.843-2.334,2.412-2.334,4.094l-0.01,16.734h14.223v5
						H35.673c-0.663,0-1.299-0.265-1.768-0.733c-0.469-0.469-0.732-1.104-0.732-1.769l0.012-19.229c0-3.436,1.823-6.642,4.762-8.385
						l20.271-12.987C58.62,39.137,59.088,39,59.566,39h7.122c1.381,0,2.5,1.119,2.5,2.5c0,5.281,4.25,9.577,9.473,9.577
						c5.229,0,9.481-4.296,9.481-9.577c0-1.381,1.119-2.5,2.5-2.5h7.139c0.478,0,0.945,0.137,1.349,0.395l20.312,13.012
						c2.881,1.684,4.724,4.906,4.724,8.356l0.01,19.235c0,0.664-0.263,1.3-0.731,1.77C122.973,82.236,122.336,82.5,121.673,82.5z"/>
				</g>
			</g>
		</g>
	</g>
</g>
</svg>
