<?xml version="1.0" encoding="utf-8"?>
<!-- Generator: Adobe Illustrator 16.0.0, SVG Export Plug-In . SVG Version: 6.00 Build 0)  -->
<!DOCTYPE svg PUBLIC "-//W3C//DTD SVG 1.1//EN" "http://www.w3.org/Graphics/SVG/1.1/DTD/svg11.dtd">
<svg version="1.1" id="Layer_1" xmlns="http://www.w3.org/2000/svg" xmlns:xlink="http://www.w3.org/1999/xlink" x="0px" y="0px"
	 width="156px" height="156px" viewBox="0 0 156 156" enable-background="new 0 0 156 156" xml:space="preserve">
<path d="M122.68,102.484c0-6.591-5.181-11.979-11.636-12.215c-2.224-3.371-5.932-5.406-10.019-5.406
	c-4.083,0-7.791,2.035-10.019,5.406c-6.455,0.237-11.634,5.625-11.634,12.215c0,5.434,3.479,10.066,8.409,11.642
	c0.007,6.271,4.988,11.372,11.112,11.372c0.723,0,1.443-0.088,2.153-0.232c0.716,0.145,1.438,0.232,2.155,0.232
	c6.125,0,11.107-5.107,11.107-11.385v-0.001C119.218,112.525,122.68,107.904,122.68,102.484z M92.788,114.408
	c3.114,0.185,5.612,2.816,5.754,6.079C95.428,120.302,92.931,117.671,92.788,114.408z M103.556,120.487
	c0.142-3.259,2.637-5.889,5.748-6.078C109.161,117.671,106.666,120.302,103.556,120.487z M111.696,109.611
	c-0.691-0.131-1.375-0.213-2.032-0.213c-3.473,0-6.576,1.642-8.616,4.204c-2.435-3.065-6.386-4.8-10.658-3.985
	c-3.452-0.527-6.017-3.53-6.017-7.133c0-3.982,3.175-7.223,7.076-7.223c0.249,0,0.497,0.016,0.736,0.039
	c1.044,0.098,2.037-0.456,2.494-1.398c1.207-2.491,3.639-4.039,6.346-4.039c2.71,0,5.141,1.547,6.343,4.036
	c0.455,0.943,1.45,1.503,2.491,1.401c0.245-0.023,0.493-0.039,0.746-0.039c3.9,0,7.074,3.24,7.074,7.223
	C117.68,106.077,115.132,109.071,111.696,109.611z M57.703,84.557h-5v9.51h-9.515l0.011-18.207c0-1.333,0.693-2.53,1.895-3.228
	l17.451-10.545C64.096,68.086,70.432,72.594,78,72.594c7.597,0,13.955-4.534,15.483-10.561l17.186,10.385
	c0.105,0.087,0.219,0.166,0.341,0.236c1.162,0.675,1.855,1.872,1.855,3.205v1.322h5v-1.322c0-2.924-1.492-5.665-3.926-7.27
	c-0.103-0.087-0.213-0.166-0.33-0.237L92.254,55.449L75.549,44.413c-1.064-0.751-1.773-1.876-1.998-3.168
	c-0.462-2.664,1.314-5.206,3.964-5.667c1.271-0.224,2.556,0.061,3.615,0.805c1.07,0.751,1.783,1.878,2.009,3.174l4.926-0.854
	c-0.453-2.614-1.896-4.891-4.062-6.412c-2.152-1.512-4.765-2.094-7.352-1.638c-5.358,0.934-8.959,6.068-8.026,11.447
	c0.451,2.605,1.887,4.878,4.104,6.442l0.816,0.54l-9.638,6.342L42.547,68.33c-2.682,1.555-4.348,4.44-4.348,7.528l-0.012,20.508
	c-0.005,0.065-0.008,0.133-0.008,0.2c0,1.381,1.119,2.5,2.5,2.5h12.023v23.936c0,1.381,1.119,2.5,2.5,2.5h24.924v-5H57.703V84.557z
	 M88.922,59.24h-0.084c0,4.606-4.862,8.354-10.838,8.354c-5.963,0-10.813-3.738-10.825-8.337l10.909-7.178L88.922,59.24z"/>
</svg>
