<?xml version="1.0" encoding="utf-8"?>
<!-- Generator: Adobe Illustrator 16.0.0, SVG Export Plug-In . SVG Version: 6.00 Build 0)  -->
<!DOCTYPE svg PUBLIC "-//W3C//DTD SVG 1.1//EN" "http://www.w3.org/Graphics/SVG/1.1/DTD/svg11.dtd">
<svg version="1.1" id="Layer_1" xmlns="http://www.w3.org/2000/svg" xmlns:xlink="http://www.w3.org/1999/xlink" x="0px" y="0px"
	 width="160px" height="160px" viewBox="0 0 160 160" enable-background="new 0 0 160 160" xml:space="preserve">
<g>
	<g>
		<path d="M109.258,117.779H51.713c-1.725,0-3.295-1.271-3.653-2.959L34.906,52.91l4.891-1.039l12.94,60.908h54.52l12.946-60.908
			l4.891,1.039l-13.158,61.912C111.7,115.928,111.307,117.779,109.258,117.779z"/>
	</g>
	<g>
		<g>
			<path d="M57.252,81.674c-6.596-0.632-12.512-3.395-17.585-8.214l3.443-3.625c4.303,4.087,9.085,6.332,14.618,6.861L57.252,81.674
				z"/>
		</g>
		<g>
			<path d="M116.109,76.961c-4.133-3.7-8.695-5.744-13.95-6.25l0.479-4.977c6.266,0.603,11.92,3.126,16.807,7.502L116.109,76.961z"
				/>
		</g>
	</g>
	<g>
		<g>
			<path fill="#FFFFFF" d="M101.411,75.353c0,5.456,0,10.348,0,15.674c0,2.377-1.802,4.322-4.163,4.344
				c-2.359,0.021-4.141-1.891-4.161-4.268v7.668c0.021,2.381-1.801,4.326-4.162,4.346c-2.362,0.02-4.142-1.891-4.161-4.268v2.726
				c0.021,2.38-1.8,4.321-4.162,4.343c-2.361,0.021-4.143-1.891-4.164-4.268v-5.82c0,2.795-1.801,4.627-4.162,4.65
				c-2.361,0.019-4.142-1.893-4.163-4.271V65.842c0,0-6.378,11.654-6.437,11.71c-0.758,1.104-2.02,1.833-3.455,1.85
				c-2.346,0.02-4.262-1.88-4.283-4.244c-0.009-1.003,0.449-1.92,0.748-2.856c1.048-3.276,2.614-6.175,4.125-9.259l3.442-6.397
				c0,0,9.067-14.702,23.733-11.788C99.064,47.458,101.51,61.636,101.411,75.353z"/>
			<path d="M80.563,108.174c-3.292,0-5.945-2.464-6.333-5.738c-0.603,0.19-1.251,0.293-1.933,0.301h-0.001
				c-3.603,0-6.407-2.857-6.439-6.506V74.657c-1.5,2.731-2.065,3.735-2.336,4.161l0.016,0.011c-1.198,1.747-3.175,2.804-5.289,2.829
				h-0.001c-3.616,0-6.533-2.906-6.565-6.479c-0.01-1.161,0.35-2.151,0.639-2.947c0.075-0.205,0.15-0.41,0.215-0.615
				c0.919-2.875,2.215-5.476,3.468-7.991c0.26-0.521,0.521-1.045,0.78-1.574l3.481-6.474c0.021-0.04,0.043-0.078,0.066-0.116
				c0.333-0.541,8.323-13.241,21.826-13.241c1.411,0,2.847,0.143,4.268,0.425c17.452,3.468,17.293,25.488,17.241,32.724v15.659
				c0,3.666-2.811,6.564-6.398,6.599c-0.674,0-1.32-0.101-1.926-0.286v1.432c0.029,3.602-2.841,6.571-6.398,6.602
				c-0.981,0-1.902-0.211-2.726-0.593c-1.091,2.001-3.187,3.372-5.598,3.394C80.613,108.173,80.57,108.174,80.563,108.174z
				 M78.694,95.83v5.82c0.01,1.138,0.814,2.012,1.869,2.012v2.256l0.019-2.256c1.089-0.01,1.937-0.918,1.927-2.068V98.85
				c0-1.242,1.006-2.252,2.247-2.257c0.003,0,0.007,0,0.009,0c1.238,0,2.246,0.999,2.256,2.238c0.01,1.158,0.813,2.03,1.869,2.03
				c1.106-0.008,1.952-0.918,1.942-2.07v-7.688c0-1.242,1.004-2.25,2.246-2.256c0.003,0,0.007,0,0.01,0
				c1.238,0,2.245,0.998,2.256,2.236c0.011,1.159,0.813,2.032,1.867,2.032c1.117-0.011,1.944-0.908,1.944-2.087V75.353
				c0.125-17.43-4.198-26.412-13.607-28.282c-1.132-0.225-2.271-0.339-3.388-0.339c-10.59,0-17.449,10.268-17.958,11.055
				l-3.403,6.325c-0.225,0.462-0.49,0.995-0.754,1.525c-1.232,2.473-2.395,4.808-3.209,7.353c-0.083,0.261-0.178,0.522-0.273,0.784
				c-0.191,0.525-0.371,1.021-0.368,1.365c0.01,1.107,0.903,2.008,1.991,2.008c0.636-0.007,1.225-0.313,1.596-0.82
				c0.447-0.786,4.003-7.271,6.354-11.566c0.495-0.904,1.541-1.359,2.538-1.103c0.999,0.255,1.697,1.155,1.697,2.186v30.367
				c0.01,1.141,0.815,2.016,1.872,2.016c1.203-0.013,1.941-0.93,1.941-2.395c0-1.246,1.01-2.256,2.256-2.256
				S78.694,94.584,78.694,95.83z"/>
		</g>
		<g>
			<line fill="none" x1="76.438" y1="95.83" x2="76.438" y2="79.411"/>
			<rect x="74.181" y="79.411" width="4.513" height="16.419"/>
		</g>
		<g>
			<line fill="none" x1="84.764" y1="98.85" x2="84.764" y2="79.411"/>
			<rect x="82.507" y="79.411" width="4.513" height="19.438"/>
		</g>
		<g>
			<line fill="none" x1="93.087" y1="91.048" x2="93.087" y2="78.741"/>
			<rect x="90.831" y="78.741" width="4.513" height="12.307"/>
		</g>
	</g>
</g>
</svg>
