<?xml version="1.0" encoding="utf-8"?>
<!-- Generator: Adobe Illustrator 16.0.0, SVG Export Plug-In . SVG Version: 6.00 Build 0)  -->
<!DOCTYPE svg PUBLIC "-//W3C//DTD SVG 1.1//EN" "http://www.w3.org/Graphics/SVG/1.1/DTD/svg11.dtd">
<svg version="1.1" id="Layer_1" xmlns="http://www.w3.org/2000/svg" xmlns:xlink="http://www.w3.org/1999/xlink" x="0px" y="0px"
	 width="160px" height="160px" viewBox="0 0 160 160" enable-background="new 0 0 160 160" xml:space="preserve">
<g>
	<g>
		<g>
			<g>
				<path d="M86.836,119.383c-1.482,0-3.061-1.162-3.061-3.318V89.239c0-2.156,1.578-3.319,3.061-3.319
					c0.734,0,1.467,0.264,2.119,0.764l17.094,13.098c0.926,0.709,1.457,1.756,1.457,2.871c0,1.117-0.531,2.162-1.457,2.873
					l-17.094,13.097C88.305,119.12,87.57,119.383,86.836,119.383z M88.775,92.846v19.613l12.8-9.807L88.775,92.846z"/>
			</g>
		</g>
		<g>
			<g>
				<path d="M106.234,119.377c-1.479,0-3.049-1.161-3.049-3.313V89.239c0-2.152,1.571-3.313,3.049-3.313
					c0.746,0,1.486,0.272,2.144,0.787l16.672,13.072c0.91,0.714,1.431,1.759,1.431,2.867s-0.521,2.154-1.43,2.867l-16.673,13.07
					C107.721,119.105,106.98,119.377,106.234,119.377z M108.186,92.917v19.47l12.418-9.734L108.186,92.917z"/>
			</g>
		</g>
	</g>
	<g>
		<g>
			<g>
				<g>
					
						<rect x="114.532" y="40.718" transform="matrix(-0.9784 -0.2068 0.2068 -0.9784 219.1705 142.443)" width="5" height="38.092"/>
				</g>
			</g>
			<g>
				<g>
					<path d="M75.8,106.634H50.28c-1.725,0-3.295-1.272-3.652-2.961L33.52,41.651l4.892-1.034l12.896,61.017H75.8V106.634z"/>
				</g>
			</g>
		</g>
		<g>
			<g>
				<g>
					<path d="M58.869,72.852c-7.849,0-14.769-3.333-20.568-9.907l3.75-3.308c4.875,5.528,10.377,8.215,16.818,8.215
						c4.682,0,9.94-0.485,18.149-6.287l2.886,4.083C71.445,71.627,65.377,72.852,58.869,72.852z"/>
				</g>
			</g>
			<g>
				<g>
					<path d="M114.1,66.74c-4.689-4.964-9.94-7.378-16.052-7.378c-4.68,0-9.937,0.486-18.143,6.291l-2.888-4.082
						c8.458-5.983,14.524-7.209,21.03-7.209c7.456,0,14.079,3.009,19.688,8.944L114.1,66.74z"/>
				</g>
			</g>
		</g>
	</g>
</g>
</svg>
