<?xml version="1.0" encoding="utf-8"?>
<!-- Generator: Adobe Illustrator 16.0.0, SVG Export Plug-In . SVG Version: 6.00 Build 0)  -->
<!DOCTYPE svg PUBLIC "-//W3C//DTD SVG 1.1//EN" "http://www.w3.org/Graphics/SVG/1.1/DTD/svg11.dtd">
<svg version="1.1" id="Layer_1" xmlns="http://www.w3.org/2000/svg" xmlns:xlink="http://www.w3.org/1999/xlink" x="0px" y="0px"
	 width="160px" height="160px" viewBox="0 0 160 160" enable-background="new 0 0 160 160" xml:space="preserve">
<g>
	<g>
		<g>
			<path d="M104.986,123.502c-10.487,0-19.02-8.523-19.02-19.001S94.499,85.5,104.986,85.5c10.5,0,19.043,8.523,19.043,19.001
				S115.486,123.502,104.986,123.502z M104.986,90.5c-7.73,0-14.02,6.281-14.02,14.001s6.289,14.001,14.02,14.001
				c7.744,0,14.043-6.281,14.043-14.001S112.73,90.5,104.986,90.5z"/>
		</g>
		<g>
			<path d="M97.313,106.995c-1.381,0-2.5-1.119-2.5-2.5c0-5.657,4.566-10.261,10.18-10.261c1.381,0,2.5,1.119,2.5,2.5
				c0,1.382-1.119,2.5-2.5,2.5c-2.855,0-5.18,2.359-5.18,5.261C99.813,105.876,98.693,106.995,97.313,106.995z"/>
		</g>
	</g>
	<path d="M120.768,49.905l-20.312-13.012c-0.403-0.258-0.871-0.396-1.349-0.396h-7.137c-1.382,0-2.5,1.119-2.5,2.5
		c0,5.281-4.254,9.577-9.482,9.577c-5.224,0-9.474-4.296-9.474-9.577c0-1.381-1.119-2.5-2.5-2.5h-7.122
		c-0.478,0-0.946,0.138-1.349,0.396L39.273,49.88c-2.938,1.743-4.762,4.949-4.762,8.385L34.5,77.592c0,0.663,0.263,1.3,0.732,1.769
		c0.469,0.47,1.105,0.733,1.768,0.733h14.217v35.904c0,1.381,1.119,2.5,2.5,2.5h25.838v-5H56.217V63.893h-5v11.201H39.501
		l0.01-16.832c0-1.683,0.895-3.251,2.334-4.095c0.029-0.017,0.057-0.034,0.085-0.052l19.693-12.617h4.103
		c1.181,6.852,7.126,12.077,14.261,12.077c7.139,0,13.087-5.226,14.269-12.077h4.119l19.779,12.669
		c1.441,0.844,2.336,2.413,2.336,4.101l0.008,16.73h-11.723v-11.33h-5v13.83c0,1.381,1.119,2.5,2.5,2.5H123
		c0.663,0,1.299-0.264,1.768-0.732c0.469-0.47,0.732-1.105,0.732-1.769l-0.009-19.235C125.491,54.812,123.648,51.59,120.768,49.905z
		"/>
</g>
</svg>
