<?xml version="1.0" encoding="utf-8"?>
<!-- Generator: Adobe Illustrator 16.0.0, SVG Export Plug-In . SVG Version: 6.00 Build 0)  -->
<!DOCTYPE svg PUBLIC "-//W3C//DTD SVG 1.1//EN" "http://www.w3.org/Graphics/SVG/1.1/DTD/svg11.dtd">
<svg version="1.1" id="Layer_1" xmlns="http://www.w3.org/2000/svg" xmlns:xlink="http://www.w3.org/1999/xlink" x="0px" y="0px"
	 width="156px" height="156px" viewBox="0 0 156 156" enable-background="new 0 0 156 156" xml:space="preserve">
<g>
	<path d="M82.912,92.213c-1.381,0-2.5,1.119-2.5,2.5v23.305H44.01V42.672l36.402,0.18v4.428c0,1.381,1.119,2.5,2.5,2.5
		s2.5-1.119,2.5-2.5v-6.916c0-1.376-1.111-2.493-2.487-2.5L41.522,37.66c-0.639-0.017-1.304,0.259-1.775,0.728
		c-0.472,0.469-0.737,1.107-0.737,1.772v80.357c0,1.381,1.119,2.5,2.5,2.5h41.402c1.381,0,2.5-1.119,2.5-2.5V94.713
		C85.412,93.332,84.293,92.213,82.912,92.213z"/>
	<path d="M121.975,54.63c-0.007-0.094-0.013-0.187-0.029-0.28c-0.012-0.07-0.03-0.138-0.049-0.207
		c-0.022-0.09-0.049-0.179-0.082-0.266c-0.023-0.062-0.054-0.12-0.082-0.179c-0.043-0.089-0.086-0.175-0.141-0.259
		c-0.031-0.05-0.066-0.096-0.104-0.143c-0.062-0.083-0.125-0.164-0.197-0.24c-0.041-0.042-0.086-0.08-0.129-0.12
		c-0.057-0.051-0.104-0.107-0.166-0.154c-0.023-0.019-0.053-0.03-0.078-0.047c-0.043-0.03-0.091-0.055-0.137-0.083
		c-0.098-0.059-0.193-0.116-0.297-0.161c-0.034-0.015-0.071-0.025-0.107-0.039c-0.119-0.045-0.238-0.086-0.361-0.112
		c-0.029-0.006-0.062-0.008-0.092-0.014c-0.135-0.024-0.27-0.04-0.404-0.041c-0.011,0-0.02-0.003-0.029-0.003h-12.229
		c-1.382,0-2.5,1.119-2.5,2.5c0,1.381,1.118,2.5,2.5,2.5h6.701c-3.516,3.318-6.32,3.868-8.674,3.868
		c-3.16,0-5.773-0.508-11.286-3.286C87.802,54.7,84.1,54.051,80.45,54.051c-5.435,0-10.207,2.037-14.183,6.053
		c-0.972,0.981-0.964,2.564,0.018,3.535c0.487,0.483,1.123,0.724,1.759,0.724c0.644,0,1.288-0.248,1.776-0.741
		c3.045-3.075,6.522-4.57,10.63-4.57c3.014,0,5.954,0.547,11.291,3.271c0.002,0.001,0.004,0.001,0.007,0.002
		c0.002,0.001,0.003,0.002,0.005,0.003c6.375,3.212,9.677,3.821,13.536,3.821c4.285,0,8.042-1.537,11.699-4.855v5.72
		c0,1.381,1.119,2.5,2.5,2.5c1.382,0,2.5-1.119,2.5-2.5v-12.23C121.988,54.731,121.977,54.682,121.975,54.63z"/>
	<path d="M121.945,79.928c-0.012-0.07-0.031-0.138-0.049-0.205c-0.023-0.091-0.049-0.18-0.084-0.267
		c-0.022-0.062-0.052-0.12-0.08-0.179c-0.043-0.09-0.088-0.176-0.142-0.26c-0.032-0.051-0.067-0.097-0.103-0.144
		c-0.063-0.084-0.127-0.164-0.198-0.24c-0.041-0.043-0.085-0.079-0.129-0.118c-0.056-0.052-0.104-0.108-0.166-0.155
		c-0.024-0.019-0.054-0.029-0.077-0.047c-0.045-0.031-0.093-0.057-0.141-0.084c-0.096-0.058-0.19-0.115-0.291-0.159
		c-0.038-0.017-0.078-0.027-0.118-0.042c-0.115-0.043-0.231-0.083-0.353-0.109c-0.033-0.007-0.067-0.01-0.103-0.016
		c-0.131-0.022-0.263-0.038-0.394-0.04c-0.012,0-0.021-0.003-0.033-0.003h-12.229c-1.381,0-2.5,1.12-2.5,2.5s1.119,2.5,2.5,2.5
		h6.702c-3.517,3.315-6.319,3.867-8.674,3.867c-3.16,0-5.772-0.508-11.286-3.285c-6.199-3.164-9.9-3.813-13.553-3.813
		c-5.438,0-10.209,2.036-14.184,6.053c-0.971,0.98-0.963,2.563,0.018,3.534c0.487,0.482,1.123,0.724,1.759,0.724
		c0.644,0,1.288-0.246,1.777-0.74c3.043-3.075,6.521-4.569,10.63-4.569c3.016,0,5.955,0.548,11.291,3.271
		c0.002,0.002,0.005,0.003,0.007,0.004s0.003,0.002,0.005,0.003c6.375,3.212,9.676,3.819,13.536,3.819
		c4.286,0,8.042-1.537,11.7-4.854v5.719c0,1.381,1.119,2.5,2.5,2.5s2.5-1.119,2.5-2.5V80.361c0-0.053-0.014-0.103-0.016-0.153
		C121.968,80.114,121.962,80.021,121.945,79.928z"/>
</g>
</svg>
