<?xml version="1.0" encoding="utf-8"?>
<!-- Generator: Adobe Illustrator 16.0.0, SVG Export Plug-In . SVG Version: 6.00 Build 0)  -->
<!DOCTYPE svg PUBLIC "-//W3C//DTD SVG 1.1//EN" "http://www.w3.org/Graphics/SVG/1.1/DTD/svg11.dtd">
<svg version="1.1" id="Layer_1" xmlns="http://www.w3.org/2000/svg" xmlns:xlink="http://www.w3.org/1999/xlink" x="0px" y="0px"
	 width="160px" height="160px" viewBox="0 0 160 160" enable-background="new 0 0 160 160" xml:space="preserve">
<g>
	<g>
		<g>
			<path d="M109.184,103.282c-2.476,0-4.713-0.403-8.824-2.464c-3.176-1.619-4.813-1.936-6.576-1.936
				c-2.278,0-4.213,0.838-5.912,2.559l-3.559-3.514c2.65-2.684,5.836-4.045,9.471-4.045c2.867,0,5.344,0.693,8.833,2.473
				c3.266,1.638,4.722,1.927,6.567,1.927c1.77,0,3.817-0.546,6.801-4.5l2.359-2.921l3.887,3.146l-2.308,2.853
				C116.591,101.279,113.262,103.282,109.184,103.282z"/>
			<polygon points="123.675,101.771 119.675,101.771 119.675,92.998 111.691,92.998 111.691,88.998 123.675,88.998 			"/>
		</g>
		<g>
			<path d="M109.184,121.089c-2.477,0-4.715-0.403-8.824-2.467c-3.176-1.616-4.814-1.933-6.576-1.933
				c-2.278,0-4.213,0.838-5.913,2.559l-3.558-3.514c2.65-2.685,5.838-4.045,9.471-4.045c2.863,0,5.341,0.692,8.831,2.471
				c3.268,1.639,4.723,1.929,6.569,1.929c1.771,0,3.818-0.546,6.799-4.502l2.363-2.919l3.885,3.146l-2.309,2.85
				C116.593,119.086,113.264,121.089,109.184,121.089z"/>
			<polygon points="123.675,119.578 119.675,119.578 119.675,110.805 111.691,110.805 111.691,106.805 123.675,106.805 			"/>
		</g>
	</g>
	<g>
		<g>
			<defs>
				<polygon id="SVGID_1_" points="127.911,82.588 79.841,82.588 72.911,82.588 72.911,127.779 31.913,127.779 31.913,32.288 
					127.911,32.288 				"/>
			</defs>
			<clipPath id="SVGID_2_">
				<use xlink:href="#SVGID_1_"  overflow="visible"/>
			</clipPath>
			<g clip-path="url(#SVGID_2_)">
				<g>
					<g>
						<path d="M79.841,120.798H53.628c-1.381,0-2.5-1.118-2.5-2.5V70.187h5v45.611h23.713V120.798z"/>
						<path d="M53.635,82.293H36.911c-0.663,0-1.299-0.264-1.768-0.732c-0.469-0.47-0.732-1.104-0.732-1.769l0.012-19.234
							c0-3.436,1.823-6.643,4.762-8.386l20.271-12.988c0.402-0.258,0.871-0.396,1.349-0.396h7.122c1.381,0,2.5,1.119,2.5,2.5
							c0,5.282,4.25,9.579,9.473,9.579c5.228,0,9.482-4.297,9.482-9.579c0-1.381,1.119-2.5,2.5-2.5h7.138
							c0.479,0,0.946,0.138,1.35,0.396l20.313,13.014c2.881,1.685,4.723,4.907,4.723,8.357l0.01,19.235
							c0,0.663-0.264,1.3-0.73,1.769c-0.469,0.469-1.105,0.732-1.77,0.732h-16.723c-1.381,0-2.555-1.119-2.555-2.5v-9.604h5v7.104
							h11.775l-0.01-16.73c0-1.688-0.895-3.258-2.334-4.102l-19.78-12.671H94.17c-1.182,6.852-7.13,12.079-14.269,12.079
							c-7.134,0-13.079-5.228-14.26-12.079h-4.102L41.843,56.407c-0.028,0.018-0.057,0.035-0.085,0.052
							c-1.44,0.844-2.335,2.413-2.335,4.096l-0.01,16.738h14.223v5H53.635z"/>
					</g>
				</g>
			</g>
		</g>
	</g>
</g>
</svg>
