<?xml version="1.0" encoding="utf-8"?>
<!-- Generator: Adobe Illustrator 16.0.0, SVG Export Plug-In . SVG Version: 6.00 Build 0)  -->
<!DOCTYPE svg PUBLIC "-//W3C//DTD SVG 1.1//EN" "http://www.w3.org/Graphics/SVG/1.1/DTD/svg11.dtd">
<svg version="1.1" id="Layer_1" xmlns="http://www.w3.org/2000/svg" xmlns:xlink="http://www.w3.org/1999/xlink" x="0px" y="0px"
	 width="160px" height="160px" viewBox="0 0 160 160" enable-background="new 0 0 160 160" xml:space="preserve">
<g>
	<g>
		<g>
			<g>
				<g>
					<g>
						<g>
							<rect x="52.135" y="63.966" width="5" height="31.442"/>
						</g>
						<g>
							<rect x="102.525" y="63.966" width="5" height="31.442"/>
						</g>
						<g>
							<path d="M121.5,79.447h-16.139l-0.053-5h13.689l-0.01-15.847c0-1.564-0.842-3.021-2.197-3.806L97.716,42.717h-3.887
								c-1.187,6.543-6.94,11.523-13.841,11.523c-6.894,0-12.645-4.979-13.83-11.522h-3.872l-18.99,12.026
								c-0.028,0.018-0.057,0.035-0.085,0.052c-1.356,0.785-2.199,2.241-2.199,3.8l-0.01,15.849h13.64v5H38.5
								c-0.663,0-1.299-0.264-1.769-0.733C36.263,78.243,36,77.606,36,76.943l0.012-18.346c0-3.322,1.78-6.421,4.649-8.103
								l19.563-12.39c0.4-0.253,0.864-0.388,1.337-0.388h6.873c1.381,0,2.5,1.119,2.5,2.5c0,4.975,4.062,9.022,9.054,9.022
								c4.999,0,9.064-4.047,9.064-9.022c0-1.381,1.119-2.5,2.5-2.5h6.888c0.475,0,0.938,0.134,1.338,0.388l19.604,12.414
								c2.81,1.625,4.606,4.74,4.606,8.077l0.011,18.35c0,0.664-0.263,1.3-0.731,1.769C122.8,79.184,122.163,79.447,121.5,79.447z"
								/>
						</g>
					</g>
				</g>
			</g>
		</g>
	</g>
	<g>
		<g>
			<path d="M65.977,103.352l-4.641,18.932h-3.455l-3.085-14.592l-3.032,14.592H48.31l-4.614-18.932h3.27l3.111,15.271l3.059-15.244
				h3.401l3.111,15.244l3.085-15.271H65.977z"/>
		</g>
		<g>
			<path d="M82.982,103.352v18.932h-3.165v-8.211h-7.777v8.211h-3.164v-18.932h3.164v7.922h7.777v-7.922H82.982z"/>
		</g>
		<g>
			<path d="M87.465,103.352h3.164v18.932h-3.164V103.352z"/>
		</g>
		<g>
			<path d="M106.266,106.176h-4.852v16.106H98.25v-16.106h-4.826v-2.824h7.99h4.852V106.176z"/>
		</g>
		<g>
			<path d="M121.109,119.484v2.799h-12.076v-18.932h11.734v2.797h-8.57v5.047h6.328v2.824h-6.328v5.465H121.109L121.109,119.484z"/>
		</g>
	</g>
</g>
</svg>
