<?xml version="1.0" encoding="utf-8"?>
<!-- Generator: Adobe Illustrator 16.0.0, SVG Export Plug-In . SVG Version: 6.00 Build 0)  -->
<!DOCTYPE svg PUBLIC "-//W3C//DTD SVG 1.1//EN" "http://www.w3.org/Graphics/SVG/1.1/DTD/svg11.dtd">
<svg version="1.1" id="Layer_1" xmlns="http://www.w3.org/2000/svg" xmlns:xlink="http://www.w3.org/1999/xlink" x="0px" y="0px"
	 width="160px" height="160px" viewBox="0 0 160 160" enable-background="new 0 0 160 160" xml:space="preserve">
<g>
	<g>
		<g>
			<g>
				<path d="M80.5,125.5C55.411,125.5,35,105.089,35,80s20.411-45.5,45.5-45.5c17.925,0,34.236,10.576,41.557,26.944l-4.564,2.041
					C110.977,48.915,96.456,39.5,80.5,39.5C58.168,39.5,40,57.668,40,80s18.168,40.5,40.5,40.5c18.59,0,34.738-12.57,39.273-30.57
					l4.849,1.221C119.527,111.375,101.384,125.5,80.5,125.5z"/>
			</g>
			<g>
				<polygon points="125,66.5 104.5,66.5 104.5,61.5 120,61.5 120,46 125,46 				"/>
			</g>
		</g>
	</g>
	<g>
		<g>
			<path d="M80.002,103c-1.381,0-2.5-1.119-2.5-2.5s1.119-2.5,2.5-2.5c5.789,0,10.498-4.432,10.498-9.878
				c0-1.412-0.311-2.772-0.921-4.045c-0.599-1.245-0.074-2.738,1.17-3.336c1.246-0.597,2.737-0.073,3.336,1.17
				c0.938,1.953,1.415,4.043,1.415,6.211C95.5,96.326,88.548,103,80.002,103z"/>
		</g>
		<g>
			<path d="M80.002,103C71.454,103,64.5,96.326,64.5,88.122c0-2.162,0.476-4.25,1.415-6.208c0.597-1.246,2.09-1.771,3.335-1.174
				c1.245,0.597,1.771,2.09,1.173,3.335c-0.612,1.278-0.923,2.64-0.923,4.047C69.5,93.568,74.211,98,80.002,98
				c1.381,0,2.5,1.119,2.5,2.5S81.383,103,80.002,103z"/>
		</g>
		<g>
			<path d="M91.828,85.495c-0.846,0-1.669-0.429-2.141-1.204l-9.687-15.97l-9.685,15.97c-0.717,1.182-2.256,1.557-3.434,0.841
				c-1.181-0.716-1.558-2.253-0.842-3.434l11.822-19.494C78.317,61.457,79.128,61,80.002,61s1.686,0.456,2.139,1.204l11.823,19.494
				c0.716,1.18,0.339,2.718-0.841,3.434C92.718,85.377,92.271,85.495,91.828,85.495z"/>
		</g>
	</g>
</g>
</svg>
