<?xml version="1.0" encoding="utf-8"?>
<!-- Generator: Adobe Illustrator 16.0.0, SVG Export Plug-In . SVG Version: 6.00 Build 0)  -->
<!DOCTYPE svg PUBLIC "-//W3C//DTD SVG 1.1//EN" "http://www.w3.org/Graphics/SVG/1.1/DTD/svg11.dtd">
<svg version="1.1" id="Layer_1" xmlns="http://www.w3.org/2000/svg" xmlns:xlink="http://www.w3.org/1999/xlink" x="0px" y="0px"
	 width="160px" height="160px" viewBox="0 0 160 160" enable-background="new 0 0 160 160" xml:space="preserve">
<path d="M125.5,73.941c0-13.412-10.766-24.323-23.998-24.323c-0.246,0-0.497,0.005-0.753,0.013
	c-4.284-7.526-12.09-12.132-20.752-12.132c-8.648,0-16.454,4.607-20.751,12.132c-0.254-0.009-0.503-0.013-0.748-0.013
	c-13.232,0-23.998,10.911-23.998,24.323c0,11.648,8.012,21.45,19.01,23.79c-0.085,0.784-0.131,1.557-0.131,2.326
	c0,12.375,9.794,22.443,21.832,22.443c1.619,0,3.247-0.191,4.84-0.563c1.605,0.372,3.23,0.563,4.833,0.563
	c12.034,0,21.824-10.068,21.827-22.443c0-0.773-0.046-1.558-0.129-2.349C117.532,95.332,125.5,85.559,125.5,73.941z M77.388,117.35
	c-0.724,0.098-1.451,0.148-2.177,0.148c-9.281,0-16.832-7.826-16.832-17.441c0-0.76,0.055-1.529,0.165-2.322
	c0.742-0.104,1.463-0.154,2.177-0.154c9.279,0,16.828,7.826,16.828,17.445C77.549,115.785,77.495,116.563,77.388,117.35z
	 M84.885,117.5c-0.721,0-1.449-0.049-2.178-0.15c-0.105-0.783-0.158-1.561-0.158-2.324c0-9.617,7.555-17.443,16.84-17.443
	c0.705,0,1.424,0.049,2.166,0.152c0.104,0.783,0.154,1.553,0.154,2.322C101.709,109.674,94.162,117.5,84.885,117.5z M103.949,93.091
	c-1.568-0.334-3.103-0.511-4.561-0.511c-8.387,0-15.682,4.888-19.339,12.035c-3.655-7.146-10.945-12.033-19.329-12.033
	c-1.506,0-3.02,0.173-4.614,0.518c-9.495-1.214-16.605-9.361-16.605-19.159c0-10.655,8.522-19.323,18.998-19.323
	c0.605,0,1.249,0.033,1.97,0.101c1.042,0.096,2.028-0.461,2.483-1.399c3.234-6.675,9.766-10.821,17.046-10.821
	c7.292,0,13.821,4.145,17.042,10.817c0.454,0.94,1.454,1.498,2.48,1.403c0.73-0.068,1.377-0.101,1.98-0.101
	c10.477,0,18.998,8.668,18.998,19.323C120.5,83.724,113.417,91.854,103.949,93.091z"/>
</svg>
