<?xml version="1.0" encoding="utf-8"?>
<!-- Generator: Adobe Illustrator 16.0.0, SVG Export Plug-In . SVG Version: 6.00 Build 0)  -->
<!DOCTYPE svg PUBLIC "-//W3C//DTD SVG 1.1//EN" "http://www.w3.org/Graphics/SVG/1.1/DTD/svg11.dtd">
<svg version="1.1" id="Layer_1" xmlns="http://www.w3.org/2000/svg" xmlns:xlink="http://www.w3.org/1999/xlink" x="0px" y="0px"
	 width="160px" height="160px" viewBox="0 0 160 160" enable-background="new 0 0 160 160" xml:space="preserve">
<path d="M125.179,60.763c0-3.433-1.824-6.639-4.764-8.381l-20.271-12.987C99.742,39.137,99.274,39,98.796,39h-7.138
	c-1.381,0-2.5,1.119-2.5,2.5c0,5.281-4.253,9.577-9.481,9.577c-5.223,0-9.473-4.296-9.473-9.577c0-1.381-1.119-2.5-2.5-2.5h-7.122
	c-0.478,0-0.946,0.137-1.349,0.395L38.961,52.382c-2.938,1.743-4.762,4.949-4.762,8.385l-0.012,19.229
	c0,0.663,0.263,1.299,0.732,1.769c0.469,0.469,1.105,0.732,1.768,0.732h14.217V118.5c0,1.381,1.119,2.5,2.5,2.5h52.507
	c1.381,0,2.5-1.119,2.5-2.5V82.497h14.275c0.663,0,1.299-0.264,1.769-0.732c0.469-0.47,0.731-1.105,0.731-1.769L125.179,60.763z
	 M55.905,84.401c4.012,1.774,6.717,5.642,6.717,10.011c0,0.052,0.004,0.104,0.012,0.154c0.083,7.122,6.152,12.892,13.602,12.892
	c5.496,0,10.102,3.655,11.297,8.542H55.905V84.401z M108.412,77.497V67.394h-5V116H89.587c-1.221-5.999-6.74-10.542-13.352-10.542
	c-6.397,0-11.602-4.952-11.602-11.039c0-0.052-0.005-0.104-0.014-0.154c-0.063-5.405-3.595-10.14-8.715-12.026V67.394h-5v10.104
	H39.189l0.01-16.734c0-1.682,0.894-3.25,2.334-4.094c0.028-0.017,0.058-0.034,0.085-0.052L61.313,44h4.104
	c1.181,6.851,7.125,12.077,14.26,12.077c7.139,0,13.087-5.226,14.269-12.077h4.118l19.694,12.617
	c0.028,0.018,0.057,0.036,0.086,0.053c1.44,0.843,2.335,2.411,2.335,4.099l0.008,16.728H108.412z"/>
</svg>
