<?xml version="1.0" encoding="utf-8"?>
<!-- Generator: Adobe Illustrator 16.0.0, SVG Export Plug-In . SVG Version: 6.00 Build 0)  -->
<!DOCTYPE svg PUBLIC "-//W3C//DTD SVG 1.1//EN" "http://www.w3.org/Graphics/SVG/1.1/DTD/svg11.dtd">
<svg version="1.1" id="Layer_1" xmlns="http://www.w3.org/2000/svg" xmlns:xlink="http://www.w3.org/1999/xlink" x="0px" y="0px"
	 width="160px" height="160px" viewBox="0 0 160 160" enable-background="new 0 0 160 160" xml:space="preserve">
<g>
	<g>
		<g>
			<path d="M118.971,121.5H42c-1.93,0-3.5-1.57-3.5-3.5V42c0-1.93,1.57-3.5,3.5-3.5h76c1.93,0,3.5,1.57,3.5,3.5v76.906
				c0,0.275-0.045,0.542-0.127,0.789C121.07,120.738,120.109,121.5,118.971,121.5z M43.5,116.5h73v-73h-73V116.5z"/>
		</g>
	</g>
	<g>
		<g>
			<rect x="57.161" y="66.569" transform="matrix(-0.7086 -0.7056 0.7056 -0.7086 69.3501 166.7773)" width="23.904" height="5"/>
		</g>
		<g>
			<rect x="50.617" y="73.7" transform="matrix(-0.5365 -0.8439 0.8439 -0.5365 28.9768 168.3146)" width="20.186" height="5"/>
		</g>
		<g>
			
				<rect x="66.187" y="58.133" transform="matrix(-0.8439 -0.5365 0.5365 -0.8439 108.124 152.7251)" width="20.185" height="5.001"/>
		</g>
		<g>
			<path stroke="#000000" stroke-width="5" stroke-linejoin="round" d="M84.146,76.129"/>
		</g>
		<g>
			<path d="M73.028,106.5c-6.198,0-11.547-4.626-12.443-10.76c-0.087-0.688-0.124-1.245-0.124-1.807
				c0-0.352,0.005-0.699,0.042-1.043l4.972,0.531c-0.018,0.168-0.013,0.339-0.013,0.512c0,0.349,0.025,0.709,0.078,1.133
				c0.533,3.646,3.755,6.434,7.488,6.434c2.469,0,4.8-1.229,6.234-3.283c0.777-1.113,2.302-1.402,3.433-0.652
				c1.754,1.166,3.798,1.781,5.91,1.781c5.924,0,10.746-4.822,10.746-10.75c0-1.92-0.524-3.813-1.519-5.473
				c-0.657-1.098-0.38-2.512,0.642-3.281c1.922-1.448,3.025-3.649,3.025-6.038c0-4.176-3.398-7.573-7.574-7.573
				c-0.188,0-0.365,0.013-0.544,0.029l-0.45-4.979c0.328-0.03,0.651-0.049,0.995-0.049c6.935,0,12.574,5.64,12.574,12.573
				c0,3.255-1.228,6.298-3.425,8.612c0.839,1.95,1.275,4.054,1.275,6.181c0,8.684-7.063,15.75-15.746,15.75
				c-2.344,0-4.631-0.518-6.722-1.51C79.539,105.16,76.363,106.499,73.028,106.5z"/>
		</g>
	</g>
</g>
</svg>
