<?xml version="1.0" encoding="iso-8859-1"?>
<!-- Generator: Adobe Illustrator 16.0.0, SVG Export Plug-In . SVG Version: 6.00 Build 0)  -->
<!DOCTYPE svg PUBLIC "-//W3C//DTD SVG 1.1//EN" "http://www.w3.org/Graphics/SVG/1.1/DTD/svg11.dtd">
<svg version="1.1" id="Layer_1" xmlns="http://www.w3.org/2000/svg" xmlns:xlink="http://www.w3.org/1999/xlink" x="0px" y="0px"
	 width="128px" height="128px" viewBox="0 0 128 128" style="enable-background:new 0 0 128 128;" xml:space="preserve">
<path d="M94.141,100.387H33.861c-1.049,0-1.9-0.85-1.9-1.9V29.514c0-1.049,0.852-1.9,1.9-1.9h60.279c1.047,0,1.898,0.851,1.898,1.9
	v68.975C96.039,99.535,95.188,100.387,94.141,100.387z M92.238,31.413H35.762v65.174H92.24L92.238,31.413L92.238,31.413z
	 M63.999,45.896c11.125,0,20.174,9.049,20.174,20.168c0,11.125-9.049,20.178-20.174,20.178c-11.123,0-20.171-9.053-20.171-20.178
	C43.827,54.945,52.876,45.896,63.999,45.896z M63.999,82.441c9.028,0,16.374-7.346,16.374-16.375
	c0-9.027-7.344-16.371-16.374-16.371c-9.026,0-16.372,7.343-16.372,16.371C47.627,75.098,54.973,82.441,63.999,82.441z
	 M70.332,38.048H57.667c-1.049,0-1.901-0.851-1.901-1.899s0.851-1.9,1.901-1.9h12.666c1.049,0,1.899,0.85,1.899,1.9
	C72.232,37.197,71.381,38.048,70.332,38.048z"/>
</svg>
