<?xml version="1.0" encoding="iso-8859-1"?>
<!-- Generator: Adobe Illustrator 16.0.0, SVG Export Plug-In . SVG Version: 6.00 Build 0)  -->
<!DOCTYPE svg PUBLIC "-//W3C//DTD SVG 1.1//EN" "http://www.w3.org/Graphics/SVG/1.1/DTD/svg11.dtd">
<svg version="1.1" id="Layer_1" xmlns="http://www.w3.org/2000/svg" xmlns:xlink="http://www.w3.org/1999/xlink" x="0px" y="0px"
	 width="192px" height="192px" viewBox="0 0 192 192" style="enable-background:new 0 0 192 192;" xml:space="preserve">
<path d="M141.207,150.577H50.794c-1.573,0-2.851-1.274-2.851-2.85V44.273c0-1.574,1.277-2.85,2.851-2.85h90.414
	c1.572,0,2.849,1.275,2.849,2.85v103.457C144.056,149.301,142.779,150.577,141.207,150.577z M138.356,47.122H53.643v97.756h84.714
	V47.122z M95.999,68.847c16.687,0,30.259,13.571,30.259,30.251c0,16.686-13.572,30.264-30.259,30.264
	c-16.683,0-30.256-13.578-30.256-30.264C65.742,82.418,79.316,68.847,95.999,68.847z M95.999,123.662
	c13.543,0,24.56-11.02,24.56-24.563c0-13.539-11.016-24.553-24.56-24.553c-13.54,0-24.557,11.014-24.557,24.553
	C71.442,112.645,82.459,123.662,95.999,123.662z M105.497,57.074H86.5c-1.573,0-2.851-1.276-2.851-2.85
	c0-1.574,1.275-2.85,2.851-2.85h18.998c1.573,0,2.85,1.275,2.85,2.85C108.347,55.797,107.07,57.074,105.497,57.074z"/>
</svg>
