<?xml version="1.0" encoding="iso-8859-1"?>
<!-- Generator: Adobe Illustrator 16.0.0, SVG Export Plug-In . SVG Version: 6.00 Build 0)  -->
<!DOCTYPE svg PUBLIC "-//W3C//DTD SVG 1.1//EN" "http://www.w3.org/Graphics/SVG/1.1/DTD/svg11.dtd">
<svg version="1.1" id="Layer_1" xmlns="http://www.w3.org/2000/svg" xmlns:xlink="http://www.w3.org/1999/xlink" x="0px" y="0px"
	 width="192px" height="192px" viewBox="0 0 192 192" style="enable-background:new 0 0 192 192;" xml:space="preserve">
<path d="M157.689,124.693H34.311c-1.573,0-2.85-1.276-2.85-2.851v-37.52c0-0.021,0.011-0.037,0.011-0.059
	c0.023-9.331,7.603-16.917,16.935-16.944c0.022-0.002,0.041-0.014,0.063-0.014h95.07c9.359,0,16.979,7.61,16.988,16.966
	c0,0.021,0.012,0.031,0.012,0.052v37.521C160.541,123.417,159.266,124.693,157.689,124.693z M154.842,84.336
	c0-0.013-0.008-0.024-0.008-0.037c0-6.226-5.066-11.293-11.295-11.293H48.496c-0.015,0-0.026,0.007-0.038,0.007
	c-6.225,0.001-11.29,5.067-11.29,11.294c0,0.015-0.008,0.024-0.008,0.037v34.65h117.682V84.336z M50.452,102.831h90.468
	c1.574,0,2.852,1.274,2.852,2.85s-1.277,2.852-2.852,2.852H50.452c-1.574,0-2.85-1.276-2.85-2.852S48.877,102.831,50.452,102.831z"
	/>
</svg>
