<?xml version="1.0" encoding="iso-8859-1"?>
<!-- Generator: Adobe Illustrator 16.0.0, SVG Export Plug-In . SVG Version: 6.00 Build 0)  -->
<!DOCTYPE svg PUBLIC "-//W3C//DTD SVG 1.1//EN" "http://www.w3.org/Graphics/SVG/1.1/DTD/svg11.dtd">
<svg version="1.1" id="Layer_1" xmlns="http://www.w3.org/2000/svg" xmlns:xlink="http://www.w3.org/1999/xlink" x="0px" y="0px"
	 width="192px" height="192px" viewBox="0 0 192 192" style="enable-background:new 0 0 192 192;" xml:space="preserve">
<path d="M138.005,157.008H53.994c-1.574,0-2.85-1.277-2.85-2.852V37.842c0-1.574,1.276-2.85,2.85-2.85h84.011
	c1.574,0,2.851,1.276,2.851,2.851v116.315C140.855,155.73,139.58,157.008,138.005,157.008z M93.065,40.691H56.843v75.07h36.222
	V40.691z M135.156,40.691H98.764v75.07h36.393V40.691L135.156,40.691z M135.156,121.461H56.843v29.848h78.313V121.461z
	 M109.02,63.911c1.571,0,2.85,1.276,2.85,2.851v22.872c0,1.572-1.275,2.85-2.85,2.85c-1.576,0-2.851-1.276-2.851-2.85V66.761
	C106.169,65.188,107.447,63.911,109.02,63.911z M70.245,64.104h12.831c1.573,0,2.85,1.276,2.85,2.85v22.68
	c0,1.572-1.277,2.85-2.85,2.85H70.245c-1.573,0-2.85-1.276-2.85-2.85v-22.68C67.395,65.381,68.672,64.104,70.245,64.104z
	 M73.095,86.783h7.132V69.804h-7.132V86.783z"/>
</svg>
