<?xml version="1.0" encoding="iso-8859-1"?>
<!-- Generator: Adobe Illustrator 16.0.0, SVG Export Plug-In . SVG Version: 6.00 Build 0)  -->
<!DOCTYPE svg PUBLIC "-//W3C//DTD SVG 1.1//EN" "http://www.w3.org/Graphics/SVG/1.1/DTD/svg11.dtd">
<svg version="1.1" id="Layer_1" xmlns="http://www.w3.org/2000/svg" xmlns:xlink="http://www.w3.org/1999/xlink" x="0px" y="0px"
	 width="192px" height="192px" viewBox="0 0 192 192" style="enable-background:new 0 0 192 192;" xml:space="preserve">
<path d="M134.876,138.479c0.904,1.646,2.965,4.66,6.603,6.295c1.437,0.646,2.073,2.332,1.429,3.769
	c-0.476,1.058-1.511,1.683-2.599,1.683c-0.394,0-0.789-0.08-1.168-0.25c-4.477-2.015-7.215-5.4-8.709-7.813
	c-9.625,7.192-21.521,11.511-34.434,11.511c-12.854,0-24.701-4.277-34.301-11.414c-1.51,2.402-4.226,5.729-8.642,7.717
	c-0.378,0.17-0.775,0.25-1.168,0.25c-1.084,0-2.123-0.625-2.598-1.681c-0.646-1.437-0.008-3.12,1.429-3.771
	c3.555-1.6,5.595-4.514,6.53-6.182c-11.598-10.557-18.934-25.722-18.934-42.604c0-22.077,12.346-41.888,32.214-51.7
	c16.081-7.948,34.864-7.944,50.946,0c19.869,9.812,32.213,29.623,32.213,51.7C153.688,112.812,146.403,127.928,134.876,138.479z
	 M75.375,48.316l2.107,5.713c0.256,0.816,0.672,1.937,1.128,1.937h34.977c0.194,0,0.352-0.106,0.504-0.209
	c0.281-0.253,0.416-0.694,0.467-1.099c0.025-0.195,0.07-0.388,0.135-0.573l1.988-5.746C103.528,42.585,88.527,42.575,75.375,48.316z
	 M121.813,50.922l-0.979,2.835l-0.623,1.801c-0.174,2.16-1.387,4.024-3.135,5.107c-1.002,0.64-2.188,1-3.492,1H78.609
	c-0.349,0-0.72-0.041-1.099-0.106c-0.126-0.021-0.252-0.048-0.378-0.076c-0.17-0.041-0.341-0.093-0.512-0.152
	c-2.517-0.794-4.4-3.024-4.635-5.738l-1.739-4.707c-16.26,9.266-26.233,26.269-26.233,45.101c0,28.665,23.32,51.985,51.984,51.985
	c28.667,0,51.99-23.32,51.99-51.985C147.987,77.179,138.042,60.194,121.813,50.922z M100.369,136.821h-8.551
	c-3.666,0-6.648-2.981-6.648-6.647l-0.801-9.945c-0.008-3.894,2.976-6.875,6.642-6.875h10.167c3.666,0,6.649,2.981,6.649,6.647
	l-0.818,10.396C107.018,133.84,104.035,136.821,100.369,136.821z M101.178,119.053H91.01c-0.523,0-0.95,0.426-0.95,0.949
	l0.801,9.944c0.008,0.75,0.435,1.177,0.957,1.177h8.551c0.521,0,0.949-0.427,0.949-0.949l0.814-10.396
	C102.127,119.478,101.701,119.053,101.178,119.053z"/>
</svg>
