<?xml version="1.0" encoding="utf-8"?>
<!-- Generator: Adobe Illustrator 16.0.0, SVG Export Plug-In . SVG Version: 6.00 Build 0)  -->
<!DOCTYPE svg PUBLIC "-//W3C//DTD SVG 1.1//EN" "http://www.w3.org/Graphics/SVG/1.1/DTD/svg11.dtd">
<svg version="1.1" id="Layer_1" xmlns="http://www.w3.org/2000/svg" xmlns:xlink="http://www.w3.org/1999/xlink" x="0px" y="0px"
	 width="156px" height="156px" viewBox="-14 0 156 156" enable-background="new -14 0 156 156" xml:space="preserve">
<g>
	<rect x="62.301" y="34.642" width="3.655" height="35.446"/>
	<path d="M64.129,121.358c-23.126,0-41.941-18.821-41.941-41.954c0-16.227,9.506-31.152,24.216-38.023l1.548,3.313
		c-13.43,6.271-22.105,19.897-22.105,34.71c0,21.116,17.175,38.298,38.284,38.298c21.108,0,38.282-17.182,38.282-38.298
		c0-14.813-8.677-28.438-22.104-34.709l1.547-3.313c14.71,6.871,24.215,21.796,24.215,38.022
		C106.066,102.537,87.254,121.358,64.129,121.358z"/>
</g>
<rect x="-13.872" fill="none" width="156" height="156"/>
</svg>
