<?xml version="1.0" encoding="utf-8"?>
<!-- Generator: Adobe Illustrator 16.0.0, SVG Export Plug-In . SVG Version: 6.00 Build 0)  -->
<!DOCTYPE svg PUBLIC "-//W3C//DTD SVG 1.1//EN" "http://www.w3.org/Graphics/SVG/1.1/DTD/svg11.dtd">
<svg version="1.1" id="Layer_1" xmlns="http://www.w3.org/2000/svg" xmlns:xlink="http://www.w3.org/1999/xlink" x="0px" y="0px"
	 width="276px" height="276px" viewBox="0 0 276 276" enable-background="new 0 0 276 276" xml:space="preserve">
<g>
	<g>
		<path d="M131.675,136.414c0,0.275-0.225,0.5-0.5,0.5h-19.764c-0.275,0-0.5-0.225-0.5-0.5V60.588c0-0.275,0.225-0.5,0.5-0.5h19.764
			c0.275,0,0.5,0.225,0.5,0.5V136.414z"/>
		<path fill="none" stroke="#000000" stroke-width="4" stroke-miterlimit="10" d="M131.675,136.414c0,0.275-0.225,0.5-0.5,0.5
			h-19.764c-0.275,0-0.5-0.225-0.5-0.5V60.588c0-0.275,0.225-0.5,0.5-0.5h19.764c0.275,0,0.5,0.225,0.5,0.5V136.414z"/>
	</g>
	<g>
		<path d="M170.088,136.414c0,0.275-0.225,0.5-0.5,0.5h-19.764c-0.275,0-0.5-0.225-0.5-0.5V60.588c0-0.275,0.225-0.5,0.5-0.5h19.764
			c0.275,0,0.5,0.225,0.5,0.5V136.414z"/>
		<path fill="none" stroke="#000000" stroke-width="4" stroke-miterlimit="10" d="M170.088,136.414c0,0.275-0.225,0.5-0.5,0.5
			h-19.764c-0.275,0-0.5-0.225-0.5-0.5V60.588c0-0.275,0.225-0.5,0.5-0.5h19.764c0.275,0,0.5,0.225,0.5,0.5V136.414z"/>
	</g>
</g>
<text transform="matrix(1 0 0 1 80.8828 213.667)" font-family="'RobotoCondensed-Bold'" font-size="52">AUTO</text>
<rect x="278" y="37" width="1.5" height="1.5"/>
</svg>
