<?xml version="1.0" encoding="utf-8"?>
<!-- Generator: Adobe Illustrator 16.0.0, SVG Export Plug-In . SVG Version: 6.00 Build 0)  -->
<!DOCTYPE svg PUBLIC "-//W3C//DTD SVG 1.1//EN" "http://www.w3.org/Graphics/SVG/1.1/DTD/svg11.dtd">
<svg version="1.1" id="Layer_1" xmlns="http://www.w3.org/2000/svg" xmlns:xlink="http://www.w3.org/1999/xlink" x="0px" y="0px"
	 width="276px" height="276px" viewBox="0 0 276 276" enable-background="new 0 0 276 276" xml:space="preserve">
<text transform="matrix(1 0 0 1 80.8828 213.668)" font-family="'RobotoCondensed-Bold'" font-size="52">AUTO</text>
<rect x="278" y="37" width="1.5" height="1.5"/>
<g>
	<g>
		<g>
			<path d="M114.914,144.223c-0.228,0.153-0.414,0.055-0.414-0.221v-83c0-0.275,0.187-0.374,0.414-0.219l61.172,41.439
				c0.228,0.153,0.228,0.406,0,0.561L114.914,144.223z"/>
			<path fill="none" stroke="#000000" stroke-width="4" stroke-miterlimit="10" d="M114.914,144.223
				c-0.228,0.153-0.414,0.055-0.414-0.221v-83c0-0.275,0.187-0.374,0.414-0.219l61.172,41.439c0.228,0.153,0.228,0.406,0,0.561
				L114.914,144.223z"/>
		</g>
	</g>
	<rect x="90.5" y="54.5" fill="none" width="96" height="96"/>
</g>
</svg>
