<?xml version="1.0" encoding="utf-8"?>
<!-- Generator: Adobe Illustrator 16.0.0, SVG Export Plug-In . SVG Version: 6.00 Build 0)  -->
<!DOCTYPE svg PUBLIC "-//W3C//DTD SVG 1.1//EN" "http://www.w3.org/Graphics/SVG/1.1/DTD/svg11.dtd">
<svg version="1.1" id="Layer_1" xmlns="http://www.w3.org/2000/svg" xmlns:xlink="http://www.w3.org/1999/xlink" x="0px" y="0px"
	 width="276px" height="276px" viewBox="0 0 276 276" enable-background="new 0 0 276 276" xml:space="preserve">
<g>
	<path d="M127.079,90.663h-23.15c-1.615,0-2.929,1.314-2.929,2.929v88.819c0,1.613,1.313,2.928,2.929,2.928h23.15
		c1.615,0,2.928-1.314,2.928-2.928V93.591C130.007,91.977,128.694,90.663,127.079,90.663z"/>
	<path d="M172.072,90.663h-23.149c-1.615,0-2.929,1.314-2.929,2.929v88.819c0,1.613,1.313,2.928,2.929,2.928h23.149
		c1.615,0,2.928-1.314,2.928-2.928V93.591C175,91.977,173.688,90.663,172.072,90.663z"/>
</g>
</svg>
