<?xml version="1.0" encoding="iso-8859-1"?>
<!-- Generator: Adobe Illustrator 16.0.0, SVG Export Plug-In . SVG Version: 6.00 Build 0)  -->
<!DOCTYPE svg PUBLIC "-//W3C//DTD SVG 1.1//EN" "http://www.w3.org/Graphics/SVG/1.1/DTD/svg11.dtd">
<svg version="1.1" id="Layer_1" xmlns="http://www.w3.org/2000/svg" xmlns:xlink="http://www.w3.org/1999/xlink" x="0px" y="0px"
	 width="280px" height="280px" viewBox="0 0 280 280" style="enable-background:new 0 0 280 280;" xml:space="preserve">
<g>
	<g>
		<path d="M182.923,136.507h-40.405V96.933c0-1.837-1.488-3.325-3.325-3.325c-1.836,0-3.693,1.488-3.693,3.325v39.574H96.791
			c-1.837,0-3.325,1.489-3.325,3.325c0,1.836,1.488,3.658,3.325,3.658h38.708v39.574c0,1.836,1.571,3.325,3.408,3.325
			c1.836,0,3.61-1.489,3.61-3.325V143.49h40.405c1.837,0,3.325-1.822,3.325-3.658C186.248,137.996,184.76,136.507,182.923,136.507z"
			/>
	</g>
</g>
</svg>
