<?xml version="1.0" encoding="iso-8859-1"?>
<!-- Generator: Adobe Illustrator 16.0.0, SVG Export Plug-In . SVG Version: 6.00 Build 0)  -->
<!DOCTYPE svg PUBLIC "-//W3C//DTD SVG 1.1//EN" "http://www.w3.org/Graphics/SVG/1.1/DTD/svg11.dtd">
<svg version="1.1" xmlns="http://www.w3.org/2000/svg" xmlns:xlink="http://www.w3.org/1999/xlink" x="0px" y="0px" width="180px"
	 height="180px" viewBox="0 0 180 180" style="enable-background:new 0 0 180 180;" xml:space="preserve">
<g id="main_x5F_list_x5F_ic_x5F_rinse_x5F_1" style="enable-background:new    ;">
	<g id="main_x5F_list_x5F_ic_x5F_rinse_x5F_1_1_">
		<g>
			<path style="fill-rule:evenodd;clip-rule:evenodd;" d="M160.543,37.026c-1.954-0.42-3.873,0.831-4.289,2.781l-6.851,32.114
				c-7.87-6.448-16.806-9.72-26.646-9.72c-10.4,0-20.104,1.947-33.618,11.419c-0.037,0.023-0.075,0.044-0.111,0.069
				c-13.366,9.389-21.941,10.173-29.58,10.173c-10.21,0-18.967-4.105-26.747-12.518l-6.725-31.538
				c-0.416-1.95-2.336-3.199-4.289-2.781c-1.952,0.414-3.2,2.331-2.785,4.284l6.739,31.604c-0.002,0.505,0.104,1.005,0.315,1.477
				l14.456,67.791c0,0.001,0,0.003,0.001,0.005l0.004,0.021c0.001,0.007,0.004,0.013,0.006,0.02
				c0.042,0.189,0.099,0.374,0.169,0.552c0.007,0.018,0.013,0.037,0.02,0.055c0.069,0.167,0.152,0.326,0.245,0.479
				c0.02,0.033,0.039,0.065,0.06,0.098c0.092,0.144,0.195,0.279,0.306,0.407c0.026,0.029,0.052,0.058,0.078,0.086
				c0.119,0.128,0.244,0.249,0.379,0.359c0.016,0.012,0.032,0.023,0.048,0.035c0.141,0.11,0.29,0.211,0.446,0.3
				c0.009,0.006,0.019,0.012,0.028,0.018c0.16,0.088,0.328,0.162,0.501,0.227c0.025,0.01,0.05,0.019,0.076,0.027
				c0.169,0.059,0.342,0.104,0.521,0.138c0.029,0.005,0.059,0.009,0.089,0.014c0.181,0.028,0.366,0.047,0.555,0.048
				c0.002,0,0.004,0,0.006,0c0.001,0,0.001,0,0.002,0c0,0,0.001,0,0.002,0h94.236c0.013,0,0.026-0.002,0.039-0.002
				c0.014,0,0.026,0.002,0.04,0.002c0.037,0,0.073-0.008,0.11-0.009c0.094-0.005,0.187-0.013,0.277-0.024
				c1.509-0.165,2.812-1.264,3.145-2.827l13.287-62.282c0.048-0.165,0.082-0.33,0.106-0.499l8.131-38.115
				C163.743,39.359,162.495,37.44,160.543,37.026z M143.021,101.837h-13.979c-1.989,0-3.602,1.612-3.602,3.602
				s1.612,3.602,3.602,3.602h12.443l-6.145,28.804H46.882L40.74,109.04h12.347c1.989,0,3.601-1.612,3.601-3.602
				s-1.612-3.602-3.601-3.602H39.204l-3.965-18.594c7.265,5.21,15.371,7.845,24.209,7.845c10.394,0,20.09-1.942,33.583-11.382
				c0.052-0.033,0.105-0.063,0.156-0.099c13.364-9.395,21.935-10.181,29.569-10.181c9.422,0,17.588,3.481,24.912,10.623
				L143.021,101.837z M100.231,109.04h11.131c1.989,0,3.602-1.612,3.602-3.602s-1.612-3.602-3.602-3.602h-11.131
				c-1.989,0-3.602,1.612-3.602,3.602S98.242,109.04,100.231,109.04z M86.153,105.438c0-1.989-1.612-3.602-3.601-3.602H71.421
				c-1.989,0-3.601,1.612-3.601,3.602s1.612,3.602,3.601,3.602h11.132C84.541,109.04,86.153,107.428,86.153,105.438z
				 M67.492,120.171H56.361c-1.989,0-3.602,1.612-3.602,3.602s1.612,3.602,3.602,3.602h11.131c1.989,0,3.602-1.612,3.602-3.602
				S69.481,120.171,67.492,120.171z M111.035,123.772c0,1.989,1.612,3.602,3.602,3.602h11.131c1.989,0,3.602-1.612,3.602-3.602
				s-1.612-3.602-3.602-3.602h-11.131C112.647,120.171,111.035,121.783,111.035,123.772z M96.958,120.171H85.826
				c-1.989,0-3.602,1.612-3.602,3.602s1.612,3.602,3.602,3.602h11.132c1.988,0,3.601-1.612,3.601-3.602
				S98.946,120.171,96.958,120.171z"/>
		</g>
	</g>
</g>
<g id="Layer_1">
</g>
</svg>
