<?xml version="1.0" encoding="utf-8"?>
<!-- Generator: Adobe Illustrator 16.0.0, SVG Export Plug-In . SVG Version: 6.00 Build 0)  -->
<!DOCTYPE svg PUBLIC "-//W3C//DTD SVG 1.1//EN" "http://www.w3.org/Graphics/SVG/1.1/DTD/svg11.dtd">
<svg version="1.1" id="Layer_1" xmlns="http://www.w3.org/2000/svg" xmlns:xlink="http://www.w3.org/1999/xlink" x="0px" y="0px"
	 width="160px" height="160px" viewBox="0 0 160 160">
<g>
	<g>
		<g>
			<path d="M79.563,127.625c-26.089,0-47.313-21.224-47.313-47.313S53.474,33,79.563,33v5
				C56.231,38,37.25,56.981,37.25,80.313s18.982,42.313,42.313,42.313c23.331,0,42.313-18.981,42.313-42.313h5
				C126.875,106.401,105.651,127.625,79.563,127.625z"/>
		</g>
		<polygon points="108.743,82.813 77.063,82.813 77.063,45.922 82.063,45.922 82.063,77.813 108.743,77.813 		"/>
	</g>
	<g>
		<g>
			<path  d="M83.812,38.21c-1.4-0.14-2.829-0.21-4.249-0.21v-5c1.584,0,3.181,0.079,4.745,0.235L83.812,38.21z"/>
			<path  d="M120.041,67.943c-0.803-2.632-1.872-5.198-3.176-7.625l4.405-2.366c1.458,2.717,2.654,5.587,3.553,8.533
				L120.041,67.943z M112.261,53.453c-1.75-2.127-3.717-4.094-5.847-5.845l3.175-3.862c2.38,1.957,4.578,4.154,6.534,6.532
				L112.261,53.453z M99.548,43.006c-2.428-1.304-4.994-2.372-7.627-3.174l1.457-4.783c2.947,0.898,5.819,2.093,8.536,3.552
				L99.548,43.006z"/>
			<path d="M126.875,80.313h-5c0-1.419-0.071-2.849-0.21-4.249l4.976-0.496
				C126.796,77.132,126.875,78.728,126.875,80.313z"/>
		</g>
	</g>
</g>
</svg>
