<?xml version="1.0" encoding="utf-8"?>
<!-- Generator: Adobe Illustrator 16.0.0, SVG Export Plug-In . SVG Version: 6.00 Build 0)  -->
<!DOCTYPE svg PUBLIC "-//W3C//DTD SVG 1.1//EN" "http://www.w3.org/Graphics/SVG/1.1/DTD/svg11.dtd">
<svg version="1.1" id="Layer_1" xmlns="http://www.w3.org/2000/svg" xmlns:xlink="http://www.w3.org/1999/xlink" x="0px" y="0px"
	 width="160px" height="160px" viewBox="0 0 160 160" enable-background="new 0 0 160 160" xml:space="preserve">
<g>
	<path d="M98.667,76.793c-11.36,0-20.604,9.243-20.604,20.604c0,11.36,9.243,20.603,20.604,20.603
		c11.361,0,20.603-9.243,20.603-20.603C119.27,86.036,110.028,76.793,98.667,76.793z M98.667,114.35
		c-9.348,0-16.952-7.605-16.952-16.953s7.604-16.953,16.952-16.953s16.953,7.605,16.953,16.953S108.015,114.35,98.667,114.35z"/>
	<polygon points="99.6,98.184 89.205,98.184 89.205,101.851 103.267,101.851 103.267,85.606 99.6,85.606 	"/>
	<rect x="51.34" y="56.594" width="46.451" height="3.667"/>
	<rect x="51.34" y="65.728" width="46.451" height="3.668"/>
	<path d="M78.528,105.999l-0.19-0.444H45.181V45.728h59.827v30.703l0.504,0.167c0.707,0.233,1.417,0.509,2.112,0.822l1.034,0.465
		V44.338c0-1.247-1.015-2.261-2.261-2.261H43.792c-1.248,0-2.262,1.014-2.262,2.261v62.605c0,1.248,1.014,2.262,2.262,2.262h36.4
		l-0.616-1.094C79.181,107.411,78.829,106.699,78.528,105.999z"/>
</g>
</svg>
