<?xml version="1.0" encoding="iso-8859-1"?>
<!-- Generator: Adobe Illustrator 16.0.0, SVG Export Plug-In . SVG Version: 6.00 Build 0)  -->
<!DOCTYPE svg PUBLIC "-//W3C//DTD SVG 1.1//EN" "http://www.w3.org/Graphics/SVG/1.1/DTD/svg11.dtd">
<svg version="1.1" id="Layer_1" xmlns="http://www.w3.org/2000/svg" xmlns:xlink="http://www.w3.org/1999/xlink" x="0px" y="0px"
	 width="92px" height="92px" viewBox="0 0 92 92" style="enable-background:new 0 0 92 92;" xml:space="preserve">
<g>
	<g>
		<path style="fill: #00ABF1;" d="M88.016,42.397H48.66V3.873c0-1.836-1.488-3.324-3.324-3.324c-1.837,0-3.694,1.488-3.694,3.324v38.524H3.983
			c-1.837,0-3.325,1.489-3.325,3.325c0,1.837,1.488,3.659,3.325,3.659h37.658v38.744c0,1.837,1.572,3.325,3.408,3.325
			s3.61-1.488,3.61-3.325V49.382h39.355c1.837,0,3.326-1.822,3.326-3.659C91.342,43.887,89.853,42.397,88.016,42.397z"/>
	</g>
</g>
</svg>
