<?xml version="1.0" encoding="utf-8"?>
<!-- Generator: Adobe Illustrator 16.0.0, SVG Export Plug-In . SVG Version: 6.00 Build 0)  -->
<!DOCTYPE svg PUBLIC "-//W3C//DTD SVG 1.1//EN" "http://www.w3.org/Graphics/SVG/1.1/DTD/svg11.dtd">
<svg version="1.1" id="Layer_1" xmlns="http://www.w3.org/2000/svg" xmlns:xlink="http://www.w3.org/1999/xlink" x="0px" y="0px"
	 width="180px" height="180px" viewBox="0 0 180 180" enable-background="new 0 0 180 180" xml:space="preserve">
<g>
	<path d="M89.997,108.727c-8.968,0-16.265,7.298-16.265,16.269c0,8.967,7.297,16.263,16.265,16.263
		c8.971,0,16.27-7.296,16.27-16.263C106.267,116.024,98.968,108.727,89.997,108.727z M89.997,137.058
		c-6.662,0-12.064-5.403-12.064-12.063c0-6.667,5.402-12.068,12.064-12.068c6.667,0,12.069,5.401,12.069,12.068
		C102.066,131.654,96.664,137.058,89.997,137.058z"/>
	<path d="M89.997,65.977c-8.968,0-16.265,7.298-16.265,16.269c0,8.967,7.297,16.263,16.265,16.263c8.971,0,16.27-7.296,16.27-16.263
		C106.267,73.274,98.968,65.977,89.997,65.977z M89.997,94.308c-6.662,0-12.064-5.403-12.064-12.063
		c0-6.667,5.402-12.068,12.064-12.068c6.667,0,12.069,5.401,12.069,12.068C102.066,88.904,96.664,94.308,89.997,94.308z"/>
	<path d="M89.945,30.696c-4.855,0-8.795,3.938-8.795,8.798c0,4.854,3.939,8.794,8.795,8.794c4.86,0,8.8-3.939,8.8-8.794
		C98.745,34.635,94.806,30.696,89.945,30.696z"/>
	<path d="M89.944,19.907c-10.798,0-19.583,8.788-19.583,19.59c0,10.796,8.785,19.579,19.583,19.579
		c10.802,0,19.59-8.783,19.59-19.579C109.534,28.695,100.746,19.907,89.944,19.907z M89.944,53.826
		c-7.914,0-14.333-6.419-14.333-14.329c0-7.92,6.419-14.34,14.333-14.34c7.921,0,14.34,6.42,14.34,14.34
		C104.284,47.407,97.865,53.826,89.944,53.826z"/>
	<path d="M126.432,24.155c-0.078-9.927-8.17-17.979-18.114-17.979H71.691c-0.05,0-0.097,0.013-0.146,0.015
		c-9.874,0.075-17.889,8.083-17.976,17.954c-0.003,0.061-0.018,0.117-0.018,0.178v146c0,1.933,1.567,3.5,3.5,3.5
		c0.049,0,0.095-0.013,0.143-0.015c0.049,0.002,0.095,0.015,0.144,0.015h65.61c1.933,0,3.5-1.567,3.5-3.5v-146
		C126.448,24.266,126.434,24.212,126.432,24.155z M119.448,166.823H60.552V24.403c0.001-0.033,0.01-0.063,0.01-0.097
		c0-6.133,4.989-11.122,11.121-11.122c0.026,0,0.051-0.008,0.077-0.008h36.558c6.132,0,11.121,4.988,11.121,11.121
		c0,0.033,0.009,0.063,0.01,0.097V166.823z"/>
</g>
</svg>
