<?xml version="1.0" encoding="iso-8859-1"?>
<!-- Generator: Adobe Illustrator 16.0.0, SVG Export Plug-In . SVG Version: 6.00 Build 0)  -->
<!DOCTYPE svg PUBLIC "-//W3C//DTD SVG 1.1//EN" "http://www.w3.org/Graphics/SVG/1.1/DTD/svg11.dtd">
<svg version="1.1" xmlns="http://www.w3.org/2000/svg" xmlns:xlink="http://www.w3.org/1999/xlink" x="0px" y="0px" width="180px"
	 height="180px" viewBox="0 0 180 180" style="enable-background:new 0 0 180 180;" xml:space="preserve">
<g id="main_x5F_list_x5F_ic_x5F_temp_x5F_20" style="enable-background:new    ;">
	<g id="main_x5F_list_x5F_ic_x5F_temp_x5F_20_1_">
		<g>
			<path style="fill-rule:evenodd;clip-rule:evenodd;" d="M95.013,116.438V56.112c0-2.104-1.691-3.806-3.775-3.806
				c-2.085,0-3.776,1.702-3.776,3.806v60.325c-3.693,1.508-6.308,5.156-6.308,9.41c0,5.6,4.524,10.152,10.084,10.152
				c5.554,0,10.073-4.553,10.073-10.152C101.311,121.595,98.701,117.947,95.013,116.438z M110.69,104.276V46.611
				c0-10.843-8.743-19.665-19.489-19.665c-10.757,0-19.508,8.822-19.508,19.665v57.628c-6.043,5.522-9.474,13.293-9.474,21.608
				c0,16.105,12.992,29.206,28.962,29.206c15.965,0,28.952-13.101,28.952-29.206C120.133,117.566,116.712,109.808,110.69,104.276z
				 M91.181,147.443c-11.806,0-21.41-9.689-21.41-21.595c0-6.618,2.936-12.769,8.049-16.876c0.951-0.765,1.436-1.895,1.421-3.031
				c0.001-0.026,0.004-0.052,0.004-0.078V46.611c0-6.644,5.363-12.055,11.957-12.055c6.581,0,11.937,5.411,11.937,12.055v59.252
				c0,0.029,0.003,0.058,0.004,0.087c-0.021,1.14,0.459,2.275,1.409,3.045c5.104,4.125,8.029,10.266,8.03,16.854
				C112.582,137.754,102.982,147.443,91.181,147.443z"/>
		</g>
	</g>
</g>
<g id="Layer_1">
</g>
</svg>
