<?xml version="1.0" encoding="utf-8"?>
<!-- Generator: Adobe Illustrator 16.0.0, SVG Export Plug-In . SVG Version: 6.00 Build 0)  -->
<!DOCTYPE svg PUBLIC "-//W3C//DTD SVG 1.1//EN" "http://www.w3.org/Graphics/SVG/1.1/DTD/svg11.dtd">
<svg version="1.1" id="Icon" xmlns="http://www.w3.org/2000/svg" xmlns:xlink="http://www.w3.org/1999/xlink" x="0px" y="0px"
	 width="160px" height="160px" viewBox="0 0 160 160" enable-background="new 0 0 160 160" xml:space="preserve">
<g>
	<g>
		<path d="M80.106,63.846c-8.864,0-16.076,7.211-16.076,16.076c0,8.867,7.211,16.08,16.076,16.08c8.866,0,16.078-7.213,16.078-16.08
			C96.184,71.057,88.972,63.846,80.106,63.846z M80.106,91.802c-6.548,0-11.875-5.329-11.875-11.88
			c0-6.549,5.327-11.877,11.875-11.877c6.549,0,11.878,5.328,11.878,11.877C91.984,86.473,86.655,91.802,80.106,91.802z
			 M121.091,91.101c-0.145-0.538-0.497-0.996-0.979-1.275l-8.048-4.643c0.284-1.739,0.428-3.495,0.428-5.24
			c0-1.761-0.146-3.531-0.436-5.28l8.057-4.653c0.482-0.278,0.834-0.736,0.978-1.275c0.144-0.538,0.068-1.111-0.21-1.593
			l-9.329-16.146c-0.279-0.482-0.738-0.834-1.276-0.979s-1.112-0.068-1.594,0.212l-8.081,4.671c-2.742-2.255-5.784-4.02-9.072-5.263
			v-9.32c0-1.16-0.94-2.101-2.1-2.101H70.788c-1.16,0-2.1,0.94-2.1,2.101v9.32c-3.288,1.242-6.329,3.004-9.074,5.259l-8.093-4.669
			c-1.005-0.581-2.289-0.234-2.868,0.769l-9.319,16.146c-0.58,1.004-0.236,2.288,0.768,2.868l8.054,4.653
			c-0.29,1.75-0.436,3.52-0.436,5.28c0,1.732,0.144,3.489,0.43,5.239l-8.051,4.65c-1.004,0.58-1.348,1.865-0.768,2.869l9.32,16.142
			c0.58,1.005,1.865,1.349,2.869,0.769l8.066-4.655c2.752,2.268,5.804,4.038,9.104,5.282v9.283c0,1.16,0.94,2.101,2.1,2.101H89.43
			c1.16,0,2.1-0.94,2.1-2.101v-9.284c3.297-1.243,6.348-3.014,9.101-5.281l8.062,4.655c0.482,0.278,1.056,0.354,1.594,0.21
			c0.538-0.145,0.997-0.497,1.275-0.979l9.32-16.148C121.16,92.212,121.235,91.639,121.091,91.101z M108.974,104.924l-7.535-4.352
			c-0.789-0.456-1.783-0.35-2.458,0.261c-2.993,2.706-6.423,4.697-10.196,5.916c-0.867,0.281-1.454,1.087-1.454,1.998v8.675H72.888
			v-8.675c0-0.911-0.587-1.718-1.455-1.998c-3.775-1.219-7.206-3.21-10.197-5.915c-0.676-0.611-1.669-0.716-2.458-0.263
			l-7.541,4.353l-7.22-12.505l7.519-4.343c0.786-0.453,1.191-1.361,1.005-2.249c-0.412-1.964-0.621-3.943-0.621-5.885
			c0-1.975,0.212-3.963,0.63-5.913c0.19-0.891-0.214-1.803-1.003-2.259l-7.526-4.349l7.22-12.508l7.564,4.363
			c0.788,0.454,1.779,0.349,2.455-0.259c2.986-2.691,6.411-4.675,10.177-5.896c0.865-0.28,1.452-1.088,1.452-1.997v-8.708H87.33
			v8.708c0,0.909,0.586,1.717,1.452,1.997c3.768,1.223,7.191,3.209,10.174,5.901c0.676,0.61,1.669,0.716,2.458,0.259l7.553-4.367
			l7.227,12.507l-7.528,4.349c-0.789,0.455-1.194,1.368-1.003,2.259c0.417,1.948,0.629,3.938,0.629,5.913
			c0,1.96-0.208,3.938-0.62,5.88c-0.188,0.89,0.217,1.801,1.005,2.255l7.518,4.337L108.974,104.924z"/>
	</g>
</g>
</svg>
