<?xml version="1.0" encoding="utf-8"?>
<!-- Generator: Adobe Illustrator 16.0.0, SVG Export Plug-In . SVG Version: 6.00 Build 0)  -->
<!DOCTYPE svg PUBLIC "-//W3C//DTD SVG 1.1//EN" "http://www.w3.org/Graphics/SVG/1.1/DTD/svg11.dtd">
<svg version="1.1" id="Layer_1" xmlns="http://www.w3.org/2000/svg" xmlns:xlink="http://www.w3.org/1999/xlink" x="0px" y="0px"
	 width="632px" height="632px" viewBox="0 0 632 632" enable-background="new 0 0 632 632" xml:space="preserve">
<g>
	<rect x="276.169" y="162.136" width="78.322" height="17"/>
	<g>
		<g>
			<g>
				<path d="M490.911,529.684c-2.338,1.048-7.018,1.903-10.398,1.903H150.149c-3.382,0-8.062-0.855-10.399-1.903
					c-2.337-1.046-4.25-9.362-4.25-12.744V118.043c0-3.382,0.856-8.062,1.903-10.399c1.047-2.337,9.364-4.25,12.746-4.25h330.364
					c3.382,0,8.062,0.856,10.398,1.903s4.25,9.364,4.25,12.746v398.896C495.161,520.32,493.249,528.638,490.911,529.684z
					 M152.5,508.438c0,3.382,2.767,6.147,6.149,6.147h313.364c3.382,0,6.148-2.767,6.148-6.147V126.543
					c0-3.382-2.768-6.149-6.148-6.149H158.649c-3.382,0-6.149,2.767-6.149,6.149V508.438z"/>
			</g>
		</g>
	</g>
	<path d="M315.331,458.159c-66.769,0-121.089-54.319-121.089-121.087c0-66.77,54.32-121.089,121.089-121.089
		c66.768,0,121.087,54.32,121.087,121.089C436.418,403.84,382.099,458.159,315.331,458.159z M315.331,232.983
		c-57.395,0-104.089,46.694-104.089,104.089c0,57.394,46.694,104.087,104.089,104.087c57.394,0,104.087-46.693,104.087-104.087
		C419.418,279.677,372.725,232.983,315.331,232.983z"/>
</g>
</svg>
