<?xml version="1.0" encoding="utf-8"?>
<!-- Generator: Adobe Illustrator 16.0.0, SVG Export Plug-In . SVG Version: 6.00 Build 0)  -->
<!DOCTYPE svg PUBLIC "-//W3C//DTD SVG 1.1//EN" "http://www.w3.org/Graphics/SVG/1.1/DTD/svg11.dtd">
<svg version="1.1" id="Layer_3" xmlns="http://www.w3.org/2000/svg" xmlns:xlink="http://www.w3.org/1999/xlink" x="0px" y="0px"
	 width="160px" height="160px" viewBox="0 0 160 160" enable-background="new 0 0 160 160" xml:space="preserve">
<g>
	<path d="M41.79,57.495c0-4.134,3.363-7.497,7.497-7.497h64.007l-9.114,9.154l3.543,3.528l15.094-15.16l-15.094-15.164l-3.543,3.528
		l9.072,9.114H49.287c-6.891,0-12.497,5.606-12.497,12.497v37.303h5V57.495z"/>
	<path d="M117.79,102.745c0,4.134-3.363,7.497-7.497,7.497H46.156l9.114-9.154l-3.543-3.527l-15.095,15.162l15.095,15.161
		l3.543-3.528l-9.074-9.113h64.097c6.891,0,12.497-5.606,12.497-12.497V65.443h-5V102.745z"/>
</g>
</svg>
