<?xml version="1.0" encoding="utf-8"?>
<!-- Generator: Adobe Illustrator 16.0.0, SVG Export Plug-In . SVG Version: 6.00 Build 0)  -->
<!DOCTYPE svg PUBLIC "-//W3C//DTD SVG 1.1//EN" "http://www.w3.org/Graphics/SVG/1.1/DTD/svg11.dtd">
<svg version="1.1" id="Layer_1" xmlns="http://www.w3.org/2000/svg" xmlns:xlink="http://www.w3.org/1999/xlink" x="0px" y="0px"
	 width="180px" height="180px" viewBox="0 0 180 180" enable-background="new 0 0 180 180" xml:space="preserve">
<g>
	<path d="M89.945,71.727c-8.968,0-16.265,7.299-16.265,16.269c0,8.967,7.296,16.263,16.265,16.263c8.971,0,16.27-7.296,16.27-16.263
		C106.215,79.025,98.916,71.727,89.945,71.727z M89.945,100.058c-6.662,0-12.064-5.403-12.064-12.063
		c0-6.667,5.402-12.068,12.064-12.068c6.667,0,12.069,5.401,12.069,12.068C102.015,94.654,96.612,100.058,89.945,100.058z"/>
	<path d="M89.945,28.977c-8.968,0-16.265,7.298-16.265,16.269c0,8.967,7.296,16.263,16.265,16.263c8.971,0,16.27-7.296,16.27-16.263
		C106.215,36.274,98.916,28.977,89.945,28.977z M89.945,57.308c-6.662,0-12.064-5.403-12.064-12.063
		c0-6.667,5.402-12.068,12.064-12.068c6.667,0,12.069,5.401,12.069,12.068C102.015,51.904,96.612,57.308,89.945,57.308z"/>
	<path d="M126.432,24.155c-0.078-9.927-8.17-17.979-18.114-17.979H71.691c-0.05,0-0.097,0.013-0.147,0.015
		C61.67,6.267,53.657,14.274,53.57,24.146c-0.003,0.061-0.018,0.117-0.018,0.178v146c0,1.933,1.567,3.5,3.5,3.5
		c0.049,0,0.095-0.013,0.143-0.015c0.048,0.002,0.094,0.015,0.143,0.015h65.61c1.933,0,3.5-1.567,3.5-3.5v-146
		C126.448,24.266,126.434,24.212,126.432,24.155z M119.448,166.823H60.552V24.403c0.001-0.033,0.01-0.063,0.01-0.097
		c0-6.133,4.989-11.122,11.121-11.122c0.026,0,0.051-0.008,0.078-0.008h36.557c6.132,0,11.121,4.988,11.121,11.121
		c0,0.033,0.009,0.063,0.01,0.097V166.823z"/>
</g>
</svg>
