<?xml version="1.0" encoding="utf-8"?>
<!-- Generator: Adobe Illustrator 16.0.0, SVG Export Plug-In . SVG Version: 6.00 Build 0)  -->
<!DOCTYPE svg PUBLIC "-//W3C//DTD SVG 1.1//EN" "http://www.w3.org/Graphics/SVG/1.1/DTD/svg11.dtd">
<svg version="1.1" id="Layer_1" xmlns="http://www.w3.org/2000/svg" xmlns:xlink="http://www.w3.org/1999/xlink" x="0px" y="0px"
	 width="640px" height="640px" viewBox="0 0 640 640" enable-background="new 0 0 640 640" xml:space="preserve">
<g>
	<path d="M484.531,80.442H152.093c-38.369,0-69.583,31.215-69.583,69.583v172.729c0,130.021,105.781,235.802,235.803,235.802
		c130.021,0,235.801-105.78,235.801-235.802V150.025C554.113,111.657,522.898,80.442,484.531,80.442z M152.093,91.297h332.438
		c32.383,0,58.729,26.345,58.729,58.728v88.818H369.135v-86.716c0-5.28-4.29-9.575-9.563-9.575h-82.506
		c-5.28,0-9.576,4.295-9.576,9.575v86.716H93.365v-88.818C93.365,117.643,119.71,91.297,152.093,91.297z M138.947,248.843h128.74
		c2.208,26.001,24.063,46.488,50.625,46.488c26.562,0,48.416-20.487,50.625-46.488h47.233v123.658H168.776
		c-16.448,0-29.829-13.382-29.829-29.83V248.843z M275.818,244.508v-93.629h84.987v93.629c0,23.431-19.063,42.494-42.493,42.494
		C294.881,287.002,275.818,267.939,275.818,244.508z M426.17,248.843h71.508v93.828c0,16.448-13.381,29.83-29.829,29.83H426.17
		V248.843z M318.313,547.7c-124.036,0-224.947-100.91-224.947-224.945v-73.911h35.253v93.828c0,22.144,18.015,40.158,40.158,40.158
		h299.072c22.144,0,40.158-18.015,40.158-40.158v-93.828h35.253v73.911C543.26,446.79,442.349,547.7,318.313,547.7z"/>
	<path d="M318.324,218.147c8.584,0,15.569-6.99,15.569-15.582c0-8.591-6.984-15.581-15.569-15.581
		c-8.598,0-15.592,6.989-15.592,15.581C302.732,211.158,309.727,218.147,318.324,218.147z"/>
</g>
</svg>
