<?xml version="1.0" encoding="utf-8"?>
<!-- Generator: Adobe Illustrator 16.0.0, SVG Export Plug-In . SVG Version: 6.00 Build 0)  -->
<!DOCTYPE svg PUBLIC "-//W3C//DTD SVG 1.1//EN" "http://www.w3.org/Graphics/SVG/1.1/DTD/svg11.dtd">
<svg version="1.1" id="Layer_1" xmlns="http://www.w3.org/2000/svg" xmlns:xlink="http://www.w3.org/1999/xlink" x="0px" y="0px"
	 width="348px" height="348px" viewBox="0 0 348 348" enable-background="new 0 0 348 348" xml:space="preserve">
<g>
	<g>
		<g>
			<path fill="none" stroke="#000000" stroke-width="13" stroke-miterlimit="10" d="M289,174c0,63.511-51.492,115-115,115
				c-63.512,0-115-51.489-115-115c0-63.512,51.488-115,115-115C237.508,59,289,110.488,289,174z"/>
		</g>
	</g>
	<g>
		<path d="M161.965,227.487c0-6.644,5.388-12.034,12.035-12.034c6.649,0,12.033,5.391,12.033,12.034
			c0,6.649-5.384,12.035-12.033,12.035C167.354,239.522,161.965,234.137,161.965,227.487z"/>
		<g>
			<line fill="none" stroke="#000000" stroke-width="13" stroke-miterlimit="10" x1="174" y1="108.477" x2="174" y2="191.385"/>
		</g>
	</g>
</g>
</svg>
