<?xml version="1.0" encoding="utf-8"?>
<!-- Generator: Adobe Illustrator 16.0.3, SVG Export Plug-In . SVG Version: 6.00 Build 0)  -->
<!DOCTYPE svg PUBLIC "-//W3C//DTD SVG 1.1//EN" "http://www.w3.org/Graphics/SVG/1.1/DTD/svg11.dtd">
<svg version="1.1" id="Layer_1" xmlns="http://www.w3.org/2000/svg" xmlns:xlink="http://www.w3.org/1999/xlink" x="0px" y="0px"
	 width="80px" height="80px" viewBox="0 0 80 80" enable-background="new 0 0 80 80" xml:space="preserve">
<g>
	<path d="M27.541,67.651c-1.26,0-2.479-0.178-3.625-0.529c-2.066-0.635-4.033-1.903-5.689-3.668
		c-3.479-3.705-4.01-8.547-1.537-14.002c0.371-0.817,0.795-1.613,1.207-2.383c1.406-2.627,2.619-4.896,1.588-7.493
		c-0.463-1.165-1.5-2.372-2.502-3.54c-0.4-0.469-0.791-0.924-1.14-1.366c-2.319-2.954-3.075-6.724-2.129-10.618
		c1.06-4.355,4.065-8.133,7.845-9.855c2.688-1.225,5.352-1.848,7.918-1.848c4.541,0,8.639,1.991,11.85,5.758
		c3.676,4.313,5.742,6.346,8.805,6.346c1.088,0,2.361-0.247,3.9-0.754c0.855-0.283,1.76-0.426,2.688-0.426
		c3.977,0,7.805,2.556,9.313,6.215c1.459,3.543,0.441,7.416-2.791,10.623c-1.275,1.266-2.82,2.961-3.465,4.865
		c-0.453,1.352-0.104,2.688,1.039,3.975c0.23,0.259,0.496,0.496,0.779,0.748c0.602,0.535,1.283,1.145,1.777,2.102
		c0.484,0.938,0.797,2.018,0.928,3.205c0.326,2.954-0.729,5.753-2.822,7.486c-0.682,0.564-1.486,1.039-2.391,1.41
		c-2.236,0.916-4.803,0.767-7.545-0.457c-0.977-0.435-1.896-0.946-2.785-1.442l-0.721-0.408c-0.592-0.343-1.203-0.696-1.75-0.856
		c-0.568-0.166-1.287-0.229-1.91-0.152c-0.801,0.093-1.723,0.755-2.615,1.396c-0.332,0.238-0.656,0.471-0.973,0.676
		c-1.789,1.164-3.295,2.035-4.736,2.74C32.992,66.894,30.129,67.651,27.541,67.651z M29.479,15.351
		c-2.135,0-4.381,0.529-6.674,1.575c-2.916,1.33-5.34,4.405-6.175,7.835c-0.726,2.98-0.166,5.842,1.574,8.055
		c0.321,0.41,0.685,0.832,1.058,1.267c1.108,1.292,2.365,2.755,3.012,4.387c1.545,3.894-0.194,7.146-1.729,10.017
		c-0.407,0.76-0.791,1.478-1.121,2.205c-1.985,4.381-1.661,7.885,0.992,10.711c1.3,1.385,2.815,2.371,4.384,2.854
		c2.762,0.848,6.094,0.326,9.936-1.553c1.33-0.65,2.736-1.465,4.418-2.561c0.279-0.182,0.566-0.388,0.859-0.599
		c1.145-0.823,2.445-1.757,4.018-1.938c1.004-0.115,2.143-0.026,3.102,0.254c0.893,0.263,1.697,0.729,2.408,1.14l0.678,0.385
		c0.871,0.483,1.691,0.942,2.547,1.323c1.979,0.881,3.709,1.025,5.188,0.422c0.621-0.256,1.164-0.574,1.613-0.945
		c1.314-1.089,1.969-2.9,1.754-4.848c-0.088-0.811-0.299-1.557-0.609-2.158c-0.238-0.463-0.623-0.805-1.109-1.238
		c-0.318-0.283-0.678-0.604-1.023-0.992c-1.857-2.088-2.439-4.549-1.641-6.926c0.844-2.5,2.686-4.541,4.193-6.037
		c2.361-2.342,3.117-4.953,2.131-7.352c-1.039-2.525-3.789-4.357-6.537-4.357c-0.607,0-1.195,0.092-1.748,0.273
		c-1.846,0.609-3.43,0.904-4.84,0.904c-4.449,0-7.279-2.93-11.088-7.398C36.383,16.933,33.164,15.351,29.479,15.351z"/>
</g>
</svg>
