<?xml version="1.0" encoding="iso-8859-1"?>
<!-- Generator: Adobe Illustrator 16.0.0, SVG Export Plug-In . SVG Version: 6.00 Build 0)  -->
<!DOCTYPE svg PUBLIC "-//W3C//DTD SVG 1.1//EN" "http://www.w3.org/Graphics/SVG/1.1/DTD/svg11.dtd">
<svg version="1.1" id="Layer_1" xmlns="http://www.w3.org/2000/svg" xmlns:xlink="http://www.w3.org/1999/xlink" x="0px" y="0px"
	 width="180px" height="180px" viewBox="0 0 180 180" enable-background="new 0 0 180 180" xml:space="preserve">
<g>
	<path d="M117.257,136.283c0.042,0.044,0.072,0.095,0.116,0.137c0.679,0.652,1.553,0.977,2.426,0.977
		c0.86,0,1.714-0.328,2.384-0.956c0.015-0.014,0.032-0.023,0.047-0.037c0.003-0.003,0.005-0.007,0.008-0.009
		c0.027-0.026,0.059-0.045,0.085-0.072l19.352-20.129c1.339-1.394,1.296-3.609-0.098-4.949c-1.392-1.338-3.607-1.296-4.949,0.098
		l-16.819,17.495l-8.533-8.871c-1.341-1.392-3.556-1.436-4.949-0.096c-1.393,1.34-1.436,3.556-0.096,4.949L117.257,136.283z"/>
	<path d="M149.799,92.479H95.256c-1.933,0-3.5,1.567-3.5,3.5v54.543c0,1.933,1.567,3.5,3.5,3.5h54.543c1.933,0,3.5-1.567,3.5-3.5
		V95.979C153.299,94.046,151.731,92.479,149.799,92.479z M146.299,147.021H98.756V99.479h47.543V147.021z"/>
	<path d="M76.976,110.912c-2.273,1.053-4.643,1.8-7.083,2.258c-0.325,0.062-0.65,0.122-0.978,0.173
		c-0.196,0.03-0.394,0.053-0.59,0.079c-0.32,0.043-0.64,0.088-0.962,0.12c-0.253,0.026-0.508,0.042-0.762,0.062
		c-0.267,0.021-0.533,0.046-0.801,0.06c-0.527,0.026-1.057,0.042-1.589,0.042c-0.521,0-1.039-0.014-1.553-0.039
		c-0.141-0.008-0.28-0.022-0.42-0.032c-0.378-0.023-0.756-0.048-1.131-0.086c-0.063-0.006-0.125-0.017-0.188-0.023
		c-15.276-1.647-27.21-14.613-27.21-30.315c0-0.026-0.007-0.051-0.008-0.078V59.49h61.008v19.84c0,1.933,1.567,3.5,3.5,3.5
		s3.5-1.567,3.5-3.5V55.99c0-1.933-1.567-3.5-3.5-3.5H84.717V25.385c0-1.933-1.567-3.5-3.5-3.5s-3.5,1.567-3.5,3.5V52.49H50.701
		V25.385c0-1.933-1.567-3.5-3.5-3.5s-3.5,1.567-3.5,3.5V52.49h-13.5c-1.933,0-3.5,1.567-3.5,3.5v27.211
		c0,0.035,0.009,0.066,0.01,0.101c0.044,18.061,12.925,33.162,29.985,36.646c0.008,0.001,0.015,0.005,0.023,0.007
		c0.474,0.097,0.952,0.175,1.431,0.253c0.125,0.021,0.248,0.047,0.374,0.066c0.4,0.061,0.803,0.105,1.206,0.153
		c0.227,0.027,0.452,0.063,0.68,0.085c0.101,0.011,0.202,0.016,0.303,0.024v34.078c0,1.933,1.567,3.5,3.5,3.5s3.5-1.567,3.5-3.5
		v-34.078c0.122-0.011,0.244-0.02,0.366-0.032c0.409-0.041,0.813-0.098,1.219-0.152c0.227-0.031,0.455-0.057,0.682-0.092
		c0.425-0.065,0.848-0.145,1.27-0.225c0.152-0.029,0.306-0.05,0.457-0.081c0.019-0.004,0.035-0.013,0.053-0.017
		c2.805-0.572,5.533-1.459,8.159-2.675c1.754-0.812,2.518-2.893,1.705-4.646C80.811,110.862,78.731,110.099,76.976,110.912z"/>
</g>
</svg>
