<?xml version="1.0" encoding="utf-8"?>
<!-- Generator: Adobe Illustrator 16.0.0, SVG Export Plug-In . SVG Version: 6.00 Build 0)  -->
<!DOCTYPE svg PUBLIC "-//W3C//DTD SVG 1.1//EN" "http://www.w3.org/Graphics/SVG/1.1/DTD/svg11.dtd">
<svg version="1.1" id="Icon" xmlns="http://www.w3.org/2000/svg" xmlns:xlink="http://www.w3.org/1999/xlink" x="0px" y="0px"
	 width="120px" height="120px" viewBox="0 0 120 120" enable-background="new 0 0 120 120" xml:space="preserve">
<path d="M106.795,28.91H23.982c-2.182,0-3.957,1.775-3.957,3.957v13.091h-7.065c-2.182,0-3.957,1.775-3.957,3.957v20.173
	c0,2.182,1.775,3.957,3.957,3.957h7.065v13.089c0,2.182,1.775,3.957,3.957,3.957h82.813c2.182,0,3.957-1.775,3.957-3.957V32.867
	C110.752,30.686,108.977,28.91,106.795,28.91z M105.1,85.438H25.678V74.045v-2.826v-2.826H14.655V51.61h11.023v-2.826v-2.826V34.563
	H105.1V85.438z"/>
</svg>
