<?xml version="1.0" encoding="utf-8"?>
<!-- Generator: Adobe Illustrator 16.0.0, SVG Export Plug-In . SVG Version: 6.00 Build 0)  -->
<!DOCTYPE svg PUBLIC "-//W3C//DTD SVG 1.1//EN" "http://www.w3.org/Graphics/SVG/1.1/DTD/svg11.dtd">
<svg version="1.1" id="Layer_1" xmlns="http://www.w3.org/2000/svg" xmlns:xlink="http://www.w3.org/1999/xlink" x="0px" y="0px"
	 width="160px" height="160px" viewBox="0 0 160 160" enable-background="new 0 0 160 160" xml:space="preserve">
<g>
	<g>
		<g>
			<g>
				<g>
					<g>
						<path d="M91.743,126.607H68.258c-3.726,0-6.757-3.031-6.757-6.758V72.979c0-3.727,3.031-6.758,6.757-6.758h23.485
							c3.726,0,6.757,3.031,6.757,6.758v46.871C98.5,123.576,95.469,126.607,91.743,126.607z M68.258,71.222
							c-0.969,0-1.757,0.789-1.757,1.758v46.872c0,0.951,0.805,1.756,1.757,1.756h23.485c0.952,0,1.757-0.805,1.757-1.756V72.979
							c0-0.969-0.788-1.758-1.757-1.758L68.258,71.222L68.258,71.222z"/>
						<path d="M84.268,117.607h-9.202c-1.381,0-2.5-1.119-2.5-2.5s1.119-2.5,2.5-2.5h9.202c1.381,0,2.5,1.119,2.5,2.5
							S85.648,117.607,84.268,117.607z"/>
					</g>
				</g>
			</g>
		</g>
	</g>
	<g>
		<g>
			<g>
				<path d="M98.264,61.191c-10.07-9.726-26.456-9.726-36.526,0l-3.474-3.597c11.986-11.575,31.487-11.575,43.474,0L98.264,61.191z"
					/>
				<path d="M109.223,50.65C101.414,42.746,91.037,38.394,80,38.394S58.586,42.746,50.779,50.65l-3.558-3.514
					C55.976,38.274,67.617,33.394,80,33.394c12.384,0,24.025,4.881,32.779,13.743L109.223,50.65z"/>
			</g>
		</g>
	</g>
</g>
</svg>
