<?xml version="1.0" encoding="utf-8"?>
<!-- Generator: Adobe Illustrator 16.0.0, SVG Export Plug-In . SVG Version: 6.00 Build 0)  -->
<!DOCTYPE svg PUBLIC "-//W3C//DTD SVG 1.1//EN" "http://www.w3.org/Graphics/SVG/1.1/DTD/svg11.dtd">
<svg version="1.1" id="Layer_1" xmlns="http://www.w3.org/2000/svg" xmlns:xlink="http://www.w3.org/1999/xlink" x="0px" y="0px"
	 width="120px" height="120px" viewBox="0 0 120 120" enable-background="new 0 0 120 120" xml:space="preserve">
<g>
	<path d="M107.335,104H12.368c-1.253,0-2.352-0.592-2.939-1.585c-0.587-0.993-0.564-2.219,0.062-3.28l47.485-80.43
		c0.625-1.061,1.701-1.696,2.876-1.696c1.175,0,2.251,0.635,2.877,1.698l47.483,80.426c0.627,1.063,0.649,2.29,0.063,3.282
		S108.588,104,107.335,104z M15.959,98.728h87.784L59.851,24.384L15.959,98.728z"/>
	<path d="M55.797,87.657c0-2.186,1.814-3.964,4.055-3.964c2.238,0,4.053,1.778,4.053,3.964c0,2.187-1.815,3.959-4.053,3.959
		C57.612,91.616,55.797,89.843,55.797,87.657z"/>
	<rect x="57.153" y="48.636" width="5.396" height="28.473"/>
</g>
</svg>
