<?xml version="1.0" encoding="utf-8"?>
<!-- Generator: Adobe Illustrator 16.0.0, SVG Export Plug-In . SVG Version: 6.00 Build 0)  -->
<!DOCTYPE svg PUBLIC "-//W3C//DTD SVG 1.1//EN" "http://www.w3.org/Graphics/SVG/1.1/DTD/svg11.dtd">
<svg version="1.1" id="Layer_2" xmlns="http://www.w3.org/2000/svg" xmlns:xlink="http://www.w3.org/1999/xlink" x="0px" y="0px"
	 width="140px" height="140px" viewBox="0 0 140 140" enable-background="new 0 0 140 140" xml:space="preserve">
<path d="M83.917,78c3.403-4.825,5.496-11.041,5.491-16.688c0.005-7.161-2.748-14.366-8.211-19.828
	c-5.466-5.464-12.668-8.216-19.829-8.214c-7.159-0.002-14.364,2.75-19.827,8.214c-5.468,5.461-8.22,12.667-8.213,19.828
	c-0.007,7.16,2.746,14.363,8.213,19.83c5.456,5.459,12.659,8.216,19.817,8.21h0.027c5.638,0,11.874-2.119,16.697-5.519l22.25,22.521
	l6.083-6.021L83.917,78z M61.333,80.833C50.656,80.833,42,72.178,42,61.5c0-10.677,8.656-19.333,19.333-19.333
	c10.678,0,19.333,8.656,19.333,19.333C80.666,72.178,72.011,80.833,61.333,80.833z"/>
</svg>
