<?xml version="1.0" encoding="utf-8"?>
<!-- Generator: Adobe Illustrator 16.0.3, SVG Export Plug-In . SVG Version: 6.00 Build 0)  -->
<!DOCTYPE svg PUBLIC "-//W3C//DTD SVG 1.1//EN" "http://www.w3.org/Graphics/SVG/1.1/DTD/svg11.dtd">
<svg version="1.1" id="Layer_1" xmlns="http://www.w3.org/2000/svg" xmlns:xlink="http://www.w3.org/1999/xlink" x="0px" y="0px"
	 width="80px" height="80px" viewBox="0 0 80 80" enable-background="new 0 0 80 80" xml:space="preserve">
<g>
	<g>
		<path d="M50.013,47.242V16.483c0-5.489-4.498-9.957-9.984-9.957c-5.49,0-10.02,4.468-10.02,9.957v30.739
			c-3.213,2.846-5.027,6.879-5.027,11.209c0,8.273,6.762,15.043,15.035,15.043c8.271,0,15.002-6.77,15.002-15.043
			C55.019,54.117,53.214,50.092,50.013,47.242z M40.017,70.549c-6.551,0-12.016-5.564-12.016-12.117
			c0-3.641,1.574-7.027,4.418-9.293c0.385-0.307,0.578-0.76,0.58-1.217c0.002-0.023,0.008-0.047,0.008-0.07V16.297
			c0-3.77,3.254-6.836,7.021-6.836c3.766,0,6.998,3.066,6.998,6.836v31.555c0,0.021,0.006,0.041,0.006,0.061
			c-0.006,0.465,0.189,0.928,0.578,1.242c2.832,2.27,4.443,5.691,4.443,9.316C52.054,65.023,46.567,70.549,40.017,70.549z
			 M41.993,53.926V17.071c0-0.862-1.086-1.562-1.947-1.562c-0.863,0-2.041,0.699-2.041,1.562v36.87
			c-1.76,0.775-2.99,2.527-2.99,4.572c0,2.762,2.238,5,5,5s5-2.238,5-5C45.015,56.457,43.771,54.691,41.993,53.926z"/>
	</g>
</g>
</svg>
