<?xml version="1.0" encoding="iso-8859-1"?>
<!-- Generator: Adobe Illustrator 16.0.0, SVG Export Plug-In . SVG Version: 6.00 Build 0)  -->
<!DOCTYPE svg PUBLIC "-//W3C//DTD SVG 1.1//EN" "http://www.w3.org/Graphics/SVG/1.1/DTD/svg11.dtd">
<svg version="1.1" xmlns="http://www.w3.org/2000/svg" xmlns:xlink="http://www.w3.org/1999/xlink" x="0px" y="0px" width="156px"
	 height="156px" viewBox="0 0 156 156" style="enable-background:new 0 0 156 156;" xml:space="preserve">
<g id="main_x5F_drop_x5F_list_x5F_ic_x5F_spin">
	<g>
		<path style="fill:none;stroke:#00abf1;stroke-width:5;stroke-linecap:round;stroke-linejoin:round;stroke-miterlimit:10;" d="
			M70.414,60.244c-0.807-0.106-1.75-0.138-2.569-0.075c-0.844,0.063-1.825,0.25-2.644,0.488c-0.869,0.25-1.825,0.65-2.619,1.075
			c-0.837,0.45-1.73,1.063-2.449,1.669c-0.757,0.644-1.544,1.475-2.156,2.244c-0.632,0.819-1.263,1.825-1.707,2.75
			c-0.487,0.969-0.912,2.131-1.181,3.175c-0.275,1.087-0.463,2.356-0.519,3.481c-0.057,1.163,0.024,2.494,0.206,3.644
			c0.193,1.193,0.544,2.531,0.969,3.668c0.443,1.168,1.094,2.449,1.763,3.519c0.688,1.087,1.612,2.263,2.506,3.2
			c0.932,0.961,2.112,1.961,3.206,2.717c1.144,0.787,2.538,1.55,3.819,2.088c1.306,0.563,2.881,1.043,4.287,1.324
			c1.443,0.294,3.119,0.463,4.6,0.463c1.513,0,3.257-0.182,4.739-0.487c1.524-0.313,3.237-0.851,4.675-1.463
			c1.475-0.625,3.094-1.524,4.419-2.431c1.355-0.932,2.793-2.161,3.949-3.349c1.176-1.219,2.388-2.75,3.288-4.175
			c0.938-1.469,1.837-3.25,2.462-4.869c0.65-1.669,1.188-3.644,1.488-5.406c0.306-1.794,0.449-3.894,0.394-5.719
			c-0.057-1.875-0.344-4.006-0.769-5.825c-0.438-1.862-1.15-3.956-1.95-5.693c-0.813-1.781-1.95-3.731-3.112-5.319
			c-1.169-1.625-2.707-3.344-4.182-4.694c-1.513-1.394-3.394-2.813-5.15-3.875c-1.781-1.081-3.962-2.119-5.931-2.825
			c-2.013-0.725-4.401-1.325-6.507-1.637c-2.156-0.325-4.668-0.444-6.855-0.332c-2.219,0.113-4.757,0.494-6.913,1.044
			c-2.2,0.563-4.656,1.456-6.706,2.444c-2.081,0.994-4.362,2.387-6.213,3.775c-1.881,1.419-3.875,3.263-5.443,5.031
			c-1.606,1.794-3.225,4.038-4.443,6.112c-1.231,2.113-2.4,4.675-3.2,6.994c-0.807,2.356-1.469,5.156-1.807,7.625
			c-0.325,2.512-0.425,5.438-0.256,7.969c0.162,2.581,0.649,5.512,1.318,8.005c0.688,2.538,1.763,5.361,2.938,7.718
			c1.188,2.387,2.819,5,4.45,7.112c1.662,2.149,3.813,4.419,5.869,6.2c2.081,1.8,4.688,3.644,7.081,5.006
			c2.443,1.381,5.394,2.693,8.056,3.575c2.713,0.888,5.913,1.606,8.744,1.95c2.862,0.355,6.193,0.425,9.094,0.206
			c2.925-0.219,6.263-0.813,9.088-1.606c2.875-0.807,6.068-2.057,8.737-3.412c2.693-1.375,5.631-3.257,8-5.132
			c2.419-1.912,4.962-4.368,6.95-6.706c2.024-2.375,4.063-5.325,5.587-8.05c1.531-2.769,2.976-6.111,3.932-9.124
			c0.987-3.05,1.763-6.662,2.118-9.849c0.363-3.231,0.419-6.975,0.145-10.212c-0.275-3.281-0.976-7.013-1.888-10.181"/>
	</g>
</g>
<g id="Layer_1">
</g>
</svg>
