<?xml version="1.0" encoding="utf-8"?>
<!-- Generator: Adobe Illustrator 16.0.0, SVG Export Plug-In . SVG Version: 6.00 Build 0)  -->
<!DOCTYPE svg PUBLIC "-//W3C//DTD SVG 1.1//EN" "http://www.w3.org/Graphics/SVG/1.1/DTD/svg11.dtd">
<svg version="1.1" id="Layer_1" xmlns="http://www.w3.org/2000/svg" xmlns:xlink="http://www.w3.org/1999/xlink" x="0px" y="0px"
	 width="288px" height="288px" viewBox="0 0 288 288" enable-background="new 0 0 288 288" xml:space="preserve">
<g>
	<path d="M78.018,260.499c-2.168,0-4.359-0.365-6.417-1.113c-5.547-2.022-9.113-6.467-9.113-11.366V49.98
		c0-4.895,3.566-9.338,9.113-11.362c5.563-2.027,12.066-1.251,16.648,1.97l140.953,99.02c3.379,2.364,5.311,5.792,5.311,9.391
		c0,3.6-1.932,7.027-5.311,9.393l-140.953,99.02C85.361,259.443,81.716,260.499,78.018,260.499z M93.559,77.473v143.054L195.38,149
		L93.559,77.473z"/>
</g>
</svg>
