<?xml version="1.0" encoding="utf-8"?>
<!-- Generator: Adobe Illustrator 16.0.0, SVG Export Plug-In . SVG Version: 6.00 Build 0)  -->
<!DOCTYPE svg PUBLIC "-//W3C//DTD SVG 1.1//EN" "http://www.w3.org/Graphics/SVG/1.1/DTD/svg11.dtd">
<svg version="1.1" id="Layer_1" xmlns="http://www.w3.org/2000/svg" xmlns:xlink="http://www.w3.org/1999/xlink" x="0px" y="0px"
	 width="224px" height="224px" viewBox="0 0 224 224" enable-background="new 0 0 224 224" xml:space="preserve">
<g>
	<path d="M142.508,73.324c-0.492-0.475-1.06-0.869-1.683-1.17c-0.069-0.046-0.136-0.098-0.205-0.143l-0.021,0.034
		c-0.797-0.348-1.676-0.544-2.601-0.544c-3.59,0-6.5,2.91-6.5,6.5c0,2.145,1.043,4.041,2.646,5.225l-0.033,0.059
		C144.602,90.382,151.5,102.38,151.5,116c0,21.814-17.686,39.5-39.5,39.5c-21.815,0-39.5-17.686-39.5-39.5
		c0-13.435,6.712-25.294,16.96-32.431l-0.031-0.055C91.271,82.367,92.5,80.33,92.5,78c0-3.59-2.91-6.5-6.5-6.5
		c-1.711,0-3.263,0.666-4.423,1.747C68.225,82.764,59.5,98.353,59.5,116c0,28.995,23.505,52.5,52.5,52.5s52.5-23.505,52.5-52.5
		C164.5,98.393,155.813,82.842,142.508,73.324z"/>
	<path d="M111.5,109.5c3.59,0,6.5-2.91,6.5-6.5V62c0-3.59-2.91-6.5-6.5-6.5S105,58.41,105,62v41
		C105,106.59,107.91,109.5,111.5,109.5z"/>
</g>
</svg>
