<?xml version="1.0" encoding="iso-8859-1"?>
<!-- Generator: Adobe Illustrator 16.0.0, SVG Export Plug-In . SVG Version: 6.00 Build 0)  -->
<!DOCTYPE svg PUBLIC "-//W3C//DTD SVG 1.1//EN" "http://www.w3.org/Graphics/SVG/1.1/DTD/svg11.dtd">
<svg version="1.1" xmlns="http://www.w3.org/2000/svg" xmlns:xlink="http://www.w3.org/1999/xlink" x="0px" y="0px" width="224px"
	 height="224px" viewBox="0 0 224 224" style="enable-background:new 0 0 224 224;" xml:space="preserve">
<g id="main_x5F_subbar_x5F_ic_x5F_power">
	<path fill="#00abf1" fill-opacity="0.5" d="M142.508,73.324c-0.492-0.475-1.06-0.869-1.683-1.17c-0.069-0.046-0.135-0.098-0.205-0.143l-0.02,0.034
		c-0.797-0.348-1.676-0.544-2.601-0.544c-3.59,0-6.5,2.91-6.5,6.5c0,2.145,1.043,4.041,2.646,5.225l-0.034,0.059
		C144.601,90.382,151.5,102.38,151.5,116c0,21.815-17.685,39.5-39.5,39.5S72.5,137.815,72.5,116c0-13.435,6.712-25.294,16.96-32.431
		l-0.031-0.055C91.271,82.367,92.5,80.33,92.5,78c0-3.59-2.91-6.5-6.5-6.5c-1.711,0-3.263,0.666-4.423,1.747
		C68.225,82.764,59.5,98.353,59.5,116c0,28.995,23.505,52.5,52.5,52.5s52.5-23.505,52.5-52.5
		C164.5,98.393,155.812,82.842,142.508,73.324z M111.5,109.5c3.59,0,6.5-2.91,6.5-6.5V62c0-3.59-2.91-6.5-6.5-6.5S105,58.41,105,62
		v41C105,106.59,107.91,109.5,111.5,109.5z"/>
</g>
<g id="Layer_1">
</g>
</svg>
