<?xml version="1.0" encoding="utf-8"?>
<!-- Generator: Adobe Illustrator 16.0.3, SVG Export Plug-In . SVG Version: 6.00 Build 0)  -->
<!DOCTYPE svg PUBLIC "-//W3C//DTD SVG 1.1//EN" "http://www.w3.org/Graphics/SVG/1.1/DTD/svg11.dtd">
<svg version="1.1" id="Layer_1" xmlns="http://www.w3.org/2000/svg" xmlns:xlink="http://www.w3.org/1999/xlink" x="0px" y="0px"
	 width="80px" height="80px" viewBox="0 0 80 80" enable-background="new 0 0 80 80" xml:space="preserve">
<g>
	<g>
		<path d="M65.454,20.027c-0.715-0.153-1.422,0.308-1.572,1.027l-2.51,11.875c-2.887-2.385-6.254-3.916-9.865-3.925
			c-3.822-0.008-7.285,1.033-12.248,4.543c-0.006,0.005-0.016,0.007-0.023,0.013c-4.898,3.465-7.928,3.444-10.729,3.444
			c-3.748,0-7.076-1.22-9.934-4.334L16.12,21.055c-0.152-0.72-0.855-1.18-1.572-1.027c-0.716,0.154-1.173,0.861-1.021,1.582
			l2.473,11.701c0.003,0.164,0.037,0.326,0.102,0.48l5.312,25.145l0.001,0.004l0.001,0.008l0.003,0.007
			c0.029,0.142,0.085,0.271,0.156,0.392c0.008,0.014,0.015,0.029,0.023,0.043c0.071,0.111,0.159,0.207,0.258,0.293
			c0.019,0.016,0.037,0.029,0.056,0.045c0.103,0.078,0.212,0.143,0.335,0.188c0.02,0.008,0.039,0.012,0.061,0.02
			c0.127,0.041,0.26,0.068,0.4,0.069h34.555c0.004,0,0.01-0.002,0.014-0.002c0,0,0.01,0.002,0.014,0.002
			c0.016,0,0.027-0.006,0.041-0.007c0.104-0.006,0.205-0.023,0.301-0.053c0.119-0.032,0.227-0.084,0.332-0.147
			c0.014-0.008,0.027-0.015,0.041-0.022c0.283-0.186,0.504-0.467,0.58-0.826l4.895-23.155c0.002-0.009,0.004-0.019,0.006-0.026
			l2.99-14.154C66.626,20.889,66.169,20.18,65.454,20.027z M59.032,44.002h-5.109c-0.732,0-1.326,0.598-1.326,1.333
			s0.18,1.67,0.91,1.67h5l-2,10h-33l-2-10h5c0.732,0,0.893-0.935,0.893-1.67s-0.594-1.333-1.326-1.333H20.97l-1.465-6.929
			c2.668,1.929,5.641,2.907,8.887,2.907c3.818,0,7.379-0.719,12.34-4.219c0.01-0.007,0.021-0.011,0.029-0.018
			c4.9-3.469,7.947-3.739,10.746-3.739c3.457,0,6.545,1.285,9.23,3.927L59.032,44.002z M37.517,45.425
			c0-0.735-0.279-1.379-1.012-1.379l-3.801-0.044c-0.73,0-1.191,0.643-1.191,1.378s0.262,1.625,0.994,1.625h4
			C37.239,47.005,37.517,46.16,37.517,45.425z M48.483,45.38c0-0.735-0.244-1.375-0.977-1.375h-4c-0.73,0-0.982,0.64-0.982,1.375
			s0.252,1.625,0.982,1.625h4C48.239,47.005,48.483,46.115,48.483,45.38z M42.507,51.005h-5c-0.732,0-1,0.265-1,1
			c0,0.736,0.268,1,1,1h5c0.732,0,1-0.264,1-1C43.507,51.27,43.239,51.005,42.507,51.005z M47.507,52.005c0,0.736,0.27,1,1,1h5
			c0.732,0,1-0.264,1-1c0-0.735-0.268-1-1-1h-5C47.776,51.005,47.507,51.268,47.507,52.005z M31.509,51.005h-5c-0.732,0-1,0.265-1,1
			c0,0.736,0.268,1,1,1h5c0.73,0,1-0.264,1-1C32.509,51.27,32.239,51.005,31.509,51.005z"/>
	</g>
</g>
</svg>
