<?xml version="1.0" encoding="utf-8"?>
<!-- Generator: Adobe Illustrator 16.0.0, SVG Export Plug-In . SVG Version: 6.00 Build 0)  -->
<!DOCTYPE svg PUBLIC "-//W3C//DTD SVG 1.1//EN" "http://www.w3.org/Graphics/SVG/1.1/DTD/svg11.dtd">
<svg version="1.1" id="Icon" xmlns="http://www.w3.org/2000/svg" xmlns:xlink="http://www.w3.org/1999/xlink" x="0px" y="0px"
	 width="160px" height="160px" viewBox="0 0 160 160" enable-background="new 0 0 160 160" xml:space="preserve">
<g>
	<path d="M80.374,38.852c-22.931,0-41.522,18.591-41.522,41.524c0,22.931,18.591,41.522,41.522,41.522
		c22.933,0,41.524-18.591,41.524-41.522C121.898,57.442,103.307,38.852,80.374,38.852z M80.374,117.651
		c-20.553,0-37.275-16.722-37.275-37.275c0-20.555,16.722-37.277,37.275-37.277c20.555,0,37.277,16.723,37.277,37.277
		C117.651,100.929,100.929,117.651,80.374,117.651z"/>
	<polygon points="76.543,102.903 83.665,102.903 83.665,69.502 76.543,69.888 	"/>
	<path d="M80.133,58.626c-2.797,0-4.196,1.124-4.196,3.367c0,1.214,0.349,2.062,1.049,2.54c0.699,0.479,1.748,0.717,3.147,0.717
		c2.796,0,4.195-1.084,4.195-3.257C84.328,59.75,82.929,58.626,80.133,58.626z"/>
</g>
</svg>
