<?xml version="1.0" encoding="utf-8"?>
<!-- Generator: Adobe Illustrator 16.0.0, SVG Export Plug-In . SVG Version: 6.00 Build 0)  -->
<!DOCTYPE svg PUBLIC "-//W3C//DTD SVG 1.1//EN" "http://www.w3.org/Graphics/SVG/1.1/DTD/svg11.dtd">
<svg version="1.1" id="Layer_1" xmlns="http://www.w3.org/2000/svg" xmlns:xlink="http://www.w3.org/1999/xlink" x="0px" y="0px"
	 width="180px" height="180px" viewBox="0 0 180 180" enable-background="new 0 0 180 180" xml:space="preserve">
<g>
	<path d="M89.946,36.447c-4.855,0-8.795,3.938-8.795,8.798c0,4.855,3.939,8.794,8.795,8.794c4.86,0,8.8-3.938,8.8-8.794
		C98.746,40.386,94.808,36.447,89.946,36.447z"/>
	<path d="M89.945,25.659c-10.798,0-19.583,8.787-19.583,19.589c0,10.796,8.785,19.578,19.583,19.578
		c10.802,0,19.59-8.782,19.59-19.578C109.535,34.446,100.747,25.659,89.945,25.659z M89.945,59.576
		c-7.914,0-14.333-6.419-14.333-14.328c0-7.92,6.419-14.339,14.333-14.339c7.921,0,14.34,6.419,14.34,14.339
		C104.285,53.157,97.866,59.576,89.945,59.576z"/>
	<path d="M89.946,71.728c-8.968,0-16.265,7.299-16.265,16.269c0,8.967,7.297,16.263,16.265,16.263c8.971,0,16.27-7.296,16.27-16.263
		C106.216,79.026,98.917,71.728,89.946,71.728z M89.946,100.06c-6.662,0-12.064-5.404-12.064-12.063
		c0-6.667,5.402-12.068,12.064-12.068c6.667,0,12.069,5.401,12.069,12.068C102.017,94.655,96.612,100.06,89.946,100.06z"/>
	<path d="M126.433,24.156c-0.078-9.927-8.17-17.979-18.113-17.979H71.692c-0.05,0-0.097,0.013-0.146,0.015
		c-9.874,0.075-17.889,8.083-17.976,17.954c-0.003,0.061-0.018,0.117-0.018,0.178v146c0,1.934,1.567,3.5,3.5,3.5
		c0.049,0,0.095-0.012,0.143-0.014c0.049,0.002,0.095,0.014,0.144,0.014h65.609c1.934,0,3.5-1.566,3.5-3.5v-146
		C126.448,24.267,126.435,24.213,126.433,24.156z M119.448,166.823H60.553V24.404c0.001-0.033,0.01-0.063,0.01-0.097
		c0-6.133,4.989-11.122,11.121-11.122c0.026,0,0.051-0.008,0.077-0.008h36.558c6.132,0,11.121,4.988,11.121,11.121
		c0,0.033,0.009,0.063,0.01,0.097v142.428H119.448z"/>
</g>
</svg>
