<?xml version="1.0" encoding="utf-8"?>
<!-- Generator: Adobe Illustrator 16.0.0, SVG Export Plug-In . SVG Version: 6.00 Build 0)  -->
<!DOCTYPE svg PUBLIC "-//W3C//DTD SVG 1.1//EN" "http://www.w3.org/Graphics/SVG/1.1/DTD/svg11.dtd">
<svg version="1.1" id="Layer_1" xmlns="http://www.w3.org/2000/svg" xmlns:xlink="http://www.w3.org/1999/xlink" x="0px" y="0px"
	 width="160px" height="160px" viewBox="0 0 160 160" enable-background="new 0 0 160 160" xml:space="preserve">
<g>
	<g>
		<path d="M77.781,74.301c-8.75,0-15.869-5.99-15.869-13.353h5c0,4.606,4.876,8.353,10.869,8.353c5.998,0,10.879-3.747,10.879-8.353
			h5C93.66,68.311,86.537,74.301,77.781,74.301z"/>
		<path d="M78.656,127.209H54.911c-1.381,0-2.5-1.119-2.5-2.5V86.264h5v35.945h21.245V127.209z"/>
		<path d="M112.766,80.369l-0.002-2.801c0-0.454-0.08-0.894-0.238-1.307c-0.303-0.794-0.879-1.469-1.625-1.898
			c-0.123-0.072-0.24-0.154-0.349-0.244L89.447,61.411c-0.028-0.017-0.057-0.035-0.086-0.054L72.499,50.25
			c-2.224-1.565-3.663-3.837-4.116-6.442c-0.936-5.378,2.673-10.515,8.046-11.451c2.594-0.458,5.217,0.127,7.377,1.645
			c2.166,1.521,3.607,3.796,4.062,6.406l-4.929,0.854c-0.224-1.292-0.937-2.417-2.006-3.169c-1.066-0.749-2.357-1.038-3.643-0.812
			c-2.661,0.463-4.445,3.005-3.982,5.668c0.225,1.291,0.937,2.416,2.005,3.168L92.07,57.154l21.426,12.903
			c0.121,0.073,0.234,0.155,0.339,0.244c1.528,1.006,2.713,2.474,3.362,4.181c0.375,0.983,0.564,2.021,0.564,3.085l0.002,2.799
			L112.766,80.369z"/>
		<path d="M54.911,100.771H40.342c-1.381,0-2.5-1.119-2.5-2.5c0-0.059,0.002-0.115,0.006-0.174l0.012-20.533
			c0-3.091,1.671-5.978,4.36-7.532l21.431-12.906l12.272-8.051l2.742,4.181L66.312,61.36L44.76,74.34
			c-1.205,0.697-1.901,1.895-1.901,3.227l-0.01,18.207h12.062V100.771z"/>
	</g>
	<g>
		<path d="M99.787,97.32c-3.73,0-6.768-1.817-9.84-5.896l-2.006-2.475l3.887-3.146l2.059,2.543c2.641,3.5,4.393,3.973,5.9,3.973
			c1.385,0,2.607-0.121,5.748-1.695c3.139-1.6,5.382-2.225,7.986-2.225c3.313,0,6.22,1.24,8.637,3.685l-3.557,3.517
			c-1.463-1.48-3.125-2.201-5.08-2.201c-1.532,0-2.961,0.276-5.73,1.688C104.498,96.738,102.407,97.32,99.787,97.32z"/>
		<polygon points="90.646,95.703 86.646,95.703 86.646,84.098 97.551,84.098 97.551,88.098 90.646,88.098 		"/>
	</g>
	<g>
		<path d="M99.787,112.557c-3.732,0-6.768-1.817-9.842-5.896l-2.004-2.474l3.886-3.146l2.058,2.542
			c2.643,3.501,4.395,3.976,5.902,3.976c1.387,0,2.609-0.123,5.748-1.695c3.139-1.6,5.382-2.225,7.984-2.225
			c3.314,0,6.221,1.238,8.638,3.684l-3.556,3.516c-1.463-1.479-3.125-2.199-5.082-2.199c-1.53,0-2.959,0.276-5.729,1.688
			C104.064,112.191,102.036,112.557,99.787,112.557z"/>
		<polygon points="90.646,110.939 86.646,110.939 86.646,99.334 97.55,99.334 97.55,103.334 90.646,103.334 		"/>
	</g>
	<g>
		<path d="M99.787,127.794c-3.732,0-6.768-1.817-9.842-5.896l-2.004-2.475l3.887-3.146l2.059,2.543c2.641,3.5,4.393,3.975,5.9,3.975
			c1.387,0,2.609-0.122,5.748-1.695c3.141-1.6,5.384-2.226,7.986-2.226c3.313,0,6.221,1.24,8.637,3.687l-3.557,3.515
			c-1.463-1.479-3.125-2.2-5.08-2.2c-1.531,0-2.961,0.275-5.731,1.688C104.064,127.43,102.036,127.794,99.787,127.794z"/>
		<polygon points="90.646,126.177 86.646,126.177 86.646,114.568 97.551,114.568 97.551,118.568 90.646,118.568 		"/>
	</g>
</g>
</svg>
