<?xml version="1.0" encoding="utf-8"?>
<!-- Generator: Adobe Illustrator 16.0.0, SVG Export Plug-In . SVG Version: 6.00 Build 0)  -->
<!DOCTYPE svg PUBLIC "-//W3C//DTD SVG 1.1//EN" "http://www.w3.org/Graphics/SVG/1.1/DTD/svg11.dtd">
<svg version="1.1" id="Layer_1" xmlns="http://www.w3.org/2000/svg" xmlns:xlink="http://www.w3.org/1999/xlink" x="0px" y="0px"
	 width="180px" height="180px" viewBox="0 0 180 180" enable-background="new 0 0 180 180" xml:space="preserve">
<g>
	<path d="M89.999,31.333c-32.399,0-58.666,26.266-58.666,58.668c0,32.399,26.267,58.666,58.666,58.666
		c32.401,0,58.668-26.267,58.668-58.666C148.667,57.599,122.4,31.333,89.999,31.333z M89.999,142.667
		c-29.04,0-52.666-23.626-52.666-52.666c0-29.041,23.626-52.668,52.666-52.668c29.041,0,52.668,23.627,52.668,52.668
		C142.667,119.041,119.04,142.667,89.999,142.667z"/>
	<path d="M89.141,110.645c-1.8,0-3.228,0.521-4.285,1.563s-1.585,2.407-1.585,4.092c0,1.571,0.506,2.886,1.52,3.942
		c1.014,1.058,2.464,1.586,4.35,1.586s3.341-0.528,4.371-1.586c1.028-1.057,1.543-2.371,1.543-3.942
		c0-1.628-0.529-2.978-1.586-4.049S90.969,110.645,89.141,110.645z"/>
	<path d="M90.169,58.066c-5.571,0-10.048,1.472-13.434,4.414c-3.385,2.943-5.106,6.942-5.163,11.999h10.412
		c0-2.371,0.75-4.249,2.25-5.635c1.5-1.386,3.478-2.078,5.935-2.078c2.572,0,4.521,0.707,5.849,2.121
		c1.33,1.414,1.994,3.463,1.994,6.148c0,2.028-0.572,3.914-1.715,5.656c-0.742,1.143-2.507,3.064-5.292,5.764
		c-2.785,2.7-4.65,5.178-5.592,7.436c-0.943,2.256-1.414,5.284-1.414,9.084h9.728c0.057-4.113,1.027-7.242,2.914-9.385l5.27-5.186
		c4.342-4.513,6.513-9.098,6.513-13.755c0-5.228-1.606-9.298-4.819-12.212C100.389,59.523,95.911,58.066,90.169,58.066z"/>
</g>
</svg>
