<?xml version="1.0" encoding="utf-8"?>
<!-- Generator: Adobe Illustrator 16.0.3, SVG Export Plug-In . SVG Version: 6.00 Build 0)  -->
<!DOCTYPE svg PUBLIC "-//W3C//DTD SVG 1.1//EN" "http://www.w3.org/Graphics/SVG/1.1/DTD/svg11.dtd">
<svg version="1.1" id="Layer_1" xmlns="http://www.w3.org/2000/svg" xmlns:xlink="http://www.w3.org/1999/xlink" x="0px" y="0px"
	 width="80px" height="80px" viewBox="0 0 80 80" enable-background="new 0 0 80 80" xml:space="preserve">
<path d="M68.298,31.861c-0.168-1.992-0.588-4.26-1.154-6.221c-0.229-0.797-1.063-1.256-1.855-1.026
	c-0.797,0.229-1.256,1.062-1.025,1.856c0.514,1.781,0.895,3.838,1.047,5.644c0.152,1.786,0.123,3.848-0.08,5.655
	c-0.199,1.775-0.625,3.76-1.174,5.451c-0.527,1.664-1.32,3.502-2.17,5.037c-0.855,1.531-1.98,3.152-3.088,4.451
	c-1.102,1.295-2.498,2.645-3.838,3.703c-1.307,1.033-2.914,2.063-4.41,2.828c-1.477,0.75-3.23,1.436-4.816,1.881
	c-1.547,0.434-3.416,0.766-5,0.883c-1.619,0.125-3.439,0.082-5.006-0.113c-1.543-0.186-3.295-0.578-4.801-1.07
	c-1.463-0.483-3.078-1.198-4.424-1.963c-1.299-0.737-2.75-1.766-3.885-2.746c-1.133-0.981-2.305-2.219-3.215-3.395
	c-0.893-1.158-1.78-2.576-2.437-3.896c-0.644-1.291-1.229-2.829-1.604-4.217c-0.37-1.377-0.633-2.969-0.721-4.373
	c-0.092-1.371-0.041-2.957,0.139-4.34c0.183-1.336,0.551-2.892,0.984-4.156c0.44-1.278,1.075-2.666,1.739-3.805
	c0.679-1.154,1.558-2.365,2.417-3.324c0.855-0.965,1.932-1.959,2.949-2.728c1.01-0.756,2.268-1.521,3.371-2.048
	c1.107-0.534,2.43-1.016,3.625-1.321c1.148-0.292,2.543-0.503,3.734-0.563c1.188-0.061,2.535,0.005,3.697,0.18
	c1.125,0.167,2.434,0.497,3.504,0.882c1.049,0.375,2.238,0.942,3.186,1.517c0.936,0.566,1.941,1.324,2.766,2.082
	c0.785,0.721,1.619,1.656,2.236,2.515c0.615,0.839,1.221,1.872,1.662,2.839c0.418,0.909,0.807,2.042,1.037,3.032
	c0.23,0.983,0.379,2.112,0.41,3.097c0.029,0.964-0.049,2.098-0.209,3.035c-0.162,0.945-0.447,1.988-0.787,2.861
	c-0.332,0.857-0.807,1.795-1.305,2.576c-0.459,0.726-1.104,1.545-1.721,2.187c-0.631,0.646-1.387,1.289-2.074,1.76
	c-0.705,0.484-1.568,0.959-2.314,1.274c-0.748,0.318-1.658,0.605-2.441,0.763c-0.764,0.158-1.682,0.254-2.455,0.254
	c-0.764,0-1.631-0.086-2.385-0.239c-0.729-0.146-1.551-0.4-2.211-0.685c-0.654-0.274-1.369-0.664-1.953-1.067
	c-0.557-0.386-1.172-0.904-1.637-1.386c-0.459-0.479-0.936-1.09-1.273-1.625c-0.35-0.56-0.678-1.211-0.893-1.778
	c-0.211-0.564-0.389-1.238-0.488-1.846c-0.092-0.583-0.129-1.262-0.104-1.814c0.027-0.557,0.125-1.205,0.256-1.729
	c0.135-0.521,0.35-1.102,0.588-1.576c0.207-0.428,0.518-0.927,0.814-1.314c0.313-0.393,0.709-0.805,1.051-1.096
	c0.346-0.293,0.783-0.59,1.168-0.797s0.846-0.396,1.234-0.508c0.393-0.113,0.865-0.201,1.236-0.229
	c0.365-0.028,0.809-0.016,1.188,0.035c0.816,0.107,1.574-0.47,1.684-1.291c0.109-0.82-0.471-1.574-1.291-1.684
	c-0.58-0.076-1.238-0.096-1.805-0.053c-0.576,0.043-1.25,0.167-1.842,0.338c-0.588,0.169-1.25,0.441-1.822,0.747
	c-0.568,0.305-1.182,0.724-1.691,1.151c-0.492,0.42-1.021,0.972-1.471,1.533c-0.441,0.572-0.863,1.254-1.146,1.844
	c-0.322,0.639-0.613,1.422-0.803,2.156c-0.184,0.721-0.309,1.567-0.346,2.321c-0.037,0.759,0.012,1.644,0.137,2.437
	c0.129,0.799,0.363,1.683,0.643,2.431c0.287,0.752,0.709,1.594,1.162,2.317c0.445,0.709,1.045,1.474,1.648,2.105
	c0.611,0.631,1.373,1.277,2.096,1.775c0.748,0.516,1.658,1.014,2.482,1.361c0.842,0.36,1.861,0.676,2.791,0.862
	c0.939,0.188,2.023,0.299,2.98,0.299c0.979,0,2.098-0.114,3.061-0.313c0.977-0.201,2.074-0.543,3.008-0.939
	c0.932-0.395,1.965-0.963,2.838-1.563c0.846-0.578,1.768-1.359,2.533-2.146c0.768-0.797,1.533-1.77,2.102-2.666
	c0.596-0.936,1.168-2.066,1.566-3.1c0.408-1.051,0.754-2.305,0.947-3.441c0.193-1.138,0.285-2.461,0.25-3.63
	c-0.035-1.175-0.213-2.521-0.486-3.69c-0.279-1.19-0.729-2.504-1.232-3.598c-0.521-1.141-1.236-2.365-1.959-3.352
	c-0.734-1.021-1.697-2.101-2.639-2.961c-0.959-0.883-2.141-1.772-3.236-2.438c-1.125-0.682-2.482-1.329-3.727-1.773
	c-1.262-0.455-2.748-0.83-4.076-1.026c-1.348-0.204-2.916-0.28-4.293-0.208c-1.398,0.07-2.973,0.309-4.322,0.652
	c-1.383,0.354-2.908,0.91-4.182,1.523c-1.287,0.614-2.699,1.473-3.877,2.355c-1.172,0.885-2.408,2.027-3.385,3.127
	c-0.981,1.098-1.99,2.482-2.768,3.807c-0.76,1.305-1.484,2.887-1.988,4.346c-0.5,1.463-0.908,3.186-1.121,4.734
	c-0.203,1.58-0.262,3.378-0.158,4.93c0.1,1.588,0.397,3.397,0.818,4.961c0.426,1.572,1.088,3.313,1.815,4.773
	c0.737,1.486,1.739,3.088,2.749,4.395c1.025,1.324,2.346,2.719,3.625,3.826c1.294,1.121,2.885,2.246,4.367,3.088
	c1.514,0.855,3.322,1.658,4.967,2.203c1.689,0.553,3.65,0.99,5.375,1.197c1.088,0.137,2.287,0.207,3.475,0.207
	c0.723,0,1.438-0.025,2.121-0.078c1.797-0.133,3.834-0.494,5.588-0.988c1.768-0.496,3.723-1.258,5.367-2.096
	c1.666-0.85,3.457-1.998,4.908-3.148c1.486-1.176,3.041-2.676,4.262-4.108c1.229-1.441,2.475-3.238,3.426-4.938
	c0.945-1.707,1.822-3.744,2.404-5.58c0.604-1.867,1.078-4.065,1.299-6.033C68.433,36.109,68.466,33.833,68.298,31.861z"/>
</svg>
