<?xml version="1.0" encoding="iso-8859-1"?>
<!-- Generator: Adobe Illustrator 16.0.0, SVG Export Plug-In . SVG Version: 6.00 Build 0)  -->
<!DOCTYPE svg PUBLIC "-//W3C//DTD SVG 1.1//EN" "http://www.w3.org/Graphics/SVG/1.1/DTD/svg11.dtd">
<svg version="1.1" id="Layer_1" xmlns="http://www.w3.org/2000/svg" xmlns:xlink="http://www.w3.org/1999/xlink" x="0px" y="0px"
	 width="196px" height="156px" viewBox="-20 0 196 156" style="enable-background:new -20 0 196 156;" xml:space="preserve">
<g id="main_x5F_drop_x5F_list_x5F_ic_x5F_rinse_x5F_spin">
	<g>
		<g>
			<g>
				<g>
					
						<line style="fill:none;stroke:#221E1F;stroke-width:5;stroke-linecap:round;stroke-linejoin:round;stroke-miterlimit:10;" x1="-3.826" y1="48.228" x2="8.82" y2="107.747"/>
					
						<line style="fill:none;stroke:#221E1F;stroke-width:5;stroke-linecap:round;stroke-linejoin:round;stroke-miterlimit:10;" x1="76.906" y1="48.228" x2="64.255" y2="107.747"/>
					
						<line style="fill:none;stroke:#221E1F;stroke-width:5;stroke-linecap:round;stroke-linejoin:round;stroke-miterlimit:10;" x1="8.82" y1="107.747" x2="64.211" y2="107.747"/>
				</g>
				
					<line style="fill:none;stroke:#221E1F;stroke-width:5;stroke-linecap:round;stroke-linejoin:round;stroke-miterlimit:10;" x1="4.65" y1="86.488" x2="14.211" y2="86.488"/>
				
					<line style="fill:none;stroke:#221E1F;stroke-width:5;stroke-linecap:round;stroke-linejoin:round;stroke-miterlimit:10;" x1="24.841" y1="86.488" x2="31.223" y2="86.488"/>
				
					<line style="fill:none;stroke:#221E1F;stroke-width:5;stroke-linecap:round;stroke-linejoin:round;stroke-miterlimit:10;" x1="41.848" y1="86.488" x2="48.229" y2="86.488"/>
				
					<line style="fill:none;stroke:#221E1F;stroke-width:5;stroke-linecap:round;stroke-linejoin:round;stroke-miterlimit:10;" x1="58.859" y1="86.488" x2="68.435" y2="86.488"/>
				
					<line style="fill:none;stroke:#221E1F;stroke-width:5;stroke-linecap:round;stroke-linejoin:round;stroke-miterlimit:10;" x1="16.34" y1="97.113" x2="22.722" y2="97.113"/>
				
					<line style="fill:none;stroke:#221E1F;stroke-width:5;stroke-linecap:round;stroke-linejoin:round;stroke-miterlimit:10;" x1="33.347" y1="97.113" x2="39.729" y2="97.113"/>
				
					<line style="fill:none;stroke:#221E1F;stroke-width:5;stroke-linecap:round;stroke-linejoin:round;stroke-miterlimit:10;" x1="50.358" y1="97.113" x2="56.745" y2="97.113"/>
			</g>
			<g>
				<path style="fill:none;stroke:#221E1F;stroke-width:5;stroke-linecap:round;stroke-linejoin:round;stroke-miterlimit:10;" d="
					M36.535,69.458c-7.974,5.605-13.291,6.373-18.608,6.373c-6.304,0-12.354-2.471-17.754-8.561"/>
				<path style="fill:none;stroke:#221E1F;stroke-width:5;stroke-linecap:round;stroke-linejoin:round;stroke-miterlimit:10;" d="
					M72.111,70.796c-5.195-5.469-10.967-7.709-16.973-7.709c-5.313,0-10.63,0.766-18.604,6.377"/>
			</g>
		</g>
		<g>
			<path style="fill:none;stroke:#221E1F;stroke-width:5;stroke-linecap:round;stroke-linejoin:round;stroke-miterlimit:10;" d="
				M117.818,64.129c-0.629-0.085-1.366-0.107-2.006-0.062c-0.662,0.049-1.422,0.195-2.065,0.381
				c-0.679,0.195-1.427,0.508-2.046,0.843c-0.649,0.349-1.354,0.827-1.916,1.304c-0.592,0.5-1.207,1.15-1.684,1.75
				c-0.494,0.641-0.985,1.426-1.334,2.148c-0.379,0.758-0.707,1.666-0.916,2.48c-0.218,0.85-0.369,1.842-0.41,2.721
				c-0.045,0.908,0.02,1.947,0.16,2.846c0.149,0.935,0.426,1.979,0.76,2.867c0.345,0.911,0.85,1.915,1.373,2.747
				c0.537,0.854,1.262,1.771,1.959,2.5c0.729,0.753,1.647,1.533,2.511,2.128c0.889,0.612,1.979,1.211,2.976,1.629
				c1.023,0.438,2.254,0.813,3.35,1.034c1.13,0.232,2.439,0.361,3.595,0.361c1.183,0,2.545-0.143,3.701-0.379
				c1.194-0.246,2.532-0.666,3.655-1.145c1.151-0.488,2.416-1.191,3.449-1.896c1.063-0.729,2.188-1.693,3.086-2.621
				c0.92-0.949,1.865-2.147,2.57-3.262c0.73-1.145,1.436-2.539,1.922-3.803c0.508-1.305,0.928-2.848,1.162-4.222
				c0.238-1.403,0.354-3.044,0.311-4.47c-0.047-1.465-0.27-3.131-0.602-4.551c-0.342-1.455-0.898-3.089-1.523-4.449
				c-0.635-1.391-1.524-2.912-2.432-4.154c-0.912-1.268-2.117-2.61-3.267-3.668c-1.183-1.086-2.651-2.194-4.023-3.024
				c-1.392-0.845-3.096-1.655-4.634-2.21c-1.572-0.566-3.439-1.035-5.086-1.279c-1.684-0.254-3.646-0.346-5.354-0.258
				c-1.733,0.088-3.717,0.385-5.4,0.814c-1.721,0.439-3.639,1.139-5.239,1.91c-1.628,0.775-3.407,1.865-4.854,2.951
				c-1.469,1.108-3.029,2.547-4.252,3.931c-1.256,1.399-2.521,3.151-3.473,4.775c-0.962,1.65-1.878,3.649-2.503,5.462
				c-0.629,1.843-1.146,4.027-1.405,5.957c-0.256,1.963-0.336,4.248-0.205,6.228c0.129,2.015,0.514,4.304,1.037,6.255
				c0.532,1.98,1.373,4.188,2.289,6.027c0.928,1.867,2.203,3.905,3.479,5.557c1.299,1.68,2.982,3.453,4.585,4.844
				c1.631,1.406,3.659,2.848,5.53,3.912c1.91,1.081,4.219,2.104,6.301,2.793c2.113,0.695,4.613,1.254,6.824,1.525
				c2.242,0.274,4.846,0.332,7.104,0.158c2.288-0.17,4.893-0.636,7.104-1.254c2.242-0.632,4.74-1.607,6.826-2.666
				c2.104-1.074,4.396-2.543,6.25-4.011c1.887-1.494,3.877-3.412,5.435-5.237c1.577-1.855,3.172-4.16,4.356-6.289
				c1.199-2.162,2.324-4.773,3.079-7.129c0.767-2.384,1.37-5.206,1.65-7.696c0.288-2.522,0.327-5.449,0.112-7.979
				c-0.217-2.564-0.763-5.479-1.476-7.952"/>
		</g>
	</g>
</g>
<g id="Layer_1_1_">
</g>
</svg>
