<?xml version="1.0" encoding="utf-8"?>
<!-- Generator: Adobe Illustrator 16.0.0, SVG Export Plug-In . SVG Version: 6.00 Build 0)  -->
<!DOCTYPE svg PUBLIC "-//W3C//DTD SVG 1.1//EN" "http://www.w3.org/Graphics/SVG/1.1/DTD/svg11.dtd">
<svg version="1.1" id="Layer_1" xmlns="http://www.w3.org/2000/svg" xmlns:xlink="http://www.w3.org/1999/xlink" x="0px" y="0px"
	 width="160px" height="160px" viewBox="0 0 160 160" enable-background="new 0 0 160 160" xml:space="preserve">
<g>
	<g>
		<path d="M100,71h18V53h-6v7.557c-6.751-10.549-18.547-17.558-32-17.558c-20.987,0-38,17.014-38,38c0,20.987,17.013,38,38,38
			c17.875,0,32.86-12.346,36.913-28.975l-5.863-1.274C107.584,102.677,95,112.999,80,112.999c-17.674,0-32-14.326-32-32
			c0-17.673,14.326-32,32-32c11.841,0,22.168,6.439,27.702,16H100V71z M112,64.933V65h-0.125L112,64.933z M71,81.5
			c0,5.247,4.253,9.5,9.5,9.5c5.246,0,9.5-4.253,9.5-9.5c0-5.247-4.254-9.5-9.5-9.5C75.253,72,71,76.252,71,81.5z M84,81.5
			c0,1.933-1.567,3.5-3.5,3.5c-1.934,0-3.5-1.566-3.5-3.5s1.566-3.5,3.5-3.5C82.433,78,84,79.566,84,81.5z"/>
	</g>
</g>
</svg>
