<?xml version="1.0" encoding="utf-8"?>
<!-- Generator: Adobe Illustrator 16.0.0, SVG Export Plug-In . SVG Version: 6.00 Build 0)  -->
<!DOCTYPE svg PUBLIC "-//W3C//DTD SVG 1.1//EN" "http://www.w3.org/Graphics/SVG/1.1/DTD/svg11.dtd">
<svg version="1.1" id="Layer_1" xmlns="http://www.w3.org/2000/svg" xmlns:xlink="http://www.w3.org/1999/xlink" x="0px" y="0px"
	 width="96px" height="96px" viewBox="0 0 96 96" enable-background="new 0 0 96 96" xml:space="preserve">
<g>
	<g>
		<path d="M47.999,0.997C22.041,0.997,0.997,22.041,0.997,48c0,25.958,21.044,47.002,47.002,47.002
			c25.96,0,47.004-21.044,47.004-47.002C95.003,22.041,73.959,0.997,47.999,0.997z M47.999,90.009
			C24.836,90.009,5.992,71.163,5.992,48c0-23.163,18.844-42.009,42.007-42.009c23.164,0,42.009,18.846,42.009,42.009
			C90.008,71.163,71.163,90.009,47.999,90.009z M47.485,65.016c-1.377,0-2.47,0.42-3.279,1.259c-0.808,0.839-1.212,1.937-1.212,3.29
			c0,1.265,0.388,2.321,1.163,3.172c0.776,0.851,1.886,1.275,3.328,1.275s2.557-0.425,3.344-1.275s1.181-1.907,1.181-3.172
			c0-1.309-0.404-2.394-1.213-3.256C49.987,65.447,48.884,65.016,47.485,65.016z M59.13,25.448c-2.63-2.385-6.432-4.446-11.13-4.446
			c-4.558,0-8.083,2.073-10.854,4.48c-2.77,2.408-4.1,5.382-4.146,9.52h8c0-1.939,1.055-3.179,2.282-4.313
			c1.228-1.134,2.708-1.688,4.718-1.688c2.104,0,3.837,0.565,4.924,1.723C54.011,31.881,55,32.805,55,35.002
			c0,1.66-0.914,3.956-1.848,5.381c-0.608,0.935-2.052,2.507-4.33,4.716c-2.279,2.209-3.805,4.236-4.576,6.084
			C43.475,53.029,43,55.894,43,59.002h8c0.047-3.365,0.89-6.313,2.433-8.064l4.313-4.243C61.298,43.002,63,38.813,63,35.002
			C63,30.725,61.76,27.832,59.13,25.448z"/>
	</g>
</g>
</svg>
