<?xml version="1.0" encoding="iso-8859-1"?>
<!-- Generator: Adobe Illustrator 16.0.0, SVG Export Plug-In . SVG Version: 6.00 Build 0)  -->
<!DOCTYPE svg PUBLIC "-//W3C//DTD SVG 1.1//EN" "http://www.w3.org/Graphics/SVG/1.1/DTD/svg11.dtd">
<svg version="1.1" id="Layer_1" xmlns="http://www.w3.org/2000/svg" xmlns:xlink="http://www.w3.org/1999/xlink" x="0px" y="0px"
	 width="96px" height="96px" viewBox="0 0 96 96" style="enable-background:new 0 0 96 96;" xml:space="preserve">
<path d="M81.494,75.297L61.193,54.993c3.119-4.423,4.713-9.61,4.709-14.787c0.004-6.565-2.52-13.17-7.528-18.177
	c-5.01-5.009-11.614-7.532-18.177-7.53c-6.563-0.002-13.168,2.521-18.177,7.53c-5.013,5.007-7.536,11.612-7.53,18.177
	c-0.005,6.563,2.518,13.168,7.53,18.179c5.002,5.006,11.604,7.531,18.168,7.526h0.024c5.169,0,10.353-1.594,14.773-4.709
	L75.287,81.5L81.494,75.297z M40.188,57.138c-4.345-0.005-8.646-1.646-11.96-4.96c-3.317-3.317-4.956-7.625-4.958-11.971
	c0.003-4.349,1.642-8.655,4.955-11.97c3.322-3.317,7.626-4.957,11.973-4.96c4.347,0.003,8.652,1.643,11.972,4.96
	c3.313,3.315,4.95,7.621,4.956,11.97c-0.006,4.347-1.646,8.655-4.956,11.971C48.849,55.491,44.538,57.133,40.188,57.138z"/>
</svg>
